# Original material mesh. Generated by tools/stellar_materials.py.
mtllib stellar_material.mtl
usemtl energy
v 0.2500000 0.2500000 0.7500000
vt 0 0
v 0.2500000 0.7500000 0.7500000
vt 1 0
v 0.2500000 0.7500000 0.2500000
vt 1 1
v 0.2500000 0.2500000 0.2500000
vt 0 1
f 1/1 2/2 3/3 4/4
usemtl energy
v 0.7500000 0.2500000 0.2500000
vt 0 0
v 0.7500000 0.7500000 0.2500000
vt 1 0
v 0.7500000 0.7500000 0.7500000
vt 1 1
v 0.7500000 0.2500000 0.7500000
vt 0 1
f 5/5 6/6 7/7 8/8
usemtl energy
v 0.2500000 0.2500000 0.2500000
vt 0 0
v 0.7500000 0.2500000 0.2500000
vt 1 0
v 0.7500000 0.2500000 0.7500000
vt 1 1
v 0.2500000 0.2500000 0.7500000
vt 0 1
f 9/9 10/10 11/11 12/12
usemtl energy
v 0.2500000 0.7500000 0.7500000
vt 0 0
v 0.7500000 0.7500000 0.7500000
vt 1 0
v 0.7500000 0.7500000 0.2500000
vt 1 1
v 0.2500000 0.7500000 0.2500000
vt 0 1
f 13/13 14/14 15/15 16/16
usemtl energy
v 0.2500000 0.7500000 0.2500000
vt 0 0
v 0.7500000 0.7500000 0.2500000
vt 1 0
v 0.7500000 0.2500000 0.2500000
vt 1 1
v 0.2500000 0.2500000 0.2500000
vt 0 1
f 17/17 18/18 19/19 20/20
usemtl energy
v 0.2500000 0.2500000 0.7500000
vt 0 0
v 0.7500000 0.2500000 0.7500000
vt 1 0
v 0.7500000 0.7500000 0.7500000
vt 1 1
v 0.2500000 0.7500000 0.7500000
vt 0 1
f 21/21 22/22 23/23 24/24
usemtl steel
v 0.1875000 0.3437500 0.2812500
vt 0 0.375
v 0.1875000 0.6562500 0.2812500
vt 1 0.375
v 0.1875000 0.6562500 0.1875000
vt 1 0.625
v 0.1875000 0.3437500 0.1875000
vt 0 0.625
f 25/25 26/26 27/27 28/28
usemtl steel
v 0.2812500 0.3437500 0.1875000
vt 0 0.375
v 0.2812500 0.6562500 0.1875000
vt 1 0.375
v 0.2812500 0.6562500 0.2812500
vt 1 0.625
v 0.2812500 0.3437500 0.2812500
vt 0 0.625
f 29/29 30/30 31/31 32/32
usemtl steel
v 0.1875000 0.3437500 0.1875000
vt 0 0.375
v 0.2812500 0.3437500 0.1875000
vt 1 0.375
v 0.2812500 0.3437500 0.2812500
vt 1 0.625
v 0.1875000 0.3437500 0.2812500
vt 0 0.625
f 33/33 34/34 35/35 36/36
usemtl steel
v 0.1875000 0.6562500 0.2812500
vt 0 0.375
v 0.2812500 0.6562500 0.2812500
vt 1 0.375
v 0.2812500 0.6562500 0.1875000
vt 1 0.625
v 0.1875000 0.6562500 0.1875000
vt 0 0.625
f 37/37 38/38 39/39 40/40
usemtl steel
v 0.1875000 0.6562500 0.1875000
vt 0 0.375
v 0.2812500 0.6562500 0.1875000
vt 1 0.375
v 0.2812500 0.3437500 0.1875000
vt 1 0.625
v 0.1875000 0.3437500 0.1875000
vt 0 0.625
f 41/41 42/42 43/43 44/44
usemtl steel
v 0.1875000 0.3437500 0.2812500
vt 0 0.375
v 0.2812500 0.3437500 0.2812500
vt 1 0.375
v 0.2812500 0.6562500 0.2812500
vt 1 0.625
v 0.1875000 0.6562500 0.2812500
vt 0 0.625
f 45/45 46/46 47/47 48/48
usemtl steel
v 0.7187500 0.3437500 0.2812500
vt 0 0.375
v 0.7187500 0.6562500 0.2812500
vt 1 0.375
v 0.7187500 0.6562500 0.1875000
vt 1 0.625
v 0.7187500 0.3437500 0.1875000
vt 0 0.625
f 49/49 50/50 51/51 52/52
usemtl steel
v 0.8125000 0.3437500 0.1875000
vt 0 0.375
v 0.8125000 0.6562500 0.1875000
vt 1 0.375
v 0.8125000 0.6562500 0.2812500
vt 1 0.625
v 0.8125000 0.3437500 0.2812500
vt 0 0.625
f 53/53 54/54 55/55 56/56
usemtl steel
v 0.7187500 0.3437500 0.1875000
vt 0 0.375
v 0.8125000 0.3437500 0.1875000
vt 1 0.375
v 0.8125000 0.3437500 0.2812500
vt 1 0.625
v 0.7187500 0.3437500 0.2812500
vt 0 0.625
f 57/57 58/58 59/59 60/60
usemtl steel
v 0.7187500 0.6562500 0.2812500
vt 0 0.375
v 0.8125000 0.6562500 0.2812500
vt 1 0.375
v 0.8125000 0.6562500 0.1875000
vt 1 0.625
v 0.7187500 0.6562500 0.1875000
vt 0 0.625
f 61/61 62/62 63/63 64/64
usemtl steel
v 0.7187500 0.6562500 0.1875000
vt 0 0.375
v 0.8125000 0.6562500 0.1875000
vt 1 0.375
v 0.8125000 0.3437500 0.1875000
vt 1 0.625
v 0.7187500 0.3437500 0.1875000
vt 0 0.625
f 65/65 66/66 67/67 68/68
usemtl steel
v 0.7187500 0.3437500 0.2812500
vt 0 0.375
v 0.8125000 0.3437500 0.2812500
vt 1 0.375
v 0.8125000 0.6562500 0.2812500
vt 1 0.625
v 0.7187500 0.6562500 0.2812500
vt 0 0.625
f 69/69 70/70 71/71 72/72
usemtl steel
v 0.1875000 0.3437500 0.8125000
vt 0 0.375
v 0.1875000 0.6562500 0.8125000
vt 1 0.375
v 0.1875000 0.6562500 0.7187500
vt 1 0.625
v 0.1875000 0.3437500 0.7187500
vt 0 0.625
f 73/73 74/74 75/75 76/76
usemtl steel
v 0.2812500 0.3437500 0.7187500
vt 0 0.375
v 0.2812500 0.6562500 0.7187500
vt 1 0.375
v 0.2812500 0.6562500 0.8125000
vt 1 0.625
v 0.2812500 0.3437500 0.8125000
vt 0 0.625
f 77/77 78/78 79/79 80/80
usemtl steel
v 0.1875000 0.3437500 0.7187500
vt 0 0.375
v 0.2812500 0.3437500 0.7187500
vt 1 0.375
v 0.2812500 0.3437500 0.8125000
vt 1 0.625
v 0.1875000 0.3437500 0.8125000
vt 0 0.625
f 81/81 82/82 83/83 84/84
usemtl steel
v 0.1875000 0.6562500 0.8125000
vt 0 0.375
v 0.2812500 0.6562500 0.8125000
vt 1 0.375
v 0.2812500 0.6562500 0.7187500
vt 1 0.625
v 0.1875000 0.6562500 0.7187500
vt 0 0.625
f 85/85 86/86 87/87 88/88
usemtl steel
v 0.1875000 0.6562500 0.7187500
vt 0 0.375
v 0.2812500 0.6562500 0.7187500
vt 1 0.375
v 0.2812500 0.3437500 0.7187500
vt 1 0.625
v 0.1875000 0.3437500 0.7187500
vt 0 0.625
f 89/89 90/90 91/91 92/92
usemtl steel
v 0.1875000 0.3437500 0.8125000
vt 0 0.375
v 0.2812500 0.3437500 0.8125000
vt 1 0.375
v 0.2812500 0.6562500 0.8125000
vt 1 0.625
v 0.1875000 0.6562500 0.8125000
vt 0 0.625
f 93/93 94/94 95/95 96/96
usemtl steel
v 0.7187500 0.3437500 0.8125000
vt 0 0.375
v 0.7187500 0.6562500 0.8125000
vt 1 0.375
v 0.7187500 0.6562500 0.7187500
vt 1 0.625
v 0.7187500 0.3437500 0.7187500
vt 0 0.625
f 97/97 98/98 99/99 100/100
usemtl steel
v 0.8125000 0.3437500 0.7187500
vt 0 0.375
v 0.8125000 0.6562500 0.7187500
vt 1 0.375
v 0.8125000 0.6562500 0.8125000
vt 1 0.625
v 0.8125000 0.3437500 0.8125000
vt 0 0.625
f 101/101 102/102 103/103 104/104
usemtl steel
v 0.7187500 0.3437500 0.7187500
vt 0 0.375
v 0.8125000 0.3437500 0.7187500
vt 1 0.375
v 0.8125000 0.3437500 0.8125000
vt 1 0.625
v 0.7187500 0.3437500 0.8125000
vt 0 0.625
f 105/105 106/106 107/107 108/108
usemtl steel
v 0.7187500 0.6562500 0.8125000
vt 0 0.375
v 0.8125000 0.6562500 0.8125000
vt 1 0.375
v 0.8125000 0.6562500 0.7187500
vt 1 0.625
v 0.7187500 0.6562500 0.7187500
vt 0 0.625
f 109/109 110/110 111/111 112/112
usemtl steel
v 0.7187500 0.6562500 0.7187500
vt 0 0.375
v 0.8125000 0.6562500 0.7187500
vt 1 0.375
v 0.8125000 0.3437500 0.7187500
vt 1 0.625
v 0.7187500 0.3437500 0.7187500
vt 0 0.625
f 113/113 114/114 115/115 116/116
usemtl steel
v 0.7187500 0.3437500 0.8125000
vt 0 0.375
v 0.8125000 0.3437500 0.8125000
vt 1 0.375
v 0.8125000 0.6562500 0.8125000
vt 1 0.625
v 0.7187500 0.6562500 0.8125000
vt 0 0.625
f 117/117 118/118 119/119 120/120
