# Original MekGravity open flare restraint; generated by tools/flare_cell_mesh.py.
mtllib flare_cell.mtl
usemtl steel
v 0.8722634 0.3532637 0.5226577
vt 0.0000000 0.6250000
v 0.8498459 0.6342170 0.6421922
vt 1.0000000 0.6250000
v 0.8167091 0.6207034 0.6309858
vt 1.0000000 0.3750000
v 0.8370250 0.3660894 0.5226577
vt 0.0000000 0.3750000
f 1/1 2/2 3/3 4/4
usemtl steel
v 0.8442522 0.3859460 0.4773423
vt 0.0000000 0.3750000
v 0.8239363 0.6405600 0.5856704
vt 1.0000000 0.3750000
v 0.8570731 0.6540736 0.5968768
vt 1.0000000 0.6250000
v 0.8794906 0.3731202 0.4773423
vt 0.0000000 0.6250000
f 5/5 6/6 7/7 8/8
usemtl dark
v 0.8370250 0.3660894 0.5226577
vt 0.0000000 0.6250000
v 0.8167091 0.6207034 0.6309858
vt 1.0000000 0.6250000
v 0.8239363 0.6405600 0.5856704
vt 1.0000000 0.3750000
v 0.8442522 0.3859460 0.4773423
vt 0.0000000 0.3750000
f 9/9 10/10 11/11 12/12
usemtl steel
v 0.8794906 0.3731202 0.4773423
vt 0.0000000 0.3750000
v 0.8570731 0.6540736 0.5968768
vt 1.0000000 0.3750000
v 0.8498459 0.6342170 0.6421922
vt 1.0000000 0.6250000
v 0.8722634 0.3532637 0.5226577
vt 0.0000000 0.6250000
f 13/13 14/14 15/15 16/16
usemtl steel
v 0.8498459 0.6342170 0.6421922
vt 0.0000000 0.6250000
v 0.6203766 0.8307320 0.6917050
vt 1.0000000 0.6250000
v 0.6087525 0.7987951 0.6758568
vt 1.0000000 0.3750000
v 0.8167091 0.6207034 0.6309858
vt 0.0000000 0.3750000
f 17/17 18/18 19/19 20/20
usemtl steel
v 0.8239363 0.6405600 0.5856704
vt 0.0000000 0.3750000
v 0.6159797 0.8186517 0.6305414
vt 1.0000000 0.3750000
v 0.6276038 0.8505886 0.6463896
vt 1.0000000 0.6250000
v 0.8570731 0.6540736 0.5968768
vt 0.0000000 0.6250000
f 21/21 22/22 23/23 24/24
usemtl dark
v 0.8167091 0.6207034 0.6309858
vt 0.0000000 0.6250000
v 0.6087525 0.7987951 0.6758568
vt 1.0000000 0.6250000
v 0.6159797 0.8186517 0.6305414
vt 1.0000000 0.3750000
v 0.8239363 0.6405600 0.5856704
vt 0.0000000 0.3750000
f 25/25 26/26 27/27 28/28
usemtl steel
v 0.8570731 0.6540736 0.5968768
vt 0.0000000 0.3750000
v 0.6276038 0.8505886 0.6463896
vt 1.0000000 0.3750000
v 0.6203766 0.8307320 0.6917050
vt 1.0000000 0.6250000
v 0.8498459 0.6342170 0.6421922
vt 0.0000000 0.6250000
f 29/29 30/30 31/31 32/32
usemtl steel
v 0.6203766 0.8307320 0.6917050
vt 0.0000000 0.6250000
v 0.3182755 0.8276928 0.6421922
vt 1.0000000 0.6250000
v 0.3349734 0.7960408 0.6309858
vt 1.0000000 0.3750000
v 0.6087525 0.7987951 0.6758568
vt 0.0000000 0.3750000
f 33/33 34/34 35/35 36/36
usemtl steel
v 0.6159797 0.8186517 0.6305414
vt 0.0000000 0.3750000
v 0.3422006 0.8158974 0.5856704
vt 1.0000000 0.3750000
v 0.3255027 0.8475494 0.5968768
vt 1.0000000 0.6250000
v 0.6276038 0.8505886 0.6463896
vt 0.0000000 0.6250000
f 37/37 38/38 39/39 40/40
usemtl dark
v 0.6087525 0.7987951 0.6758568
vt 0.0000000 0.6250000
v 0.3349734 0.7960408 0.6309858
vt 1.0000000 0.6250000
v 0.3422006 0.8158974 0.5856704
vt 1.0000000 0.3750000
v 0.6159797 0.8186517 0.6305414
vt 0.0000000 0.3750000
f 41/41 42/42 43/43 44/44
usemtl steel
v 0.6276038 0.8505886 0.6463896
vt 0.0000000 0.3750000
v 0.3255027 0.8475494 0.5968768
vt 1.0000000 0.3750000
v 0.3182755 0.8276928 0.6421922
vt 1.0000000 0.6250000
v 0.6203766 0.8307320 0.6917050
vt 0.0000000 0.6250000
f 45/45 46/46 47/47 48/48
usemtl steel
v 0.3182755 0.8276928 0.6421922
vt 0.0000000 0.6250000
v 0.1205094 0.6268798 0.5226577
vt 1.0000000 0.6250000
v 0.1557478 0.6140540 0.5226577
vt 1.0000000 0.3750000
v 0.3349734 0.7960408 0.6309858
vt 0.0000000 0.3750000
f 49/49 50/50 51/51 52/52
usemtl steel
v 0.3422006 0.8158974 0.5856704
vt 0.0000000 0.3750000
v 0.1629750 0.6339106 0.4773423
vt 1.0000000 0.3750000
v 0.1277366 0.6467363 0.4773423
vt 1.0000000 0.6250000
v 0.3255027 0.8475494 0.5968768
vt 0.0000000 0.6250000
f 53/53 54/54 55/55 56/56
usemtl dark
v 0.3349734 0.7960408 0.6309858
vt 0.0000000 0.6250000
v 0.1557478 0.6140540 0.5226577
vt 1.0000000 0.6250000
v 0.1629750 0.6339106 0.4773423
vt 1.0000000 0.3750000
v 0.3422006 0.8158974 0.5856704
vt 0.0000000 0.3750000
f 57/57 58/58 59/59 60/60
usemtl steel
v 0.3255027 0.8475494 0.5968768
vt 0.0000000 0.3750000
v 0.1277366 0.6467363 0.4773423
vt 1.0000000 0.3750000
v 0.1205094 0.6268798 0.5226577
vt 1.0000000 0.6250000
v 0.3182755 0.8276928 0.6421922
vt 0.0000000 0.6250000
f 61/61 62/62 63/63 64/64
usemtl steel
v 0.1205094 0.6268798 0.5226577
vt 0.0000000 0.6250000
v 0.1429269 0.3459264 0.4031232
vt 1.0000000 0.6250000
v 0.1760637 0.3594400 0.4143296
vt 1.0000000 0.3750000
v 0.1557478 0.6140540 0.5226577
vt 0.0000000 0.3750000
f 65/65 66/66 67/67 68/68
usemtl steel
v 0.1629750 0.6339106 0.4773423
vt 0.0000000 0.3750000
v 0.1832909 0.3792966 0.3690142
vt 1.0000000 0.3750000
v 0.1501541 0.3657830 0.3578078
vt 1.0000000 0.6250000
v 0.1277366 0.6467363 0.4773423
vt 0.0000000 0.6250000
f 69/69 70/70 71/71 72/72
usemtl dark
v 0.1557478 0.6140540 0.5226577
vt 0.0000000 0.6250000
v 0.1760637 0.3594400 0.4143296
vt 1.0000000 0.6250000
v 0.1832909 0.3792966 0.3690142
vt 1.0000000 0.3750000
v 0.1629750 0.6339106 0.4773423
vt 0.0000000 0.3750000
f 73/73 74/74 75/75 76/76
usemtl steel
v 0.1277366 0.6467363 0.4773423
vt 0.0000000 0.3750000
v 0.1501541 0.3657830 0.3578078
vt 1.0000000 0.3750000
v 0.1429269 0.3459264 0.4031232
vt 1.0000000 0.6250000
v 0.1205094 0.6268798 0.5226577
vt 0.0000000 0.6250000
f 77/77 78/78 79/79 80/80
usemtl steel
v 0.1429269 0.3459264 0.4031232
vt 0.0000000 0.6250000
v 0.3723962 0.1494114 0.3536104
vt 1.0000000 0.6250000
v 0.3840203 0.1813483 0.3694586
vt 1.0000000 0.3750000
v 0.1760637 0.3594400 0.4143296
vt 0.0000000 0.3750000
f 81/81 82/82 83/83 84/84
usemtl steel
v 0.1832909 0.3792966 0.3690142
vt 0.0000000 0.3750000
v 0.3912475 0.2012049 0.3241432
vt 1.0000000 0.3750000
v 0.3796234 0.1692680 0.3082950
vt 1.0000000 0.6250000
v 0.1501541 0.3657830 0.3578078
vt 0.0000000 0.6250000
f 85/85 86/86 87/87 88/88
usemtl dark
v 0.1760637 0.3594400 0.4143296
vt 0.0000000 0.6250000
v 0.3840203 0.1813483 0.3694586
vt 1.0000000 0.6250000
v 0.3912475 0.2012049 0.3241432
vt 1.0000000 0.3750000
v 0.1832909 0.3792966 0.3690142
vt 0.0000000 0.3750000
f 89/89 90/90 91/91 92/92
usemtl steel
v 0.1501541 0.3657830 0.3578078
vt 0.0000000 0.3750000
v 0.3796234 0.1692680 0.3082950
vt 1.0000000 0.3750000
v 0.3723962 0.1494114 0.3536104
vt 1.0000000 0.6250000
v 0.1429269 0.3459264 0.4031232
vt 0.0000000 0.6250000
f 93/93 94/94 95/95 96/96
usemtl steel
v 0.3723962 0.1494114 0.3536104
vt 0.0000000 0.6250000
v 0.6744973 0.1524506 0.4031232
vt 1.0000000 0.6250000
v 0.6577994 0.1841026 0.4143296
vt 1.0000000 0.3750000
v 0.3840203 0.1813483 0.3694586
vt 0.0000000 0.3750000
f 97/97 98/98 99/99 100/100
usemtl steel
v 0.3912475 0.2012049 0.3241432
vt 0.0000000 0.3750000
v 0.6650266 0.2039592 0.3690142
vt 1.0000000 0.3750000
v 0.6817245 0.1723072 0.3578078
vt 1.0000000 0.6250000
v 0.3796234 0.1692680 0.3082950
vt 0.0000000 0.6250000
f 101/101 102/102 103/103 104/104
usemtl dark
v 0.3840203 0.1813483 0.3694586
vt 0.0000000 0.6250000
v 0.6577994 0.1841026 0.4143296
vt 1.0000000 0.6250000
v 0.6650266 0.2039592 0.3690142
vt 1.0000000 0.3750000
v 0.3912475 0.2012049 0.3241432
vt 0.0000000 0.3750000
f 105/105 106/106 107/107 108/108
usemtl steel
v 0.3796234 0.1692680 0.3082950
vt 0.0000000 0.3750000
v 0.6817245 0.1723072 0.3578078
vt 1.0000000 0.3750000
v 0.6744973 0.1524506 0.4031232
vt 1.0000000 0.6250000
v 0.3723962 0.1494114 0.3536104
vt 0.0000000 0.6250000
f 109/109 110/110 111/111 112/112
usemtl steel
v 0.6744973 0.1524506 0.4031232
vt 0.0000000 0.6250000
v 0.8722634 0.3532637 0.5226577
vt 1.0000000 0.6250000
v 0.8370250 0.3660894 0.5226577
vt 1.0000000 0.3750000
v 0.6577994 0.1841026 0.4143296
vt 0.0000000 0.3750000
f 113/113 114/114 115/115 116/116
usemtl steel
v 0.6650266 0.2039592 0.3690142
vt 0.0000000 0.3750000
v 0.8442522 0.3859460 0.4773423
vt 1.0000000 0.3750000
v 0.8794906 0.3731202 0.4773423
vt 1.0000000 0.6250000
v 0.6817245 0.1723072 0.3578078
vt 0.0000000 0.6250000
f 117/117 118/118 119/119 120/120
usemtl dark
v 0.6577994 0.1841026 0.4143296
vt 0.0000000 0.6250000
v 0.8370250 0.3660894 0.5226577
vt 1.0000000 0.6250000
v 0.8442522 0.3859460 0.4773423
vt 1.0000000 0.3750000
v 0.6650266 0.2039592 0.3690142
vt 0.0000000 0.3750000
f 121/121 122/122 123/123 124/124
usemtl steel
v 0.6817245 0.1723072 0.3578078
vt 0.0000000 0.3750000
v 0.8794906 0.3731202 0.4773423
vt 1.0000000 0.3750000
v 0.8722634 0.3532637 0.5226577
vt 1.0000000 0.6250000
v 0.6744973 0.1524506 0.4031232
vt 0.0000000 0.6250000
f 125/125 126/126 127/127 128/128
usemtl steel
v 0.0491783 0.5588158 0.5124892
vt 0.0000000 0.6250000
v 0.1014867 0.7025319 0.5838060
vt 1.0000000 0.6250000
v 0.1168445 0.7447271 0.4875108
vt 1.0000000 0.3750000
v 0.0645361 0.6010110 0.4161940
vt 0.0000000 0.3750000
f 129/129 130/130 131/131 132/132
usemtl dark
v 0.1467592 0.5710842 0.4161940
vt 0.0000000 0.3750000
v 0.1990676 0.7148003 0.4875108
vt 1.0000000 0.3750000
v 0.1837098 0.6726051 0.5838060
vt 1.0000000 0.6250000
v 0.1314014 0.5288890 0.5124892
vt 0.0000000 0.6250000
f 133/133 134/134 135/135 136/136
usemtl dark
v 0.0645361 0.6010110 0.4161940
vt 0.0000000 0.3750000
v 0.1467592 0.5710842 0.4161940
vt 1.0000000 0.3750000
v 0.1314014 0.5288890 0.5124892
vt 1.0000000 0.6250000
v 0.0491783 0.5588158 0.5124892
vt 0.0000000 0.6250000
f 137/137 138/138 139/139 140/140
usemtl steel
v 0.1014867 0.7025319 0.5838060
vt 0.0000000 0.6250000
v 0.1837098 0.6726051 0.5838060
vt 1.0000000 0.6250000
v 0.1990676 0.7148003 0.4875108
vt 1.0000000 0.3750000
v 0.1168445 0.7447271 0.4875108
vt 0.0000000 0.3750000
f 141/141 142/142 143/143 144/144
usemtl steel
v 0.1168445 0.7447271 0.4875108
vt 0.0000000 0.6250000
v 0.1990676 0.7148003 0.4875108
vt 1.0000000 0.6250000
v 0.1467592 0.5710842 0.4161940
vt 1.0000000 0.3750000
v 0.0645361 0.6010110 0.4161940
vt 0.0000000 0.3750000
f 145/145 146/146 147/147 148/148
usemtl steel
v 0.0491783 0.5588158 0.5124892
vt 0.0000000 0.3750000
v 0.1314014 0.5288890 0.5124892
vt 1.0000000 0.3750000
v 0.1837098 0.6726051 0.5838060
vt 1.0000000 0.6250000
v 0.1014867 0.7025319 0.5838060
vt 0.0000000 0.6250000
f 149/149 150/150 151/151 152/152
usemtl lamp
v 0.0675025 0.6128158 0.5011451
vt 0.4375000 0.5000000
v 0.0907507 0.6766897 0.5328415
vt 0.5000000 0.5000000
v 0.0961711 0.6915821 0.4988549
vt 0.5000000 0.4375000
v 0.0729229 0.6277083 0.4671585
vt 0.4375000 0.4375000
f 153/153 154/154 155/155 156/156
usemtl dark
v 0.8009324 0.2851997 0.5124892
vt 0.0000000 0.6250000
v 0.8532408 0.4289158 0.5838060
vt 1.0000000 0.6250000
v 0.8685986 0.4711110 0.4875108
vt 1.0000000 0.3750000
v 0.8162902 0.3273949 0.4161940
vt 0.0000000 0.3750000
f 157/157 158/158 159/159 160/160
usemtl steel
v 0.8985133 0.2974681 0.4161940
vt 0.0000000 0.3750000
v 0.9508217 0.4411842 0.4875108
vt 1.0000000 0.3750000
v 0.9354639 0.3989890 0.5838060
vt 1.0000000 0.6250000
v 0.8831555 0.2552729 0.5124892
vt 0.0000000 0.6250000
f 161/161 162/162 163/163 164/164
usemtl dark
v 0.8162902 0.3273949 0.4161940
vt 0.0000000 0.3750000
v 0.8985133 0.2974681 0.4161940
vt 1.0000000 0.3750000
v 0.8831555 0.2552729 0.5124892
vt 1.0000000 0.6250000
v 0.8009324 0.2851997 0.5124892
vt 0.0000000 0.6250000
f 165/165 166/166 167/167 168/168
usemtl steel
v 0.8532408 0.4289158 0.5838060
vt 0.0000000 0.6250000
v 0.9354639 0.3989890 0.5838060
vt 1.0000000 0.6250000
v 0.9508217 0.4411842 0.4875108
vt 1.0000000 0.3750000
v 0.8685986 0.4711110 0.4875108
vt 0.0000000 0.3750000
f 169/169 170/170 171/171 172/172
usemtl steel
v 0.8685986 0.4711110 0.4875108
vt 0.0000000 0.6250000
v 0.9508217 0.4411842 0.4875108
vt 1.0000000 0.6250000
v 0.8985133 0.2974681 0.4161940
vt 1.0000000 0.3750000
v 0.8162902 0.3273949 0.4161940
vt 0.0000000 0.3750000
f 173/173 174/174 175/175 176/176
usemtl steel
v 0.8009324 0.2851997 0.5124892
vt 0.0000000 0.3750000
v 0.8831555 0.2552729 0.5124892
vt 1.0000000 0.3750000
v 0.9354639 0.3989890 0.5838060
vt 1.0000000 0.6250000
v 0.8532408 0.4289158 0.5838060
vt 0.0000000 0.6250000
f 177/177 178/178 179/179 180/180
usemtl lamp
v 0.9092493 0.3233103 0.4671585
vt 0.4375000 0.4375000
v 0.9324975 0.3871842 0.4988549
vt 0.5000000 0.4375000
v 0.9270771 0.3722917 0.5328415
vt 0.5000000 0.5000000
v 0.9038289 0.3084179 0.5011451
vt 0.4375000 0.5000000
f 181/181 182/182 183/183 184/184
usemtl surface
v 0.6946384 0.5866025 0.6946384
vt 0.0000000 0.2500000
v 0.7524167 0.6015505 0.5973192
vt 0.2500000 0.2500000
v 0.6946384 0.7031010 0.5829941
vt 0.2500000 0.0000000
v 0.6659882 0.6732051 0.6659882
vt 0.0000000 0.0000000
f 185/185 186/186 187/187 188/188
usemtl surface
v 0.7524167 0.6015505 0.5973192
vt 0.2500000 0.2500000
v 0.7689316 0.6060660 0.5000000
vt 0.5000000 0.2500000
v 0.7032932 0.7121320 0.5000000
vt 0.5000000 0.0000000
v 0.6946384 0.7031010 0.5829941
vt 0.2500000 0.0000000
f 189/189 190/190 191/191 192/192
usemtl surface
v 0.7689316 0.6060660 0.5000000
vt 0.5000000 0.2500000
v 0.7524167 0.6015505 0.4026808
vt 0.7500000 0.2500000
v 0.6946384 0.7031010 0.4170059
vt 0.7500000 0.0000000
v 0.7032932 0.7121320 0.5000000
vt 0.5000000 0.0000000
f 193/193 194/194 195/195 196/196
usemtl surface
v 0.7524167 0.6015505 0.4026808
vt 0.7500000 0.2500000
v 0.6946384 0.5866025 0.3053616
vt 1.0000000 0.2500000
v 0.6659882 0.6732051 0.3340118
vt 1.0000000 0.0000000
v 0.6946384 0.7031010 0.4170059
vt 0.7500000 0.0000000
f 197/197 198/198 199/199 200/200
usemtl surface
v 0.7032932 0.5000000 0.7032932
vt 0.0000000 0.5000000
v 0.7689316 0.5000000 0.6016466
vt 0.2500000 0.5000000
v 0.7524167 0.6015505 0.5973192
vt 0.2500000 0.2500000
v 0.6946384 0.5866025 0.6946384
vt 0.0000000 0.2500000
f 201/201 202/202 203/203 204/204
usemtl surface
v 0.7689316 0.5000000 0.6016466
vt 0.2500000 0.5000000
v 0.7875000 0.5000000 0.5000000
vt 0.5000000 0.5000000
v 0.7689316 0.6060660 0.5000000
vt 0.5000000 0.2500000
v 0.7524167 0.6015505 0.5973192
vt 0.2500000 0.2500000
f 205/205 206/206 207/207 208/208
usemtl surface
v 0.7875000 0.5000000 0.5000000
vt 0.5000000 0.5000000
v 0.7689316 0.5000000 0.3983534
vt 0.7500000 0.5000000
v 0.7524167 0.6015505 0.4026808
vt 0.7500000 0.2500000
v 0.7689316 0.6060660 0.5000000
vt 0.5000000 0.2500000
f 209/209 210/210 211/211 212/212
usemtl surface
v 0.7689316 0.5000000 0.3983534
vt 0.7500000 0.5000000
v 0.7032932 0.5000000 0.2967068
vt 1.0000000 0.5000000
v 0.6946384 0.5866025 0.3053616
vt 1.0000000 0.2500000
v 0.7524167 0.6015505 0.4026808
vt 0.7500000 0.2500000
f 213/213 214/214 215/215 216/216
usemtl surface
v 0.6946384 0.4133975 0.6946384
vt 0.0000000 0.7500000
v 0.7524167 0.3984495 0.5973192
vt 0.2500000 0.7500000
v 0.7689316 0.5000000 0.6016466
vt 0.2500000 0.5000000
v 0.7032932 0.5000000 0.7032932
vt 0.0000000 0.5000000
f 217/217 218/218 219/219 220/220
usemtl surface
v 0.7524167 0.3984495 0.5973192
vt 0.2500000 0.7500000
v 0.7689316 0.3939340 0.5000000
vt 0.5000000 0.7500000
v 0.7875000 0.5000000 0.5000000
vt 0.5000000 0.5000000
v 0.7689316 0.5000000 0.6016466
vt 0.2500000 0.5000000
f 221/221 222/222 223/223 224/224
usemtl surface
v 0.7689316 0.3939340 0.5000000
vt 0.5000000 0.7500000
v 0.7524167 0.3984495 0.4026808
vt 0.7500000 0.7500000
v 0.7689316 0.5000000 0.3983534
vt 0.7500000 0.5000000
v 0.7875000 0.5000000 0.5000000
vt 0.5000000 0.5000000
f 225/225 226/226 227/227 228/228
usemtl surface
v 0.7524167 0.3984495 0.4026808
vt 0.7500000 0.7500000
v 0.6946384 0.4133975 0.3053616
vt 1.0000000 0.7500000
v 0.7032932 0.5000000 0.2967068
vt 1.0000000 0.5000000
v 0.7689316 0.5000000 0.3983534
vt 0.7500000 0.5000000
f 229/229 230/230 231/231 232/232
usemtl surface
v 0.6659882 0.3267949 0.6659882
vt 0.0000000 1.0000000
v 0.6946384 0.2968990 0.5829941
vt 0.2500000 1.0000000
v 0.7524167 0.3984495 0.5973192
vt 0.2500000 0.7500000
v 0.6946384 0.4133975 0.6946384
vt 0.0000000 0.7500000
f 233/233 234/234 235/235 236/236
usemtl surface
v 0.6946384 0.2968990 0.5829941
vt 0.2500000 1.0000000
v 0.7032932 0.2878680 0.5000000
vt 0.5000000 1.0000000
v 0.7689316 0.3939340 0.5000000
vt 0.5000000 0.7500000
v 0.7524167 0.3984495 0.5973192
vt 0.2500000 0.7500000
f 237/237 238/238 239/239 240/240
usemtl surface
v 0.7032932 0.2878680 0.5000000
vt 0.5000000 1.0000000
v 0.6946384 0.2968990 0.4170059
vt 0.7500000 1.0000000
v 0.7524167 0.3984495 0.4026808
vt 0.7500000 0.7500000
v 0.7689316 0.3939340 0.5000000
vt 0.5000000 0.7500000
f 241/241 242/242 243/243 244/244
usemtl surface
v 0.6946384 0.2968990 0.4170059
vt 0.7500000 1.0000000
v 0.6659882 0.3267949 0.3340118
vt 1.0000000 1.0000000
v 0.6946384 0.4133975 0.3053616
vt 1.0000000 0.7500000
v 0.7524167 0.3984495 0.4026808
vt 0.7500000 0.7500000
f 245/245 246/246 247/247 248/248
usemtl surface
v 0.3053616 0.5866025 0.3053616
vt 0.0000000 0.2500000
v 0.2475833 0.6015505 0.4026808
vt 0.2500000 0.2500000
v 0.3053616 0.7031010 0.4170059
vt 0.2500000 0.0000000
v 0.3340118 0.6732051 0.3340118
vt 0.0000000 0.0000000
f 249/249 250/250 251/251 252/252
usemtl surface
v 0.2475833 0.6015505 0.4026808
vt 0.2500000 0.2500000
v 0.2310684 0.6060660 0.5000000
vt 0.5000000 0.2500000
v 0.2967068 0.7121320 0.5000000
vt 0.5000000 0.0000000
v 0.3053616 0.7031010 0.4170059
vt 0.2500000 0.0000000
f 253/253 254/254 255/255 256/256
usemtl surface
v 0.2310684 0.6060660 0.5000000
vt 0.5000000 0.2500000
v 0.2475833 0.6015505 0.5973192
vt 0.7500000 0.2500000
v 0.3053616 0.7031010 0.5829941
vt 0.7500000 0.0000000
v 0.2967068 0.7121320 0.5000000
vt 0.5000000 0.0000000
f 257/257 258/258 259/259 260/260
usemtl surface
v 0.2475833 0.6015505 0.5973192
vt 0.7500000 0.2500000
v 0.3053616 0.5866025 0.6946384
vt 1.0000000 0.2500000
v 0.3340118 0.6732051 0.6659882
vt 1.0000000 0.0000000
v 0.3053616 0.7031010 0.5829941
vt 0.7500000 0.0000000
f 261/261 262/262 263/263 264/264
usemtl surface
v 0.2967068 0.5000000 0.2967068
vt 0.0000000 0.5000000
v 0.2310684 0.5000000 0.3983534
vt 0.2500000 0.5000000
v 0.2475833 0.6015505 0.4026808
vt 0.2500000 0.2500000
v 0.3053616 0.5866025 0.3053616
vt 0.0000000 0.2500000
f 265/265 266/266 267/267 268/268
usemtl surface
v 0.2310684 0.5000000 0.3983534
vt 0.2500000 0.5000000
v 0.2125000 0.5000000 0.5000000
vt 0.5000000 0.5000000
v 0.2310684 0.6060660 0.5000000
vt 0.5000000 0.2500000
v 0.2475833 0.6015505 0.4026808
vt 0.2500000 0.2500000
f 269/269 270/270 271/271 272/272
usemtl surface
v 0.2125000 0.5000000 0.5000000
vt 0.5000000 0.5000000
v 0.2310684 0.5000000 0.6016466
vt 0.7500000 0.5000000
v 0.2475833 0.6015505 0.5973192
vt 0.7500000 0.2500000
v 0.2310684 0.6060660 0.5000000
vt 0.5000000 0.2500000
f 273/273 274/274 275/275 276/276
usemtl surface
v 0.2310684 0.5000000 0.6016466
vt 0.7500000 0.5000000
v 0.2967068 0.5000000 0.7032932
vt 1.0000000 0.5000000
v 0.3053616 0.5866025 0.6946384
vt 1.0000000 0.2500000
v 0.2475833 0.6015505 0.5973192
vt 0.7500000 0.2500000
f 277/277 278/278 279/279 280/280
usemtl surface
v 0.3053616 0.4133975 0.3053616
vt 0.0000000 0.7500000
v 0.2475833 0.3984495 0.4026808
vt 0.2500000 0.7500000
v 0.2310684 0.5000000 0.3983534
vt 0.2500000 0.5000000
v 0.2967068 0.5000000 0.2967068
vt 0.0000000 0.5000000
f 281/281 282/282 283/283 284/284
usemtl surface
v 0.2475833 0.3984495 0.4026808
vt 0.2500000 0.7500000
v 0.2310684 0.3939340 0.5000000
vt 0.5000000 0.7500000
v 0.2125000 0.5000000 0.5000000
vt 0.5000000 0.5000000
v 0.2310684 0.5000000 0.3983534
vt 0.2500000 0.5000000
f 285/285 286/286 287/287 288/288
usemtl surface
v 0.2310684 0.3939340 0.5000000
vt 0.5000000 0.7500000
v 0.2475833 0.3984495 0.5973192
vt 0.7500000 0.7500000
v 0.2310684 0.5000000 0.6016466
vt 0.7500000 0.5000000
v 0.2125000 0.5000000 0.5000000
vt 0.5000000 0.5000000
f 289/289 290/290 291/291 292/292
usemtl surface
v 0.2475833 0.3984495 0.5973192
vt 0.7500000 0.7500000
v 0.3053616 0.4133975 0.6946384
vt 1.0000000 0.7500000
v 0.2967068 0.5000000 0.7032932
vt 1.0000000 0.5000000
v 0.2310684 0.5000000 0.6016466
vt 0.7500000 0.5000000
f 293/293 294/294 295/295 296/296
usemtl surface
v 0.3340118 0.3267949 0.3340118
vt 0.0000000 1.0000000
v 0.3053616 0.2968990 0.4170059
vt 0.2500000 1.0000000
v 0.2475833 0.3984495 0.4026808
vt 0.2500000 0.7500000
v 0.3053616 0.4133975 0.3053616
vt 0.0000000 0.7500000
f 297/297 298/298 299/299 300/300
usemtl surface
v 0.3053616 0.2968990 0.4170059
vt 0.2500000 1.0000000
v 0.2967068 0.2878680 0.5000000
vt 0.5000000 1.0000000
v 0.2310684 0.3939340 0.5000000
vt 0.5000000 0.7500000
v 0.2475833 0.3984495 0.4026808
vt 0.2500000 0.7500000
f 301/301 302/302 303/303 304/304
usemtl surface
v 0.2967068 0.2878680 0.5000000
vt 0.5000000 1.0000000
v 0.3053616 0.2968990 0.5829941
vt 0.7500000 1.0000000
v 0.2475833 0.3984495 0.5973192
vt 0.7500000 0.7500000
v 0.2310684 0.3939340 0.5000000
vt 0.5000000 0.7500000
f 305/305 306/306 307/307 308/308
usemtl surface
v 0.3053616 0.2968990 0.5829941
vt 0.7500000 1.0000000
v 0.3340118 0.3267949 0.6659882
vt 1.0000000 1.0000000
v 0.3053616 0.4133975 0.6946384
vt 1.0000000 0.7500000
v 0.2475833 0.3984495 0.5973192
vt 0.7500000 0.7500000
f 309/309 310/310 311/311 312/312
usemtl surface
v 0.3053616 0.7031010 0.4170059
vt 0.0000000 0.2500000
v 0.4026808 0.7633913 0.4026808
vt 0.2500000 0.2500000
v 0.4170059 0.7031010 0.3053616
vt 0.2500000 0.0000000
v 0.3340118 0.6732051 0.3340118
vt 0.0000000 0.0000000
f 313/313 314/314 315/315 316/316
usemtl surface
v 0.4026808 0.7633913 0.4026808
vt 0.2500000 0.2500000
v 0.5000000 0.7806243 0.3983534
vt 0.5000000 0.2500000
v 0.5000000 0.7121320 0.2967068
vt 0.5000000 0.0000000
v 0.4170059 0.7031010 0.3053616
vt 0.2500000 0.0000000
f 317/317 318/318 319/319 320/320
usemtl surface
v 0.5000000 0.7806243 0.3983534
vt 0.5000000 0.2500000
v 0.5973192 0.7633913 0.4026808
vt 0.7500000 0.2500000
v 0.5829941 0.7031010 0.3053616
vt 0.7500000 0.0000000
v 0.5000000 0.7121320 0.2967068
vt 0.5000000 0.0000000
f 321/321 322/322 323/323 324/324
usemtl surface
v 0.5973192 0.7633913 0.4026808
vt 0.7500000 0.2500000
v 0.6946384 0.7031010 0.4170059
vt 1.0000000 0.2500000
v 0.6659882 0.6732051 0.3340118
vt 1.0000000 0.0000000
v 0.5829941 0.7031010 0.3053616
vt 0.7500000 0.0000000
f 325/325 326/326 327/327 328/328
usemtl surface
v 0.2967068 0.7121320 0.5000000
vt 0.0000000 0.5000000
v 0.3983534 0.7806243 0.5000000
vt 0.2500000 0.5000000
v 0.4026808 0.7633913 0.4026808
vt 0.2500000 0.2500000
v 0.3053616 0.7031010 0.4170059
vt 0.0000000 0.2500000
f 329/329 330/330 331/331 332/332
usemtl surface
v 0.3983534 0.7806243 0.5000000
vt 0.2500000 0.5000000
v 0.5000000 0.8000000 0.5000000
vt 0.5000000 0.5000000
v 0.5000000 0.7806243 0.3983534
vt 0.5000000 0.2500000
v 0.4026808 0.7633913 0.4026808
vt 0.2500000 0.2500000
f 333/333 334/334 335/335 336/336
usemtl surface
v 0.5000000 0.8000000 0.5000000
vt 0.5000000 0.5000000
v 0.6016466 0.7806243 0.5000000
vt 0.7500000 0.5000000
v 0.5973192 0.7633913 0.4026808
vt 0.7500000 0.2500000
v 0.5000000 0.7806243 0.3983534
vt 0.5000000 0.2500000
f 337/337 338/338 339/339 340/340
usemtl surface
v 0.6016466 0.7806243 0.5000000
vt 0.7500000 0.5000000
v 0.7032932 0.7121320 0.5000000
vt 1.0000000 0.5000000
v 0.6946384 0.7031010 0.4170059
vt 1.0000000 0.2500000
v 0.5973192 0.7633913 0.4026808
vt 0.7500000 0.2500000
f 341/341 342/342 343/343 344/344
usemtl surface
v 0.3053616 0.7031010 0.5829941
vt 0.0000000 0.7500000
v 0.4026808 0.7633913 0.5973192
vt 0.2500000 0.7500000
v 0.3983534 0.7806243 0.5000000
vt 0.2500000 0.5000000
v 0.2967068 0.7121320 0.5000000
vt 0.0000000 0.5000000
f 345/345 346/346 347/347 348/348
usemtl surface
v 0.4026808 0.7633913 0.5973192
vt 0.2500000 0.7500000
v 0.5000000 0.7806243 0.6016466
vt 0.5000000 0.7500000
v 0.5000000 0.8000000 0.5000000
vt 0.5000000 0.5000000
v 0.3983534 0.7806243 0.5000000
vt 0.2500000 0.5000000
f 349/349 350/350 351/351 352/352
usemtl surface
v 0.5000000 0.7806243 0.6016466
vt 0.5000000 0.7500000
v 0.5973192 0.7633913 0.5973192
vt 0.7500000 0.7500000
v 0.6016466 0.7806243 0.5000000
vt 0.7500000 0.5000000
v 0.5000000 0.8000000 0.5000000
vt 0.5000000 0.5000000
f 353/353 354/354 355/355 356/356
usemtl surface
v 0.5973192 0.7633913 0.5973192
vt 0.7500000 0.7500000
v 0.6946384 0.7031010 0.5829941
vt 1.0000000 0.7500000
v 0.7032932 0.7121320 0.5000000
vt 1.0000000 0.5000000
v 0.6016466 0.7806243 0.5000000
vt 0.7500000 0.5000000
f 357/357 358/358 359/359 360/360
usemtl surface
v 0.3340118 0.6732051 0.6659882
vt 0.0000000 1.0000000
v 0.4170059 0.7031010 0.6946384
vt 0.2500000 1.0000000
v 0.4026808 0.7633913 0.5973192
vt 0.2500000 0.7500000
v 0.3053616 0.7031010 0.5829941
vt 0.0000000 0.7500000
f 361/361 362/362 363/363 364/364
usemtl surface
v 0.4170059 0.7031010 0.6946384
vt 0.2500000 1.0000000
v 0.5000000 0.7121320 0.7032932
vt 0.5000000 1.0000000
v 0.5000000 0.7806243 0.6016466
vt 0.5000000 0.7500000
v 0.4026808 0.7633913 0.5973192
vt 0.2500000 0.7500000
f 365/365 366/366 367/367 368/368
usemtl surface
v 0.5000000 0.7121320 0.7032932
vt 0.5000000 1.0000000
v 0.5829941 0.7031010 0.6946384
vt 0.7500000 1.0000000
v 0.5973192 0.7633913 0.5973192
vt 0.7500000 0.7500000
v 0.5000000 0.7806243 0.6016466
vt 0.5000000 0.7500000
f 369/369 370/370 371/371 372/372
usemtl surface
v 0.5829941 0.7031010 0.6946384
vt 0.7500000 1.0000000
v 0.6659882 0.6732051 0.6659882
vt 1.0000000 1.0000000
v 0.6946384 0.7031010 0.5829941
vt 1.0000000 0.7500000
v 0.5973192 0.7633913 0.5973192
vt 0.7500000 0.7500000
f 373/373 374/374 375/375 376/376
usemtl surface
v 0.3053616 0.2968990 0.5829941
vt 0.0000000 0.2500000
v 0.4026808 0.2366087 0.5973192
vt 0.2500000 0.2500000
v 0.4170059 0.2968990 0.6946384
vt 0.2500000 0.0000000
v 0.3340118 0.3267949 0.6659882
vt 0.0000000 0.0000000
f 377/377 378/378 379/379 380/380
usemtl surface
v 0.4026808 0.2366087 0.5973192
vt 0.2500000 0.2500000
v 0.5000000 0.2193757 0.6016466
vt 0.5000000 0.2500000
v 0.5000000 0.2878680 0.7032932
vt 0.5000000 0.0000000
v 0.4170059 0.2968990 0.6946384
vt 0.2500000 0.0000000
f 381/381 382/382 383/383 384/384
usemtl surface
v 0.5000000 0.2193757 0.6016466
vt 0.5000000 0.2500000
v 0.5973192 0.2366087 0.5973192
vt 0.7500000 0.2500000
v 0.5829941 0.2968990 0.6946384
vt 0.7500000 0.0000000
v 0.5000000 0.2878680 0.7032932
vt 0.5000000 0.0000000
f 385/385 386/386 387/387 388/388
usemtl surface
v 0.5973192 0.2366087 0.5973192
vt 0.7500000 0.2500000
v 0.6946384 0.2968990 0.5829941
vt 1.0000000 0.2500000
v 0.6659882 0.3267949 0.6659882
vt 1.0000000 0.0000000
v 0.5829941 0.2968990 0.6946384
vt 0.7500000 0.0000000
f 389/389 390/390 391/391 392/392
usemtl surface
v 0.2967068 0.2878680 0.5000000
vt 0.0000000 0.5000000
v 0.3983534 0.2193757 0.5000000
vt 0.2500000 0.5000000
v 0.4026808 0.2366087 0.5973192
vt 0.2500000 0.2500000
v 0.3053616 0.2968990 0.5829941
vt 0.0000000 0.2500000
f 393/393 394/394 395/395 396/396
usemtl surface
v 0.3983534 0.2193757 0.5000000
vt 0.2500000 0.5000000
v 0.5000000 0.2000000 0.5000000
vt 0.5000000 0.5000000
v 0.5000000 0.2193757 0.6016466
vt 0.5000000 0.2500000
v 0.4026808 0.2366087 0.5973192
vt 0.2500000 0.2500000
f 397/397 398/398 399/399 400/400
usemtl surface
v 0.5000000 0.2000000 0.5000000
vt 0.5000000 0.5000000
v 0.6016466 0.2193757 0.5000000
vt 0.7500000 0.5000000
v 0.5973192 0.2366087 0.5973192
vt 0.7500000 0.2500000
v 0.5000000 0.2193757 0.6016466
vt 0.5000000 0.2500000
f 401/401 402/402 403/403 404/404
usemtl surface
v 0.6016466 0.2193757 0.5000000
vt 0.7500000 0.5000000
v 0.7032932 0.2878680 0.5000000
vt 1.0000000 0.5000000
v 0.6946384 0.2968990 0.5829941
vt 1.0000000 0.2500000
v 0.5973192 0.2366087 0.5973192
vt 0.7500000 0.2500000
f 405/405 406/406 407/407 408/408
usemtl surface
v 0.3053616 0.2968990 0.4170059
vt 0.0000000 0.7500000
v 0.4026808 0.2366087 0.4026808
vt 0.2500000 0.7500000
v 0.3983534 0.2193757 0.5000000
vt 0.2500000 0.5000000
v 0.2967068 0.2878680 0.5000000
vt 0.0000000 0.5000000
f 409/409 410/410 411/411 412/412
usemtl surface
v 0.4026808 0.2366087 0.4026808
vt 0.2500000 0.7500000
v 0.5000000 0.2193757 0.3983534
vt 0.5000000 0.7500000
v 0.5000000 0.2000000 0.5000000
vt 0.5000000 0.5000000
v 0.3983534 0.2193757 0.5000000
vt 0.2500000 0.5000000
f 413/413 414/414 415/415 416/416
usemtl surface
v 0.5000000 0.2193757 0.3983534
vt 0.5000000 0.7500000
v 0.5973192 0.2366087 0.4026808
vt 0.7500000 0.7500000
v 0.6016466 0.2193757 0.5000000
vt 0.7500000 0.5000000
v 0.5000000 0.2000000 0.5000000
vt 0.5000000 0.5000000
f 417/417 418/418 419/419 420/420
usemtl surface
v 0.5973192 0.2366087 0.4026808
vt 0.7500000 0.7500000
v 0.6946384 0.2968990 0.4170059
vt 1.0000000 0.7500000
v 0.7032932 0.2878680 0.5000000
vt 1.0000000 0.5000000
v 0.6016466 0.2193757 0.5000000
vt 0.7500000 0.5000000
f 421/421 422/422 423/423 424/424
usemtl surface
v 0.3340118 0.3267949 0.3340118
vt 0.0000000 1.0000000
v 0.4170059 0.2968990 0.3053616
vt 0.2500000 1.0000000
v 0.4026808 0.2366087 0.4026808
vt 0.2500000 0.7500000
v 0.3053616 0.2968990 0.4170059
vt 0.0000000 0.7500000
f 425/425 426/426 427/427 428/428
usemtl surface
v 0.4170059 0.2968990 0.3053616
vt 0.2500000 1.0000000
v 0.5000000 0.2878680 0.2967068
vt 0.5000000 1.0000000
v 0.5000000 0.2193757 0.3983534
vt 0.5000000 0.7500000
v 0.4026808 0.2366087 0.4026808
vt 0.2500000 0.7500000
f 429/429 430/430 431/431 432/432
usemtl surface
v 0.5000000 0.2878680 0.2967068
vt 0.5000000 1.0000000
v 0.5829941 0.2968990 0.3053616
vt 0.7500000 1.0000000
v 0.5973192 0.2366087 0.4026808
vt 0.7500000 0.7500000
v 0.5000000 0.2193757 0.3983534
vt 0.5000000 0.7500000
f 433/433 434/434 435/435 436/436
usemtl surface
v 0.5829941 0.2968990 0.3053616
vt 0.7500000 1.0000000
v 0.6659882 0.3267949 0.3340118
vt 1.0000000 1.0000000
v 0.6946384 0.2968990 0.4170059
vt 1.0000000 0.7500000
v 0.5973192 0.2366087 0.4026808
vt 0.7500000 0.7500000
f 437/437 438/438 439/439 440/440
usemtl surface
v 0.3053616 0.5866025 0.6946384
vt 0.0000000 0.2500000
v 0.4026808 0.6015505 0.7524167
vt 0.2500000 0.2500000
v 0.4170059 0.7031010 0.6946384
vt 0.2500000 0.0000000
v 0.3340118 0.6732051 0.6659882
vt 0.0000000 0.0000000
f 441/441 442/442 443/443 444/444
usemtl surface
v 0.4026808 0.6015505 0.7524167
vt 0.2500000 0.2500000
v 0.5000000 0.6060660 0.7689316
vt 0.5000000 0.2500000
v 0.5000000 0.7121320 0.7032932
vt 0.5000000 0.0000000
v 0.4170059 0.7031010 0.6946384
vt 0.2500000 0.0000000
f 445/445 446/446 447/447 448/448
usemtl surface
v 0.5000000 0.6060660 0.7689316
vt 0.5000000 0.2500000
v 0.5973192 0.6015505 0.7524167
vt 0.7500000 0.2500000
v 0.5829941 0.7031010 0.6946384
vt 0.7500000 0.0000000
v 0.5000000 0.7121320 0.7032932
vt 0.5000000 0.0000000
f 449/449 450/450 451/451 452/452
usemtl surface
v 0.5973192 0.6015505 0.7524167
vt 0.7500000 0.2500000
v 0.6946384 0.5866025 0.6946384
vt 1.0000000 0.2500000
v 0.6659882 0.6732051 0.6659882
vt 1.0000000 0.0000000
v 0.5829941 0.7031010 0.6946384
vt 0.7500000 0.0000000
f 453/453 454/454 455/455 456/456
usemtl surface
v 0.2967068 0.5000000 0.7032932
vt 0.0000000 0.5000000
v 0.3983534 0.5000000 0.7689316
vt 0.2500000 0.5000000
v 0.4026808 0.6015505 0.7524167
vt 0.2500000 0.2500000
v 0.3053616 0.5866025 0.6946384
vt 0.0000000 0.2500000
f 457/457 458/458 459/459 460/460
usemtl surface
v 0.3983534 0.5000000 0.7689316
vt 0.2500000 0.5000000
v 0.5000000 0.5000000 0.7875000
vt 0.5000000 0.5000000
v 0.5000000 0.6060660 0.7689316
vt 0.5000000 0.2500000
v 0.4026808 0.6015505 0.7524167
vt 0.2500000 0.2500000
f 461/461 462/462 463/463 464/464
usemtl surface
v 0.5000000 0.5000000 0.7875000
vt 0.5000000 0.5000000
v 0.6016466 0.5000000 0.7689316
vt 0.7500000 0.5000000
v 0.5973192 0.6015505 0.7524167
vt 0.7500000 0.2500000
v 0.5000000 0.6060660 0.7689316
vt 0.5000000 0.2500000
f 465/465 466/466 467/467 468/468
usemtl surface
v 0.6016466 0.5000000 0.7689316
vt 0.7500000 0.5000000
v 0.7032932 0.5000000 0.7032932
vt 1.0000000 0.5000000
v 0.6946384 0.5866025 0.6946384
vt 1.0000000 0.2500000
v 0.5973192 0.6015505 0.7524167
vt 0.7500000 0.2500000
f 469/469 470/470 471/471 472/472
usemtl surface
v 0.3053616 0.4133975 0.6946384
vt 0.0000000 0.7500000
v 0.4026808 0.3984495 0.7524167
vt 0.2500000 0.7500000
v 0.3983534 0.5000000 0.7689316
vt 0.2500000 0.5000000
v 0.2967068 0.5000000 0.7032932
vt 0.0000000 0.5000000
f 473/473 474/474 475/475 476/476
usemtl surface
v 0.4026808 0.3984495 0.7524167
vt 0.2500000 0.7500000
v 0.5000000 0.3939340 0.7689316
vt 0.5000000 0.7500000
v 0.5000000 0.5000000 0.7875000
vt 0.5000000 0.5000000
v 0.3983534 0.5000000 0.7689316
vt 0.2500000 0.5000000
f 477/477 478/478 479/479 480/480
usemtl surface
v 0.5000000 0.3939340 0.7689316
vt 0.5000000 0.7500000
v 0.5973192 0.3984495 0.7524167
vt 0.7500000 0.7500000
v 0.6016466 0.5000000 0.7689316
vt 0.7500000 0.5000000
v 0.5000000 0.5000000 0.7875000
vt 0.5000000 0.5000000
f 481/481 482/482 483/483 484/484
usemtl surface
v 0.5973192 0.3984495 0.7524167
vt 0.7500000 0.7500000
v 0.6946384 0.4133975 0.6946384
vt 1.0000000 0.7500000
v 0.7032932 0.5000000 0.7032932
vt 1.0000000 0.5000000
v 0.6016466 0.5000000 0.7689316
vt 0.7500000 0.5000000
f 485/485 486/486 487/487 488/488
usemtl surface
v 0.3340118 0.3267949 0.6659882
vt 0.0000000 1.0000000
v 0.4170059 0.2968990 0.6946384
vt 0.2500000 1.0000000
v 0.4026808 0.3984495 0.7524167
vt 0.2500000 0.7500000
v 0.3053616 0.4133975 0.6946384
vt 0.0000000 0.7500000
f 489/489 490/490 491/491 492/492
usemtl surface
v 0.4170059 0.2968990 0.6946384
vt 0.2500000 1.0000000
v 0.5000000 0.2878680 0.7032932
vt 0.5000000 1.0000000
v 0.5000000 0.3939340 0.7689316
vt 0.5000000 0.7500000
v 0.4026808 0.3984495 0.7524167
vt 0.2500000 0.7500000
f 493/493 494/494 495/495 496/496
usemtl surface
v 0.5000000 0.2878680 0.7032932
vt 0.5000000 1.0000000
v 0.5829941 0.2968990 0.6946384
vt 0.7500000 1.0000000
v 0.5973192 0.3984495 0.7524167
vt 0.7500000 0.7500000
v 0.5000000 0.3939340 0.7689316
vt 0.5000000 0.7500000
f 497/497 498/498 499/499 500/500
usemtl surface
v 0.5829941 0.2968990 0.6946384
vt 0.7500000 1.0000000
v 0.6659882 0.3267949 0.6659882
vt 1.0000000 1.0000000
v 0.6946384 0.4133975 0.6946384
vt 1.0000000 0.7500000
v 0.5973192 0.3984495 0.7524167
vt 0.7500000 0.7500000
f 501/501 502/502 503/503 504/504
usemtl surface
v 0.6946384 0.5866025 0.3053616
vt 0.0000000 0.2500000
v 0.5973192 0.6015505 0.2475833
vt 0.2500000 0.2500000
v 0.5829941 0.7031010 0.3053616
vt 0.2500000 0.0000000
v 0.6659882 0.6732051 0.3340118
vt 0.0000000 0.0000000
f 505/505 506/506 507/507 508/508
usemtl surface
v 0.5973192 0.6015505 0.2475833
vt 0.2500000 0.2500000
v 0.5000000 0.6060660 0.2310684
vt 0.5000000 0.2500000
v 0.5000000 0.7121320 0.2967068
vt 0.5000000 0.0000000
v 0.5829941 0.7031010 0.3053616
vt 0.2500000 0.0000000
f 509/509 510/510 511/511 512/512
usemtl surface
v 0.5000000 0.6060660 0.2310684
vt 0.5000000 0.2500000
v 0.4026808 0.6015505 0.2475833
vt 0.7500000 0.2500000
v 0.4170059 0.7031010 0.3053616
vt 0.7500000 0.0000000
v 0.5000000 0.7121320 0.2967068
vt 0.5000000 0.0000000
f 513/513 514/514 515/515 516/516
usemtl surface
v 0.4026808 0.6015505 0.2475833
vt 0.7500000 0.2500000
v 0.3053616 0.5866025 0.3053616
vt 1.0000000 0.2500000
v 0.3340118 0.6732051 0.3340118
vt 1.0000000 0.0000000
v 0.4170059 0.7031010 0.3053616
vt 0.7500000 0.0000000
f 517/517 518/518 519/519 520/520
usemtl surface
v 0.7032932 0.5000000 0.2967068
vt 0.0000000 0.5000000
v 0.6016466 0.5000000 0.2310684
vt 0.2500000 0.5000000
v 0.5973192 0.6015505 0.2475833
vt 0.2500000 0.2500000
v 0.6946384 0.5866025 0.3053616
vt 0.0000000 0.2500000
f 521/521 522/522 523/523 524/524
usemtl surface
v 0.6016466 0.5000000 0.2310684
vt 0.2500000 0.5000000
v 0.5000000 0.5000000 0.2125000
vt 0.5000000 0.5000000
v 0.5000000 0.6060660 0.2310684
vt 0.5000000 0.2500000
v 0.5973192 0.6015505 0.2475833
vt 0.2500000 0.2500000
f 525/525 526/526 527/527 528/528
usemtl surface
v 0.5000000 0.5000000 0.2125000
vt 0.5000000 0.5000000
v 0.3983534 0.5000000 0.2310684
vt 0.7500000 0.5000000
v 0.4026808 0.6015505 0.2475833
vt 0.7500000 0.2500000
v 0.5000000 0.6060660 0.2310684
vt 0.5000000 0.2500000
f 529/529 530/530 531/531 532/532
usemtl surface
v 0.3983534 0.5000000 0.2310684
vt 0.7500000 0.5000000
v 0.2967068 0.5000000 0.2967068
vt 1.0000000 0.5000000
v 0.3053616 0.5866025 0.3053616
vt 1.0000000 0.2500000
v 0.4026808 0.6015505 0.2475833
vt 0.7500000 0.2500000
f 533/533 534/534 535/535 536/536
usemtl surface
v 0.6946384 0.4133975 0.3053616
vt 0.0000000 0.7500000
v 0.5973192 0.3984495 0.2475833
vt 0.2500000 0.7500000
v 0.6016466 0.5000000 0.2310684
vt 0.2500000 0.5000000
v 0.7032932 0.5000000 0.2967068
vt 0.0000000 0.5000000
f 537/537 538/538 539/539 540/540
usemtl surface
v 0.5973192 0.3984495 0.2475833
vt 0.2500000 0.7500000
v 0.5000000 0.3939340 0.2310684
vt 0.5000000 0.7500000
v 0.5000000 0.5000000 0.2125000
vt 0.5000000 0.5000000
v 0.6016466 0.5000000 0.2310684
vt 0.2500000 0.5000000
f 541/541 542/542 543/543 544/544
usemtl surface
v 0.5000000 0.3939340 0.2310684
vt 0.5000000 0.7500000
v 0.4026808 0.3984495 0.2475833
vt 0.7500000 0.7500000
v 0.3983534 0.5000000 0.2310684
vt 0.7500000 0.5000000
v 0.5000000 0.5000000 0.2125000
vt 0.5000000 0.5000000
f 545/545 546/546 547/547 548/548
usemtl surface
v 0.4026808 0.3984495 0.2475833
vt 0.7500000 0.7500000
v 0.3053616 0.4133975 0.3053616
vt 1.0000000 0.7500000
v 0.2967068 0.5000000 0.2967068
vt 1.0000000 0.5000000
v 0.3983534 0.5000000 0.2310684
vt 0.7500000 0.5000000
f 549/549 550/550 551/551 552/552
usemtl surface
v 0.6659882 0.3267949 0.3340118
vt 0.0000000 1.0000000
v 0.5829941 0.2968990 0.3053616
vt 0.2500000 1.0000000
v 0.5973192 0.3984495 0.2475833
vt 0.2500000 0.7500000
v 0.6946384 0.4133975 0.3053616
vt 0.0000000 0.7500000
f 553/553 554/554 555/555 556/556
usemtl surface
v 0.5829941 0.2968990 0.3053616
vt 0.2500000 1.0000000
v 0.5000000 0.2878680 0.2967068
vt 0.5000000 1.0000000
v 0.5000000 0.3939340 0.2310684
vt 0.5000000 0.7500000
v 0.5973192 0.3984495 0.2475833
vt 0.2500000 0.7500000
f 557/557 558/558 559/559 560/560
usemtl surface
v 0.5000000 0.2878680 0.2967068
vt 0.5000000 1.0000000
v 0.4170059 0.2968990 0.3053616
vt 0.7500000 1.0000000
v 0.4026808 0.3984495 0.2475833
vt 0.7500000 0.7500000
v 0.5000000 0.3939340 0.2310684
vt 0.5000000 0.7500000
f 561/561 562/562 563/563 564/564
usemtl surface
v 0.4170059 0.2968990 0.3053616
vt 0.7500000 1.0000000
v 0.3340118 0.3267949 0.3340118
vt 1.0000000 1.0000000
v 0.3053616 0.4133975 0.3053616
vt 1.0000000 0.7500000
v 0.4026808 0.3984495 0.2475833
vt 0.7500000 0.7500000
f 565/565 566/566 567/567 568/568
