# Original MekGravity open flare restraint; generated by tools/flare_cell_mesh.py.
mtllib flare_cell.mtl
usemtl steel
v 0.8722634 0.3532637 0.5226577
vt 0.0000000 0.6250000
v 0.8498459 0.6342170 0.6421922
vt 1.0000000 0.6250000
v 0.8167091 0.6207034 0.6309858
vt 1.0000000 0.3750000
v 0.8370250 0.3660894 0.5226577
vt 0.0000000 0.3750000
f 1/1 2/2 3/3 4/4
usemtl steel
v 0.8442522 0.3859460 0.4773423
vt 0.0000000 0.3750000
v 0.8239363 0.6405600 0.5856704
vt 1.0000000 0.3750000
v 0.8570731 0.6540736 0.5968768
vt 1.0000000 0.6250000
v 0.8794906 0.3731202 0.4773423
vt 0.0000000 0.6250000
f 5/5 6/6 7/7 8/8
usemtl dark
v 0.8370250 0.3660894 0.5226577
vt 0.0000000 0.6250000
v 0.8167091 0.6207034 0.6309858
vt 1.0000000 0.6250000
v 0.8239363 0.6405600 0.5856704
vt 1.0000000 0.3750000
v 0.8442522 0.3859460 0.4773423
vt 0.0000000 0.3750000
f 9/9 10/10 11/11 12/12
usemtl steel
v 0.8794906 0.3731202 0.4773423
vt 0.0000000 0.3750000
v 0.8570731 0.6540736 0.5968768
vt 1.0000000 0.3750000
v 0.8498459 0.6342170 0.6421922
vt 1.0000000 0.6250000
v 0.8722634 0.3532637 0.5226577
vt 0.0000000 0.6250000
f 13/13 14/14 15/15 16/16
usemtl steel
v 0.8498459 0.6342170 0.6421922
vt 0.0000000 0.6250000
v 0.6203766 0.8307320 0.6917050
vt 1.0000000 0.6250000
v 0.6087525 0.7987951 0.6758568
vt 1.0000000 0.3750000
v 0.8167091 0.6207034 0.6309858
vt 0.0000000 0.3750000
f 17/17 18/18 19/19 20/20
usemtl steel
v 0.8239363 0.6405600 0.5856704
vt 0.0000000 0.3750000
v 0.6159797 0.8186517 0.6305414
vt 1.0000000 0.3750000
v 0.6276038 0.8505886 0.6463896
vt 1.0000000 0.6250000
v 0.8570731 0.6540736 0.5968768
vt 0.0000000 0.6250000
f 21/21 22/22 23/23 24/24
usemtl dark
v 0.8167091 0.6207034 0.6309858
vt 0.0000000 0.6250000
v 0.6087525 0.7987951 0.6758568
vt 1.0000000 0.6250000
v 0.6159797 0.8186517 0.6305414
vt 1.0000000 0.3750000
v 0.8239363 0.6405600 0.5856704
vt 0.0000000 0.3750000
f 25/25 26/26 27/27 28/28
usemtl steel
v 0.8570731 0.6540736 0.5968768
vt 0.0000000 0.3750000
v 0.6276038 0.8505886 0.6463896
vt 1.0000000 0.3750000
v 0.6203766 0.8307320 0.6917050
vt 1.0000000 0.6250000
v 0.8498459 0.6342170 0.6421922
vt 0.0000000 0.6250000
f 29/29 30/30 31/31 32/32
usemtl steel
v 0.6203766 0.8307320 0.6917050
vt 0.0000000 0.6250000
v 0.3182755 0.8276928 0.6421922
vt 1.0000000 0.6250000
v 0.3349734 0.7960408 0.6309858
vt 1.0000000 0.3750000
v 0.6087525 0.7987951 0.6758568
vt 0.0000000 0.3750000
f 33/33 34/34 35/35 36/36
usemtl steel
v 0.6159797 0.8186517 0.6305414
vt 0.0000000 0.3750000
v 0.3422006 0.8158974 0.5856704
vt 1.0000000 0.3750000
v 0.3255027 0.8475494 0.5968768
vt 1.0000000 0.6250000
v 0.6276038 0.8505886 0.6463896
vt 0.0000000 0.6250000
f 37/37 38/38 39/39 40/40
usemtl dark
v 0.6087525 0.7987951 0.6758568
vt 0.0000000 0.6250000
v 0.3349734 0.7960408 0.6309858
vt 1.0000000 0.6250000
v 0.3422006 0.8158974 0.5856704
vt 1.0000000 0.3750000
v 0.6159797 0.8186517 0.6305414
vt 0.0000000 0.3750000
f 41/41 42/42 43/43 44/44
usemtl steel
v 0.6276038 0.8505886 0.6463896
vt 0.0000000 0.3750000
v 0.3255027 0.8475494 0.5968768
vt 1.0000000 0.3750000
v 0.3182755 0.8276928 0.6421922
vt 1.0000000 0.6250000
v 0.6203766 0.8307320 0.6917050
vt 0.0000000 0.6250000
f 45/45 46/46 47/47 48/48
usemtl steel
v 0.3182755 0.8276928 0.6421922
vt 0.0000000 0.6250000
v 0.1205094 0.6268798 0.5226577
vt 1.0000000 0.6250000
v 0.1557478 0.6140540 0.5226577
vt 1.0000000 0.3750000
v 0.3349734 0.7960408 0.6309858
vt 0.0000000 0.3750000
f 49/49 50/50 51/51 52/52
usemtl steel
v 0.3422006 0.8158974 0.5856704
vt 0.0000000 0.3750000
v 0.1629750 0.6339106 0.4773423
vt 1.0000000 0.3750000
v 0.1277366 0.6467363 0.4773423
vt 1.0000000 0.6250000
v 0.3255027 0.8475494 0.5968768
vt 0.0000000 0.6250000
f 53/53 54/54 55/55 56/56
usemtl dark
v 0.3349734 0.7960408 0.6309858
vt 0.0000000 0.6250000
v 0.1557478 0.6140540 0.5226577
vt 1.0000000 0.6250000
v 0.1629750 0.6339106 0.4773423
vt 1.0000000 0.3750000
v 0.3422006 0.8158974 0.5856704
vt 0.0000000 0.3750000
f 57/57 58/58 59/59 60/60
usemtl steel
v 0.3255027 0.8475494 0.5968768
vt 0.0000000 0.3750000
v 0.1277366 0.6467363 0.4773423
vt 1.0000000 0.3750000
v 0.1205094 0.6268798 0.5226577
vt 1.0000000 0.6250000
v 0.3182755 0.8276928 0.6421922
vt 0.0000000 0.6250000
f 61/61 62/62 63/63 64/64
usemtl steel
v 0.1205094 0.6268798 0.5226577
vt 0.0000000 0.6250000
v 0.1429269 0.3459264 0.4031232
vt 1.0000000 0.6250000
v 0.1760637 0.3594400 0.4143296
vt 1.0000000 0.3750000
v 0.1557478 0.6140540 0.5226577
vt 0.0000000 0.3750000
f 65/65 66/66 67/67 68/68
usemtl steel
v 0.1629750 0.6339106 0.4773423
vt 0.0000000 0.3750000
v 0.1832909 0.3792966 0.3690142
vt 1.0000000 0.3750000
v 0.1501541 0.3657830 0.3578078
vt 1.0000000 0.6250000
v 0.1277366 0.6467363 0.4773423
vt 0.0000000 0.6250000
f 69/69 70/70 71/71 72/72
usemtl dark
v 0.1557478 0.6140540 0.5226577
vt 0.0000000 0.6250000
v 0.1760637 0.3594400 0.4143296
vt 1.0000000 0.6250000
v 0.1832909 0.3792966 0.3690142
vt 1.0000000 0.3750000
v 0.1629750 0.6339106 0.4773423
vt 0.0000000 0.3750000
f 73/73 74/74 75/75 76/76
usemtl steel
v 0.1277366 0.6467363 0.4773423
vt 0.0000000 0.3750000
v 0.1501541 0.3657830 0.3578078
vt 1.0000000 0.3750000
v 0.1429269 0.3459264 0.4031232
vt 1.0000000 0.6250000
v 0.1205094 0.6268798 0.5226577
vt 0.0000000 0.6250000
f 77/77 78/78 79/79 80/80
usemtl steel
v 0.1429269 0.3459264 0.4031232
vt 0.0000000 0.6250000
v 0.3723962 0.1494114 0.3536104
vt 1.0000000 0.6250000
v 0.3840203 0.1813483 0.3694586
vt 1.0000000 0.3750000
v 0.1760637 0.3594400 0.4143296
vt 0.0000000 0.3750000
f 81/81 82/82 83/83 84/84
usemtl steel
v 0.1832909 0.3792966 0.3690142
vt 0.0000000 0.3750000
v 0.3912475 0.2012049 0.3241432
vt 1.0000000 0.3750000
v 0.3796234 0.1692680 0.3082950
vt 1.0000000 0.6250000
v 0.1501541 0.3657830 0.3578078
vt 0.0000000 0.6250000
f 85/85 86/86 87/87 88/88
usemtl dark
v 0.1760637 0.3594400 0.4143296
vt 0.0000000 0.6250000
v 0.3840203 0.1813483 0.3694586
vt 1.0000000 0.6250000
v 0.3912475 0.2012049 0.3241432
vt 1.0000000 0.3750000
v 0.1832909 0.3792966 0.3690142
vt 0.0000000 0.3750000
f 89/89 90/90 91/91 92/92
usemtl steel
v 0.1501541 0.3657830 0.3578078
vt 0.0000000 0.3750000
v 0.3796234 0.1692680 0.3082950
vt 1.0000000 0.3750000
v 0.3723962 0.1494114 0.3536104
vt 1.0000000 0.6250000
v 0.1429269 0.3459264 0.4031232
vt 0.0000000 0.6250000
f 93/93 94/94 95/95 96/96
usemtl steel
v 0.3723962 0.1494114 0.3536104
vt 0.0000000 0.6250000
v 0.6744973 0.1524506 0.4031232
vt 1.0000000 0.6250000
v 0.6577994 0.1841026 0.4143296
vt 1.0000000 0.3750000
v 0.3840203 0.1813483 0.3694586
vt 0.0000000 0.3750000
f 97/97 98/98 99/99 100/100
usemtl steel
v 0.3912475 0.2012049 0.3241432
vt 0.0000000 0.3750000
v 0.6650266 0.2039592 0.3690142
vt 1.0000000 0.3750000
v 0.6817245 0.1723072 0.3578078
vt 1.0000000 0.6250000
v 0.3796234 0.1692680 0.3082950
vt 0.0000000 0.6250000
f 101/101 102/102 103/103 104/104
usemtl dark
v 0.3840203 0.1813483 0.3694586
vt 0.0000000 0.6250000
v 0.6577994 0.1841026 0.4143296
vt 1.0000000 0.6250000
v 0.6650266 0.2039592 0.3690142
vt 1.0000000 0.3750000
v 0.3912475 0.2012049 0.3241432
vt 0.0000000 0.3750000
f 105/105 106/106 107/107 108/108
usemtl steel
v 0.3796234 0.1692680 0.3082950
vt 0.0000000 0.3750000
v 0.6817245 0.1723072 0.3578078
vt 1.0000000 0.3750000
v 0.6744973 0.1524506 0.4031232
vt 1.0000000 0.6250000
v 0.3723962 0.1494114 0.3536104
vt 0.0000000 0.6250000
f 109/109 110/110 111/111 112/112
usemtl steel
v 0.6744973 0.1524506 0.4031232
vt 0.0000000 0.6250000
v 0.8722634 0.3532637 0.5226577
vt 1.0000000 0.6250000
v 0.8370250 0.3660894 0.5226577
vt 1.0000000 0.3750000
v 0.6577994 0.1841026 0.4143296
vt 0.0000000 0.3750000
f 113/113 114/114 115/115 116/116
usemtl steel
v 0.6650266 0.2039592 0.3690142
vt 0.0000000 0.3750000
v 0.8442522 0.3859460 0.4773423
vt 1.0000000 0.3750000
v 0.8794906 0.3731202 0.4773423
vt 1.0000000 0.6250000
v 0.6817245 0.1723072 0.3578078
vt 0.0000000 0.6250000
f 117/117 118/118 119/119 120/120
usemtl dark
v 0.6577994 0.1841026 0.4143296
vt 0.0000000 0.6250000
v 0.8370250 0.3660894 0.5226577
vt 1.0000000 0.6250000
v 0.8442522 0.3859460 0.4773423
vt 1.0000000 0.3750000
v 0.6650266 0.2039592 0.3690142
vt 0.0000000 0.3750000
f 121/121 122/122 123/123 124/124
usemtl steel
v 0.6817245 0.1723072 0.3578078
vt 0.0000000 0.3750000
v 0.8794906 0.3731202 0.4773423
vt 1.0000000 0.3750000
v 0.8722634 0.3532637 0.5226577
vt 1.0000000 0.6250000
v 0.6744973 0.1524506 0.4031232
vt 0.0000000 0.6250000
f 125/125 126/126 127/127 128/128
usemtl steel
v 0.0491783 0.5588158 0.5124892
vt 0.0000000 0.6250000
v 0.1014867 0.7025319 0.5838060
vt 1.0000000 0.6250000
v 0.1168445 0.7447271 0.4875108
vt 1.0000000 0.3750000
v 0.0645361 0.6010110 0.4161940
vt 0.0000000 0.3750000
f 129/129 130/130 131/131 132/132
usemtl dark
v 0.1467592 0.5710842 0.4161940
vt 0.0000000 0.3750000
v 0.1990676 0.7148003 0.4875108
vt 1.0000000 0.3750000
v 0.1837098 0.6726051 0.5838060
vt 1.0000000 0.6250000
v 0.1314014 0.5288890 0.5124892
vt 0.0000000 0.6250000
f 133/133 134/134 135/135 136/136
usemtl dark
v 0.0645361 0.6010110 0.4161940
vt 0.0000000 0.3750000
v 0.1467592 0.5710842 0.4161940
vt 1.0000000 0.3750000
v 0.1314014 0.5288890 0.5124892
vt 1.0000000 0.6250000
v 0.0491783 0.5588158 0.5124892
vt 0.0000000 0.6250000
f 137/137 138/138 139/139 140/140
usemtl steel
v 0.1014867 0.7025319 0.5838060
vt 0.0000000 0.6250000
v 0.1837098 0.6726051 0.5838060
vt 1.0000000 0.6250000
v 0.1990676 0.7148003 0.4875108
vt 1.0000000 0.3750000
v 0.1168445 0.7447271 0.4875108
vt 0.0000000 0.3750000
f 141/141 142/142 143/143 144/144
usemtl steel
v 0.1168445 0.7447271 0.4875108
vt 0.0000000 0.6250000
v 0.1990676 0.7148003 0.4875108
vt 1.0000000 0.6250000
v 0.1467592 0.5710842 0.4161940
vt 1.0000000 0.3750000
v 0.0645361 0.6010110 0.4161940
vt 0.0000000 0.3750000
f 145/145 146/146 147/147 148/148
usemtl steel
v 0.0491783 0.5588158 0.5124892
vt 0.0000000 0.3750000
v 0.1314014 0.5288890 0.5124892
vt 1.0000000 0.3750000
v 0.1837098 0.6726051 0.5838060
vt 1.0000000 0.6250000
v 0.1014867 0.7025319 0.5838060
vt 0.0000000 0.6250000
f 149/149 150/150 151/151 152/152
usemtl lamp
v 0.0675025 0.6128158 0.5011451
vt 0.4375000 0.5000000
v 0.0907507 0.6766897 0.5328415
vt 0.5000000 0.5000000
v 0.0961711 0.6915821 0.4988549
vt 0.5000000 0.4375000
v 0.0729229 0.6277083 0.4671585
vt 0.4375000 0.4375000
f 153/153 154/154 155/155 156/156
usemtl dark
v 0.8009324 0.2851997 0.5124892
vt 0.0000000 0.6250000
v 0.8532408 0.4289158 0.5838060
vt 1.0000000 0.6250000
v 0.8685986 0.4711110 0.4875108
vt 1.0000000 0.3750000
v 0.8162902 0.3273949 0.4161940
vt 0.0000000 0.3750000
f 157/157 158/158 159/159 160/160
usemtl steel
v 0.8985133 0.2974681 0.4161940
vt 0.0000000 0.3750000
v 0.9508217 0.4411842 0.4875108
vt 1.0000000 0.3750000
v 0.9354639 0.3989890 0.5838060
vt 1.0000000 0.6250000
v 0.8831555 0.2552729 0.5124892
vt 0.0000000 0.6250000
f 161/161 162/162 163/163 164/164
usemtl dark
v 0.8162902 0.3273949 0.4161940
vt 0.0000000 0.3750000
v 0.8985133 0.2974681 0.4161940
vt 1.0000000 0.3750000
v 0.8831555 0.2552729 0.5124892
vt 1.0000000 0.6250000
v 0.8009324 0.2851997 0.5124892
vt 0.0000000 0.6250000
f 165/165 166/166 167/167 168/168
usemtl steel
v 0.8532408 0.4289158 0.5838060
vt 0.0000000 0.6250000
v 0.9354639 0.3989890 0.5838060
vt 1.0000000 0.6250000
v 0.9508217 0.4411842 0.4875108
vt 1.0000000 0.3750000
v 0.8685986 0.4711110 0.4875108
vt 0.0000000 0.3750000
f 169/169 170/170 171/171 172/172
usemtl steel
v 0.8685986 0.4711110 0.4875108
vt 0.0000000 0.6250000
v 0.9508217 0.4411842 0.4875108
vt 1.0000000 0.6250000
v 0.8985133 0.2974681 0.4161940
vt 1.0000000 0.3750000
v 0.8162902 0.3273949 0.4161940
vt 0.0000000 0.3750000
f 173/173 174/174 175/175 176/176
usemtl steel
v 0.8009324 0.2851997 0.5124892
vt 0.0000000 0.3750000
v 0.8831555 0.2552729 0.5124892
vt 1.0000000 0.3750000
v 0.9354639 0.3989890 0.5838060
vt 1.0000000 0.6250000
v 0.8532408 0.4289158 0.5838060
vt 0.0000000 0.6250000
f 177/177 178/178 179/179 180/180
usemtl lamp
v 0.9092493 0.3233103 0.4671585
vt 0.4375000 0.4375000
v 0.9324975 0.3871842 0.4988549
vt 0.5000000 0.4375000
v 0.9270771 0.3722917 0.5328415
vt 0.5000000 0.5000000
v 0.9038289 0.3084179 0.5011451
vt 0.4375000 0.5000000
f 181/181 182/182 183/183 184/184
