# Original material mesh. Generated by tools/stellar_materials.py.
mtllib stellar_material.mtl
usemtl energy
v 0.6812500 0.6875000 0.5000000
vt 0 0
v 0.6281631 0.6875000 0.6281631
vt 1 0
v 0.6281631 0.3125000 0.6281631
vt 1 1
v 0.6812500 0.3125000 0.5000000
vt 0 1
f 1/1 2/2 3/3 4/4
usemtl energy
v 0.5000000 0.3125000 0.5000000
vt 0 0
v 0.6812500 0.3125000 0.5000000
vt 1 0
v 0.6281631 0.3125000 0.6281631
vt 1 1
v 0.5000000 0.3125000 0.5000000
vt 0 1
f 5/5 6/6 7/7 8/8
usemtl energy
v 0.5000000 0.6875000 0.5000000
vt 0 0
v 0.6281631 0.6875000 0.6281631
vt 1 0
v 0.6812500 0.6875000 0.5000000
vt 1 1
v 0.5000000 0.6875000 0.5000000
vt 0 1
f 9/9 10/10 11/11 12/12
usemtl energy
v 0.6281631 0.6875000 0.6281631
vt 0 0
v 0.5000000 0.6875000 0.6812500
vt 1 0
v 0.5000000 0.3125000 0.6812500
vt 1 1
v 0.6281631 0.3125000 0.6281631
vt 0 1
f 13/13 14/14 15/15 16/16
usemtl energy
v 0.5000000 0.3125000 0.5000000
vt 0 0
v 0.6281631 0.3125000 0.6281631
vt 1 0
v 0.5000000 0.3125000 0.6812500
vt 1 1
v 0.5000000 0.3125000 0.5000000
vt 0 1
f 17/17 18/18 19/19 20/20
usemtl energy
v 0.5000000 0.6875000 0.5000000
vt 0 0
v 0.5000000 0.6875000 0.6812500
vt 1 0
v 0.6281631 0.6875000 0.6281631
vt 1 1
v 0.5000000 0.6875000 0.5000000
vt 0 1
f 21/21 22/22 23/23 24/24
usemtl energy
v 0.5000000 0.6875000 0.6812500
vt 0 0
v 0.3718369 0.6875000 0.6281631
vt 1 0
v 0.3718369 0.3125000 0.6281631
vt 1 1
v 0.5000000 0.3125000 0.6812500
vt 0 1
f 25/25 26/26 27/27 28/28
usemtl energy
v 0.5000000 0.3125000 0.5000000
vt 0 0
v 0.5000000 0.3125000 0.6812500
vt 1 0
v 0.3718369 0.3125000 0.6281631
vt 1 1
v 0.5000000 0.3125000 0.5000000
vt 0 1
f 29/29 30/30 31/31 32/32
usemtl energy
v 0.5000000 0.6875000 0.5000000
vt 0 0
v 0.3718369 0.6875000 0.6281631
vt 1 0
v 0.5000000 0.6875000 0.6812500
vt 1 1
v 0.5000000 0.6875000 0.5000000
vt 0 1
f 33/33 34/34 35/35 36/36
usemtl energy
v 0.3718369 0.6875000 0.6281631
vt 0 0
v 0.3187500 0.6875000 0.5000000
vt 1 0
v 0.3187500 0.3125000 0.5000000
vt 1 1
v 0.3718369 0.3125000 0.6281631
vt 0 1
f 37/37 38/38 39/39 40/40
usemtl energy
v 0.5000000 0.3125000 0.5000000
vt 0 0
v 0.3718369 0.3125000 0.6281631
vt 1 0
v 0.3187500 0.3125000 0.5000000
vt 1 1
v 0.5000000 0.3125000 0.5000000
vt 0 1
f 41/41 42/42 43/43 44/44
usemtl energy
v 0.5000000 0.6875000 0.5000000
vt 0 0
v 0.3187500 0.6875000 0.5000000
vt 1 0
v 0.3718369 0.6875000 0.6281631
vt 1 1
v 0.5000000 0.6875000 0.5000000
vt 0 1
f 45/45 46/46 47/47 48/48
usemtl energy
v 0.3187500 0.6875000 0.5000000
vt 0 0
v 0.3718369 0.6875000 0.3718369
vt 1 0
v 0.3718369 0.3125000 0.3718369
vt 1 1
v 0.3187500 0.3125000 0.5000000
vt 0 1
f 49/49 50/50 51/51 52/52
usemtl energy
v 0.5000000 0.3125000 0.5000000
vt 0 0
v 0.3187500 0.3125000 0.5000000
vt 1 0
v 0.3718369 0.3125000 0.3718369
vt 1 1
v 0.5000000 0.3125000 0.5000000
vt 0 1
f 53/53 54/54 55/55 56/56
usemtl energy
v 0.5000000 0.6875000 0.5000000
vt 0 0
v 0.3718369 0.6875000 0.3718369
vt 1 0
v 0.3187500 0.6875000 0.5000000
vt 1 1
v 0.5000000 0.6875000 0.5000000
vt 0 1
f 57/57 58/58 59/59 60/60
usemtl energy
v 0.3718369 0.6875000 0.3718369
vt 0 0
v 0.5000000 0.6875000 0.3187500
vt 1 0
v 0.5000000 0.3125000 0.3187500
vt 1 1
v 0.3718369 0.3125000 0.3718369
vt 0 1
f 61/61 62/62 63/63 64/64
usemtl energy
v 0.5000000 0.3125000 0.5000000
vt 0 0
v 0.3718369 0.3125000 0.3718369
vt 1 0
v 0.5000000 0.3125000 0.3187500
vt 1 1
v 0.5000000 0.3125000 0.5000000
vt 0 1
f 65/65 66/66 67/67 68/68
usemtl energy
v 0.5000000 0.6875000 0.5000000
vt 0 0
v 0.5000000 0.6875000 0.3187500
vt 1 0
v 0.3718369 0.6875000 0.3718369
vt 1 1
v 0.5000000 0.6875000 0.5000000
vt 0 1
f 69/69 70/70 71/71 72/72
usemtl energy
v 0.5000000 0.6875000 0.3187500
vt 0 0
v 0.6281631 0.6875000 0.3718369
vt 1 0
v 0.6281631 0.3125000 0.3718369
vt 1 1
v 0.5000000 0.3125000 0.3187500
vt 0 1
f 73/73 74/74 75/75 76/76
usemtl energy
v 0.5000000 0.3125000 0.5000000
vt 0 0
v 0.5000000 0.3125000 0.3187500
vt 1 0
v 0.6281631 0.3125000 0.3718369
vt 1 1
v 0.5000000 0.3125000 0.5000000
vt 0 1
f 77/77 78/78 79/79 80/80
usemtl energy
v 0.5000000 0.6875000 0.5000000
vt 0 0
v 0.6281631 0.6875000 0.3718369
vt 1 0
v 0.5000000 0.6875000 0.3187500
vt 1 1
v 0.5000000 0.6875000 0.5000000
vt 0 1
f 81/81 82/82 83/83 84/84
usemtl energy
v 0.6281631 0.6875000 0.3718369
vt 0 0
v 0.6812500 0.6875000 0.5000000
vt 1 0
v 0.6812500 0.3125000 0.5000000
vt 1 1
v 0.6281631 0.3125000 0.3718369
vt 0 1
f 85/85 86/86 87/87 88/88
usemtl energy
v 0.5000000 0.3125000 0.5000000
vt 0 0
v 0.6281631 0.3125000 0.3718369
vt 1 0
v 0.6812500 0.3125000 0.5000000
vt 1 1
v 0.5000000 0.3125000 0.5000000
vt 0 1
f 89/89 90/90 91/91 92/92
usemtl energy
v 0.5000000 0.6875000 0.5000000
vt 0 0
v 0.6812500 0.6875000 0.5000000
vt 1 0
v 0.6281631 0.6875000 0.3718369
vt 1 1
v 0.5000000 0.6875000 0.5000000
vt 0 1
f 93/93 94/94 95/95 96/96
usemtl steel
v 0.7187500 0.3125000 0.5000000
vt 0 0.375
v 0.6546796 0.3125000 0.6546796
vt 1 0.375
v 0.6546796 0.1562500 0.6546796
vt 1 0.625
v 0.7187500 0.1562500 0.5000000
vt 0 0.625
f 97/97 98/98 99/99 100/100
usemtl steel
v 0.5000000 0.1562500 0.5000000
vt 0 0.375
v 0.7187500 0.1562500 0.5000000
vt 1 0.375
v 0.6546796 0.1562500 0.6546796
vt 1 0.625
v 0.5000000 0.1562500 0.5000000
vt 0 0.625
f 101/101 102/102 103/103 104/104
usemtl steel
v 0.5000000 0.3125000 0.5000000
vt 0 0.375
v 0.6546796 0.3125000 0.6546796
vt 1 0.375
v 0.7187500 0.3125000 0.5000000
vt 1 0.625
v 0.5000000 0.3125000 0.5000000
vt 0 0.625
f 105/105 106/106 107/107 108/108
usemtl steel
v 0.6546796 0.3125000 0.6546796
vt 0 0.375
v 0.5000000 0.3125000 0.7187500
vt 1 0.375
v 0.5000000 0.1562500 0.7187500
vt 1 0.625
v 0.6546796 0.1562500 0.6546796
vt 0 0.625
f 109/109 110/110 111/111 112/112
usemtl steel
v 0.5000000 0.1562500 0.5000000
vt 0 0.375
v 0.6546796 0.1562500 0.6546796
vt 1 0.375
v 0.5000000 0.1562500 0.7187500
vt 1 0.625
v 0.5000000 0.1562500 0.5000000
vt 0 0.625
f 113/113 114/114 115/115 116/116
usemtl steel
v 0.5000000 0.3125000 0.5000000
vt 0 0.375
v 0.5000000 0.3125000 0.7187500
vt 1 0.375
v 0.6546796 0.3125000 0.6546796
vt 1 0.625
v 0.5000000 0.3125000 0.5000000
vt 0 0.625
f 117/117 118/118 119/119 120/120
usemtl steel
v 0.5000000 0.3125000 0.7187500
vt 0 0.375
v 0.3453204 0.3125000 0.6546796
vt 1 0.375
v 0.3453204 0.1562500 0.6546796
vt 1 0.625
v 0.5000000 0.1562500 0.7187500
vt 0 0.625
f 121/121 122/122 123/123 124/124
usemtl steel
v 0.5000000 0.1562500 0.5000000
vt 0 0.375
v 0.5000000 0.1562500 0.7187500
vt 1 0.375
v 0.3453204 0.1562500 0.6546796
vt 1 0.625
v 0.5000000 0.1562500 0.5000000
vt 0 0.625
f 125/125 126/126 127/127 128/128
usemtl steel
v 0.5000000 0.3125000 0.5000000
vt 0 0.375
v 0.3453204 0.3125000 0.6546796
vt 1 0.375
v 0.5000000 0.3125000 0.7187500
vt 1 0.625
v 0.5000000 0.3125000 0.5000000
vt 0 0.625
f 129/129 130/130 131/131 132/132
usemtl steel
v 0.3453204 0.3125000 0.6546796
vt 0 0.375
v 0.2812500 0.3125000 0.5000000
vt 1 0.375
v 0.2812500 0.1562500 0.5000000
vt 1 0.625
v 0.3453204 0.1562500 0.6546796
vt 0 0.625
f 133/133 134/134 135/135 136/136
usemtl steel
v 0.5000000 0.1562500 0.5000000
vt 0 0.375
v 0.3453204 0.1562500 0.6546796
vt 1 0.375
v 0.2812500 0.1562500 0.5000000
vt 1 0.625
v 0.5000000 0.1562500 0.5000000
vt 0 0.625
f 137/137 138/138 139/139 140/140
usemtl steel
v 0.5000000 0.3125000 0.5000000
vt 0 0.375
v 0.2812500 0.3125000 0.5000000
vt 1 0.375
v 0.3453204 0.3125000 0.6546796
vt 1 0.625
v 0.5000000 0.3125000 0.5000000
vt 0 0.625
f 141/141 142/142 143/143 144/144
usemtl steel
v 0.2812500 0.3125000 0.5000000
vt 0 0.375
v 0.3453204 0.3125000 0.3453204
vt 1 0.375
v 0.3453204 0.1562500 0.3453204
vt 1 0.625
v 0.2812500 0.1562500 0.5000000
vt 0 0.625
f 145/145 146/146 147/147 148/148
usemtl steel
v 0.5000000 0.1562500 0.5000000
vt 0 0.375
v 0.2812500 0.1562500 0.5000000
vt 1 0.375
v 0.3453204 0.1562500 0.3453204
vt 1 0.625
v 0.5000000 0.1562500 0.5000000
vt 0 0.625
f 149/149 150/150 151/151 152/152
usemtl steel
v 0.5000000 0.3125000 0.5000000
vt 0 0.375
v 0.3453204 0.3125000 0.3453204
vt 1 0.375
v 0.2812500 0.3125000 0.5000000
vt 1 0.625
v 0.5000000 0.3125000 0.5000000
vt 0 0.625
f 153/153 154/154 155/155 156/156
usemtl steel
v 0.3453204 0.3125000 0.3453204
vt 0 0.375
v 0.5000000 0.3125000 0.2812500
vt 1 0.375
v 0.5000000 0.1562500 0.2812500
vt 1 0.625
v 0.3453204 0.1562500 0.3453204
vt 0 0.625
f 157/157 158/158 159/159 160/160
usemtl steel
v 0.5000000 0.1562500 0.5000000
vt 0 0.375
v 0.3453204 0.1562500 0.3453204
vt 1 0.375
v 0.5000000 0.1562500 0.2812500
vt 1 0.625
v 0.5000000 0.1562500 0.5000000
vt 0 0.625
f 161/161 162/162 163/163 164/164
usemtl steel
v 0.5000000 0.3125000 0.5000000
vt 0 0.375
v 0.5000000 0.3125000 0.2812500
vt 1 0.375
v 0.3453204 0.3125000 0.3453204
vt 1 0.625
v 0.5000000 0.3125000 0.5000000
vt 0 0.625
f 165/165 166/166 167/167 168/168
usemtl steel
v 0.5000000 0.3125000 0.2812500
vt 0 0.375
v 0.6546796 0.3125000 0.3453204
vt 1 0.375
v 0.6546796 0.1562500 0.3453204
vt 1 0.625
v 0.5000000 0.1562500 0.2812500
vt 0 0.625
f 169/169 170/170 171/171 172/172
usemtl steel
v 0.5000000 0.1562500 0.5000000
vt 0 0.375
v 0.5000000 0.1562500 0.2812500
vt 1 0.375
v 0.6546796 0.1562500 0.3453204
vt 1 0.625
v 0.5000000 0.1562500 0.5000000
vt 0 0.625
f 173/173 174/174 175/175 176/176
usemtl steel
v 0.5000000 0.3125000 0.5000000
vt 0 0.375
v 0.6546796 0.3125000 0.3453204
vt 1 0.375
v 0.5000000 0.3125000 0.2812500
vt 1 0.625
v 0.5000000 0.3125000 0.5000000
vt 0 0.625
f 177/177 178/178 179/179 180/180
usemtl steel
v 0.6546796 0.3125000 0.3453204
vt 0 0.375
v 0.7187500 0.3125000 0.5000000
vt 1 0.375
v 0.7187500 0.1562500 0.5000000
vt 1 0.625
v 0.6546796 0.1562500 0.3453204
vt 0 0.625
f 181/181 182/182 183/183 184/184
usemtl steel
v 0.5000000 0.1562500 0.5000000
vt 0 0.375
v 0.6546796 0.1562500 0.3453204
vt 1 0.375
v 0.7187500 0.1562500 0.5000000
vt 1 0.625
v 0.5000000 0.1562500 0.5000000
vt 0 0.625
f 185/185 186/186 187/187 188/188
usemtl steel
v 0.5000000 0.3125000 0.5000000
vt 0 0.375
v 0.7187500 0.3125000 0.5000000
vt 1 0.375
v 0.6546796 0.3125000 0.3453204
vt 1 0.625
v 0.5000000 0.3125000 0.5000000
vt 0 0.625
f 189/189 190/190 191/191 192/192
usemtl steel
v 0.7187500 0.8437500 0.5000000
vt 0 0.375
v 0.6546796 0.8437500 0.6546796
vt 1 0.375
v 0.6546796 0.6875000 0.6546796
vt 1 0.625
v 0.7187500 0.6875000 0.5000000
vt 0 0.625
f 193/193 194/194 195/195 196/196
usemtl steel
v 0.5000000 0.6875000 0.5000000
vt 0 0.375
v 0.7187500 0.6875000 0.5000000
vt 1 0.375
v 0.6546796 0.6875000 0.6546796
vt 1 0.625
v 0.5000000 0.6875000 0.5000000
vt 0 0.625
f 197/197 198/198 199/199 200/200
usemtl steel
v 0.5000000 0.8437500 0.5000000
vt 0 0.375
v 0.6546796 0.8437500 0.6546796
vt 1 0.375
v 0.7187500 0.8437500 0.5000000
vt 1 0.625
v 0.5000000 0.8437500 0.5000000
vt 0 0.625
f 201/201 202/202 203/203 204/204
usemtl steel
v 0.6546796 0.8437500 0.6546796
vt 0 0.375
v 0.5000000 0.8437500 0.7187500
vt 1 0.375
v 0.5000000 0.6875000 0.7187500
vt 1 0.625
v 0.6546796 0.6875000 0.6546796
vt 0 0.625
f 205/205 206/206 207/207 208/208
usemtl steel
v 0.5000000 0.6875000 0.5000000
vt 0 0.375
v 0.6546796 0.6875000 0.6546796
vt 1 0.375
v 0.5000000 0.6875000 0.7187500
vt 1 0.625
v 0.5000000 0.6875000 0.5000000
vt 0 0.625
f 209/209 210/210 211/211 212/212
usemtl steel
v 0.5000000 0.8437500 0.5000000
vt 0 0.375
v 0.5000000 0.8437500 0.7187500
vt 1 0.375
v 0.6546796 0.8437500 0.6546796
vt 1 0.625
v 0.5000000 0.8437500 0.5000000
vt 0 0.625
f 213/213 214/214 215/215 216/216
usemtl steel
v 0.5000000 0.8437500 0.7187500
vt 0 0.375
v 0.3453204 0.8437500 0.6546796
vt 1 0.375
v 0.3453204 0.6875000 0.6546796
vt 1 0.625
v 0.5000000 0.6875000 0.7187500
vt 0 0.625
f 217/217 218/218 219/219 220/220
usemtl steel
v 0.5000000 0.6875000 0.5000000
vt 0 0.375
v 0.5000000 0.6875000 0.7187500
vt 1 0.375
v 0.3453204 0.6875000 0.6546796
vt 1 0.625
v 0.5000000 0.6875000 0.5000000
vt 0 0.625
f 221/221 222/222 223/223 224/224
usemtl steel
v 0.5000000 0.8437500 0.5000000
vt 0 0.375
v 0.3453204 0.8437500 0.6546796
vt 1 0.375
v 0.5000000 0.8437500 0.7187500
vt 1 0.625
v 0.5000000 0.8437500 0.5000000
vt 0 0.625
f 225/225 226/226 227/227 228/228
usemtl steel
v 0.3453204 0.8437500 0.6546796
vt 0 0.375
v 0.2812500 0.8437500 0.5000000
vt 1 0.375
v 0.2812500 0.6875000 0.5000000
vt 1 0.625
v 0.3453204 0.6875000 0.6546796
vt 0 0.625
f 229/229 230/230 231/231 232/232
usemtl steel
v 0.5000000 0.6875000 0.5000000
vt 0 0.375
v 0.3453204 0.6875000 0.6546796
vt 1 0.375
v 0.2812500 0.6875000 0.5000000
vt 1 0.625
v 0.5000000 0.6875000 0.5000000
vt 0 0.625
f 233/233 234/234 235/235 236/236
usemtl steel
v 0.5000000 0.8437500 0.5000000
vt 0 0.375
v 0.2812500 0.8437500 0.5000000
vt 1 0.375
v 0.3453204 0.8437500 0.6546796
vt 1 0.625
v 0.5000000 0.8437500 0.5000000
vt 0 0.625
f 237/237 238/238 239/239 240/240
usemtl steel
v 0.2812500 0.8437500 0.5000000
vt 0 0.375
v 0.3453204 0.8437500 0.3453204
vt 1 0.375
v 0.3453204 0.6875000 0.3453204
vt 1 0.625
v 0.2812500 0.6875000 0.5000000
vt 0 0.625
f 241/241 242/242 243/243 244/244
usemtl steel
v 0.5000000 0.6875000 0.5000000
vt 0 0.375
v 0.2812500 0.6875000 0.5000000
vt 1 0.375
v 0.3453204 0.6875000 0.3453204
vt 1 0.625
v 0.5000000 0.6875000 0.5000000
vt 0 0.625
f 245/245 246/246 247/247 248/248
usemtl steel
v 0.5000000 0.8437500 0.5000000
vt 0 0.375
v 0.3453204 0.8437500 0.3453204
vt 1 0.375
v 0.2812500 0.8437500 0.5000000
vt 1 0.625
v 0.5000000 0.8437500 0.5000000
vt 0 0.625
f 249/249 250/250 251/251 252/252
usemtl steel
v 0.3453204 0.8437500 0.3453204
vt 0 0.375
v 0.5000000 0.8437500 0.2812500
vt 1 0.375
v 0.5000000 0.6875000 0.2812500
vt 1 0.625
v 0.3453204 0.6875000 0.3453204
vt 0 0.625
f 253/253 254/254 255/255 256/256
usemtl steel
v 0.5000000 0.6875000 0.5000000
vt 0 0.375
v 0.3453204 0.6875000 0.3453204
vt 1 0.375
v 0.5000000 0.6875000 0.2812500
vt 1 0.625
v 0.5000000 0.6875000 0.5000000
vt 0 0.625
f 257/257 258/258 259/259 260/260
usemtl steel
v 0.5000000 0.8437500 0.5000000
vt 0 0.375
v 0.5000000 0.8437500 0.2812500
vt 1 0.375
v 0.3453204 0.8437500 0.3453204
vt 1 0.625
v 0.5000000 0.8437500 0.5000000
vt 0 0.625
f 261/261 262/262 263/263 264/264
usemtl steel
v 0.5000000 0.8437500 0.2812500
vt 0 0.375
v 0.6546796 0.8437500 0.3453204
vt 1 0.375
v 0.6546796 0.6875000 0.3453204
vt 1 0.625
v 0.5000000 0.6875000 0.2812500
vt 0 0.625
f 265/265 266/266 267/267 268/268
usemtl steel
v 0.5000000 0.6875000 0.5000000
vt 0 0.375
v 0.5000000 0.6875000 0.2812500
vt 1 0.375
v 0.6546796 0.6875000 0.3453204
vt 1 0.625
v 0.5000000 0.6875000 0.5000000
vt 0 0.625
f 269/269 270/270 271/271 272/272
usemtl steel
v 0.5000000 0.8437500 0.5000000
vt 0 0.375
v 0.6546796 0.8437500 0.3453204
vt 1 0.375
v 0.5000000 0.8437500 0.2812500
vt 1 0.625
v 0.5000000 0.8437500 0.5000000
vt 0 0.625
f 273/273 274/274 275/275 276/276
usemtl steel
v 0.6546796 0.8437500 0.3453204
vt 0 0.375
v 0.7187500 0.8437500 0.5000000
vt 1 0.375
v 0.7187500 0.6875000 0.5000000
vt 1 0.625
v 0.6546796 0.6875000 0.3453204
vt 0 0.625
f 277/277 278/278 279/279 280/280
usemtl steel
v 0.5000000 0.6875000 0.5000000
vt 0 0.375
v 0.6546796 0.6875000 0.3453204
vt 1 0.375
v 0.7187500 0.6875000 0.5000000
vt 1 0.625
v 0.5000000 0.6875000 0.5000000
vt 0 0.625
f 281/281 282/282 283/283 284/284
usemtl steel
v 0.5000000 0.8437500 0.5000000
vt 0 0.375
v 0.7187500 0.8437500 0.5000000
vt 1 0.375
v 0.6546796 0.8437500 0.3453204
vt 1 0.625
v 0.5000000 0.8437500 0.5000000
vt 0 0.625
f 285/285 286/286 287/287 288/288
usemtl dark
v 0.6125000 0.1562500 0.5000000
vt 0 0.375
v 0.5795495 0.1562500 0.5795495
vt 1 0.375
v 0.5795495 0.0937500 0.5795495
vt 1 0.625
v 0.6125000 0.0937500 0.5000000
vt 0 0.625
f 289/289 290/290 291/291 292/292
usemtl dark
v 0.5000000 0.0937500 0.5000000
vt 0 0.375
v 0.6125000 0.0937500 0.5000000
vt 1 0.375
v 0.5795495 0.0937500 0.5795495
vt 1 0.625
v 0.5000000 0.0937500 0.5000000
vt 0 0.625
f 293/293 294/294 295/295 296/296
usemtl dark
v 0.5000000 0.1562500 0.5000000
vt 0 0.375
v 0.5795495 0.1562500 0.5795495
vt 1 0.375
v 0.6125000 0.1562500 0.5000000
vt 1 0.625
v 0.5000000 0.1562500 0.5000000
vt 0 0.625
f 297/297 298/298 299/299 300/300
usemtl dark
v 0.5795495 0.1562500 0.5795495
vt 0 0.375
v 0.5000000 0.1562500 0.6125000
vt 1 0.375
v 0.5000000 0.0937500 0.6125000
vt 1 0.625
v 0.5795495 0.0937500 0.5795495
vt 0 0.625
f 301/301 302/302 303/303 304/304
usemtl dark
v 0.5000000 0.0937500 0.5000000
vt 0 0.375
v 0.5795495 0.0937500 0.5795495
vt 1 0.375
v 0.5000000 0.0937500 0.6125000
vt 1 0.625
v 0.5000000 0.0937500 0.5000000
vt 0 0.625
f 305/305 306/306 307/307 308/308
usemtl dark
v 0.5000000 0.1562500 0.5000000
vt 0 0.375
v 0.5000000 0.1562500 0.6125000
vt 1 0.375
v 0.5795495 0.1562500 0.5795495
vt 1 0.625
v 0.5000000 0.1562500 0.5000000
vt 0 0.625
f 309/309 310/310 311/311 312/312
usemtl dark
v 0.5000000 0.1562500 0.6125000
vt 0 0.375
v 0.4204505 0.1562500 0.5795495
vt 1 0.375
v 0.4204505 0.0937500 0.5795495
vt 1 0.625
v 0.5000000 0.0937500 0.6125000
vt 0 0.625
f 313/313 314/314 315/315 316/316
usemtl dark
v 0.5000000 0.0937500 0.5000000
vt 0 0.375
v 0.5000000 0.0937500 0.6125000
vt 1 0.375
v 0.4204505 0.0937500 0.5795495
vt 1 0.625
v 0.5000000 0.0937500 0.5000000
vt 0 0.625
f 317/317 318/318 319/319 320/320
usemtl dark
v 0.5000000 0.1562500 0.5000000
vt 0 0.375
v 0.4204505 0.1562500 0.5795495
vt 1 0.375
v 0.5000000 0.1562500 0.6125000
vt 1 0.625
v 0.5000000 0.1562500 0.5000000
vt 0 0.625
f 321/321 322/322 323/323 324/324
usemtl dark
v 0.4204505 0.1562500 0.5795495
vt 0 0.375
v 0.3875000 0.1562500 0.5000000
vt 1 0.375
v 0.3875000 0.0937500 0.5000000
vt 1 0.625
v 0.4204505 0.0937500 0.5795495
vt 0 0.625
f 325/325 326/326 327/327 328/328
usemtl dark
v 0.5000000 0.0937500 0.5000000
vt 0 0.375
v 0.4204505 0.0937500 0.5795495
vt 1 0.375
v 0.3875000 0.0937500 0.5000000
vt 1 0.625
v 0.5000000 0.0937500 0.5000000
vt 0 0.625
f 329/329 330/330 331/331 332/332
usemtl dark
v 0.5000000 0.1562500 0.5000000
vt 0 0.375
v 0.3875000 0.1562500 0.5000000
vt 1 0.375
v 0.4204505 0.1562500 0.5795495
vt 1 0.625
v 0.5000000 0.1562500 0.5000000
vt 0 0.625
f 333/333 334/334 335/335 336/336
usemtl dark
v 0.3875000 0.1562500 0.5000000
vt 0 0.375
v 0.4204505 0.1562500 0.4204505
vt 1 0.375
v 0.4204505 0.0937500 0.4204505
vt 1 0.625
v 0.3875000 0.0937500 0.5000000
vt 0 0.625
f 337/337 338/338 339/339 340/340
usemtl dark
v 0.5000000 0.0937500 0.5000000
vt 0 0.375
v 0.3875000 0.0937500 0.5000000
vt 1 0.375
v 0.4204505 0.0937500 0.4204505
vt 1 0.625
v 0.5000000 0.0937500 0.5000000
vt 0 0.625
f 341/341 342/342 343/343 344/344
usemtl dark
v 0.5000000 0.1562500 0.5000000
vt 0 0.375
v 0.4204505 0.1562500 0.4204505
vt 1 0.375
v 0.3875000 0.1562500 0.5000000
vt 1 0.625
v 0.5000000 0.1562500 0.5000000
vt 0 0.625
f 345/345 346/346 347/347 348/348
usemtl dark
v 0.4204505 0.1562500 0.4204505
vt 0 0.375
v 0.5000000 0.1562500 0.3875000
vt 1 0.375
v 0.5000000 0.0937500 0.3875000
vt 1 0.625
v 0.4204505 0.0937500 0.4204505
vt 0 0.625
f 349/349 350/350 351/351 352/352
usemtl dark
v 0.5000000 0.0937500 0.5000000
vt 0 0.375
v 0.4204505 0.0937500 0.4204505
vt 1 0.375
v 0.5000000 0.0937500 0.3875000
vt 1 0.625
v 0.5000000 0.0937500 0.5000000
vt 0 0.625
f 353/353 354/354 355/355 356/356
usemtl dark
v 0.5000000 0.1562500 0.5000000
vt 0 0.375
v 0.5000000 0.1562500 0.3875000
vt 1 0.375
v 0.4204505 0.1562500 0.4204505
vt 1 0.625
v 0.5000000 0.1562500 0.5000000
vt 0 0.625
f 357/357 358/358 359/359 360/360
usemtl dark
v 0.5000000 0.1562500 0.3875000
vt 0 0.375
v 0.5795495 0.1562500 0.4204505
vt 1 0.375
v 0.5795495 0.0937500 0.4204505
vt 1 0.625
v 0.5000000 0.0937500 0.3875000
vt 0 0.625
f 361/361 362/362 363/363 364/364
usemtl dark
v 0.5000000 0.0937500 0.5000000
vt 0 0.375
v 0.5000000 0.0937500 0.3875000
vt 1 0.375
v 0.5795495 0.0937500 0.4204505
vt 1 0.625
v 0.5000000 0.0937500 0.5000000
vt 0 0.625
f 365/365 366/366 367/367 368/368
usemtl dark
v 0.5000000 0.1562500 0.5000000
vt 0 0.375
v 0.5795495 0.1562500 0.4204505
vt 1 0.375
v 0.5000000 0.1562500 0.3875000
vt 1 0.625
v 0.5000000 0.1562500 0.5000000
vt 0 0.625
f 369/369 370/370 371/371 372/372
usemtl dark
v 0.5795495 0.1562500 0.4204505
vt 0 0.375
v 0.6125000 0.1562500 0.5000000
vt 1 0.375
v 0.6125000 0.0937500 0.5000000
vt 1 0.625
v 0.5795495 0.0937500 0.4204505
vt 0 0.625
f 373/373 374/374 375/375 376/376
usemtl dark
v 0.5000000 0.0937500 0.5000000
vt 0 0.375
v 0.5795495 0.0937500 0.4204505
vt 1 0.375
v 0.6125000 0.0937500 0.5000000
vt 1 0.625
v 0.5000000 0.0937500 0.5000000
vt 0 0.625
f 377/377 378/378 379/379 380/380
usemtl dark
v 0.5000000 0.1562500 0.5000000
vt 0 0.375
v 0.6125000 0.1562500 0.5000000
vt 1 0.375
v 0.5795495 0.1562500 0.4204505
vt 1 0.625
v 0.5000000 0.1562500 0.5000000
vt 0 0.625
f 381/381 382/382 383/383 384/384
usemtl dark
v 0.6125000 0.9062500 0.5000000
vt 0 0.375
v 0.5795495 0.9062500 0.5795495
vt 1 0.375
v 0.5795495 0.8437500 0.5795495
vt 1 0.625
v 0.6125000 0.8437500 0.5000000
vt 0 0.625
f 385/385 386/386 387/387 388/388
usemtl dark
v 0.5000000 0.8437500 0.5000000
vt 0 0.375
v 0.6125000 0.8437500 0.5000000
vt 1 0.375
v 0.5795495 0.8437500 0.5795495
vt 1 0.625
v 0.5000000 0.8437500 0.5000000
vt 0 0.625
f 389/389 390/390 391/391 392/392
usemtl dark
v 0.5000000 0.9062500 0.5000000
vt 0 0.375
v 0.5795495 0.9062500 0.5795495
vt 1 0.375
v 0.6125000 0.9062500 0.5000000
vt 1 0.625
v 0.5000000 0.9062500 0.5000000
vt 0 0.625
f 393/393 394/394 395/395 396/396
usemtl dark
v 0.5795495 0.9062500 0.5795495
vt 0 0.375
v 0.5000000 0.9062500 0.6125000
vt 1 0.375
v 0.5000000 0.8437500 0.6125000
vt 1 0.625
v 0.5795495 0.8437500 0.5795495
vt 0 0.625
f 397/397 398/398 399/399 400/400
usemtl dark
v 0.5000000 0.8437500 0.5000000
vt 0 0.375
v 0.5795495 0.8437500 0.5795495
vt 1 0.375
v 0.5000000 0.8437500 0.6125000
vt 1 0.625
v 0.5000000 0.8437500 0.5000000
vt 0 0.625
f 401/401 402/402 403/403 404/404
usemtl dark
v 0.5000000 0.9062500 0.5000000
vt 0 0.375
v 0.5000000 0.9062500 0.6125000
vt 1 0.375
v 0.5795495 0.9062500 0.5795495
vt 1 0.625
v 0.5000000 0.9062500 0.5000000
vt 0 0.625
f 405/405 406/406 407/407 408/408
usemtl dark
v 0.5000000 0.9062500 0.6125000
vt 0 0.375
v 0.4204505 0.9062500 0.5795495
vt 1 0.375
v 0.4204505 0.8437500 0.5795495
vt 1 0.625
v 0.5000000 0.8437500 0.6125000
vt 0 0.625
f 409/409 410/410 411/411 412/412
usemtl dark
v 0.5000000 0.8437500 0.5000000
vt 0 0.375
v 0.5000000 0.8437500 0.6125000
vt 1 0.375
v 0.4204505 0.8437500 0.5795495
vt 1 0.625
v 0.5000000 0.8437500 0.5000000
vt 0 0.625
f 413/413 414/414 415/415 416/416
usemtl dark
v 0.5000000 0.9062500 0.5000000
vt 0 0.375
v 0.4204505 0.9062500 0.5795495
vt 1 0.375
v 0.5000000 0.9062500 0.6125000
vt 1 0.625
v 0.5000000 0.9062500 0.5000000
vt 0 0.625
f 417/417 418/418 419/419 420/420
usemtl dark
v 0.4204505 0.9062500 0.5795495
vt 0 0.375
v 0.3875000 0.9062500 0.5000000
vt 1 0.375
v 0.3875000 0.8437500 0.5000000
vt 1 0.625
v 0.4204505 0.8437500 0.5795495
vt 0 0.625
f 421/421 422/422 423/423 424/424
usemtl dark
v 0.5000000 0.8437500 0.5000000
vt 0 0.375
v 0.4204505 0.8437500 0.5795495
vt 1 0.375
v 0.3875000 0.8437500 0.5000000
vt 1 0.625
v 0.5000000 0.8437500 0.5000000
vt 0 0.625
f 425/425 426/426 427/427 428/428
usemtl dark
v 0.5000000 0.9062500 0.5000000
vt 0 0.375
v 0.3875000 0.9062500 0.5000000
vt 1 0.375
v 0.4204505 0.9062500 0.5795495
vt 1 0.625
v 0.5000000 0.9062500 0.5000000
vt 0 0.625
f 429/429 430/430 431/431 432/432
usemtl dark
v 0.3875000 0.9062500 0.5000000
vt 0 0.375
v 0.4204505 0.9062500 0.4204505
vt 1 0.375
v 0.4204505 0.8437500 0.4204505
vt 1 0.625
v 0.3875000 0.8437500 0.5000000
vt 0 0.625
f 433/433 434/434 435/435 436/436
usemtl dark
v 0.5000000 0.8437500 0.5000000
vt 0 0.375
v 0.3875000 0.8437500 0.5000000
vt 1 0.375
v 0.4204505 0.8437500 0.4204505
vt 1 0.625
v 0.5000000 0.8437500 0.5000000
vt 0 0.625
f 437/437 438/438 439/439 440/440
usemtl dark
v 0.5000000 0.9062500 0.5000000
vt 0 0.375
v 0.4204505 0.9062500 0.4204505
vt 1 0.375
v 0.3875000 0.9062500 0.5000000
vt 1 0.625
v 0.5000000 0.9062500 0.5000000
vt 0 0.625
f 441/441 442/442 443/443 444/444
usemtl dark
v 0.4204505 0.9062500 0.4204505
vt 0 0.375
v 0.5000000 0.9062500 0.3875000
vt 1 0.375
v 0.5000000 0.8437500 0.3875000
vt 1 0.625
v 0.4204505 0.8437500 0.4204505
vt 0 0.625
f 445/445 446/446 447/447 448/448
usemtl dark
v 0.5000000 0.8437500 0.5000000
vt 0 0.375
v 0.4204505 0.8437500 0.4204505
vt 1 0.375
v 0.5000000 0.8437500 0.3875000
vt 1 0.625
v 0.5000000 0.8437500 0.5000000
vt 0 0.625
f 449/449 450/450 451/451 452/452
usemtl dark
v 0.5000000 0.9062500 0.5000000
vt 0 0.375
v 0.5000000 0.9062500 0.3875000
vt 1 0.375
v 0.4204505 0.9062500 0.4204505
vt 1 0.625
v 0.5000000 0.9062500 0.5000000
vt 0 0.625
f 453/453 454/454 455/455 456/456
usemtl dark
v 0.5000000 0.9062500 0.3875000
vt 0 0.375
v 0.5795495 0.9062500 0.4204505
vt 1 0.375
v 0.5795495 0.8437500 0.4204505
vt 1 0.625
v 0.5000000 0.8437500 0.3875000
vt 0 0.625
f 457/457 458/458 459/459 460/460
usemtl dark
v 0.5000000 0.8437500 0.5000000
vt 0 0.375
v 0.5000000 0.8437500 0.3875000
vt 1 0.375
v 0.5795495 0.8437500 0.4204505
vt 1 0.625
v 0.5000000 0.8437500 0.5000000
vt 0 0.625
f 461/461 462/462 463/463 464/464
usemtl dark
v 0.5000000 0.9062500 0.5000000
vt 0 0.375
v 0.5795495 0.9062500 0.4204505
vt 1 0.375
v 0.5000000 0.9062500 0.3875000
vt 1 0.625
v 0.5000000 0.9062500 0.5000000
vt 0 0.625
f 465/465 466/466 467/467 468/468
usemtl dark
v 0.5795495 0.9062500 0.4204505
vt 0 0.375
v 0.6125000 0.9062500 0.5000000
vt 1 0.375
v 0.6125000 0.8437500 0.5000000
vt 1 0.625
v 0.5795495 0.8437500 0.4204505
vt 0 0.625
f 469/469 470/470 471/471 472/472
usemtl dark
v 0.5000000 0.8437500 0.5000000
vt 0 0.375
v 0.5795495 0.8437500 0.4204505
vt 1 0.375
v 0.6125000 0.8437500 0.5000000
vt 1 0.625
v 0.5000000 0.8437500 0.5000000
vt 0 0.625
f 473/473 474/474 475/475 476/476
usemtl dark
v 0.5000000 0.9062500 0.5000000
vt 0 0.375
v 0.6125000 0.9062500 0.5000000
vt 1 0.375
v 0.5795495 0.9062500 0.4204505
vt 1 0.625
v 0.5000000 0.9062500 0.5000000
vt 0 0.625
f 477/477 478/478 479/479 480/480
usemtl dark
v 0.2625000 0.3125000 0.5312500
vt 0 0.375
v 0.2625000 0.6875000 0.5312500
vt 1 0.375
v 0.2625000 0.6875000 0.4687500
vt 1 0.625
v 0.2625000 0.3125000 0.4687500
vt 0 0.625
f 481/481 482/482 483/483 484/484
usemtl dark
v 0.3125000 0.3125000 0.4687500
vt 0 0.375
v 0.3125000 0.6875000 0.4687500
vt 1 0.375
v 0.3125000 0.6875000 0.5312500
vt 1 0.625
v 0.3125000 0.3125000 0.5312500
vt 0 0.625
f 485/485 486/486 487/487 488/488
usemtl dark
v 0.2625000 0.3125000 0.4687500
vt 0 0.375
v 0.3125000 0.3125000 0.4687500
vt 1 0.375
v 0.3125000 0.3125000 0.5312500
vt 1 0.625
v 0.2625000 0.3125000 0.5312500
vt 0 0.625
f 489/489 490/490 491/491 492/492
usemtl dark
v 0.2625000 0.6875000 0.5312500
vt 0 0.375
v 0.3125000 0.6875000 0.5312500
vt 1 0.375
v 0.3125000 0.6875000 0.4687500
vt 1 0.625
v 0.2625000 0.6875000 0.4687500
vt 0 0.625
f 493/493 494/494 495/495 496/496
usemtl dark
v 0.2625000 0.6875000 0.4687500
vt 0 0.375
v 0.3125000 0.6875000 0.4687500
vt 1 0.375
v 0.3125000 0.3125000 0.4687500
vt 1 0.625
v 0.2625000 0.3125000 0.4687500
vt 0 0.625
f 497/497 498/498 499/499 500/500
usemtl dark
v 0.2625000 0.3125000 0.5312500
vt 0 0.375
v 0.3125000 0.3125000 0.5312500
vt 1 0.375
v 0.3125000 0.6875000 0.5312500
vt 1 0.625
v 0.2625000 0.6875000 0.5312500
vt 0 0.625
f 501/501 502/502 503/503 504/504
usemtl dark
v 0.6875000 0.3125000 0.5312500
vt 0 0.375
v 0.6875000 0.6875000 0.5312500
vt 1 0.375
v 0.6875000 0.6875000 0.4687500
vt 1 0.625
v 0.6875000 0.3125000 0.4687500
vt 0 0.625
f 505/505 506/506 507/507 508/508
usemtl dark
v 0.7375000 0.3125000 0.4687500
vt 0 0.375
v 0.7375000 0.6875000 0.4687500
vt 1 0.375
v 0.7375000 0.6875000 0.5312500
vt 1 0.625
v 0.7375000 0.3125000 0.5312500
vt 0 0.625
f 509/509 510/510 511/511 512/512
usemtl dark
v 0.6875000 0.3125000 0.4687500
vt 0 0.375
v 0.7375000 0.3125000 0.4687500
vt 1 0.375
v 0.7375000 0.3125000 0.5312500
vt 1 0.625
v 0.6875000 0.3125000 0.5312500
vt 0 0.625
f 513/513 514/514 515/515 516/516
usemtl dark
v 0.6875000 0.6875000 0.5312500
vt 0 0.375
v 0.7375000 0.6875000 0.5312500
vt 1 0.375
v 0.7375000 0.6875000 0.4687500
vt 1 0.625
v 0.6875000 0.6875000 0.4687500
vt 0 0.625
f 517/517 518/518 519/519 520/520
usemtl dark
v 0.6875000 0.6875000 0.4687500
vt 0 0.375
v 0.7375000 0.6875000 0.4687500
vt 1 0.375
v 0.7375000 0.3125000 0.4687500
vt 1 0.625
v 0.6875000 0.3125000 0.4687500
vt 0 0.625
f 521/521 522/522 523/523 524/524
usemtl dark
v 0.6875000 0.3125000 0.5312500
vt 0 0.375
v 0.7375000 0.3125000 0.5312500
vt 1 0.375
v 0.7375000 0.6875000 0.5312500
vt 1 0.625
v 0.6875000 0.6875000 0.5312500
vt 0 0.625
f 525/525 526/526 527/527 528/528
