# Original continuous solar beam; block-local units.
mtllib beam.mtl
o steel
usemtl steel
v 0.5000000 0.2500000 0.5000000
vt 0.2812500 0.3062500
v 0.0000000 0.2500000 0.1875000
vt 0.2562500 0.2562500
v 1.0000000 0.2500000 0.1875000
vt 0.3062500 0.2562500
f 1/1 2/2 3/3
v 0.0000000 0.3125000 0.1875000
vt 0.2562500 0.3062500
v 1.0000000 0.3125000 0.1875000
vt 0.3062500 0.3062500
v 1.0000000 0.2500000 0.1875000
vt 0.3062500 0.2562500
v 0.0000000 0.2500000 0.1875000
vt 0.2562500 0.2562500
f 4/4 5/5 6/6 7/7
v 0.5000000 0.2500000 0.5000000
vt 0.2812500 0.3062500
v 1.0000000 0.2500000 0.1875000
vt 0.2562500 0.2562500
v 1.0000000 0.2500000 0.8125000
vt 0.3062500 0.2562500
f 8/8 9/9 10/10
v 1.0000000 0.3125000 0.1875000
vt 0.2562500 0.3062500
v 1.0000000 0.3125000 0.8125000
vt 0.3062500 0.3062500
v 1.0000000 0.2500000 0.8125000
vt 0.3062500 0.2562500
v 1.0000000 0.2500000 0.1875000
vt 0.2562500 0.2562500
f 11/11 12/12 13/13 14/14
v 0.5000000 0.2500000 0.5000000
vt 0.2812500 0.3062500
v 1.0000000 0.2500000 0.8125000
vt 0.2562500 0.2562500
v 0.0000000 0.2500000 0.8125000
vt 0.3062500 0.2562500
f 15/15 16/16 17/17
v 1.0000000 0.3125000 0.8125000
vt 0.2562500 0.3062500
v 0.0000000 0.3125000 0.8125000
vt 0.3062500 0.3062500
v 0.0000000 0.2500000 0.8125000
vt 0.3062500 0.2562500
v 1.0000000 0.2500000 0.8125000
vt 0.2562500 0.2562500
f 18/18 19/19 20/20 21/21
v 0.5000000 0.2500000 0.5000000
vt 0.2812500 0.3062500
v 0.0000000 0.2500000 0.8125000
vt 0.2562500 0.2562500
v 0.0000000 0.2500000 0.1875000
vt 0.3062500 0.2562500
f 22/22 23/23 24/24
v 0.0000000 0.3125000 0.8125000
vt 0.2562500 0.3062500
v 0.0000000 0.3125000 0.1875000
vt 0.3062500 0.3062500
v 0.0000000 0.2500000 0.1875000
vt 0.3062500 0.2562500
v 0.0000000 0.2500000 0.8125000
vt 0.2562500 0.2562500
f 25/25 26/26 27/27 28/28
o dark
usemtl dark
v 0.0000000 0.5625000 0.2500000
vt 0.5062500 0.5562500
v 1.0000000 0.5625000 0.2500000
vt 0.5562500 0.5562500
v 1.0000000 0.3125000 0.2500000
vt 0.5562500 0.5062500
v 0.0000000 0.3125000 0.2500000
vt 0.5062500 0.5062500
f 29/29 30/30 31/31 32/32
v 1.0000000 0.5625000 0.2500000
vt 0.5062500 0.5562500
v 1.0000000 0.5625000 0.7500000
vt 0.5562500 0.5562500
v 1.0000000 0.3125000 0.7500000
vt 0.5562500 0.5062500
v 1.0000000 0.3125000 0.2500000
vt 0.5062500 0.5062500
f 33/33 34/34 35/35 36/36
v 1.0000000 0.5625000 0.7500000
vt 0.5062500 0.5562500
v 0.0000000 0.5625000 0.7500000
vt 0.5562500 0.5562500
v 0.0000000 0.3125000 0.7500000
vt 0.5562500 0.5062500
v 1.0000000 0.3125000 0.7500000
vt 0.5062500 0.5062500
f 37/37 38/38 39/39 40/40
v 0.0000000 0.5625000 0.7500000
vt 0.5062500 0.5562500
v 0.0000000 0.5625000 0.2500000
vt 0.5562500 0.5562500
v 0.0000000 0.3125000 0.2500000
vt 0.5562500 0.5062500
v 0.0000000 0.3125000 0.7500000
vt 0.5062500 0.5062500
f 41/41 42/42 43/43 44/44
o steel
usemtl steel
v 1.0000000 0.6250000 0.1875000
vt 0.3062500 0.2562500
v 0.0000000 0.6250000 0.1875000
vt 0.2562500 0.2562500
v 0.5000000 0.6250000 0.5000000
vt 0.2812500 0.3062500
f 45/45 46/46 47/47
v 0.0000000 0.6250000 0.1875000
vt 0.2562500 0.3062500
v 1.0000000 0.6250000 0.1875000
vt 0.3062500 0.3062500
v 1.0000000 0.5625000 0.1875000
vt 0.3062500 0.2562500
v 0.0000000 0.5625000 0.1875000
vt 0.2562500 0.2562500
f 48/48 49/49 50/50 51/51
v 1.0000000 0.6250000 0.8125000
vt 0.3062500 0.2562500
v 1.0000000 0.6250000 0.1875000
vt 0.2562500 0.2562500
v 0.5000000 0.6250000 0.5000000
vt 0.2812500 0.3062500
f 52/52 53/53 54/54
v 1.0000000 0.6250000 0.1875000
vt 0.2562500 0.3062500
v 1.0000000 0.6250000 0.8125000
vt 0.3062500 0.3062500
v 1.0000000 0.5625000 0.8125000
vt 0.3062500 0.2562500
v 1.0000000 0.5625000 0.1875000
vt 0.2562500 0.2562500
f 55/55 56/56 57/57 58/58
v 0.0000000 0.6250000 0.8125000
vt 0.3062500 0.2562500
v 1.0000000 0.6250000 0.8125000
vt 0.2562500 0.2562500
v 0.5000000 0.6250000 0.5000000
vt 0.2812500 0.3062500
f 59/59 60/60 61/61
v 1.0000000 0.6250000 0.8125000
vt 0.2562500 0.3062500
v 0.0000000 0.6250000 0.8125000
vt 0.3062500 0.3062500
v 0.0000000 0.5625000 0.8125000
vt 0.3062500 0.2562500
v 1.0000000 0.5625000 0.8125000
vt 0.2562500 0.2562500
f 62/62 63/63 64/64 65/65
v 0.0000000 0.6250000 0.1875000
vt 0.3062500 0.2562500
v 0.0000000 0.6250000 0.8125000
vt 0.2562500 0.2562500
v 0.5000000 0.6250000 0.5000000
vt 0.2812500 0.3062500
f 66/66 67/67 68/68
v 0.0000000 0.6250000 0.8125000
vt 0.2562500 0.3062500
v 0.0000000 0.6250000 0.1875000
vt 0.3062500 0.3062500
v 0.0000000 0.5625000 0.1875000
vt 0.3062500 0.2562500
v 0.0000000 0.5625000 0.8125000
vt 0.2562500 0.2562500
f 69/69 70/70 71/71 72/72
usemtl steel
v 0.0000000 0.3125000 0.2500000
vt 0.2562500 0.3062500
v 1.0000000 0.3125000 0.2500000
vt 0.3062500 0.3062500
v 1.0000000 0.3125000 0.1875000
vt 0.3062500 0.2562500
v 0.0000000 0.3125000 0.1875000
vt 0.2562500 0.2562500
f 73/73 74/74 75/75 76/76
v 1.0000000 0.3125000 0.1875000
vt 0.2562500 0.2562500
v 1.0000000 0.3125000 0.8125000
vt 0.3062500 0.2562500
v 1.0000000 0.3125000 0.7500000
vt 0.3062500 0.3062500
v 1.0000000 0.3125000 0.2500000
vt 0.2562500 0.3062500
f 77/77 78/78 79/79 80/80
v 1.0000000 0.3125000 0.7500000
vt 0.2562500 0.3062500
v 0.0000000 0.3125000 0.7500000
vt 0.3062500 0.3062500
v 0.0000000 0.3125000 0.8125000
vt 0.3062500 0.2562500
v 1.0000000 0.3125000 0.8125000
vt 0.2562500 0.2562500
f 81/81 82/82 83/83 84/84
v 0.0000000 0.3125000 0.8125000
vt 0.2562500 0.2562500
v 0.0000000 0.3125000 0.1875000
vt 0.3062500 0.2562500
v 0.0000000 0.3125000 0.2500000
vt 0.3062500 0.3062500
v 0.0000000 0.3125000 0.7500000
vt 0.2562500 0.3062500
f 85/85 86/86 87/87 88/88
v 0.0000000 0.5625000 0.1875000
vt 0.2562500 0.2562500
v 1.0000000 0.5625000 0.1875000
vt 0.3062500 0.2562500
v 1.0000000 0.5625000 0.2500000
vt 0.3062500 0.3062500
v 0.0000000 0.5625000 0.2500000
vt 0.2562500 0.3062500
f 89/89 90/90 91/91 92/92
v 1.0000000 0.5625000 0.1875000
vt 0.2562500 0.2562500
v 1.0000000 0.5625000 0.8125000
vt 0.3062500 0.2562500
v 1.0000000 0.5625000 0.7500000
vt 0.3062500 0.3062500
v 1.0000000 0.5625000 0.2500000
vt 0.2562500 0.3062500
f 93/93 94/94 95/95 96/96
v 1.0000000 0.5625000 0.8125000
vt 0.2562500 0.2562500
v 0.0000000 0.5625000 0.8125000
vt 0.3062500 0.2562500
v 0.0000000 0.5625000 0.7500000
vt 0.3062500 0.3062500
v 1.0000000 0.5625000 0.7500000
vt 0.2562500 0.3062500
f 97/97 98/98 99/99 100/100
v 0.0000000 0.5625000 0.8125000
vt 0.2562500 0.2562500
v 0.0000000 0.5625000 0.1875000
vt 0.3062500 0.2562500
v 0.0000000 0.5625000 0.2500000
vt 0.3062500 0.3062500
v 0.0000000 0.5625000 0.7500000
vt 0.2562500 0.3062500
f 101/101 102/102 103/103 104/104
