# Original continuous solar beam; block-local units.
mtllib beam.mtl
o steel
usemtl steel
v 0.7209709 0.2500000 0.7209709
vt 0.3062500 0.2562500
v 0.2209709 0.2500000 1.2209709
vt 0.2562500 0.2562500
v 0.5000000 0.2500000 0.5000000
vt 0.2812500 0.3062500
f 1/1 2/2 3/3
v 0.2209709 0.2500000 1.2209709
vt 0.2562500 0.2562500
v 0.7209709 0.2500000 0.7209709
vt 0.3062500 0.2562500
v 0.7209709 0.3125000 0.7209709
vt 0.3062500 0.3062500
v 0.2209709 0.3125000 1.2209709
vt 0.2562500 0.3062500
f 4/4 5/5 6/6 7/7
v 1.2209709 0.2500000 0.2209709
vt 0.3062500 0.2562500
v 0.7209709 0.2500000 0.7209709
vt 0.2562500 0.2562500
v 0.5000000 0.2500000 0.5000000
vt 0.2812500 0.3062500
f 8/8 9/9 10/10
v 0.7209709 0.2500000 0.7209709
vt 0.2562500 0.2562500
v 1.2209709 0.2500000 0.2209709
vt 0.3062500 0.2562500
v 1.2209709 0.3125000 0.2209709
vt 0.3062500 0.3062500
v 0.7209709 0.3125000 0.7209709
vt 0.2562500 0.3062500
f 11/11 12/12 13/13 14/14
v 0.7790291 0.2500000 -0.2209709
vt 0.3062500 0.2562500
v 1.2209709 0.2500000 0.2209709
vt 0.2562500 0.2562500
v 0.5000000 0.2500000 0.5000000
vt 0.2812500 0.3062500
f 15/15 16/16 17/17
v 1.2209709 0.2500000 0.2209709
vt 0.2562500 0.2562500
v 0.7790291 0.2500000 -0.2209709
vt 0.3062500 0.2562500
v 0.7790291 0.3125000 -0.2209709
vt 0.3062500 0.3062500
v 1.2209709 0.3125000 0.2209709
vt 0.2562500 0.3062500
f 18/18 19/19 20/20 21/21
v 0.2790291 0.2500000 0.2790291
vt 0.3062500 0.2562500
v 0.7790291 0.2500000 -0.2209709
vt 0.2562500 0.2562500
v 0.5000000 0.2500000 0.5000000
vt 0.2812500 0.3062500
f 22/22 23/23 24/24
v 0.7790291 0.2500000 -0.2209709
vt 0.2562500 0.2562500
v 0.2790291 0.2500000 0.2790291
vt 0.3062500 0.2562500
v 0.2790291 0.3125000 0.2790291
vt 0.3062500 0.3062500
v 0.7790291 0.3125000 -0.2209709
vt 0.2562500 0.3062500
f 25/25 26/26 27/27 28/28
v -0.2209709 0.2500000 0.7790291
vt 0.3062500 0.2562500
v 0.2790291 0.2500000 0.2790291
vt 0.2562500 0.2562500
v 0.5000000 0.2500000 0.5000000
vt 0.2812500 0.3062500
f 29/29 30/30 31/31
v 0.2790291 0.2500000 0.2790291
vt 0.2562500 0.2562500
v -0.2209709 0.2500000 0.7790291
vt 0.3062500 0.2562500
v -0.2209709 0.3125000 0.7790291
vt 0.3062500 0.3062500
v 0.2790291 0.3125000 0.2790291
vt 0.2562500 0.3062500
f 32/32 33/33 34/34 35/35
v 0.2209709 0.2500000 1.2209709
vt 0.3062500 0.2562500
v -0.2209709 0.2500000 0.7790291
vt 0.2562500 0.2562500
v 0.5000000 0.2500000 0.5000000
vt 0.2812500 0.3062500
f 36/36 37/37 38/38
v -0.2209709 0.2500000 0.7790291
vt 0.2562500 0.2562500
v 0.2209709 0.2500000 1.2209709
vt 0.3062500 0.2562500
v 0.2209709 0.3125000 1.2209709
vt 0.3062500 0.3062500
v -0.2209709 0.3125000 0.7790291
vt 0.2562500 0.3062500
f 39/39 40/40 41/41 42/42
o dark
usemtl dark
v 0.1767767 0.3125000 1.1767767
vt 0.5062500 0.5062500
v 0.6767767 0.3125000 0.6767767
vt 0.5562500 0.5062500
v 0.6767767 0.5625000 0.6767767
vt 0.5562500 0.5562500
v 0.1767767 0.5625000 1.1767767
vt 0.5062500 0.5562500
f 43/43 44/44 45/45 46/46
v 0.6767767 0.3125000 0.6767767
vt 0.5062500 0.5062500
v 1.1767767 0.3125000 0.1767767
vt 0.5562500 0.5062500
v 1.1767767 0.5625000 0.1767767
vt 0.5562500 0.5562500
v 0.6767767 0.5625000 0.6767767
vt 0.5062500 0.5562500
f 47/47 48/48 49/49 50/50
v 1.1767767 0.3125000 0.1767767
vt 0.5062500 0.5062500
v 0.8232233 0.3125000 -0.1767767
vt 0.5562500 0.5062500
v 0.8232233 0.5625000 -0.1767767
vt 0.5562500 0.5562500
v 1.1767767 0.5625000 0.1767767
vt 0.5062500 0.5562500
f 51/51 52/52 53/53 54/54
v 0.8232233 0.3125000 -0.1767767
vt 0.5062500 0.5062500
v 0.3232233 0.3125000 0.3232233
vt 0.5562500 0.5062500
v 0.3232233 0.5625000 0.3232233
vt 0.5562500 0.5562500
v 0.8232233 0.5625000 -0.1767767
vt 0.5062500 0.5562500
f 55/55 56/56 57/57 58/58
v 0.3232233 0.3125000 0.3232233
vt 0.5062500 0.5062500
v -0.1767767 0.3125000 0.8232233
vt 0.5562500 0.5062500
v -0.1767767 0.5625000 0.8232233
vt 0.5562500 0.5562500
v 0.3232233 0.5625000 0.3232233
vt 0.5062500 0.5562500
f 59/59 60/60 61/61 62/62
v -0.1767767 0.3125000 0.8232233
vt 0.5062500 0.5062500
v 0.1767767 0.3125000 1.1767767
vt 0.5562500 0.5062500
v 0.1767767 0.5625000 1.1767767
vt 0.5562500 0.5562500
v -0.1767767 0.5625000 0.8232233
vt 0.5062500 0.5562500
f 63/63 64/64 65/65 66/66
o steel
usemtl steel
v 0.5000000 0.6250000 0.5000000
vt 0.2812500 0.3062500
v 0.2209709 0.6250000 1.2209709
vt 0.2562500 0.2562500
v 0.7209709 0.6250000 0.7209709
vt 0.3062500 0.2562500
f 67/67 68/68 69/69
v 0.2209709 0.5625000 1.2209709
vt 0.2562500 0.2562500
v 0.7209709 0.5625000 0.7209709
vt 0.3062500 0.2562500
v 0.7209709 0.6250000 0.7209709
vt 0.3062500 0.3062500
v 0.2209709 0.6250000 1.2209709
vt 0.2562500 0.3062500
f 70/70 71/71 72/72 73/73
v 0.5000000 0.6250000 0.5000000
vt 0.2812500 0.3062500
v 0.7209709 0.6250000 0.7209709
vt 0.2562500 0.2562500
v 1.2209709 0.6250000 0.2209709
vt 0.3062500 0.2562500
f 74/74 75/75 76/76
v 0.7209709 0.5625000 0.7209709
vt 0.2562500 0.2562500
v 1.2209709 0.5625000 0.2209709
vt 0.3062500 0.2562500
v 1.2209709 0.6250000 0.2209709
vt 0.3062500 0.3062500
v 0.7209709 0.6250000 0.7209709
vt 0.2562500 0.3062500
f 77/77 78/78 79/79 80/80
v 0.5000000 0.6250000 0.5000000
vt 0.2812500 0.3062500
v 1.2209709 0.6250000 0.2209709
vt 0.2562500 0.2562500
v 0.7790291 0.6250000 -0.2209709
vt 0.3062500 0.2562500
f 81/81 82/82 83/83
v 1.2209709 0.5625000 0.2209709
vt 0.2562500 0.2562500
v 0.7790291 0.5625000 -0.2209709
vt 0.3062500 0.2562500
v 0.7790291 0.6250000 -0.2209709
vt 0.3062500 0.3062500
v 1.2209709 0.6250000 0.2209709
vt 0.2562500 0.3062500
f 84/84 85/85 86/86 87/87
v 0.5000000 0.6250000 0.5000000
vt 0.2812500 0.3062500
v 0.7790291 0.6250000 -0.2209709
vt 0.2562500 0.2562500
v 0.2790291 0.6250000 0.2790291
vt 0.3062500 0.2562500
f 88/88 89/89 90/90
v 0.7790291 0.5625000 -0.2209709
vt 0.2562500 0.2562500
v 0.2790291 0.5625000 0.2790291
vt 0.3062500 0.2562500
v 0.2790291 0.6250000 0.2790291
vt 0.3062500 0.3062500
v 0.7790291 0.6250000 -0.2209709
vt 0.2562500 0.3062500
f 91/91 92/92 93/93 94/94
v 0.5000000 0.6250000 0.5000000
vt 0.2812500 0.3062500
v 0.2790291 0.6250000 0.2790291
vt 0.2562500 0.2562500
v -0.2209709 0.6250000 0.7790291
vt 0.3062500 0.2562500
f 95/95 96/96 97/97
v 0.2790291 0.5625000 0.2790291
vt 0.2562500 0.2562500
v -0.2209709 0.5625000 0.7790291
vt 0.3062500 0.2562500
v -0.2209709 0.6250000 0.7790291
vt 0.3062500 0.3062500
v 0.2790291 0.6250000 0.2790291
vt 0.2562500 0.3062500
f 98/98 99/99 100/100 101/101
v 0.5000000 0.6250000 0.5000000
vt 0.2812500 0.3062500
v -0.2209709 0.6250000 0.7790291
vt 0.2562500 0.2562500
v 0.2209709 0.6250000 1.2209709
vt 0.3062500 0.2562500
f 102/102 103/103 104/104
v -0.2209709 0.5625000 0.7790291
vt 0.2562500 0.2562500
v 0.2209709 0.5625000 1.2209709
vt 0.3062500 0.2562500
v 0.2209709 0.6250000 1.2209709
vt 0.3062500 0.3062500
v -0.2209709 0.6250000 0.7790291
vt 0.2562500 0.3062500
f 105/105 106/106 107/107 108/108
usemtl steel
v 0.2209709 0.3125000 1.2209709
vt 0.2562500 0.2562500
v 0.7209709 0.3125000 0.7209709
vt 0.3062500 0.2562500
v 0.6767767 0.3125000 0.6767767
vt 0.3062500 0.3062500
v 0.1767767 0.3125000 1.1767767
vt 0.2562500 0.3062500
f 109/109 110/110 111/111 112/112
v 0.7209709 0.3125000 0.7209709
vt 0.2562500 0.2562500
v 1.2209709 0.3125000 0.2209709
vt 0.3062500 0.2562500
v 1.1767767 0.3125000 0.1767767
vt 0.3062500 0.3062500
v 0.6767767 0.3125000 0.6767767
vt 0.2562500 0.3062500
f 113/113 114/114 115/115 116/116
v 1.2209709 0.3125000 0.2209709
vt 0.2562500 0.2562500
v 0.7790291 0.3125000 -0.2209709
vt 0.3062500 0.2562500
v 0.8232233 0.3125000 -0.1767767
vt 0.3062500 0.3062500
v 1.1767767 0.3125000 0.1767767
vt 0.2562500 0.3062500
f 117/117 118/118 119/119 120/120
v 0.7790291 0.3125000 -0.2209709
vt 0.2562500 0.2562500
v 0.2790291 0.3125000 0.2790291
vt 0.3062500 0.2562500
v 0.3232233 0.3125000 0.3232233
vt 0.3062500 0.3062500
v 0.8232233 0.3125000 -0.1767767
vt 0.2562500 0.3062500
f 121/121 122/122 123/123 124/124
v 0.2790291 0.3125000 0.2790291
vt 0.2562500 0.2562500
v -0.2209709 0.3125000 0.7790291
vt 0.3062500 0.2562500
v -0.1767767 0.3125000 0.8232233
vt 0.3062500 0.3062500
v 0.3232233 0.3125000 0.3232233
vt 0.2562500 0.3062500
f 125/125 126/126 127/127 128/128
v -0.1767767 0.3125000 0.8232233
vt 0.2562500 0.3062500
v 0.1767767 0.3125000 1.1767767
vt 0.3062500 0.3062500
v 0.2209709 0.3125000 1.2209709
vt 0.3062500 0.2562500
v -0.2209709 0.3125000 0.7790291
vt 0.2562500 0.2562500
f 129/129 130/130 131/131 132/132
v 0.1767767 0.5625000 1.1767767
vt 0.2562500 0.3062500
v 0.6767767 0.5625000 0.6767767
vt 0.3062500 0.3062500
v 0.7209709 0.5625000 0.7209709
vt 0.3062500 0.2562500
v 0.2209709 0.5625000 1.2209709
vt 0.2562500 0.2562500
f 133/133 134/134 135/135 136/136
v 0.6767767 0.5625000 0.6767767
vt 0.2562500 0.3062500
v 1.1767767 0.5625000 0.1767767
vt 0.3062500 0.3062500
v 1.2209709 0.5625000 0.2209709
vt 0.3062500 0.2562500
v 0.7209709 0.5625000 0.7209709
vt 0.2562500 0.2562500
f 137/137 138/138 139/139 140/140
v 1.2209709 0.5625000 0.2209709
vt 0.2562500 0.2562500
v 0.7790291 0.5625000 -0.2209709
vt 0.3062500 0.2562500
v 0.8232233 0.5625000 -0.1767767
vt 0.3062500 0.3062500
v 1.1767767 0.5625000 0.1767767
vt 0.2562500 0.3062500
f 141/141 142/142 143/143 144/144
v 0.8232233 0.5625000 -0.1767767
vt 0.2562500 0.3062500
v 0.3232233 0.5625000 0.3232233
vt 0.3062500 0.3062500
v 0.2790291 0.5625000 0.2790291
vt 0.3062500 0.2562500
v 0.7790291 0.5625000 -0.2209709
vt 0.2562500 0.2562500
f 145/145 146/146 147/147 148/148
v 0.3232233 0.5625000 0.3232233
vt 0.2562500 0.3062500
v -0.1767767 0.5625000 0.8232233
vt 0.3062500 0.3062500
v -0.2209709 0.5625000 0.7790291
vt 0.3062500 0.2562500
v 0.2790291 0.5625000 0.2790291
vt 0.2562500 0.2562500
f 149/149 150/150 151/151 152/152
v -0.2209709 0.5625000 0.7790291
vt 0.2562500 0.2562500
v 0.2209709 0.5625000 1.2209709
vt 0.3062500 0.2562500
v 0.1767767 0.5625000 1.1767767
vt 0.3062500 0.3062500
v -0.1767767 0.5625000 0.8232233
vt 0.2562500 0.3062500
f 153/153 154/154 155/155 156/156
o steel
usemtl steel
v 0.5000000 0.0000000 0.5000000
vt 0.2812500 0.3062500
v 0.2500000 0.0000000 0.2500000
vt 0.2562500 0.2562500
v 0.7500000 0.0000000 0.2500000
vt 0.3062500 0.2562500
f 157/157 158/158 159/159
v 0.2500000 0.2500000 0.2500000
vt 0.2562500 0.3062500
v 0.7500000 0.2500000 0.2500000
vt 0.3062500 0.3062500
v 0.7500000 0.0000000 0.2500000
vt 0.3062500 0.2562500
v 0.2500000 0.0000000 0.2500000
vt 0.2562500 0.2562500
f 160/160 161/161 162/162 163/163
v 0.5000000 0.0000000 0.5000000
vt 0.2812500 0.3062500
v 0.7500000 0.0000000 0.2500000
vt 0.2562500 0.2562500
v 0.7500000 0.0000000 0.7500000
vt 0.3062500 0.2562500
f 164/164 165/165 166/166
v 0.7500000 0.2500000 0.2500000
vt 0.2562500 0.3062500
v 0.7500000 0.2500000 0.7500000
vt 0.3062500 0.3062500
v 0.7500000 0.0000000 0.7500000
vt 0.3062500 0.2562500
v 0.7500000 0.0000000 0.2500000
vt 0.2562500 0.2562500
f 167/167 168/168 169/169 170/170
v 0.5000000 0.0000000 0.5000000
vt 0.2812500 0.3062500
v 0.7500000 0.0000000 0.7500000
vt 0.2562500 0.2562500
v 0.2500000 0.0000000 0.7500000
vt 0.3062500 0.2562500
f 171/171 172/172 173/173
v 0.7500000 0.2500000 0.7500000
vt 0.2562500 0.3062500
v 0.2500000 0.2500000 0.7500000
vt 0.3062500 0.3062500
v 0.2500000 0.0000000 0.7500000
vt 0.3062500 0.2562500
v 0.7500000 0.0000000 0.7500000
vt 0.2562500 0.2562500
f 174/174 175/175 176/176 177/177
v 0.5000000 0.0000000 0.5000000
vt 0.2812500 0.3062500
v 0.2500000 0.0000000 0.7500000
vt 0.2562500 0.2562500
v 0.2500000 0.0000000 0.2500000
vt 0.3062500 0.2562500
f 178/178 179/179 180/180
v 0.2500000 0.2500000 0.7500000
vt 0.2562500 0.3062500
v 0.2500000 0.2500000 0.2500000
vt 0.3062500 0.3062500
v 0.2500000 0.0000000 0.2500000
vt 0.3062500 0.2562500
v 0.2500000 0.0000000 0.7500000
vt 0.2562500 0.2562500
f 181/181 182/182 183/183 184/184
