# Original OverloadCore equipment attachments, generated geometry
mtllib equipment_modules.mtl
o overloadcore_heat_sink_body_fin0
usemtl metal
v -0.22 1.2 -0.25
v -0.22 1.2 -0.17
v -0.22 1.58 -0.17
v -0.22 1.58 -0.25
vt 0 0
vt 1 0
vt 1 1
vt 0 1
vn -1 0 0
vn -1 0 0
vn -1 0 0
vn -1 0 0
f 1/1/1 2/2/2 3/3/3 4/4/4
v -0.185 1.2 -0.17
v -0.185 1.2 -0.25
v -0.185 1.58 -0.25
v -0.185 1.58 -0.17
vt 0 0
vt 1 0
vt 1 1
vt 0 1
vn 1 0 0
vn 1 0 0
vn 1 0 0
vn 1 0 0
f 5/5/5 6/6/6 7/7/7 8/8/8
v -0.22 1.2 -0.17
v -0.22 1.2 -0.25
v -0.185 1.2 -0.25
v -0.185 1.2 -0.17
vt 0 0
vt 1 0
vt 1 1
vt 0 1
vn 0 -1 0
vn 0 -1 0
vn 0 -1 0
vn 0 -1 0
f 9/9/9 10/10/10 11/11/11 12/12/12
v -0.22 1.58 -0.25
v -0.22 1.58 -0.17
v -0.185 1.58 -0.17
v -0.185 1.58 -0.25
vt 0 0
vt 1 0
vt 1 1
vt 0 1
vn 0 1 0
vn 0 1 0
vn 0 1 0
vn 0 1 0
f 13/13/13 14/14/14 15/15/15 16/16/16
v -0.185 1.2 -0.25
v -0.22 1.2 -0.25
v -0.22 1.58 -0.25
v -0.185 1.58 -0.25
vt 0 0
vt 1 0
vt 1 1
vt 0 1
vn 0 0 -1
vn 0 0 -1
vn 0 0 -1
vn 0 0 -1
f 17/17/17 18/18/18 19/19/19 20/20/20
v -0.22 1.2 -0.17
v -0.185 1.2 -0.17
v -0.185 1.58 -0.17
v -0.22 1.58 -0.17
vt 0 0
vt 1 0
vt 1 1
vt 0 1
vn 0 0 1
vn 0 0 1
vn 0 0 1
vn 0 0 1
f 21/21/21 22/22/22 23/23/23 24/24/24
o overloadcore_heat_sink_body_fin1
usemtl metal
v -0.17 1.2 -0.25
v -0.17 1.2 -0.17
v -0.17 1.58 -0.17
v -0.17 1.58 -0.25
vt 0 0
vt 1 0
vt 1 1
vt 0 1
vn -1 0 0
vn -1 0 0
vn -1 0 0
vn -1 0 0
f 25/25/25 26/26/26 27/27/27 28/28/28
v -0.135 1.2 -0.17
v -0.135 1.2 -0.25
v -0.135 1.58 -0.25
v -0.135 1.58 -0.17
vt 0 0
vt 1 0
vt 1 1
vt 0 1
vn 1 0 0
vn 1 0 0
vn 1 0 0
vn 1 0 0
f 29/29/29 30/30/30 31/31/31 32/32/32
v -0.17 1.2 -0.17
v -0.17 1.2 -0.25
v -0.135 1.2 -0.25
v -0.135 1.2 -0.17
vt 0 0
vt 1 0
vt 1 1
vt 0 1
vn 0 -1 0
vn 0 -1 0
vn 0 -1 0
vn 0 -1 0
f 33/33/33 34/34/34 35/35/35 36/36/36
v -0.17 1.58 -0.25
v -0.17 1.58 -0.17
v -0.135 1.58 -0.17
v -0.135 1.58 -0.25
vt 0 0
vt 1 0
vt 1 1
vt 0 1
vn 0 1 0
vn 0 1 0
vn 0 1 0
vn 0 1 0
f 37/37/37 38/38/38 39/39/39 40/40/40
v -0.135 1.2 -0.25
v -0.17 1.2 -0.25
v -0.17 1.58 -0.25
v -0.135 1.58 -0.25
vt 0 0
vt 1 0
vt 1 1
vt 0 1
vn 0 0 -1
vn 0 0 -1
vn 0 0 -1
vn 0 0 -1
f 41/41/41 42/42/42 43/43/43 44/44/44
v -0.17 1.2 -0.17
v -0.135 1.2 -0.17
v -0.135 1.58 -0.17
v -0.17 1.58 -0.17
vt 0 0
vt 1 0
vt 1 1
vt 0 1
vn 0 0 1
vn 0 0 1
vn 0 0 1
vn 0 0 1
f 45/45/45 46/46/46 47/47/47 48/48/48
o overloadcore_heat_sink_body_fin2
usemtl metal
v -0.12 1.2 -0.25
v -0.12 1.2 -0.17
v -0.12 1.58 -0.17
v -0.12 1.58 -0.25
vt 0 0
vt 1 0
vt 1 1
vt 0 1
vn -1 0 0
vn -1 0 0
vn -1 0 0
vn -1 0 0
f 49/49/49 50/50/50 51/51/51 52/52/52
v -0.08499999999999999 1.2 -0.17
v -0.08499999999999999 1.2 -0.25
v -0.08499999999999999 1.58 -0.25
v -0.08499999999999999 1.58 -0.17
vt 0 0
vt 1 0
vt 1 1
vt 0 1
vn 1 0 0
vn 1 0 0
vn 1 0 0
vn 1 0 0
f 53/53/53 54/54/54 55/55/55 56/56/56
v -0.12 1.2 -0.17
v -0.12 1.2 -0.25
v -0.08499999999999999 1.2 -0.25
v -0.08499999999999999 1.2 -0.17
vt 0 0
vt 1 0
vt 1 1
vt 0 1
vn 0 -1 0
vn 0 -1 0
vn 0 -1 0
vn 0 -1 0
f 57/57/57 58/58/58 59/59/59 60/60/60
v -0.12 1.58 -0.25
v -0.12 1.58 -0.17
v -0.08499999999999999 1.58 -0.17
v -0.08499999999999999 1.58 -0.25
vt 0 0
vt 1 0
vt 1 1
vt 0 1
vn 0 1 0
vn 0 1 0
vn 0 1 0
vn 0 1 0
f 61/61/61 62/62/62 63/63/63 64/64/64
v -0.08499999999999999 1.2 -0.25
v -0.12 1.2 -0.25
v -0.12 1.58 -0.25
v -0.08499999999999999 1.58 -0.25
vt 0 0
vt 1 0
vt 1 1
vt 0 1
vn 0 0 -1
vn 0 0 -1
vn 0 0 -1
vn 0 0 -1
f 65/65/65 66/66/66 67/67/67 68/68/68
v -0.12 1.2 -0.17
v -0.08499999999999999 1.2 -0.17
v -0.08499999999999999 1.58 -0.17
v -0.12 1.58 -0.17
vt 0 0
vt 1 0
vt 1 1
vt 0 1
vn 0 0 1
vn 0 0 1
vn 0 0 1
vn 0 0 1
f 69/69/69 70/70/70 71/71/71 72/72/72
o overloadcore_coupler_body_cap
usemtl metal
v 0.1 1.24 -0.24
v 0.1 1.24 -0.17
v 0.1 1.49 -0.17
v 0.1 1.49 -0.24
vt 0 0
vt 1 0
vt 1 1
vt 0 1
vn -1 0 0
vn -1 0 0
vn -1 0 0
vn -1 0 0
f 73/73/73 74/74/74 75/75/75 76/76/76
v 0.23 1.24 -0.17
v 0.23 1.24 -0.24
v 0.23 1.49 -0.24
v 0.23 1.49 -0.17
vt 0 0
vt 1 0
vt 1 1
vt 0 1
vn 1 0 0
vn 1 0 0
vn 1 0 0
vn 1 0 0
f 77/77/77 78/78/78 79/79/79 80/80/80
v 0.1 1.24 -0.17
v 0.1 1.24 -0.24
v 0.23 1.24 -0.24
v 0.23 1.24 -0.17
vt 0 0
vt 1 0
vt 1 1
vt 0 1
vn 0 -1 0
vn 0 -1 0
vn 0 -1 0
vn 0 -1 0
f 81/81/81 82/82/82 83/83/83 84/84/84
v 0.1 1.49 -0.24
v 0.1 1.49 -0.17
v 0.23 1.49 -0.17
v 0.23 1.49 -0.24
vt 0 0
vt 1 0
vt 1 1
vt 0 1
vn 0 1 0
vn 0 1 0
vn 0 1 0
vn 0 1 0
f 85/85/85 86/86/86 87/87/87 88/88/88
v 0.23 1.24 -0.24
v 0.1 1.24 -0.24
v 0.1 1.49 -0.24
v 0.23 1.49 -0.24
vt 0 0
vt 1 0
vt 1 1
vt 0 1
vn 0 0 -1
vn 0 0 -1
vn 0 0 -1
vn 0 0 -1
f 89/89/89 90/90/90 91/91/91 92/92/92
v 0.1 1.24 -0.17
v 0.23 1.24 -0.17
v 0.23 1.49 -0.17
v 0.1 1.49 -0.17
vt 0 0
vt 1 0
vt 1 1
vt 0 1
vn 0 0 1
vn 0 0 1
vn 0 0 1
vn 0 0 1
f 93/93/93 94/94/94 95/95/95 96/96/96
o overloadcore_coupler_body_led
usemtl energy
v 0.12 1.28 -0.25
v 0.12 1.28 -0.24
v 0.12 1.44 -0.24
v 0.12 1.44 -0.25
vt 0 0
vt 1 0
vt 1 1
vt 0 1
vn -1 0 0
vn -1 0 0
vn -1 0 0
vn -1 0 0
f 97/97/97 98/98/98 99/99/99 100/100/100
v 0.21 1.28 -0.24
v 0.21 1.28 -0.25
v 0.21 1.44 -0.25
v 0.21 1.44 -0.24
vt 0 0
vt 1 0
vt 1 1
vt 0 1
vn 1 0 0
vn 1 0 0
vn 1 0 0
vn 1 0 0
f 101/101/101 102/102/102 103/103/103 104/104/104
v 0.12 1.28 -0.24
v 0.12 1.28 -0.25
v 0.21 1.28 -0.25
v 0.21 1.28 -0.24
vt 0 0
vt 1 0
vt 1 1
vt 0 1
vn 0 -1 0
vn 0 -1 0
vn 0 -1 0
vn 0 -1 0
f 105/105/105 106/106/106 107/107/107 108/108/108
v 0.12 1.44 -0.25
v 0.12 1.44 -0.24
v 0.21 1.44 -0.24
v 0.21 1.44 -0.25
vt 0 0
vt 1 0
vt 1 1
vt 0 1
vn 0 1 0
vn 0 1 0
vn 0 1 0
vn 0 1 0
f 109/109/109 110/110/110 111/111/111 112/112/112
v 0.21 1.28 -0.25
v 0.12 1.28 -0.25
v 0.12 1.44 -0.25
v 0.21 1.44 -0.25
vt 0 0
vt 1 0
vt 1 1
vt 0 1
vn 0 0 -1
vn 0 0 -1
vn 0 0 -1
vn 0 0 -1
f 113/113/113 114/114/114 115/115/115 116/116/116
v 0.12 1.28 -0.24
v 0.21 1.28 -0.24
v 0.21 1.44 -0.24
v 0.12 1.44 -0.24
vt 0 0
vt 1 0
vt 1 1
vt 0 1
vn 0 0 1
vn 0 0 1
vn 0 0 1
vn 0 0 1
f 117/117/117 118/118/118 119/119/119 120/120/120
o overloadcore_magnetic_left_leg_ring0
usemtl energy
v -0.015000000000000013 0.66 -0.19
v -0.015000000000000013 0.66 -0.14
v -0.015000000000000013 0.7 -0.14
v -0.015000000000000013 0.7 -0.19
vt 0 0
vt 1 0
vt 1 1
vt 0 1
vn -1 0 0
vn -1 0 0
vn -1 0 0
vn -1 0 0
f 121/121/121 122/122/122 123/123/123 124/124/124
v 0.265 0.66 -0.14
v 0.265 0.66 -0.19
v 0.265 0.7 -0.19
v 0.265 0.7 -0.14
vt 0 0
vt 1 0
vt 1 1
vt 0 1
vn 1 0 0
vn 1 0 0
vn 1 0 0
vn 1 0 0
f 125/125/125 126/126/126 127/127/127 128/128/128
v -0.015000000000000013 0.66 -0.14
v -0.015000000000000013 0.66 -0.19
v 0.265 0.66 -0.19
v 0.265 0.66 -0.14
vt 0 0
vt 1 0
vt 1 1
vt 0 1
vn 0 -1 0
vn 0 -1 0
vn 0 -1 0
vn 0 -1 0
f 129/129/129 130/130/130 131/131/131 132/132/132
v -0.015000000000000013 0.7 -0.19
v -0.015000000000000013 0.7 -0.14
v 0.265 0.7 -0.14
v 0.265 0.7 -0.19
vt 0 0
vt 1 0
vt 1 1
vt 0 1
vn 0 1 0
vn 0 1 0
vn 0 1 0
vn 0 1 0
f 133/133/133 134/134/134 135/135/135 136/136/136
v 0.265 0.66 -0.19
v -0.015000000000000013 0.66 -0.19
v -0.015000000000000013 0.7 -0.19
v 0.265 0.7 -0.19
vt 0 0
vt 1 0
vt 1 1
vt 0 1
vn 0 0 -1
vn 0 0 -1
vn 0 0 -1
vn 0 0 -1
f 137/137/137 138/138/138 139/139/139 140/140/140
v -0.015000000000000013 0.66 -0.14
v 0.265 0.66 -0.14
v 0.265 0.7 -0.14
v -0.015000000000000013 0.7 -0.14
vt 0 0
vt 1 0
vt 1 1
vt 0 1
vn 0 0 1
vn 0 0 1
vn 0 0 1
vn 0 0 1
f 141/141/141 142/142/142 143/143/143 144/144/144
o overloadcore_magnetic_left_leg_ring1
usemtl energy
v -0.015000000000000013 0.66 0.14
v -0.015000000000000013 0.66 0.19
v -0.015000000000000013 0.7 0.19
v -0.015000000000000013 0.7 0.14
vt 0 0
vt 1 0
vt 1 1
vt 0 1
vn -1 0 0
vn -1 0 0
vn -1 0 0
vn -1 0 0
f 145/145/145 146/146/146 147/147/147 148/148/148
v 0.265 0.66 0.19
v 0.265 0.66 0.14
v 0.265 0.7 0.14
v 0.265 0.7 0.19
vt 0 0
vt 1 0
vt 1 1
vt 0 1
vn 1 0 0
vn 1 0 0
vn 1 0 0
vn 1 0 0
f 149/149/149 150/150/150 151/151/151 152/152/152
v -0.015000000000000013 0.66 0.19
v -0.015000000000000013 0.66 0.14
v 0.265 0.66 0.14
v 0.265 0.66 0.19
vt 0 0
vt 1 0
vt 1 1
vt 0 1
vn 0 -1 0
vn 0 -1 0
vn 0 -1 0
vn 0 -1 0
f 153/153/153 154/154/154 155/155/155 156/156/156
v -0.015000000000000013 0.7 0.14
v -0.015000000000000013 0.7 0.19
v 0.265 0.7 0.19
v 0.265 0.7 0.14
vt 0 0
vt 1 0
vt 1 1
vt 0 1
vn 0 1 0
vn 0 1 0
vn 0 1 0
vn 0 1 0
f 157/157/157 158/158/158 159/159/159 160/160/160
v 0.265 0.66 0.14
v -0.015000000000000013 0.66 0.14
v -0.015000000000000013 0.7 0.14
v 0.265 0.7 0.14
vt 0 0
vt 1 0
vt 1 1
vt 0 1
vn 0 0 -1
vn 0 0 -1
vn 0 0 -1
vn 0 0 -1
f 161/161/161 162/162/162 163/163/163 164/164/164
v -0.015000000000000013 0.66 0.19
v 0.265 0.66 0.19
v 0.265 0.7 0.19
v -0.015000000000000013 0.7 0.19
vt 0 0
vt 1 0
vt 1 1
vt 0 1
vn 0 0 1
vn 0 0 1
vn 0 0 1
vn 0 0 1
f 165/165/165 166/166/166 167/167/167 168/168/168
o overloadcore_magnetic_left_leg_ring2
usemtl energy
v -0.015000000000000013 0.66 -0.14
v -0.015000000000000013 0.66 0.14
v -0.015000000000000013 0.7 0.14
v -0.015000000000000013 0.7 -0.14
vt 0 0
vt 1 0
vt 1 1
vt 0 1
vn -1 0 0
vn -1 0 0
vn -1 0 0
vn -1 0 0
f 169/169/169 170/170/170 171/171/171 172/172/172
v 0.024999999999999994 0.66 0.14
v 0.024999999999999994 0.66 -0.14
v 0.024999999999999994 0.7 -0.14
v 0.024999999999999994 0.7 0.14
vt 0 0
vt 1 0
vt 1 1
vt 0 1
vn 1 0 0
vn 1 0 0
vn 1 0 0
vn 1 0 0
f 173/173/173 174/174/174 175/175/175 176/176/176
v -0.015000000000000013 0.66 0.14
v -0.015000000000000013 0.66 -0.14
v 0.024999999999999994 0.66 -0.14
v 0.024999999999999994 0.66 0.14
vt 0 0
vt 1 0
vt 1 1
vt 0 1
vn 0 -1 0
vn 0 -1 0
vn 0 -1 0
vn 0 -1 0
f 177/177/177 178/178/178 179/179/179 180/180/180
v -0.015000000000000013 0.7 -0.14
v -0.015000000000000013 0.7 0.14
v 0.024999999999999994 0.7 0.14
v 0.024999999999999994 0.7 -0.14
vt 0 0
vt 1 0
vt 1 1
vt 0 1
vn 0 1 0
vn 0 1 0
vn 0 1 0
vn 0 1 0
f 181/181/181 182/182/182 183/183/183 184/184/184
v 0.024999999999999994 0.66 -0.14
v -0.015000000000000013 0.66 -0.14
v -0.015000000000000013 0.7 -0.14
v 0.024999999999999994 0.7 -0.14
vt 0 0
vt 1 0
vt 1 1
vt 0 1
vn 0 0 -1
vn 0 0 -1
vn 0 0 -1
vn 0 0 -1
f 185/185/185 186/186/186 187/187/187 188/188/188
v -0.015000000000000013 0.66 0.14
v 0.024999999999999994 0.66 0.14
v 0.024999999999999994 0.7 0.14
v -0.015000000000000013 0.7 0.14
vt 0 0
vt 1 0
vt 1 1
vt 0 1
vn 0 0 1
vn 0 0 1
vn 0 0 1
vn 0 0 1
f 189/189/189 190/190/190 191/191/191 192/192/192
o overloadcore_magnetic_left_leg_ring3
usemtl energy
v 0.225 0.66 -0.14
v 0.225 0.66 0.14
v 0.225 0.7 0.14
v 0.225 0.7 -0.14
vt 0 0
vt 1 0
vt 1 1
vt 0 1
vn -1 0 0
vn -1 0 0
vn -1 0 0
vn -1 0 0
f 193/193/193 194/194/194 195/195/195 196/196/196
v 0.265 0.66 0.14
v 0.265 0.66 -0.14
v 0.265 0.7 -0.14
v 0.265 0.7 0.14
vt 0 0
vt 1 0
vt 1 1
vt 0 1
vn 1 0 0
vn 1 0 0
vn 1 0 0
vn 1 0 0
f 197/197/197 198/198/198 199/199/199 200/200/200
v 0.225 0.66 0.14
v 0.225 0.66 -0.14
v 0.265 0.66 -0.14
v 0.265 0.66 0.14
vt 0 0
vt 1 0
vt 1 1
vt 0 1
vn 0 -1 0
vn 0 -1 0
vn 0 -1 0
vn 0 -1 0
f 201/201/201 202/202/202 203/203/203 204/204/204
v 0.225 0.7 -0.14
v 0.225 0.7 0.14
v 0.265 0.7 0.14
v 0.265 0.7 -0.14
vt 0 0
vt 1 0
vt 1 1
vt 0 1
vn 0 1 0
vn 0 1 0
vn 0 1 0
vn 0 1 0
f 205/205/205 206/206/206 207/207/207 208/208/208
v 0.265 0.66 -0.14
v 0.225 0.66 -0.14
v 0.225 0.7 -0.14
v 0.265 0.7 -0.14
vt 0 0
vt 1 0
vt 1 1
vt 0 1
vn 0 0 -1
vn 0 0 -1
vn 0 0 -1
vn 0 0 -1
f 209/209/209 210/210/210 211/211/211 212/212/212
v 0.225 0.66 0.14
v 0.265 0.66 0.14
v 0.265 0.7 0.14
v 0.225 0.7 0.14
vt 0 0
vt 1 0
vt 1 1
vt 0 1
vn 0 0 1
vn 0 0 1
vn 0 0 1
vn 0 0 1
f 213/213/213 214/214/214 215/215/215 216/216/216
o overloadcore_magnetic_right_leg_ring0
usemtl energy
v -0.265 0.66 -0.19
v -0.265 0.66 -0.14
v -0.265 0.7 -0.14
v -0.265 0.7 -0.19
vt 0 0
vt 1 0
vt 1 1
vt 0 1
vn -1 0 0
vn -1 0 0
vn -1 0 0
vn -1 0 0
f 217/217/217 218/218/218 219/219/219 220/220/220
v 0.015000000000000013 0.66 -0.14
v 0.015000000000000013 0.66 -0.19
v 0.015000000000000013 0.7 -0.19
v 0.015000000000000013 0.7 -0.14
vt 0 0
vt 1 0
vt 1 1
vt 0 1
vn 1 0 0
vn 1 0 0
vn 1 0 0
vn 1 0 0
f 221/221/221 222/222/222 223/223/223 224/224/224
v -0.265 0.66 -0.14
v -0.265 0.66 -0.19
v 0.015000000000000013 0.66 -0.19
v 0.015000000000000013 0.66 -0.14
vt 0 0
vt 1 0
vt 1 1
vt 0 1
vn 0 -1 0
vn 0 -1 0
vn 0 -1 0
vn 0 -1 0
f 225/225/225 226/226/226 227/227/227 228/228/228
v -0.265 0.7 -0.19
v -0.265 0.7 -0.14
v 0.015000000000000013 0.7 -0.14
v 0.015000000000000013 0.7 -0.19
vt 0 0
vt 1 0
vt 1 1
vt 0 1
vn 0 1 0
vn 0 1 0
vn 0 1 0
vn 0 1 0
f 229/229/229 230/230/230 231/231/231 232/232/232
v 0.015000000000000013 0.66 -0.19
v -0.265 0.66 -0.19
v -0.265 0.7 -0.19
v 0.015000000000000013 0.7 -0.19
vt 0 0
vt 1 0
vt 1 1
vt 0 1
vn 0 0 -1
vn 0 0 -1
vn 0 0 -1
vn 0 0 -1
f 233/233/233 234/234/234 235/235/235 236/236/236
v -0.265 0.66 -0.14
v 0.015000000000000013 0.66 -0.14
v 0.015000000000000013 0.7 -0.14
v -0.265 0.7 -0.14
vt 0 0
vt 1 0
vt 1 1
vt 0 1
vn 0 0 1
vn 0 0 1
vn 0 0 1
vn 0 0 1
f 237/237/237 238/238/238 239/239/239 240/240/240
o overloadcore_magnetic_right_leg_ring1
usemtl energy
v -0.265 0.66 0.14
v -0.265 0.66 0.19
v -0.265 0.7 0.19
v -0.265 0.7 0.14
vt 0 0
vt 1 0
vt 1 1
vt 0 1
vn -1 0 0
vn -1 0 0
vn -1 0 0
vn -1 0 0
f 241/241/241 242/242/242 243/243/243 244/244/244
v 0.015000000000000013 0.66 0.19
v 0.015000000000000013 0.66 0.14
v 0.015000000000000013 0.7 0.14
v 0.015000000000000013 0.7 0.19
vt 0 0
vt 1 0
vt 1 1
vt 0 1
vn 1 0 0
vn 1 0 0
vn 1 0 0
vn 1 0 0
f 245/245/245 246/246/246 247/247/247 248/248/248
v -0.265 0.66 0.19
v -0.265 0.66 0.14
v 0.015000000000000013 0.66 0.14
v 0.015000000000000013 0.66 0.19
vt 0 0
vt 1 0
vt 1 1
vt 0 1
vn 0 -1 0
vn 0 -1 0
vn 0 -1 0
vn 0 -1 0
f 249/249/249 250/250/250 251/251/251 252/252/252
v -0.265 0.7 0.14
v -0.265 0.7 0.19
v 0.015000000000000013 0.7 0.19
v 0.015000000000000013 0.7 0.14
vt 0 0
vt 1 0
vt 1 1
vt 0 1
vn 0 1 0
vn 0 1 0
vn 0 1 0
vn 0 1 0
f 253/253/253 254/254/254 255/255/255 256/256/256
v 0.015000000000000013 0.66 0.14
v -0.265 0.66 0.14
v -0.265 0.7 0.14
v 0.015000000000000013 0.7 0.14
vt 0 0
vt 1 0
vt 1 1
vt 0 1
vn 0 0 -1
vn 0 0 -1
vn 0 0 -1
vn 0 0 -1
f 257/257/257 258/258/258 259/259/259 260/260/260
v -0.265 0.66 0.19
v 0.015000000000000013 0.66 0.19
v 0.015000000000000013 0.7 0.19
v -0.265 0.7 0.19
vt 0 0
vt 1 0
vt 1 1
vt 0 1
vn 0 0 1
vn 0 0 1
vn 0 0 1
vn 0 0 1
f 261/261/261 262/262/262 263/263/263 264/264/264
o overloadcore_magnetic_right_leg_ring2
usemtl energy
v -0.265 0.66 -0.14
v -0.265 0.66 0.14
v -0.265 0.7 0.14
v -0.265 0.7 -0.14
vt 0 0
vt 1 0
vt 1 1
vt 0 1
vn -1 0 0
vn -1 0 0
vn -1 0 0
vn -1 0 0
f 265/265/265 266/266/266 267/267/267 268/268/268
v -0.225 0.66 0.14
v -0.225 0.66 -0.14
v -0.225 0.7 -0.14
v -0.225 0.7 0.14
vt 0 0
vt 1 0
vt 1 1
vt 0 1
vn 1 0 0
vn 1 0 0
vn 1 0 0
vn 1 0 0
f 269/269/269 270/270/270 271/271/271 272/272/272
v -0.265 0.66 0.14
v -0.265 0.66 -0.14
v -0.225 0.66 -0.14
v -0.225 0.66 0.14
vt 0 0
vt 1 0
vt 1 1
vt 0 1
vn 0 -1 0
vn 0 -1 0
vn 0 -1 0
vn 0 -1 0
f 273/273/273 274/274/274 275/275/275 276/276/276
v -0.265 0.7 -0.14
v -0.265 0.7 0.14
v -0.225 0.7 0.14
v -0.225 0.7 -0.14
vt 0 0
vt 1 0
vt 1 1
vt 0 1
vn 0 1 0
vn 0 1 0
vn 0 1 0
vn 0 1 0
f 277/277/277 278/278/278 279/279/279 280/280/280
v -0.225 0.66 -0.14
v -0.265 0.66 -0.14
v -0.265 0.7 -0.14
v -0.225 0.7 -0.14
vt 0 0
vt 1 0
vt 1 1
vt 0 1
vn 0 0 -1
vn 0 0 -1
vn 0 0 -1
vn 0 0 -1
f 281/281/281 282/282/282 283/283/283 284/284/284
v -0.265 0.66 0.14
v -0.225 0.66 0.14
v -0.225 0.7 0.14
v -0.265 0.7 0.14
vt 0 0
vt 1 0
vt 1 1
vt 0 1
vn 0 0 1
vn 0 0 1
vn 0 0 1
vn 0 0 1
f 285/285/285 286/286/286 287/287/287 288/288/288
o overloadcore_magnetic_right_leg_ring3
usemtl energy
v -0.024999999999999994 0.66 -0.14
v -0.024999999999999994 0.66 0.14
v -0.024999999999999994 0.7 0.14
v -0.024999999999999994 0.7 -0.14
vt 0 0
vt 1 0
vt 1 1
vt 0 1
vn -1 0 0
vn -1 0 0
vn -1 0 0
vn -1 0 0
f 289/289/289 290/290/290 291/291/291 292/292/292
v 0.015000000000000013 0.66 0.14
v 0.015000000000000013 0.66 -0.14
v 0.015000000000000013 0.7 -0.14
v 0.015000000000000013 0.7 0.14
vt 0 0
vt 1 0
vt 1 1
vt 0 1
vn 1 0 0
vn 1 0 0
vn 1 0 0
vn 1 0 0
f 293/293/293 294/294/294 295/295/295 296/296/296
v -0.024999999999999994 0.66 0.14
v -0.024999999999999994 0.66 -0.14
v 0.015000000000000013 0.66 -0.14
v 0.015000000000000013 0.66 0.14
vt 0 0
vt 1 0
vt 1 1
vt 0 1
vn 0 -1 0
vn 0 -1 0
vn 0 -1 0
vn 0 -1 0
f 297/297/297 298/298/298 299/299/299 300/300/300
v -0.024999999999999994 0.7 -0.14
v -0.024999999999999994 0.7 0.14
v 0.015000000000000013 0.7 0.14
v 0.015000000000000013 0.7 -0.14
vt 0 0
vt 1 0
vt 1 1
vt 0 1
vn 0 1 0
vn 0 1 0
vn 0 1 0
vn 0 1 0
f 301/301/301 302/302/302 303/303/303 304/304/304
v 0.015000000000000013 0.66 -0.14
v -0.024999999999999994 0.66 -0.14
v -0.024999999999999994 0.7 -0.14
v 0.015000000000000013 0.7 -0.14
vt 0 0
vt 1 0
vt 1 1
vt 0 1
vn 0 0 -1
vn 0 0 -1
vn 0 0 -1
vn 0 0 -1
f 305/305/305 306/306/306 307/307/307 308/308/308
v -0.024999999999999994 0.66 0.14
v 0.015000000000000013 0.66 0.14
v 0.015000000000000013 0.7 0.14
v -0.024999999999999994 0.7 0.14
vt 0 0
vt 1 0
vt 1 1
vt 0 1
vn 0 0 1
vn 0 0 1
vn 0 0 1
vn 0 0 1
f 309/309/309 310/310/310 311/311/311 312/312/312
