# Original core part; generated from core.obj geometry.
mtllib core.mtl
o energy
usemtl energy
v 0.5000000 0.8750000 0.5000000
vt 0.0312500 0.0000000
v 0.6325825 0.8464548 0.5549175
vt 0.0625000 0.1250000
v 0.6435063 0.8464548 0.5000000
vt 0.0000000 0.1250000
f 1/1 2/2 3/3
usemtl energy
v 0.5000000 0.8750000 0.5000000
vt 0.0937500 0.0000000
v 0.6014743 0.8464548 0.6014743
vt 0.1250000 0.1250000
v 0.6325825 0.8464548 0.5549175
vt 0.0625000 0.1250000
f 4/4 5/5 6/6
usemtl energy
v 0.5000000 0.8750000 0.5000000
vt 0.1562500 0.0000000
v 0.5549175 0.8464548 0.6325825
vt 0.1875000 0.1250000
v 0.6014743 0.8464548 0.6014743
vt 0.1250000 0.1250000
f 7/7 8/8 9/9
usemtl energy
v 0.5000000 0.8750000 0.5000000
vt 0.2187500 0.0000000
v 0.5000000 0.8464548 0.6435063
vt 0.2500000 0.1250000
v 0.5549175 0.8464548 0.6325825
vt 0.1875000 0.1250000
f 10/10 11/11 12/12
usemtl energy
v 0.5000000 0.8750000 0.5000000
vt 0.2812500 0.0000000
v 0.4450825 0.8464548 0.6325825
vt 0.3125000 0.1250000
v 0.5000000 0.8464548 0.6435063
vt 0.2500000 0.1250000
f 13/13 14/14 15/15
usemtl energy
v 0.5000000 0.8750000 0.5000000
vt 0.3437500 0.0000000
v 0.3985257 0.8464548 0.6014743
vt 0.3750000 0.1250000
v 0.4450825 0.8464548 0.6325825
vt 0.3125000 0.1250000
f 16/16 17/17 18/18
usemtl energy
v 0.5000000 0.8750000 0.5000000
vt 0.4062500 0.0000000
v 0.3674175 0.8464548 0.5549175
vt 0.4375000 0.1250000
v 0.3985257 0.8464548 0.6014743
vt 0.3750000 0.1250000
f 19/19 20/20 21/21
usemtl energy
v 0.5000000 0.8750000 0.5000000
vt 0.4687500 0.0000000
v 0.3564937 0.8464548 0.5000000
vt 0.5000000 0.1250000
v 0.3674175 0.8464548 0.5549175
vt 0.4375000 0.1250000
f 22/22 23/23 24/24
usemtl energy
v 0.5000000 0.8750000 0.5000000
vt 0.5312500 0.0000000
v 0.3674175 0.8464548 0.4450825
vt 0.5625000 0.1250000
v 0.3564937 0.8464548 0.5000000
vt 0.5000000 0.1250000
f 25/25 26/26 27/27
usemtl energy
v 0.5000000 0.8750000 0.5000000
vt 0.5937500 0.0000000
v 0.3985257 0.8464548 0.3985257
vt 0.6250000 0.1250000
v 0.3674175 0.8464548 0.4450825
vt 0.5625000 0.1250000
f 28/28 29/29 30/30
usemtl energy
v 0.5000000 0.8750000 0.5000000
vt 0.6562500 0.0000000
v 0.4450825 0.8464548 0.3674175
vt 0.6875000 0.1250000
v 0.3985257 0.8464548 0.3985257
vt 0.6250000 0.1250000
f 31/31 32/32 33/33
usemtl energy
v 0.5000000 0.8750000 0.5000000
vt 0.7187500 0.0000000
v 0.5000000 0.8464548 0.3564937
vt 0.7500000 0.1250000
v 0.4450825 0.8464548 0.3674175
vt 0.6875000 0.1250000
f 34/34 35/35 36/36
usemtl energy
v 0.5000000 0.8750000 0.5000000
vt 0.7812500 0.0000000
v 0.5549175 0.8464548 0.3674175
vt 0.8125000 0.1250000
v 0.5000000 0.8464548 0.3564937
vt 0.7500000 0.1250000
f 37/37 38/38 39/39
usemtl energy
v 0.5000000 0.8750000 0.5000000
vt 0.8437500 0.0000000
v 0.6014743 0.8464548 0.3985257
vt 0.8750000 0.1250000
v 0.5549175 0.8464548 0.3674175
vt 0.8125000 0.1250000
f 40/40 41/41 42/42
usemtl energy
v 0.5000000 0.8750000 0.5000000
vt 0.9062500 0.0000000
v 0.6325825 0.8464548 0.4450825
vt 0.9375000 0.1250000
v 0.6014743 0.8464548 0.3985257
vt 0.8750000 0.1250000
f 43/43 44/44 45/45
usemtl energy
v 0.5000000 0.8750000 0.5000000
vt 0.9687500 0.0000000
v 0.6435063 0.8464548 0.5000000
vt 1.0000000 0.1250000
v 0.6325825 0.8464548 0.4450825
vt 0.9375000 0.1250000
f 46/46 47/47 48/48
usemtl energy
v 0.6435063 0.8464548 0.5000000
vt 0.0000000 0.1250000
v 0.6325825 0.8464548 0.5549175
vt 0.0625000 0.1250000
v 0.7449806 0.7651650 0.6014743
vt 0.0625000 0.2500000
v 0.7651650 0.7651650 0.5000000
vt 0.0000000 0.2500000
f 49/49 50/50 51/51 52/52
usemtl energy
v 0.6325825 0.8464548 0.5549175
vt 0.0625000 0.1250000
v 0.6014743 0.8464548 0.6014743
vt 0.1250000 0.1250000
v 0.6875000 0.7651650 0.6875000
vt 0.1250000 0.2500000
v 0.7449806 0.7651650 0.6014743
vt 0.0625000 0.2500000
f 53/53 54/54 55/55 56/56
usemtl energy
v 0.6014743 0.8464548 0.6014743
vt 0.1250000 0.1250000
v 0.5549175 0.8464548 0.6325825
vt 0.1875000 0.1250000
v 0.6014743 0.7651650 0.7449806
vt 0.1875000 0.2500000
v 0.6875000 0.7651650 0.6875000
vt 0.1250000 0.2500000
f 57/57 58/58 59/59 60/60
usemtl energy
v 0.5549175 0.8464548 0.6325825
vt 0.1875000 0.1250000
v 0.5000000 0.8464548 0.6435063
vt 0.2500000 0.1250000
v 0.5000000 0.7651650 0.7651650
vt 0.2500000 0.2500000
v 0.6014743 0.7651650 0.7449806
vt 0.1875000 0.2500000
f 61/61 62/62 63/63 64/64
usemtl energy
v 0.5000000 0.8464548 0.6435063
vt 0.2500000 0.1250000
v 0.4450825 0.8464548 0.6325825
vt 0.3125000 0.1250000
v 0.3985257 0.7651650 0.7449806
vt 0.3125000 0.2500000
v 0.5000000 0.7651650 0.7651650
vt 0.2500000 0.2500000
f 65/65 66/66 67/67 68/68
usemtl energy
v 0.4450825 0.8464548 0.6325825
vt 0.3125000 0.1250000
v 0.3985257 0.8464548 0.6014743
vt 0.3750000 0.1250000
v 0.3125000 0.7651650 0.6875000
vt 0.3750000 0.2500000
v 0.3985257 0.7651650 0.7449806
vt 0.3125000 0.2500000
f 69/69 70/70 71/71 72/72
usemtl energy
v 0.3985257 0.8464548 0.6014743
vt 0.3750000 0.1250000
v 0.3674175 0.8464548 0.5549175
vt 0.4375000 0.1250000
v 0.2550194 0.7651650 0.6014743
vt 0.4375000 0.2500000
v 0.3125000 0.7651650 0.6875000
vt 0.3750000 0.2500000
f 73/73 74/74 75/75 76/76
usemtl energy
v 0.3674175 0.8464548 0.5549175
vt 0.4375000 0.1250000
v 0.3564937 0.8464548 0.5000000
vt 0.5000000 0.1250000
v 0.2348350 0.7651650 0.5000000
vt 0.5000000 0.2500000
v 0.2550194 0.7651650 0.6014743
vt 0.4375000 0.2500000
f 77/77 78/78 79/79 80/80
usemtl energy
v 0.3564937 0.8464548 0.5000000
vt 0.5000000 0.1250000
v 0.3674175 0.8464548 0.4450825
vt 0.5625000 0.1250000
v 0.2550194 0.7651650 0.3985257
vt 0.5625000 0.2500000
v 0.2348350 0.7651650 0.5000000
vt 0.5000000 0.2500000
f 81/81 82/82 83/83 84/84
usemtl energy
v 0.3674175 0.8464548 0.4450825
vt 0.5625000 0.1250000
v 0.3985257 0.8464548 0.3985257
vt 0.6250000 0.1250000
v 0.3125000 0.7651650 0.3125000
vt 0.6250000 0.2500000
v 0.2550194 0.7651650 0.3985257
vt 0.5625000 0.2500000
f 85/85 86/86 87/87 88/88
usemtl energy
v 0.3985257 0.8464548 0.3985257
vt 0.6250000 0.1250000
v 0.4450825 0.8464548 0.3674175
vt 0.6875000 0.1250000
v 0.3985257 0.7651650 0.2550194
vt 0.6875000 0.2500000
v 0.3125000 0.7651650 0.3125000
vt 0.6250000 0.2500000
f 89/89 90/90 91/91 92/92
usemtl energy
v 0.4450825 0.8464548 0.3674175
vt 0.6875000 0.1250000
v 0.5000000 0.8464548 0.3564937
vt 0.7500000 0.1250000
v 0.5000000 0.7651650 0.2348350
vt 0.7500000 0.2500000
v 0.3985257 0.7651650 0.2550194
vt 0.6875000 0.2500000
f 93/93 94/94 95/95 96/96
usemtl energy
v 0.5000000 0.8464548 0.3564937
vt 0.7500000 0.1250000
v 0.5549175 0.8464548 0.3674175
vt 0.8125000 0.1250000
v 0.6014743 0.7651650 0.2550194
vt 0.8125000 0.2500000
v 0.5000000 0.7651650 0.2348350
vt 0.7500000 0.2500000
f 97/97 98/98 99/99 100/100
usemtl energy
v 0.5549175 0.8464548 0.3674175
vt 0.8125000 0.1250000
v 0.6014743 0.8464548 0.3985257
vt 0.8750000 0.1250000
v 0.6875000 0.7651650 0.3125000
vt 0.8750000 0.2500000
v 0.6014743 0.7651650 0.2550194
vt 0.8125000 0.2500000
f 101/101 102/102 103/103 104/104
usemtl energy
v 0.6014743 0.8464548 0.3985257
vt 0.8750000 0.1250000
v 0.6325825 0.8464548 0.4450825
vt 0.9375000 0.1250000
v 0.7449806 0.7651650 0.3985257
vt 0.9375000 0.2500000
v 0.6875000 0.7651650 0.3125000
vt 0.8750000 0.2500000
f 105/105 106/106 107/107 108/108
usemtl energy
v 0.6325825 0.8464548 0.4450825
vt 0.9375000 0.1250000
v 0.6435063 0.8464548 0.5000000
vt 1.0000000 0.1250000
v 0.7651650 0.7651650 0.5000000
vt 1.0000000 0.2500000
v 0.7449806 0.7651650 0.3985257
vt 0.9375000 0.2500000
f 109/109 110/110 111/111 112/112
usemtl energy
v 0.7651650 0.7651650 0.5000000
vt 0.0000000 0.2500000
v 0.7449806 0.7651650 0.6014743
vt 0.0625000 0.2500000
v 0.8200825 0.6435063 0.6325825
vt 0.0625000 0.3750000
v 0.8464548 0.6435063 0.5000000
vt 0.0000000 0.3750000
f 113/113 114/114 115/115 116/116
usemtl energy
v 0.7449806 0.7651650 0.6014743
vt 0.0625000 0.2500000
v 0.6875000 0.7651650 0.6875000
vt 0.1250000 0.2500000
v 0.7449806 0.6435063 0.7449806
vt 0.1250000 0.3750000
v 0.8200825 0.6435063 0.6325825
vt 0.0625000 0.3750000
f 117/117 118/118 119/119 120/120
usemtl energy
v 0.6875000 0.7651650 0.6875000
vt 0.1250000 0.2500000
v 0.6014743 0.7651650 0.7449806
vt 0.1875000 0.2500000
v 0.6325825 0.6435063 0.8200825
vt 0.1875000 0.3750000
v 0.7449806 0.6435063 0.7449806
vt 0.1250000 0.3750000
f 121/121 122/122 123/123 124/124
usemtl energy
v 0.6014743 0.7651650 0.7449806
vt 0.1875000 0.2500000
v 0.5000000 0.7651650 0.7651650
vt 0.2500000 0.2500000
v 0.5000000 0.6435063 0.8464548
vt 0.2500000 0.3750000
v 0.6325825 0.6435063 0.8200825
vt 0.1875000 0.3750000
f 125/125 126/126 127/127 128/128
usemtl energy
v 0.5000000 0.7651650 0.7651650
vt 0.2500000 0.2500000
v 0.3985257 0.7651650 0.7449806
vt 0.3125000 0.2500000
v 0.3674175 0.6435063 0.8200825
vt 0.3125000 0.3750000
v 0.5000000 0.6435063 0.8464548
vt 0.2500000 0.3750000
f 129/129 130/130 131/131 132/132
usemtl energy
v 0.3985257 0.7651650 0.7449806
vt 0.3125000 0.2500000
v 0.3125000 0.7651650 0.6875000
vt 0.3750000 0.2500000
v 0.2550194 0.6435063 0.7449806
vt 0.3750000 0.3750000
v 0.3674175 0.6435063 0.8200825
vt 0.3125000 0.3750000
f 133/133 134/134 135/135 136/136
usemtl energy
v 0.3125000 0.7651650 0.6875000
vt 0.3750000 0.2500000
v 0.2550194 0.7651650 0.6014743
vt 0.4375000 0.2500000
v 0.1799175 0.6435063 0.6325825
vt 0.4375000 0.3750000
v 0.2550194 0.6435063 0.7449806
vt 0.3750000 0.3750000
f 137/137 138/138 139/139 140/140
usemtl energy
v 0.2550194 0.7651650 0.6014743
vt 0.4375000 0.2500000
v 0.2348350 0.7651650 0.5000000
vt 0.5000000 0.2500000
v 0.1535452 0.6435063 0.5000000
vt 0.5000000 0.3750000
v 0.1799175 0.6435063 0.6325825
vt 0.4375000 0.3750000
f 141/141 142/142 143/143 144/144
usemtl energy
v 0.2348350 0.7651650 0.5000000
vt 0.5000000 0.2500000
v 0.2550194 0.7651650 0.3985257
vt 0.5625000 0.2500000
v 0.1799175 0.6435063 0.3674175
vt 0.5625000 0.3750000
v 0.1535452 0.6435063 0.5000000
vt 0.5000000 0.3750000
f 145/145 146/146 147/147 148/148
usemtl energy
v 0.2550194 0.7651650 0.3985257
vt 0.5625000 0.2500000
v 0.3125000 0.7651650 0.3125000
vt 0.6250000 0.2500000
v 0.2550194 0.6435063 0.2550194
vt 0.6250000 0.3750000
v 0.1799175 0.6435063 0.3674175
vt 0.5625000 0.3750000
f 149/149 150/150 151/151 152/152
usemtl energy
v 0.3125000 0.7651650 0.3125000
vt 0.6250000 0.2500000
v 0.3985257 0.7651650 0.2550194
vt 0.6875000 0.2500000
v 0.3674175 0.6435063 0.1799175
vt 0.6875000 0.3750000
v 0.2550194 0.6435063 0.2550194
vt 0.6250000 0.3750000
f 153/153 154/154 155/155 156/156
usemtl energy
v 0.3985257 0.7651650 0.2550194
vt 0.6875000 0.2500000
v 0.5000000 0.7651650 0.2348350
vt 0.7500000 0.2500000
v 0.5000000 0.6435063 0.1535452
vt 0.7500000 0.3750000
v 0.3674175 0.6435063 0.1799175
vt 0.6875000 0.3750000
f 157/157 158/158 159/159 160/160
usemtl energy
v 0.5000000 0.7651650 0.2348350
vt 0.7500000 0.2500000
v 0.6014743 0.7651650 0.2550194
vt 0.8125000 0.2500000
v 0.6325825 0.6435063 0.1799175
vt 0.8125000 0.3750000
v 0.5000000 0.6435063 0.1535452
vt 0.7500000 0.3750000
f 161/161 162/162 163/163 164/164
usemtl energy
v 0.6014743 0.7651650 0.2550194
vt 0.8125000 0.2500000
v 0.6875000 0.7651650 0.3125000
vt 0.8750000 0.2500000
v 0.7449806 0.6435063 0.2550194
vt 0.8750000 0.3750000
v 0.6325825 0.6435063 0.1799175
vt 0.8125000 0.3750000
f 165/165 166/166 167/167 168/168
usemtl energy
v 0.6875000 0.7651650 0.3125000
vt 0.8750000 0.2500000
v 0.7449806 0.7651650 0.3985257
vt 0.9375000 0.2500000
v 0.8200825 0.6435063 0.3674175
vt 0.9375000 0.3750000
v 0.7449806 0.6435063 0.2550194
vt 0.8750000 0.3750000
f 169/169 170/170 171/171 172/172
usemtl energy
v 0.7449806 0.7651650 0.3985257
vt 0.9375000 0.2500000
v 0.7651650 0.7651650 0.5000000
vt 1.0000000 0.2500000
v 0.8464548 0.6435063 0.5000000
vt 1.0000000 0.3750000
v 0.8200825 0.6435063 0.3674175
vt 0.9375000 0.3750000
f 173/173 174/174 175/175 176/176
usemtl energy
v 0.8464548 0.6435063 0.5000000
vt 0.0000000 0.3750000
v 0.8200825 0.6435063 0.6325825
vt 0.0625000 0.3750000
v 0.8464548 0.5000000 0.6435063
vt 0.0625000 0.5000000
v 0.8750000 0.5000000 0.5000000
vt 0.0000000 0.5000000
f 177/177 178/178 179/179 180/180
usemtl energy
v 0.8200825 0.6435063 0.6325825
vt 0.0625000 0.3750000
v 0.7449806 0.6435063 0.7449806
vt 0.1250000 0.3750000
v 0.7651650 0.5000000 0.7651650
vt 0.1250000 0.5000000
v 0.8464548 0.5000000 0.6435063
vt 0.0625000 0.5000000
f 181/181 182/182 183/183 184/184
usemtl energy
v 0.7449806 0.6435063 0.7449806
vt 0.1250000 0.3750000
v 0.6325825 0.6435063 0.8200825
vt 0.1875000 0.3750000
v 0.6435063 0.5000000 0.8464548
vt 0.1875000 0.5000000
v 0.7651650 0.5000000 0.7651650
vt 0.1250000 0.5000000
f 185/185 186/186 187/187 188/188
usemtl energy
v 0.6325825 0.6435063 0.8200825
vt 0.1875000 0.3750000
v 0.5000000 0.6435063 0.8464548
vt 0.2500000 0.3750000
v 0.5000000 0.5000000 0.8750000
vt 0.2500000 0.5000000
v 0.6435063 0.5000000 0.8464548
vt 0.1875000 0.5000000
f 189/189 190/190 191/191 192/192
usemtl energy
v 0.5000000 0.6435063 0.8464548
vt 0.2500000 0.3750000
v 0.3674175 0.6435063 0.8200825
vt 0.3125000 0.3750000
v 0.3564937 0.5000000 0.8464548
vt 0.3125000 0.5000000
v 0.5000000 0.5000000 0.8750000
vt 0.2500000 0.5000000
f 193/193 194/194 195/195 196/196
usemtl energy
v 0.3674175 0.6435063 0.8200825
vt 0.3125000 0.3750000
v 0.2550194 0.6435063 0.7449806
vt 0.3750000 0.3750000
v 0.2348350 0.5000000 0.7651650
vt 0.3750000 0.5000000
v 0.3564937 0.5000000 0.8464548
vt 0.3125000 0.5000000
f 197/197 198/198 199/199 200/200
usemtl energy
v 0.2550194 0.6435063 0.7449806
vt 0.3750000 0.3750000
v 0.1799175 0.6435063 0.6325825
vt 0.4375000 0.3750000
v 0.1535452 0.5000000 0.6435063
vt 0.4375000 0.5000000
v 0.2348350 0.5000000 0.7651650
vt 0.3750000 0.5000000
f 201/201 202/202 203/203 204/204
usemtl energy
v 0.1799175 0.6435063 0.6325825
vt 0.4375000 0.3750000
v 0.1535452 0.6435063 0.5000000
vt 0.5000000 0.3750000
v 0.1250000 0.5000000 0.5000000
vt 0.5000000 0.5000000
v 0.1535452 0.5000000 0.6435063
vt 0.4375000 0.5000000
f 205/205 206/206 207/207 208/208
usemtl energy
v 0.1535452 0.6435063 0.5000000
vt 0.5000000 0.3750000
v 0.1799175 0.6435063 0.3674175
vt 0.5625000 0.3750000
v 0.1535452 0.5000000 0.3564937
vt 0.5625000 0.5000000
v 0.1250000 0.5000000 0.5000000
vt 0.5000000 0.5000000
f 209/209 210/210 211/211 212/212
usemtl energy
v 0.1799175 0.6435063 0.3674175
vt 0.5625000 0.3750000
v 0.2550194 0.6435063 0.2550194
vt 0.6250000 0.3750000
v 0.2348350 0.5000000 0.2348350
vt 0.6250000 0.5000000
v 0.1535452 0.5000000 0.3564937
vt 0.5625000 0.5000000
f 213/213 214/214 215/215 216/216
usemtl energy
v 0.2550194 0.6435063 0.2550194
vt 0.6250000 0.3750000
v 0.3674175 0.6435063 0.1799175
vt 0.6875000 0.3750000
v 0.3564937 0.5000000 0.1535452
vt 0.6875000 0.5000000
v 0.2348350 0.5000000 0.2348350
vt 0.6250000 0.5000000
f 217/217 218/218 219/219 220/220
usemtl energy
v 0.3674175 0.6435063 0.1799175
vt 0.6875000 0.3750000
v 0.5000000 0.6435063 0.1535452
vt 0.7500000 0.3750000
v 0.5000000 0.5000000 0.1250000
vt 0.7500000 0.5000000
v 0.3564937 0.5000000 0.1535452
vt 0.6875000 0.5000000
f 221/221 222/222 223/223 224/224
usemtl energy
v 0.5000000 0.6435063 0.1535452
vt 0.7500000 0.3750000
v 0.6325825 0.6435063 0.1799175
vt 0.8125000 0.3750000
v 0.6435063 0.5000000 0.1535452
vt 0.8125000 0.5000000
v 0.5000000 0.5000000 0.1250000
vt 0.7500000 0.5000000
f 225/225 226/226 227/227 228/228
usemtl energy
v 0.6325825 0.6435063 0.1799175
vt 0.8125000 0.3750000
v 0.7449806 0.6435063 0.2550194
vt 0.8750000 0.3750000
v 0.7651650 0.5000000 0.2348350
vt 0.8750000 0.5000000
v 0.6435063 0.5000000 0.1535452
vt 0.8125000 0.5000000
f 229/229 230/230 231/231 232/232
usemtl energy
v 0.7449806 0.6435063 0.2550194
vt 0.8750000 0.3750000
v 0.8200825 0.6435063 0.3674175
vt 0.9375000 0.3750000
v 0.8464548 0.5000000 0.3564937
vt 0.9375000 0.5000000
v 0.7651650 0.5000000 0.2348350
vt 0.8750000 0.5000000
f 233/233 234/234 235/235 236/236
usemtl energy
v 0.8200825 0.6435063 0.3674175
vt 0.9375000 0.3750000
v 0.8464548 0.6435063 0.5000000
vt 1.0000000 0.3750000
v 0.8750000 0.5000000 0.5000000
vt 1.0000000 0.5000000
v 0.8464548 0.5000000 0.3564937
vt 0.9375000 0.5000000
f 237/237 238/238 239/239 240/240
usemtl energy
v 0.8750000 0.5000000 0.5000000
vt 0.0000000 0.5000000
v 0.8464548 0.5000000 0.6435063
vt 0.0625000 0.5000000
v 0.8200825 0.3564937 0.6325825
vt 0.0625000 0.6250000
v 0.8464548 0.3564937 0.5000000
vt 0.0000000 0.6250000
f 241/241 242/242 243/243 244/244
usemtl energy
v 0.8464548 0.5000000 0.6435063
vt 0.0625000 0.5000000
v 0.7651650 0.5000000 0.7651650
vt 0.1250000 0.5000000
v 0.7449806 0.3564937 0.7449806
vt 0.1250000 0.6250000
v 0.8200825 0.3564937 0.6325825
vt 0.0625000 0.6250000
f 245/245 246/246 247/247 248/248
usemtl energy
v 0.7651650 0.5000000 0.7651650
vt 0.1250000 0.5000000
v 0.6435063 0.5000000 0.8464548
vt 0.1875000 0.5000000
v 0.6325825 0.3564937 0.8200825
vt 0.1875000 0.6250000
v 0.7449806 0.3564937 0.7449806
vt 0.1250000 0.6250000
f 249/249 250/250 251/251 252/252
usemtl energy
v 0.6435063 0.5000000 0.8464548
vt 0.1875000 0.5000000
v 0.5000000 0.5000000 0.8750000
vt 0.2500000 0.5000000
v 0.5000000 0.3564937 0.8464548
vt 0.2500000 0.6250000
v 0.6325825 0.3564937 0.8200825
vt 0.1875000 0.6250000
f 253/253 254/254 255/255 256/256
usemtl energy
v 0.5000000 0.5000000 0.8750000
vt 0.2500000 0.5000000
v 0.3564937 0.5000000 0.8464548
vt 0.3125000 0.5000000
v 0.3674175 0.3564937 0.8200825
vt 0.3125000 0.6250000
v 0.5000000 0.3564937 0.8464548
vt 0.2500000 0.6250000
f 257/257 258/258 259/259 260/260
usemtl energy
v 0.3564937 0.5000000 0.8464548
vt 0.3125000 0.5000000
v 0.2348350 0.5000000 0.7651650
vt 0.3750000 0.5000000
v 0.2550194 0.3564937 0.7449806
vt 0.3750000 0.6250000
v 0.3674175 0.3564937 0.8200825
vt 0.3125000 0.6250000
f 261/261 262/262 263/263 264/264
usemtl energy
v 0.2348350 0.5000000 0.7651650
vt 0.3750000 0.5000000
v 0.1535452 0.5000000 0.6435063
vt 0.4375000 0.5000000
v 0.1799175 0.3564937 0.6325825
vt 0.4375000 0.6250000
v 0.2550194 0.3564937 0.7449806
vt 0.3750000 0.6250000
f 265/265 266/266 267/267 268/268
usemtl energy
v 0.1535452 0.5000000 0.6435063
vt 0.4375000 0.5000000
v 0.1250000 0.5000000 0.5000000
vt 0.5000000 0.5000000
v 0.1535452 0.3564937 0.5000000
vt 0.5000000 0.6250000
v 0.1799175 0.3564937 0.6325825
vt 0.4375000 0.6250000
f 269/269 270/270 271/271 272/272
usemtl energy
v 0.1250000 0.5000000 0.5000000
vt 0.5000000 0.5000000
v 0.1535452 0.5000000 0.3564937
vt 0.5625000 0.5000000
v 0.1799175 0.3564937 0.3674175
vt 0.5625000 0.6250000
v 0.1535452 0.3564937 0.5000000
vt 0.5000000 0.6250000
f 273/273 274/274 275/275 276/276
usemtl energy
v 0.1535452 0.5000000 0.3564937
vt 0.5625000 0.5000000
v 0.2348350 0.5000000 0.2348350
vt 0.6250000 0.5000000
v 0.2550194 0.3564937 0.2550194
vt 0.6250000 0.6250000
v 0.1799175 0.3564937 0.3674175
vt 0.5625000 0.6250000
f 277/277 278/278 279/279 280/280
usemtl energy
v 0.2348350 0.5000000 0.2348350
vt 0.6250000 0.5000000
v 0.3564937 0.5000000 0.1535452
vt 0.6875000 0.5000000
v 0.3674175 0.3564937 0.1799175
vt 0.6875000 0.6250000
v 0.2550194 0.3564937 0.2550194
vt 0.6250000 0.6250000
f 281/281 282/282 283/283 284/284
usemtl energy
v 0.3564937 0.5000000 0.1535452
vt 0.6875000 0.5000000
v 0.5000000 0.5000000 0.1250000
vt 0.7500000 0.5000000
v 0.5000000 0.3564937 0.1535452
vt 0.7500000 0.6250000
v 0.3674175 0.3564937 0.1799175
vt 0.6875000 0.6250000
f 285/285 286/286 287/287 288/288
usemtl energy
v 0.5000000 0.5000000 0.1250000
vt 0.7500000 0.5000000
v 0.6435063 0.5000000 0.1535452
vt 0.8125000 0.5000000
v 0.6325825 0.3564937 0.1799175
vt 0.8125000 0.6250000
v 0.5000000 0.3564937 0.1535452
vt 0.7500000 0.6250000
f 289/289 290/290 291/291 292/292
usemtl energy
v 0.6435063 0.5000000 0.1535452
vt 0.8125000 0.5000000
v 0.7651650 0.5000000 0.2348350
vt 0.8750000 0.5000000
v 0.7449806 0.3564937 0.2550194
vt 0.8750000 0.6250000
v 0.6325825 0.3564937 0.1799175
vt 0.8125000 0.6250000
f 293/293 294/294 295/295 296/296
usemtl energy
v 0.7651650 0.5000000 0.2348350
vt 0.8750000 0.5000000
v 0.8464548 0.5000000 0.3564937
vt 0.9375000 0.5000000
v 0.8200825 0.3564937 0.3674175
vt 0.9375000 0.6250000
v 0.7449806 0.3564937 0.2550194
vt 0.8750000 0.6250000
f 297/297 298/298 299/299 300/300
usemtl energy
v 0.8464548 0.5000000 0.3564937
vt 0.9375000 0.5000000
v 0.8750000 0.5000000 0.5000000
vt 1.0000000 0.5000000
v 0.8464548 0.3564937 0.5000000
vt 1.0000000 0.6250000
v 0.8200825 0.3564937 0.3674175
vt 0.9375000 0.6250000
f 301/301 302/302 303/303 304/304
usemtl energy
v 0.8464548 0.3564937 0.5000000
vt 0.0000000 0.6250000
v 0.8200825 0.3564937 0.6325825
vt 0.0625000 0.6250000
v 0.7449806 0.2348350 0.6014743
vt 0.0625000 0.7500000
v 0.7651650 0.2348350 0.5000000
vt 0.0000000 0.7500000
f 305/305 306/306 307/307 308/308
usemtl energy
v 0.8200825 0.3564937 0.6325825
vt 0.0625000 0.6250000
v 0.7449806 0.3564937 0.7449806
vt 0.1250000 0.6250000
v 0.6875000 0.2348350 0.6875000
vt 0.1250000 0.7500000
v 0.7449806 0.2348350 0.6014743
vt 0.0625000 0.7500000
f 309/309 310/310 311/311 312/312
usemtl energy
v 0.7449806 0.3564937 0.7449806
vt 0.1250000 0.6250000
v 0.6325825 0.3564937 0.8200825
vt 0.1875000 0.6250000
v 0.6014743 0.2348350 0.7449806
vt 0.1875000 0.7500000
v 0.6875000 0.2348350 0.6875000
vt 0.1250000 0.7500000
f 313/313 314/314 315/315 316/316
usemtl energy
v 0.6325825 0.3564937 0.8200825
vt 0.1875000 0.6250000
v 0.5000000 0.3564937 0.8464548
vt 0.2500000 0.6250000
v 0.5000000 0.2348350 0.7651650
vt 0.2500000 0.7500000
v 0.6014743 0.2348350 0.7449806
vt 0.1875000 0.7500000
f 317/317 318/318 319/319 320/320
usemtl energy
v 0.5000000 0.3564937 0.8464548
vt 0.2500000 0.6250000
v 0.3674175 0.3564937 0.8200825
vt 0.3125000 0.6250000
v 0.3985257 0.2348350 0.7449806
vt 0.3125000 0.7500000
v 0.5000000 0.2348350 0.7651650
vt 0.2500000 0.7500000
f 321/321 322/322 323/323 324/324
usemtl energy
v 0.3674175 0.3564937 0.8200825
vt 0.3125000 0.6250000
v 0.2550194 0.3564937 0.7449806
vt 0.3750000 0.6250000
v 0.3125000 0.2348350 0.6875000
vt 0.3750000 0.7500000
v 0.3985257 0.2348350 0.7449806
vt 0.3125000 0.7500000
f 325/325 326/326 327/327 328/328
usemtl energy
v 0.2550194 0.3564937 0.7449806
vt 0.3750000 0.6250000
v 0.1799175 0.3564937 0.6325825
vt 0.4375000 0.6250000
v 0.2550194 0.2348350 0.6014743
vt 0.4375000 0.7500000
v 0.3125000 0.2348350 0.6875000
vt 0.3750000 0.7500000
f 329/329 330/330 331/331 332/332
usemtl energy
v 0.1799175 0.3564937 0.6325825
vt 0.4375000 0.6250000
v 0.1535452 0.3564937 0.5000000
vt 0.5000000 0.6250000
v 0.2348350 0.2348350 0.5000000
vt 0.5000000 0.7500000
v 0.2550194 0.2348350 0.6014743
vt 0.4375000 0.7500000
f 333/333 334/334 335/335 336/336
usemtl energy
v 0.1535452 0.3564937 0.5000000
vt 0.5000000 0.6250000
v 0.1799175 0.3564937 0.3674175
vt 0.5625000 0.6250000
v 0.2550194 0.2348350 0.3985257
vt 0.5625000 0.7500000
v 0.2348350 0.2348350 0.5000000
vt 0.5000000 0.7500000
f 337/337 338/338 339/339 340/340
usemtl energy
v 0.1799175 0.3564937 0.3674175
vt 0.5625000 0.6250000
v 0.2550194 0.3564937 0.2550194
vt 0.6250000 0.6250000
v 0.3125000 0.2348350 0.3125000
vt 0.6250000 0.7500000
v 0.2550194 0.2348350 0.3985257
vt 0.5625000 0.7500000
f 341/341 342/342 343/343 344/344
usemtl energy
v 0.2550194 0.3564937 0.2550194
vt 0.6250000 0.6250000
v 0.3674175 0.3564937 0.1799175
vt 0.6875000 0.6250000
v 0.3985257 0.2348350 0.2550194
vt 0.6875000 0.7500000
v 0.3125000 0.2348350 0.3125000
vt 0.6250000 0.7500000
f 345/345 346/346 347/347 348/348
usemtl energy
v 0.3674175 0.3564937 0.1799175
vt 0.6875000 0.6250000
v 0.5000000 0.3564937 0.1535452
vt 0.7500000 0.6250000
v 0.5000000 0.2348350 0.2348350
vt 0.7500000 0.7500000
v 0.3985257 0.2348350 0.2550194
vt 0.6875000 0.7500000
f 349/349 350/350 351/351 352/352
usemtl energy
v 0.5000000 0.3564937 0.1535452
vt 0.7500000 0.6250000
v 0.6325825 0.3564937 0.1799175
vt 0.8125000 0.6250000
v 0.6014743 0.2348350 0.2550194
vt 0.8125000 0.7500000
v 0.5000000 0.2348350 0.2348350
vt 0.7500000 0.7500000
f 353/353 354/354 355/355 356/356
usemtl energy
v 0.6325825 0.3564937 0.1799175
vt 0.8125000 0.6250000
v 0.7449806 0.3564937 0.2550194
vt 0.8750000 0.6250000
v 0.6875000 0.2348350 0.3125000
vt 0.8750000 0.7500000
v 0.6014743 0.2348350 0.2550194
vt 0.8125000 0.7500000
f 357/357 358/358 359/359 360/360
usemtl energy
v 0.7449806 0.3564937 0.2550194
vt 0.8750000 0.6250000
v 0.8200825 0.3564937 0.3674175
vt 0.9375000 0.6250000
v 0.7449806 0.2348350 0.3985257
vt 0.9375000 0.7500000
v 0.6875000 0.2348350 0.3125000
vt 0.8750000 0.7500000
f 361/361 362/362 363/363 364/364
usemtl energy
v 0.8200825 0.3564937 0.3674175
vt 0.9375000 0.6250000
v 0.8464548 0.3564937 0.5000000
vt 1.0000000 0.6250000
v 0.7651650 0.2348350 0.5000000
vt 1.0000000 0.7500000
v 0.7449806 0.2348350 0.3985257
vt 0.9375000 0.7500000
f 365/365 366/366 367/367 368/368
usemtl energy
v 0.7651650 0.2348350 0.5000000
vt 0.0000000 0.7500000
v 0.7449806 0.2348350 0.6014743
vt 0.0625000 0.7500000
v 0.6325825 0.1535452 0.5549175
vt 0.0625000 0.8750000
v 0.6435063 0.1535452 0.5000000
vt 0.0000000 0.8750000
f 369/369 370/370 371/371 372/372
usemtl energy
v 0.7449806 0.2348350 0.6014743
vt 0.0625000 0.7500000
v 0.6875000 0.2348350 0.6875000
vt 0.1250000 0.7500000
v 0.6014743 0.1535452 0.6014743
vt 0.1250000 0.8750000
v 0.6325825 0.1535452 0.5549175
vt 0.0625000 0.8750000
f 373/373 374/374 375/375 376/376
usemtl energy
v 0.6875000 0.2348350 0.6875000
vt 0.1250000 0.7500000
v 0.6014743 0.2348350 0.7449806
vt 0.1875000 0.7500000
v 0.5549175 0.1535452 0.6325825
vt 0.1875000 0.8750000
v 0.6014743 0.1535452 0.6014743
vt 0.1250000 0.8750000
f 377/377 378/378 379/379 380/380
usemtl energy
v 0.6014743 0.2348350 0.7449806
vt 0.1875000 0.7500000
v 0.5000000 0.2348350 0.7651650
vt 0.2500000 0.7500000
v 0.5000000 0.1535452 0.6435063
vt 0.2500000 0.8750000
v 0.5549175 0.1535452 0.6325825
vt 0.1875000 0.8750000
f 381/381 382/382 383/383 384/384
usemtl energy
v 0.5000000 0.2348350 0.7651650
vt 0.2500000 0.7500000
v 0.3985257 0.2348350 0.7449806
vt 0.3125000 0.7500000
v 0.4450825 0.1535452 0.6325825
vt 0.3125000 0.8750000
v 0.5000000 0.1535452 0.6435063
vt 0.2500000 0.8750000
f 385/385 386/386 387/387 388/388
usemtl energy
v 0.3985257 0.2348350 0.7449806
vt 0.3125000 0.7500000
v 0.3125000 0.2348350 0.6875000
vt 0.3750000 0.7500000
v 0.3985257 0.1535452 0.6014743
vt 0.3750000 0.8750000
v 0.4450825 0.1535452 0.6325825
vt 0.3125000 0.8750000
f 389/389 390/390 391/391 392/392
usemtl energy
v 0.3125000 0.2348350 0.6875000
vt 0.3750000 0.7500000
v 0.2550194 0.2348350 0.6014743
vt 0.4375000 0.7500000
v 0.3674175 0.1535452 0.5549175
vt 0.4375000 0.8750000
v 0.3985257 0.1535452 0.6014743
vt 0.3750000 0.8750000
f 393/393 394/394 395/395 396/396
usemtl energy
v 0.2550194 0.2348350 0.6014743
vt 0.4375000 0.7500000
v 0.2348350 0.2348350 0.5000000
vt 0.5000000 0.7500000
v 0.3564937 0.1535452 0.5000000
vt 0.5000000 0.8750000
v 0.3674175 0.1535452 0.5549175
vt 0.4375000 0.8750000
f 397/397 398/398 399/399 400/400
usemtl energy
v 0.2348350 0.2348350 0.5000000
vt 0.5000000 0.7500000
v 0.2550194 0.2348350 0.3985257
vt 0.5625000 0.7500000
v 0.3674175 0.1535452 0.4450825
vt 0.5625000 0.8750000
v 0.3564937 0.1535452 0.5000000
vt 0.5000000 0.8750000
f 401/401 402/402 403/403 404/404
usemtl energy
v 0.2550194 0.2348350 0.3985257
vt 0.5625000 0.7500000
v 0.3125000 0.2348350 0.3125000
vt 0.6250000 0.7500000
v 0.3985257 0.1535452 0.3985257
vt 0.6250000 0.8750000
v 0.3674175 0.1535452 0.4450825
vt 0.5625000 0.8750000
f 405/405 406/406 407/407 408/408
usemtl energy
v 0.3125000 0.2348350 0.3125000
vt 0.6250000 0.7500000
v 0.3985257 0.2348350 0.2550194
vt 0.6875000 0.7500000
v 0.4450825 0.1535452 0.3674175
vt 0.6875000 0.8750000
v 0.3985257 0.1535452 0.3985257
vt 0.6250000 0.8750000
f 409/409 410/410 411/411 412/412
usemtl energy
v 0.3985257 0.2348350 0.2550194
vt 0.6875000 0.7500000
v 0.5000000 0.2348350 0.2348350
vt 0.7500000 0.7500000
v 0.5000000 0.1535452 0.3564937
vt 0.7500000 0.8750000
v 0.4450825 0.1535452 0.3674175
vt 0.6875000 0.8750000
f 413/413 414/414 415/415 416/416
usemtl energy
v 0.5000000 0.2348350 0.2348350
vt 0.7500000 0.7500000
v 0.6014743 0.2348350 0.2550194
vt 0.8125000 0.7500000
v 0.5549175 0.1535452 0.3674175
vt 0.8125000 0.8750000
v 0.5000000 0.1535452 0.3564937
vt 0.7500000 0.8750000
f 417/417 418/418 419/419 420/420
usemtl energy
v 0.6014743 0.2348350 0.2550194
vt 0.8125000 0.7500000
v 0.6875000 0.2348350 0.3125000
vt 0.8750000 0.7500000
v 0.6014743 0.1535452 0.3985257
vt 0.8750000 0.8750000
v 0.5549175 0.1535452 0.3674175
vt 0.8125000 0.8750000
f 421/421 422/422 423/423 424/424
usemtl energy
v 0.6875000 0.2348350 0.3125000
vt 0.8750000 0.7500000
v 0.7449806 0.2348350 0.3985257
vt 0.9375000 0.7500000
v 0.6325825 0.1535452 0.4450825
vt 0.9375000 0.8750000
v 0.6014743 0.1535452 0.3985257
vt 0.8750000 0.8750000
f 425/425 426/426 427/427 428/428
usemtl energy
v 0.7449806 0.2348350 0.3985257
vt 0.9375000 0.7500000
v 0.7651650 0.2348350 0.5000000
vt 1.0000000 0.7500000
v 0.6435063 0.1535452 0.5000000
vt 1.0000000 0.8750000
v 0.6325825 0.1535452 0.4450825
vt 0.9375000 0.8750000
f 429/429 430/430 431/431 432/432
usemtl energy
v 0.6435063 0.1535452 0.5000000
vt 0.0000000 0.8750000
v 0.6325825 0.1535452 0.5549175
vt 0.0625000 0.8750000
v 0.5000000 0.1250000 0.5000000
vt 0.0312500 1.0000000
f 433/433 434/434 435/435
usemtl energy
v 0.6325825 0.1535452 0.5549175
vt 0.0625000 0.8750000
v 0.6014743 0.1535452 0.6014743
vt 0.1250000 0.8750000
v 0.5000000 0.1250000 0.5000000
vt 0.0937500 1.0000000
f 436/436 437/437 438/438
usemtl energy
v 0.6014743 0.1535452 0.6014743
vt 0.1250000 0.8750000
v 0.5549175 0.1535452 0.6325825
vt 0.1875000 0.8750000
v 0.5000000 0.1250000 0.5000000
vt 0.1562500 1.0000000
f 439/439 440/440 441/441
usemtl energy
v 0.5549175 0.1535452 0.6325825
vt 0.1875000 0.8750000
v 0.5000000 0.1535452 0.6435063
vt 0.2500000 0.8750000
v 0.5000000 0.1250000 0.5000000
vt 0.2187500 1.0000000
f 442/442 443/443 444/444
usemtl energy
v 0.5000000 0.1535452 0.6435063
vt 0.2500000 0.8750000
v 0.4450825 0.1535452 0.6325825
vt 0.3125000 0.8750000
v 0.5000000 0.1250000 0.5000000
vt 0.2812500 1.0000000
f 445/445 446/446 447/447
usemtl energy
v 0.4450825 0.1535452 0.6325825
vt 0.3125000 0.8750000
v 0.3985257 0.1535452 0.6014743
vt 0.3750000 0.8750000
v 0.5000000 0.1250000 0.5000000
vt 0.3437500 1.0000000
f 448/448 449/449 450/450
usemtl energy
v 0.3985257 0.1535452 0.6014743
vt 0.3750000 0.8750000
v 0.3674175 0.1535452 0.5549175
vt 0.4375000 0.8750000
v 0.5000000 0.1250000 0.5000000
vt 0.4062500 1.0000000
f 451/451 452/452 453/453
usemtl energy
v 0.3674175 0.1535452 0.5549175
vt 0.4375000 0.8750000
v 0.3564937 0.1535452 0.5000000
vt 0.5000000 0.8750000
v 0.5000000 0.1250000 0.5000000
vt 0.4687500 1.0000000
f 454/454 455/455 456/456
usemtl energy
v 0.3564937 0.1535452 0.5000000
vt 0.5000000 0.8750000
v 0.3674175 0.1535452 0.4450825
vt 0.5625000 0.8750000
v 0.5000000 0.1250000 0.5000000
vt 0.5312500 1.0000000
f 457/457 458/458 459/459
usemtl energy
v 0.3674175 0.1535452 0.4450825
vt 0.5625000 0.8750000
v 0.3985257 0.1535452 0.3985257
vt 0.6250000 0.8750000
v 0.5000000 0.1250000 0.5000000
vt 0.5937500 1.0000000
f 460/460 461/461 462/462
usemtl energy
v 0.3985257 0.1535452 0.3985257
vt 0.6250000 0.8750000
v 0.4450825 0.1535452 0.3674175
vt 0.6875000 0.8750000
v 0.5000000 0.1250000 0.5000000
vt 0.6562500 1.0000000
f 463/463 464/464 465/465
usemtl energy
v 0.4450825 0.1535452 0.3674175
vt 0.6875000 0.8750000
v 0.5000000 0.1535452 0.3564937
vt 0.7500000 0.8750000
v 0.5000000 0.1250000 0.5000000
vt 0.7187500 1.0000000
f 466/466 467/467 468/468
usemtl energy
v 0.5000000 0.1535452 0.3564937
vt 0.7500000 0.8750000
v 0.5549175 0.1535452 0.3674175
vt 0.8125000 0.8750000
v 0.5000000 0.1250000 0.5000000
vt 0.7812500 1.0000000
f 469/469 470/470 471/471
usemtl energy
v 0.5549175 0.1535452 0.3674175
vt 0.8125000 0.8750000
v 0.6014743 0.1535452 0.3985257
vt 0.8750000 0.8750000
v 0.5000000 0.1250000 0.5000000
vt 0.8437500 1.0000000
f 472/472 473/473 474/474
usemtl energy
v 0.6014743 0.1535452 0.3985257
vt 0.8750000 0.8750000
v 0.6325825 0.1535452 0.4450825
vt 0.9375000 0.8750000
v 0.5000000 0.1250000 0.5000000
vt 0.9062500 1.0000000
f 475/475 476/476 477/477
usemtl energy
v 0.6325825 0.1535452 0.4450825
vt 0.9375000 0.8750000
v 0.6435063 0.1535452 0.5000000
vt 1.0000000 0.8750000
v 0.5000000 0.1250000 0.5000000
vt 0.9687500 1.0000000
f 478/478 479/479 480/480
