# Original core part; generated from core.obj geometry.
mtllib core.mtl
o ring_1
usemtl steel
v 1.1056368 0.2868909 0.4901702
vt 0.0000000 0.0000000
v 1.1316334 0.4222761 0.5854767
vt 0.0416667 0.0000000
v 1.1669201 0.4175550 0.5908210
vt 0.0416667 1.0000000
v 1.1394657 0.2745782 0.4901702
vt 0.0000000 1.0000000
f 1/1 2/2 3/3 4/4
usemtl steel
v 1.1347575 0.2616425 0.5098298
vt 0.0000000 1.0000000
v 1.1622119 0.4046194 0.6104806
vt 0.0416667 1.0000000
v 1.1269252 0.4093404 0.6051363
vt 0.0416667 0.0000000
v 1.1009286 0.2739552 0.5098298
vt 0.0000000 0.0000000
f 5/5 6/6 7/7 8/8
usemtl steel
v 1.1394657 0.2745782 0.4901702
vt 0.0000000 1.0000000
v 1.1669201 0.4175550 0.5908210
vt 0.0416667 1.0000000
v 1.1622119 0.4046194 0.6104806
vt 0.0416667 0.0000000
v 1.1347575 0.2616425 0.5098298
vt 0.0000000 0.0000000
f 9/9 10/10 11/11 12/12
usemtl inner
v 1.1009286 0.2739552 0.5098298
vt 0.0000000 0.0000000
v 1.1269252 0.4093404 0.6051363
vt 0.0416667 0.0000000
v 1.1316334 0.4222761 0.5854767
vt 0.0416667 1.0000000
v 1.1056368 0.2868909 0.4901702
vt 0.0000000 1.0000000
f 13/13 14/14 15/15 16/16
usemtl steel
v 1.1316334 0.4222761 0.5854767
vt 0.0416667 0.0000000
v 1.1147457 0.5633987 0.6742882
vt 0.0833333 0.0000000
v 1.1490854 0.5665911 0.6846126
vt 0.0833333 1.0000000
v 1.1669201 0.4175550 0.5908210
vt 0.0416667 1.0000000
f 17/17 18/18 19/19 20/20
usemtl steel
v 1.1622119 0.4046194 0.6104806
vt 0.0416667 1.0000000
v 1.1443772 0.5536555 0.7042722
vt 0.0833333 1.0000000
v 1.1100375 0.5504631 0.6939479
vt 0.0833333 0.0000000
v 1.1269252 0.4093404 0.6051363
vt 0.0416667 0.0000000
f 21/21 22/22 23/23 24/24
usemtl steel
v 1.1669201 0.4175550 0.5908210
vt 0.0416667 1.0000000
v 1.1490854 0.5665911 0.6846126
vt 0.0833333 1.0000000
v 1.1443772 0.5536555 0.7042722
vt 0.0833333 0.0000000
v 1.1622119 0.4046194 0.6104806
vt 0.0416667 0.0000000
f 25/25 26/26 27/27 28/28
usemtl inner
v 1.1269252 0.4093404 0.6051363
vt 0.0416667 0.0000000
v 1.1100375 0.5504631 0.6939479
vt 0.0833333 0.0000000
v 1.1147457 0.5633987 0.6742882
vt 0.0833333 1.0000000
v 1.1316334 0.4222761 0.5854767
vt 0.0416667 1.0000000
f 29/29 30/30 31/31 32/32
usemtl steel
v 1.1147457 0.5633987 0.6742882
vt 0.0833333 0.0000000
v 1.0561245 0.7006417 0.7505524
vt 0.1250000 0.0000000
v 1.0871770 0.7115299 0.7651533
vt 0.1250000 1.0000000
v 1.1490854 0.5665911 0.6846126
vt 0.0833333 1.0000000
f 33/33 34/34 35/35 36/36
usemtl steel
v 1.1443772 0.5536555 0.7042722
vt 0.0833333 1.0000000
v 1.0824688 0.6985943 0.7848129
vt 0.1250000 1.0000000
v 1.0514163 0.6877060 0.7702120
vt 0.1250000 0.0000000
v 1.1100375 0.5504631 0.6939479
vt 0.0833333 0.0000000
f 37/37 38/38 39/39 40/40
usemtl steel
v 1.1490854 0.5665911 0.6846126
vt 0.0833333 1.0000000
v 1.0871770 0.7115299 0.7651533
vt 0.1250000 1.0000000
v 1.0824688 0.6985943 0.7848129
vt 0.1250000 0.0000000
v 1.1443772 0.5536555 0.7042722
vt 0.0833333 0.0000000
f 41/41 42/42 43/43 44/44
usemtl inner
v 1.1100375 0.5504631 0.6939479
vt 0.0833333 0.0000000
v 1.0514163 0.6877060 0.7702120
vt 0.1250000 0.0000000
v 1.0561245 0.7006417 0.7505524
vt 0.1250000 1.0000000
v 1.1147457 0.5633987 0.6742882
vt 0.0833333 1.0000000
f 45/45 46/46 47/47 48/48
usemtl steel
v 1.0561245 0.7006417 0.7505524
vt 0.1250000 0.0000000
v 0.9597647 0.8246520 0.8090720
vt 0.1666667 0.0000000
v 0.9854139 0.8424941 0.8269543
vt 0.1666667 1.0000000
v 1.0871770 0.7115299 0.7651533
vt 0.1250000 1.0000000
f 49/49 50/50 51/51 52/52
usemtl steel
v 1.0824688 0.6985943 0.7848129
vt 0.1250000 1.0000000
v 0.9807057 0.8295584 0.8466140
vt 0.1666667 1.0000000
v 0.9550565 0.8117163 0.8287316
vt 0.1666667 0.0000000
v 1.0514163 0.6877060 0.7702120
vt 0.1250000 0.0000000
f 53/53 54/54 55/55 56/56
usemtl steel
v 1.0871770 0.7115299 0.7651533
vt 0.1250000 1.0000000
v 0.9854139 0.8424941 0.8269543
vt 0.1666667 1.0000000
v 0.9807057 0.8295584 0.8466140
vt 0.1666667 0.0000000
v 1.0824688 0.6985943 0.7848129
vt 0.1250000 0.0000000
f 57/57 58/58 59/59 60/60
usemtl inner
v 1.0514163 0.6877060 0.7702120
vt 0.1250000 0.0000000
v 0.9550565 0.8117163 0.8287316
vt 0.1666667 0.0000000
v 0.9597647 0.8246520 0.8090720
vt 0.1666667 1.0000000
v 1.0561245 0.7006417 0.7505524
vt 0.1250000 1.0000000
f 61/61 62/62 63/63 64/64
usemtl steel
v 0.9597647 0.8246520 0.8090720
vt 0.1666667 0.0000000
v 0.8322332 0.9269786 0.8458589
vt 0.2083333 0.0000000
v 0.8507311 0.9505586 0.8658041
vt 0.2083333 1.0000000
v 0.9854139 0.8424941 0.8269543
vt 0.1666667 1.0000000
f 65/65 66/66 67/67 68/68
usemtl steel
v 0.9807057 0.8295584 0.8466140
vt 0.1666667 1.0000000
v 0.8460229 0.9376230 0.8854637
vt 0.2083333 1.0000000
v 0.8275250 0.9140429 0.8655186
vt 0.2083333 0.0000000
v 0.9550565 0.8117163 0.8287316
vt 0.1666667 0.0000000
f 69/69 70/70 71/71 72/72
usemtl steel
v 0.9854139 0.8424941 0.8269543
vt 0.1666667 1.0000000
v 0.8507311 0.9505586 0.8658041
vt 0.2083333 1.0000000
v 0.8460229 0.9376230 0.8854637
vt 0.2083333 0.0000000
v 0.9807057 0.8295584 0.8466140
vt 0.1666667 0.0000000
f 73/73 74/74 75/75 76/76
usemtl inner
v 0.9550565 0.8117163 0.8287316
vt 0.1666667 0.0000000
v 0.8275250 0.9140429 0.8655186
vt 0.2083333 0.0000000
v 0.8322332 0.9269786 0.8458589
vt 0.2083333 1.0000000
v 0.9597647 0.8246520 0.8090720
vt 0.1666667 1.0000000
f 77/77 78/78 79/79 80/80
usemtl steel
v 0.8322332 0.9269786 0.8458589
vt 0.2083333 0.0000000
v 0.6822210 1.0006481 0.8584062
vt 0.2500000 0.0000000
v 0.6923070 1.0283591 0.8790550
vt 0.2500000 1.0000000
v 0.8507311 0.9505586 0.8658041
vt 0.2083333 1.0000000
f 81/81 82/82 83/83 84/84
usemtl steel
v 0.8460229 0.9376230 0.8854637
vt 0.2083333 1.0000000
v 0.6875988 1.0154234 0.8987146
vt 0.2500000 1.0000000
v 0.6775128 0.9877124 0.8780659
vt 0.2500000 0.0000000
v 0.8275250 0.9140429 0.8655186
vt 0.2083333 0.0000000
f 85/85 86/86 87/87 88/88
usemtl steel
v 0.8507311 0.9505586 0.8658041
vt 0.2083333 1.0000000
v 0.6923070 1.0283591 0.8790550
vt 0.2500000 1.0000000
v 0.6875988 1.0154234 0.8987146
vt 0.2500000 0.0000000
v 0.8460229 0.9376230 0.8854637
vt 0.2083333 0.0000000
f 89/89 90/90 91/91 92/92
usemtl inner
v 0.8275250 0.9140429 0.8655186
vt 0.2083333 0.0000000
v 0.6775128 0.9877124 0.8780659
vt 0.2500000 0.0000000
v 0.6822210 1.0006481 0.8584062
vt 0.2500000 1.0000000
v 0.8322332 0.9269786 0.8458589
vt 0.2083333 1.0000000
f 93/93 94/94 95/95 96/96
usemtl steel
v 0.6822210 1.0006481 0.8584062
vt 0.2500000 0.0000000
v 0.5199511 1.0406400 0.8458589
vt 0.2916667 0.0000000
v 0.5209379 1.0705935 0.8658041
vt 0.2916667 1.0000000
v 0.6923070 1.0283591 0.8790550
vt 0.2500000 1.0000000
f 97/97 98/98 99/99 100/100
usemtl steel
v 0.6875988 1.0154234 0.8987146
vt 0.2500000 1.0000000
v 0.5162297 1.0576579 0.8854637
vt 0.2916667 1.0000000
v 0.5152429 1.0277043 0.8655186
vt 0.2916667 0.0000000
v 0.6775128 0.9877124 0.8780659
vt 0.2500000 0.0000000
f 101/101 102/102 103/103 104/104
usemtl steel
v 0.6923070 1.0283591 0.8790550
vt 0.2500000 1.0000000
v 0.5209379 1.0705935 0.8658041
vt 0.2916667 1.0000000
v 0.5162297 1.0576579 0.8854637
vt 0.2916667 0.0000000
v 0.6875988 1.0154234 0.8987146
vt 0.2500000 0.0000000
f 105/105 106/106 107/107 108/108
usemtl inner
v 0.6775128 0.9877124 0.8780659
vt 0.2500000 0.0000000
v 0.5152429 1.0277043 0.8655186
vt 0.2916667 0.0000000
v 0.5199511 1.0406400 0.8458589
vt 0.2916667 1.0000000
v 0.6822210 1.0006481 0.8584062
vt 0.2500000 1.0000000
f 109/109 110/110 111/111 112/112
usemtl steel
v 0.5199511 1.0406400 0.8458589
vt 0.2916667 0.0000000
v 0.3564821 1.0442289 0.8090720
vt 0.3333333 0.0000000
v 0.3483023 1.0743838 0.8269543
vt 0.3333333 1.0000000
v 0.5209379 1.0705935 0.8658041
vt 0.2916667 1.0000000
f 113/113 114/114 115/115 116/116
usemtl steel
v 0.5162297 1.0576579 0.8854637
vt 0.2916667 1.0000000
v 0.3435941 1.0614481 0.8466140
vt 0.3333333 1.0000000
v 0.3517739 1.0312933 0.8287316
vt 0.3333333 0.0000000
v 0.5152429 1.0277043 0.8655186
vt 0.2916667 0.0000000
f 117/117 118/118 119/119 120/120
usemtl steel
v 0.5209379 1.0705935 0.8658041
vt 0.2916667 1.0000000
v 0.3483023 1.0743838 0.8269543
vt 0.3333333 1.0000000
v 0.3435941 1.0614481 0.8466140
vt 0.3333333 0.0000000
v 0.5162297 1.0576579 0.8854637
vt 0.2916667 0.0000000
f 121/121 122/122 123/123 124/124
usemtl inner
v 0.5152429 1.0277043 0.8655186
vt 0.2916667 0.0000000
v 0.3517739 1.0312933 0.8287316
vt 0.3333333 0.0000000
v 0.3564821 1.0442289 0.8090720
vt 0.3333333 1.0000000
v 0.5199511 1.0406400 0.8458589
vt 0.2916667 1.0000000
f 125/125 126/126 127/127 128/128
usemtl steel
v 0.3564821 1.0442289 0.8090720
vt 0.3333333 0.0000000
v 0.2029539 1.0111704 0.7505524
vt 0.3750000 0.0000000
v 0.1861651 1.0394714 0.7651533
vt 0.3750000 1.0000000
v 0.3483023 1.0743838 0.8269543
vt 0.3333333 1.0000000
f 129/129 130/130 131/131 132/132
usemtl steel
v 0.3435941 1.0614481 0.8466140
vt 0.3333333 1.0000000
v 0.1814569 1.0265358 0.7848129
vt 0.3750000 1.0000000
v 0.1982457 0.9982347 0.7702120
vt 0.3750000 0.0000000
v 0.3517739 1.0312933 0.8287316
vt 0.3333333 0.0000000
f 133/133 134/134 135/135 136/136
usemtl steel
v 0.3483023 1.0743838 0.8269543
vt 0.3333333 1.0000000
v 0.1861651 1.0394714 0.7651533
vt 0.3750000 1.0000000
v 0.1814569 1.0265358 0.7848129
vt 0.3750000 0.0000000
v 0.3435941 1.0614481 0.8466140
vt 0.3333333 0.0000000
f 137/137 138/138 139/139 140/140
usemtl inner
v 0.3517739 1.0312933 0.8287316
vt 0.3333333 0.0000000
v 0.1982457 0.9982347 0.7702120
vt 0.3750000 0.0000000
v 0.2029539 1.0111704 0.7505524
vt 0.3750000 1.0000000
v 0.3564821 1.0442289 0.8090720
vt 0.3333333 1.0000000
f 141/141 142/142 143/143 144/144
usemtl steel
v 0.2029539 1.0111704 0.7505524
vt 0.3750000 0.0000000
v 0.0698294 0.9437171 0.6742882
vt 0.4166667 0.0000000
v 0.0455757 0.9682358 0.6846126
vt 0.4166667 1.0000000
v 0.1861651 1.0394714 0.7651533
vt 0.3750000 1.0000000
f 145/145 146/146 147/147 148/148
usemtl steel
v 0.1814569 1.0265358 0.7848129
vt 0.3750000 1.0000000
v 0.0408675 0.9553001 0.7042722
vt 0.4166667 1.0000000
v 0.0651212 0.9307815 0.6939479
vt 0.4166667 0.0000000
v 0.1982457 0.9982347 0.7702120
vt 0.3750000 0.0000000
f 149/149 150/150 151/151 152/152
usemtl steel
v 0.1861651 1.0394714 0.7651533
vt 0.3750000 1.0000000
v 0.0455757 0.9682358 0.6846126
vt 0.4166667 1.0000000
v 0.0408675 0.9553001 0.7042722
vt 0.4166667 0.0000000
v 0.1814569 1.0265358 0.7848129
vt 0.3750000 0.0000000
f 153/153 154/154 155/155 156/156
usemtl inner
v 0.1982457 0.9982347 0.7702120
vt 0.3750000 0.0000000
v 0.0651212 0.9307815 0.6939479
vt 0.4166667 0.0000000
v 0.0698294 0.9437171 0.6742882
vt 0.4166667 1.0000000
v 0.2029539 1.0111704 0.7505524
vt 0.3750000 1.0000000
f 157/157 158/158 159/159 160/160
usemtl steel
v 0.0698294 0.9437171 0.6742882
vt 0.4166667 0.0000000
v -0.0338192 0.8464661 0.5854767
vt 0.4583333 0.0000000
v -0.0638850 0.8655314 0.5908210
vt 0.4583333 1.0000000
v 0.0455757 0.9682358 0.6846126
vt 0.4166667 1.0000000
f 161/161 162/162 163/163 164/164
usemtl steel
v 0.0408675 0.9553001 0.7042722
vt 0.4166667 1.0000000
v -0.0685932 0.8525958 0.6104806
vt 0.4583333 1.0000000
v -0.0385274 0.8335305 0.6051363
vt 0.4583333 0.0000000
v 0.0651212 0.9307815 0.6939479
vt 0.4166667 0.0000000
f 165/165 166/166 167/167 168/168
usemtl steel
v 0.0455757 0.9682358 0.6846126
vt 0.4166667 1.0000000
v -0.0638850 0.8655314 0.5908210
vt 0.4583333 1.0000000
v -0.0685932 0.8525958 0.6104806
vt 0.4583333 0.0000000
v 0.0408675 0.9553001 0.7042722
vt 0.4166667 0.0000000
f 169/169 170/170 171/171 172/172
usemtl inner
v 0.0651212 0.9307815 0.6939479
vt 0.4166667 0.0000000
v -0.0385274 0.8335305 0.6051363
vt 0.4583333 0.0000000
v -0.0338192 0.8464661 0.5854767
vt 0.4583333 1.0000000
v 0.0698294 0.9437171 0.6742882
vt 0.4166667 1.0000000
f 173/173 174/174 175/175 176/176
usemtl steel
v -0.0338192 0.8464661 0.5854767
vt 0.4583333 0.0000000
v -0.1009286 0.7260448 0.4901702
vt 0.5000000 0.0000000
v -0.1347575 0.7383575 0.4901702
vt 0.5000000 1.0000000
v -0.0638850 0.8655314 0.5908210
vt 0.4583333 1.0000000
f 177/177 178/178 179/179 180/180
usemtl steel
v -0.0685932 0.8525958 0.6104806
vt 0.4583333 1.0000000
v -0.1394657 0.7254218 0.5098298
vt 0.5000000 1.0000000
v -0.1056368 0.7131091 0.5098298
vt 0.5000000 0.0000000
v -0.0385274 0.8335305 0.6051363
vt 0.4583333 0.0000000
f 181/181 182/182 183/183 184/184
usemtl steel
v -0.0638850 0.8655314 0.5908210
vt 0.4583333 1.0000000
v -0.1347575 0.7383575 0.4901702
vt 0.5000000 1.0000000
v -0.1394657 0.7254218 0.5098298
vt 0.5000000 0.0000000
v -0.0685932 0.8525958 0.6104806
vt 0.4583333 0.0000000
f 185/185 186/186 187/187 188/188
usemtl inner
v -0.0385274 0.8335305 0.6051363
vt 0.4583333 0.0000000
v -0.1056368 0.7131091 0.5098298
vt 0.5000000 0.0000000
v -0.1009286 0.7260448 0.4901702
vt 0.5000000 1.0000000
v -0.0338192 0.8464661 0.5854767
vt 0.4583333 1.0000000
f 189/189 190/190 191/191 192/192
usemtl steel
v -0.1009286 0.7260448 0.4901702
vt 0.5000000 0.0000000
v -0.1269252 0.5906596 0.3948637
vt 0.5416667 0.0000000
v -0.1622119 0.5953806 0.3895194
vt 0.5416667 1.0000000
v -0.1347575 0.7383575 0.4901702
vt 0.5000000 1.0000000
f 193/193 194/194 195/195 196/196
usemtl steel
v -0.1394657 0.7254218 0.5098298
vt 0.5000000 1.0000000
v -0.1669201 0.5824450 0.4091790
vt 0.5416667 1.0000000
v -0.1316334 0.5777239 0.4145233
vt 0.5416667 0.0000000
v -0.1056368 0.7131091 0.5098298
vt 0.5000000 0.0000000
f 197/197 198/198 199/199 200/200
usemtl steel
v -0.1347575 0.7383575 0.4901702
vt 0.5000000 1.0000000
v -0.1622119 0.5953806 0.3895194
vt 0.5416667 1.0000000
v -0.1669201 0.5824450 0.4091790
vt 0.5416667 0.0000000
v -0.1394657 0.7254218 0.5098298
vt 0.5000000 0.0000000
f 201/201 202/202 203/203 204/204
usemtl inner
v -0.1056368 0.7131091 0.5098298
vt 0.5000000 0.0000000
v -0.1316334 0.5777239 0.4145233
vt 0.5416667 0.0000000
v -0.1269252 0.5906596 0.3948637
vt 0.5416667 1.0000000
v -0.1009286 0.7260448 0.4901702
vt 0.5000000 1.0000000
f 205/205 206/206 207/207 208/208
usemtl steel
v -0.1269252 0.5906596 0.3948637
vt 0.5416667 0.0000000
v -0.1100375 0.4495369 0.3060521
vt 0.5833333 0.0000000
v -0.1443772 0.4463445 0.2957278
vt 0.5833333 1.0000000
v -0.1622119 0.5953806 0.3895194
vt 0.5416667 1.0000000
f 209/209 210/210 211/211 212/212
usemtl steel
v -0.1669201 0.5824450 0.4091790
vt 0.5416667 1.0000000
v -0.1490854 0.4334089 0.3153874
vt 0.5833333 1.0000000
v -0.1147457 0.4366013 0.3257118
vt 0.5833333 0.0000000
v -0.1316334 0.5777239 0.4145233
vt 0.5416667 0.0000000
f 213/213 214/214 215/215 216/216
usemtl steel
v -0.1622119 0.5953806 0.3895194
vt 0.5416667 1.0000000
v -0.1443772 0.4463445 0.2957278
vt 0.5833333 1.0000000
v -0.1490854 0.4334089 0.3153874
vt 0.5833333 0.0000000
v -0.1669201 0.5824450 0.4091790
vt 0.5416667 0.0000000
f 217/217 218/218 219/219 220/220
usemtl inner
v -0.1316334 0.5777239 0.4145233
vt 0.5416667 0.0000000
v -0.1147457 0.4366013 0.3257118
vt 0.5833333 0.0000000
v -0.1100375 0.4495369 0.3060521
vt 0.5833333 1.0000000
v -0.1269252 0.5906596 0.3948637
vt 0.5416667 1.0000000
f 221/221 222/222 223/223 224/224
usemtl steel
v -0.1100375 0.4495369 0.3060521
vt 0.5833333 0.0000000
v -0.0514163 0.3122940 0.2297880
vt 0.6250000 0.0000000
v -0.0824688 0.3014057 0.2151871
vt 0.6250000 1.0000000
v -0.1443772 0.4463445 0.2957278
vt 0.5833333 1.0000000
f 225/225 226/226 227/227 228/228
usemtl steel
v -0.1490854 0.4334089 0.3153874
vt 0.5833333 1.0000000
v -0.0871770 0.2884701 0.2348467
vt 0.6250000 1.0000000
v -0.0561245 0.2993583 0.2494476
vt 0.6250000 0.0000000
v -0.1147457 0.4366013 0.3257118
vt 0.5833333 0.0000000
f 229/229 230/230 231/231 232/232
usemtl steel
v -0.1443772 0.4463445 0.2957278
vt 0.5833333 1.0000000
v -0.0824688 0.3014057 0.2151871
vt 0.6250000 1.0000000
v -0.0871770 0.2884701 0.2348467
vt 0.6250000 0.0000000
v -0.1490854 0.4334089 0.3153874
vt 0.5833333 0.0000000
f 233/233 234/234 235/235 236/236
usemtl inner
v -0.1147457 0.4366013 0.3257118
vt 0.5833333 0.0000000
v -0.0561245 0.2993583 0.2494476
vt 0.6250000 0.0000000
v -0.0514163 0.3122940 0.2297880
vt 0.6250000 1.0000000
v -0.1100375 0.4495369 0.3060521
vt 0.5833333 1.0000000
f 237/237 238/238 239/239 240/240
usemtl steel
v -0.0514163 0.3122940 0.2297880
vt 0.6250000 0.0000000
v 0.0449435 0.1882837 0.1712684
vt 0.6666667 0.0000000
v 0.0192943 0.1704416 0.1533860
vt 0.6666667 1.0000000
v -0.0824688 0.3014057 0.2151871
vt 0.6250000 1.0000000
f 241/241 242/242 243/243 244/244
usemtl steel
v -0.0871770 0.2884701 0.2348467
vt 0.6250000 1.0000000
v 0.0145861 0.1575059 0.1730457
vt 0.6666667 1.0000000
v 0.0402353 0.1753480 0.1909280
vt 0.6666667 0.0000000
v -0.0561245 0.2993583 0.2494476
vt 0.6250000 0.0000000
f 245/245 246/246 247/247 248/248
usemtl steel
v -0.0824688 0.3014057 0.2151871
vt 0.6250000 1.0000000
v 0.0192943 0.1704416 0.1533860
vt 0.6666667 1.0000000
v 0.0145861 0.1575059 0.1730457
vt 0.6666667 0.0000000
v -0.0871770 0.2884701 0.2348467
vt 0.6250000 0.0000000
f 249/249 250/250 251/251 252/252
usemtl inner
v -0.0561245 0.2993583 0.2494476
vt 0.6250000 0.0000000
v 0.0402353 0.1753480 0.1909280
vt 0.6666667 0.0000000
v 0.0449435 0.1882837 0.1712684
vt 0.6666667 1.0000000
v -0.0514163 0.3122940 0.2297880
vt 0.6250000 1.0000000
f 253/253 254/254 255/255 256/256
usemtl steel
v 0.0449435 0.1882837 0.1712684
vt 0.6666667 0.0000000
v 0.1724750 0.0859571 0.1344814
vt 0.7083333 0.0000000
v 0.1539771 0.0623770 0.1145363
vt 0.7083333 1.0000000
v 0.0192943 0.1704416 0.1533860
vt 0.6666667 1.0000000
f 257/257 258/258 259/259 260/260
usemtl steel
v 0.0145861 0.1575059 0.1730457
vt 0.6666667 1.0000000
v 0.1492689 0.0494414 0.1341959
vt 0.7083333 1.0000000
v 0.1677668 0.0730214 0.1541411
vt 0.7083333 0.0000000
v 0.0402353 0.1753480 0.1909280
vt 0.6666667 0.0000000
f 261/261 262/262 263/263 264/264
usemtl steel
v 0.0192943 0.1704416 0.1533860
vt 0.6666667 1.0000000
v 0.1539771 0.0623770 0.1145363
vt 0.7083333 1.0000000
v 0.1492689 0.0494414 0.1341959
vt 0.7083333 0.0000000
v 0.0145861 0.1575059 0.1730457
vt 0.6666667 0.0000000
f 265/265 266/266 267/267 268/268
usemtl inner
v 0.0402353 0.1753480 0.1909280
vt 0.6666667 0.0000000
v 0.1677668 0.0730214 0.1541411
vt 0.7083333 0.0000000
v 0.1724750 0.0859571 0.1344814
vt 0.7083333 1.0000000
v 0.0449435 0.1882837 0.1712684
vt 0.6666667 1.0000000
f 269/269 270/270 271/271 272/272
usemtl steel
v 0.1724750 0.0859571 0.1344814
vt 0.7083333 0.0000000
v 0.3224872 0.0122876 0.1219341
vt 0.7500000 0.0000000
v 0.3124012 -0.0154234 0.1012854
vt 0.7500000 1.0000000
v 0.1539771 0.0623770 0.1145363
vt 0.7083333 1.0000000
f 273/273 274/274 275/275 276/276
usemtl steel
v 0.1492689 0.0494414 0.1341959
vt 0.7083333 1.0000000
v 0.3076930 -0.0283591 0.1209450
vt 0.7500000 1.0000000
v 0.3177790 -0.0006481 0.1415938
vt 0.7500000 0.0000000
v 0.1677668 0.0730214 0.1541411
vt 0.7083333 0.0000000
f 277/277 278/278 279/279 280/280
usemtl steel
v 0.1539771 0.0623770 0.1145363
vt 0.7083333 1.0000000
v 0.3124012 -0.0154234 0.1012854
vt 0.7500000 1.0000000
v 0.3076930 -0.0283591 0.1209450
vt 0.7500000 0.0000000
v 0.1492689 0.0494414 0.1341959
vt 0.7083333 0.0000000
f 281/281 282/282 283/283 284/284
usemtl inner
v 0.1677668 0.0730214 0.1541411
vt 0.7083333 0.0000000
v 0.3177790 -0.0006481 0.1415938
vt 0.7500000 0.0000000
v 0.3224872 0.0122876 0.1219341
vt 0.7500000 1.0000000
v 0.1724750 0.0859571 0.1344814
vt 0.7083333 1.0000000
f 285/285 286/286 287/287 288/288
usemtl steel
v 0.3224872 0.0122876 0.1219341
vt 0.7500000 0.0000000
v 0.4847571 -0.0277043 0.1344814
vt 0.7916667 0.0000000
v 0.4837703 -0.0576579 0.1145363
vt 0.7916667 1.0000000
v 0.3124012 -0.0154234 0.1012854
vt 0.7500000 1.0000000
f 289/289 290/290 291/291 292/292
usemtl steel
v 0.3076930 -0.0283591 0.1209450
vt 0.7500000 1.0000000
v 0.4790621 -0.0705935 0.1341959
vt 0.7916667 1.0000000
v 0.4800489 -0.0406400 0.1541411
vt 0.7916667 0.0000000
v 0.3177790 -0.0006481 0.1415938
vt 0.7500000 0.0000000
f 293/293 294/294 295/295 296/296
usemtl steel
v 0.3124012 -0.0154234 0.1012854
vt 0.7500000 1.0000000
v 0.4837703 -0.0576579 0.1145363
vt 0.7916667 1.0000000
v 0.4790621 -0.0705935 0.1341959
vt 0.7916667 0.0000000
v 0.3076930 -0.0283591 0.1209450
vt 0.7500000 0.0000000
f 297/297 298/298 299/299 300/300
usemtl inner
v 0.3177790 -0.0006481 0.1415938
vt 0.7500000 0.0000000
v 0.4800489 -0.0406400 0.1541411
vt 0.7916667 0.0000000
v 0.4847571 -0.0277043 0.1344814
vt 0.7916667 1.0000000
v 0.3224872 0.0122876 0.1219341
vt 0.7500000 1.0000000
f 301/301 302/302 303/303 304/304
usemtl steel
v 0.4847571 -0.0277043 0.1344814
vt 0.7916667 0.0000000
v 0.6482261 -0.0312933 0.1712684
vt 0.8333333 0.0000000
v 0.6564059 -0.0614481 0.1533860
vt 0.8333333 1.0000000
v 0.4837703 -0.0576579 0.1145363
vt 0.7916667 1.0000000
f 305/305 306/306 307/307 308/308
usemtl steel
v 0.4790621 -0.0705935 0.1341959
vt 0.7916667 1.0000000
v 0.6516977 -0.0743838 0.1730457
vt 0.8333333 1.0000000
v 0.6435179 -0.0442289 0.1909280
vt 0.8333333 0.0000000
v 0.4800489 -0.0406400 0.1541411
vt 0.7916667 0.0000000
f 309/309 310/310 311/311 312/312
usemtl steel
v 0.4837703 -0.0576579 0.1145363
vt 0.7916667 1.0000000
v 0.6564059 -0.0614481 0.1533860
vt 0.8333333 1.0000000
v 0.6516977 -0.0743838 0.1730457
vt 0.8333333 0.0000000
v 0.4790621 -0.0705935 0.1341959
vt 0.7916667 0.0000000
f 313/313 314/314 315/315 316/316
usemtl inner
v 0.4800489 -0.0406400 0.1541411
vt 0.7916667 0.0000000
v 0.6435179 -0.0442289 0.1909280
vt 0.8333333 0.0000000
v 0.6482261 -0.0312933 0.1712684
vt 0.8333333 1.0000000
v 0.4847571 -0.0277043 0.1344814
vt 0.7916667 1.0000000
f 317/317 318/318 319/319 320/320
usemtl steel
v 0.6482261 -0.0312933 0.1712684
vt 0.8333333 0.0000000
v 0.8017543 0.0017653 0.2297880
vt 0.8750000 0.0000000
v 0.8185431 -0.0265358 0.2151871
vt 0.8750000 1.0000000
v 0.6564059 -0.0614481 0.1533860
vt 0.8333333 1.0000000
f 321/321 322/322 323/323 324/324
usemtl steel
v 0.6516977 -0.0743838 0.1730457
vt 0.8333333 1.0000000
v 0.8138349 -0.0394714 0.2348467
vt 0.8750000 1.0000000
v 0.7970461 -0.0111704 0.2494476
vt 0.8750000 0.0000000
v 0.6435179 -0.0442289 0.1909280
vt 0.8333333 0.0000000
f 325/325 326/326 327/327 328/328
usemtl steel
v 0.6564059 -0.0614481 0.1533860
vt 0.8333333 1.0000000
v 0.8185431 -0.0265358 0.2151871
vt 0.8750000 1.0000000
v 0.8138349 -0.0394714 0.2348467
vt 0.8750000 0.0000000
v 0.6516977 -0.0743838 0.1730457
vt 0.8333333 0.0000000
f 329/329 330/330 331/331 332/332
usemtl inner
v 0.6435179 -0.0442289 0.1909280
vt 0.8333333 0.0000000
v 0.7970461 -0.0111704 0.2494476
vt 0.8750000 0.0000000
v 0.8017543 0.0017653 0.2297880
vt 0.8750000 1.0000000
v 0.6482261 -0.0312933 0.1712684
vt 0.8333333 1.0000000
f 333/333 334/334 335/335 336/336
usemtl steel
v 0.8017543 0.0017653 0.2297880
vt 0.8750000 0.0000000
v 0.9348788 0.0692185 0.3060521
vt 0.9166667 0.0000000
v 0.9591325 0.0446999 0.2957278
vt 0.9166667 1.0000000
v 0.8185431 -0.0265358 0.2151871
vt 0.8750000 1.0000000
f 337/337 338/338 339/339 340/340
usemtl steel
v 0.8138349 -0.0394714 0.2348467
vt 0.8750000 1.0000000
v 0.9544243 0.0317642 0.3153874
vt 0.9166667 1.0000000
v 0.9301706 0.0562829 0.3257118
vt 0.9166667 0.0000000
v 0.7970461 -0.0111704 0.2494476
vt 0.8750000 0.0000000
f 341/341 342/342 343/343 344/344
usemtl steel
v 0.8185431 -0.0265358 0.2151871
vt 0.8750000 1.0000000
v 0.9591325 0.0446999 0.2957278
vt 0.9166667 1.0000000
v 0.9544243 0.0317642 0.3153874
vt 0.9166667 0.0000000
v 0.8138349 -0.0394714 0.2348467
vt 0.8750000 0.0000000
f 345/345 346/346 347/347 348/348
usemtl inner
v 0.7970461 -0.0111704 0.2494476
vt 0.8750000 0.0000000
v 0.9301706 0.0562829 0.3257118
vt 0.9166667 0.0000000
v 0.9348788 0.0692185 0.3060521
vt 0.9166667 1.0000000
v 0.8017543 0.0017653 0.2297880
vt 0.8750000 1.0000000
f 349/349 350/350 351/351 352/352
usemtl steel
v 0.9348788 0.0692185 0.3060521
vt 0.9166667 0.0000000
v 1.0385274 0.1664695 0.3948637
vt 0.9583333 0.0000000
v 1.0685932 0.1474042 0.3895194
vt 0.9583333 1.0000000
v 0.9591325 0.0446999 0.2957278
vt 0.9166667 1.0000000
f 353/353 354/354 355/355 356/356
usemtl steel
v 0.9544243 0.0317642 0.3153874
vt 0.9166667 1.0000000
v 1.0638850 0.1344686 0.4091790
vt 0.9583333 1.0000000
v 1.0338192 0.1535339 0.4145233
vt 0.9583333 0.0000000
v 0.9301706 0.0562829 0.3257118
vt 0.9166667 0.0000000
f 357/357 358/358 359/359 360/360
usemtl steel
v 0.9591325 0.0446999 0.2957278
vt 0.9166667 1.0000000
v 1.0685932 0.1474042 0.3895194
vt 0.9583333 1.0000000
v 1.0638850 0.1344686 0.4091790
vt 0.9583333 0.0000000
v 0.9544243 0.0317642 0.3153874
vt 0.9166667 0.0000000
f 361/361 362/362 363/363 364/364
usemtl inner
v 0.9301706 0.0562829 0.3257118
vt 0.9166667 0.0000000
v 1.0338192 0.1535339 0.4145233
vt 0.9583333 0.0000000
v 1.0385274 0.1664695 0.3948637
vt 0.9583333 1.0000000
v 0.9348788 0.0692185 0.3060521
vt 0.9166667 1.0000000
f 365/365 366/366 367/367 368/368
usemtl steel
v 1.0385274 0.1664695 0.3948637
vt 0.9583333 0.0000000
v 1.1056368 0.2868909 0.4901702
vt 1.0000000 0.0000000
v 1.1394657 0.2745782 0.4901702
vt 1.0000000 1.0000000
v 1.0685932 0.1474042 0.3895194
vt 0.9583333 1.0000000
f 369/369 370/370 371/371 372/372
usemtl steel
v 1.0638850 0.1344686 0.4091790
vt 0.9583333 1.0000000
v 1.1347575 0.2616425 0.5098298
vt 1.0000000 1.0000000
v 1.1009286 0.2739552 0.5098298
vt 1.0000000 0.0000000
v 1.0338192 0.1535339 0.4145233
vt 0.9583333 0.0000000
f 373/373 374/374 375/375 376/376
usemtl steel
v 1.0685932 0.1474042 0.3895194
vt 0.9583333 1.0000000
v 1.1394657 0.2745782 0.4901702
vt 1.0000000 1.0000000
v 1.1347575 0.2616425 0.5098298
vt 1.0000000 0.0000000
v 1.0638850 0.1344686 0.4091790
vt 0.9583333 0.0000000
f 377/377 378/378 379/379 380/380
usemtl inner
v 1.0338192 0.1535339 0.4145233
vt 0.9583333 0.0000000
v 1.1009286 0.2739552 0.5098298
vt 1.0000000 0.0000000
v 1.1056368 0.2868909 0.4901702
vt 1.0000000 1.0000000
v 1.0385274 0.1664695 0.3948637
vt 0.9583333 1.0000000
f 381/381 382/382 383/383 384/384
