# Original MekGravity floating core, in block-local coordinates.
mtllib core.mtl
o energy
usemtl energy
v 0.5000000 0.8750000 0.5000000
vt 0.0312500 0.0000000
v 0.6325825 0.8464548 0.5549175
vt 0.0625000 0.1250000
v 0.6435063 0.8464548 0.5000000
vt 0.0000000 0.1250000
f 1/1 2/2 3/3
v 0.5000000 0.8750000 0.5000000
vt 0.0937500 0.0000000
v 0.6014743 0.8464548 0.6014743
vt 0.1250000 0.1250000
v 0.6325825 0.8464548 0.5549175
vt 0.0625000 0.1250000
f 4/4 5/5 6/6
v 0.5000000 0.8750000 0.5000000
vt 0.1562500 0.0000000
v 0.5549175 0.8464548 0.6325825
vt 0.1875000 0.1250000
v 0.6014743 0.8464548 0.6014743
vt 0.1250000 0.1250000
f 7/7 8/8 9/9
v 0.5000000 0.8750000 0.5000000
vt 0.2187500 0.0000000
v 0.5000000 0.8464548 0.6435063
vt 0.2500000 0.1250000
v 0.5549175 0.8464548 0.6325825
vt 0.1875000 0.1250000
f 10/10 11/11 12/12
v 0.5000000 0.8750000 0.5000000
vt 0.2812500 0.0000000
v 0.4450825 0.8464548 0.6325825
vt 0.3125000 0.1250000
v 0.5000000 0.8464548 0.6435063
vt 0.2500000 0.1250000
f 13/13 14/14 15/15
v 0.5000000 0.8750000 0.5000000
vt 0.3437500 0.0000000
v 0.3985257 0.8464548 0.6014743
vt 0.3750000 0.1250000
v 0.4450825 0.8464548 0.6325825
vt 0.3125000 0.1250000
f 16/16 17/17 18/18
v 0.5000000 0.8750000 0.5000000
vt 0.4062500 0.0000000
v 0.3674175 0.8464548 0.5549175
vt 0.4375000 0.1250000
v 0.3985257 0.8464548 0.6014743
vt 0.3750000 0.1250000
f 19/19 20/20 21/21
v 0.5000000 0.8750000 0.5000000
vt 0.4687500 0.0000000
v 0.3564937 0.8464548 0.5000000
vt 0.5000000 0.1250000
v 0.3674175 0.8464548 0.5549175
vt 0.4375000 0.1250000
f 22/22 23/23 24/24
v 0.5000000 0.8750000 0.5000000
vt 0.5312500 0.0000000
v 0.3674175 0.8464548 0.4450825
vt 0.5625000 0.1250000
v 0.3564937 0.8464548 0.5000000
vt 0.5000000 0.1250000
f 25/25 26/26 27/27
v 0.5000000 0.8750000 0.5000000
vt 0.5937500 0.0000000
v 0.3985257 0.8464548 0.3985257
vt 0.6250000 0.1250000
v 0.3674175 0.8464548 0.4450825
vt 0.5625000 0.1250000
f 28/28 29/29 30/30
v 0.5000000 0.8750000 0.5000000
vt 0.6562500 0.0000000
v 0.4450825 0.8464548 0.3674175
vt 0.6875000 0.1250000
v 0.3985257 0.8464548 0.3985257
vt 0.6250000 0.1250000
f 31/31 32/32 33/33
v 0.5000000 0.8750000 0.5000000
vt 0.7187500 0.0000000
v 0.5000000 0.8464548 0.3564937
vt 0.7500000 0.1250000
v 0.4450825 0.8464548 0.3674175
vt 0.6875000 0.1250000
f 34/34 35/35 36/36
v 0.5000000 0.8750000 0.5000000
vt 0.7812500 0.0000000
v 0.5549175 0.8464548 0.3674175
vt 0.8125000 0.1250000
v 0.5000000 0.8464548 0.3564937
vt 0.7500000 0.1250000
f 37/37 38/38 39/39
v 0.5000000 0.8750000 0.5000000
vt 0.8437500 0.0000000
v 0.6014743 0.8464548 0.3985257
vt 0.8750000 0.1250000
v 0.5549175 0.8464548 0.3674175
vt 0.8125000 0.1250000
f 40/40 41/41 42/42
v 0.5000000 0.8750000 0.5000000
vt 0.9062500 0.0000000
v 0.6325825 0.8464548 0.4450825
vt 0.9375000 0.1250000
v 0.6014743 0.8464548 0.3985257
vt 0.8750000 0.1250000
f 43/43 44/44 45/45
v 0.5000000 0.8750000 0.5000000
vt 0.9687500 0.0000000
v 0.6435063 0.8464548 0.5000000
vt 1.0000000 0.1250000
v 0.6325825 0.8464548 0.4450825
vt 0.9375000 0.1250000
f 46/46 47/47 48/48
v 0.6435063 0.8464548 0.5000000
vt 0.0000000 0.1250000
v 0.6325825 0.8464548 0.5549175
vt 0.0625000 0.1250000
v 0.7449806 0.7651650 0.6014743
vt 0.0625000 0.2500000
v 0.7651650 0.7651650 0.5000000
vt 0.0000000 0.2500000
f 49/49 50/50 51/51 52/52
v 0.6325825 0.8464548 0.5549175
vt 0.0625000 0.1250000
v 0.6014743 0.8464548 0.6014743
vt 0.1250000 0.1250000
v 0.6875000 0.7651650 0.6875000
vt 0.1250000 0.2500000
v 0.7449806 0.7651650 0.6014743
vt 0.0625000 0.2500000
f 53/53 54/54 55/55 56/56
v 0.6014743 0.8464548 0.6014743
vt 0.1250000 0.1250000
v 0.5549175 0.8464548 0.6325825
vt 0.1875000 0.1250000
v 0.6014743 0.7651650 0.7449806
vt 0.1875000 0.2500000
v 0.6875000 0.7651650 0.6875000
vt 0.1250000 0.2500000
f 57/57 58/58 59/59 60/60
v 0.5549175 0.8464548 0.6325825
vt 0.1875000 0.1250000
v 0.5000000 0.8464548 0.6435063
vt 0.2500000 0.1250000
v 0.5000000 0.7651650 0.7651650
vt 0.2500000 0.2500000
v 0.6014743 0.7651650 0.7449806
vt 0.1875000 0.2500000
f 61/61 62/62 63/63 64/64
v 0.5000000 0.8464548 0.6435063
vt 0.2500000 0.1250000
v 0.4450825 0.8464548 0.6325825
vt 0.3125000 0.1250000
v 0.3985257 0.7651650 0.7449806
vt 0.3125000 0.2500000
v 0.5000000 0.7651650 0.7651650
vt 0.2500000 0.2500000
f 65/65 66/66 67/67 68/68
v 0.4450825 0.8464548 0.6325825
vt 0.3125000 0.1250000
v 0.3985257 0.8464548 0.6014743
vt 0.3750000 0.1250000
v 0.3125000 0.7651650 0.6875000
vt 0.3750000 0.2500000
v 0.3985257 0.7651650 0.7449806
vt 0.3125000 0.2500000
f 69/69 70/70 71/71 72/72
v 0.3985257 0.8464548 0.6014743
vt 0.3750000 0.1250000
v 0.3674175 0.8464548 0.5549175
vt 0.4375000 0.1250000
v 0.2550194 0.7651650 0.6014743
vt 0.4375000 0.2500000
v 0.3125000 0.7651650 0.6875000
vt 0.3750000 0.2500000
f 73/73 74/74 75/75 76/76
v 0.3674175 0.8464548 0.5549175
vt 0.4375000 0.1250000
v 0.3564937 0.8464548 0.5000000
vt 0.5000000 0.1250000
v 0.2348350 0.7651650 0.5000000
vt 0.5000000 0.2500000
v 0.2550194 0.7651650 0.6014743
vt 0.4375000 0.2500000
f 77/77 78/78 79/79 80/80
v 0.3564937 0.8464548 0.5000000
vt 0.5000000 0.1250000
v 0.3674175 0.8464548 0.4450825
vt 0.5625000 0.1250000
v 0.2550194 0.7651650 0.3985257
vt 0.5625000 0.2500000
v 0.2348350 0.7651650 0.5000000
vt 0.5000000 0.2500000
f 81/81 82/82 83/83 84/84
v 0.3674175 0.8464548 0.4450825
vt 0.5625000 0.1250000
v 0.3985257 0.8464548 0.3985257
vt 0.6250000 0.1250000
v 0.3125000 0.7651650 0.3125000
vt 0.6250000 0.2500000
v 0.2550194 0.7651650 0.3985257
vt 0.5625000 0.2500000
f 85/85 86/86 87/87 88/88
v 0.3985257 0.8464548 0.3985257
vt 0.6250000 0.1250000
v 0.4450825 0.8464548 0.3674175
vt 0.6875000 0.1250000
v 0.3985257 0.7651650 0.2550194
vt 0.6875000 0.2500000
v 0.3125000 0.7651650 0.3125000
vt 0.6250000 0.2500000
f 89/89 90/90 91/91 92/92
v 0.4450825 0.8464548 0.3674175
vt 0.6875000 0.1250000
v 0.5000000 0.8464548 0.3564937
vt 0.7500000 0.1250000
v 0.5000000 0.7651650 0.2348350
vt 0.7500000 0.2500000
v 0.3985257 0.7651650 0.2550194
vt 0.6875000 0.2500000
f 93/93 94/94 95/95 96/96
v 0.5000000 0.8464548 0.3564937
vt 0.7500000 0.1250000
v 0.5549175 0.8464548 0.3674175
vt 0.8125000 0.1250000
v 0.6014743 0.7651650 0.2550194
vt 0.8125000 0.2500000
v 0.5000000 0.7651650 0.2348350
vt 0.7500000 0.2500000
f 97/97 98/98 99/99 100/100
v 0.5549175 0.8464548 0.3674175
vt 0.8125000 0.1250000
v 0.6014743 0.8464548 0.3985257
vt 0.8750000 0.1250000
v 0.6875000 0.7651650 0.3125000
vt 0.8750000 0.2500000
v 0.6014743 0.7651650 0.2550194
vt 0.8125000 0.2500000
f 101/101 102/102 103/103 104/104
v 0.6014743 0.8464548 0.3985257
vt 0.8750000 0.1250000
v 0.6325825 0.8464548 0.4450825
vt 0.9375000 0.1250000
v 0.7449806 0.7651650 0.3985257
vt 0.9375000 0.2500000
v 0.6875000 0.7651650 0.3125000
vt 0.8750000 0.2500000
f 105/105 106/106 107/107 108/108
v 0.6325825 0.8464548 0.4450825
vt 0.9375000 0.1250000
v 0.6435063 0.8464548 0.5000000
vt 1.0000000 0.1250000
v 0.7651650 0.7651650 0.5000000
vt 1.0000000 0.2500000
v 0.7449806 0.7651650 0.3985257
vt 0.9375000 0.2500000
f 109/109 110/110 111/111 112/112
v 0.7651650 0.7651650 0.5000000
vt 0.0000000 0.2500000
v 0.7449806 0.7651650 0.6014743
vt 0.0625000 0.2500000
v 0.8200825 0.6435063 0.6325825
vt 0.0625000 0.3750000
v 0.8464548 0.6435063 0.5000000
vt 0.0000000 0.3750000
f 113/113 114/114 115/115 116/116
v 0.7449806 0.7651650 0.6014743
vt 0.0625000 0.2500000
v 0.6875000 0.7651650 0.6875000
vt 0.1250000 0.2500000
v 0.7449806 0.6435063 0.7449806
vt 0.1250000 0.3750000
v 0.8200825 0.6435063 0.6325825
vt 0.0625000 0.3750000
f 117/117 118/118 119/119 120/120
v 0.6875000 0.7651650 0.6875000
vt 0.1250000 0.2500000
v 0.6014743 0.7651650 0.7449806
vt 0.1875000 0.2500000
v 0.6325825 0.6435063 0.8200825
vt 0.1875000 0.3750000
v 0.7449806 0.6435063 0.7449806
vt 0.1250000 0.3750000
f 121/121 122/122 123/123 124/124
v 0.6014743 0.7651650 0.7449806
vt 0.1875000 0.2500000
v 0.5000000 0.7651650 0.7651650
vt 0.2500000 0.2500000
v 0.5000000 0.6435063 0.8464548
vt 0.2500000 0.3750000
v 0.6325825 0.6435063 0.8200825
vt 0.1875000 0.3750000
f 125/125 126/126 127/127 128/128
v 0.5000000 0.7651650 0.7651650
vt 0.2500000 0.2500000
v 0.3985257 0.7651650 0.7449806
vt 0.3125000 0.2500000
v 0.3674175 0.6435063 0.8200825
vt 0.3125000 0.3750000
v 0.5000000 0.6435063 0.8464548
vt 0.2500000 0.3750000
f 129/129 130/130 131/131 132/132
v 0.3985257 0.7651650 0.7449806
vt 0.3125000 0.2500000
v 0.3125000 0.7651650 0.6875000
vt 0.3750000 0.2500000
v 0.2550194 0.6435063 0.7449806
vt 0.3750000 0.3750000
v 0.3674175 0.6435063 0.8200825
vt 0.3125000 0.3750000
f 133/133 134/134 135/135 136/136
v 0.3125000 0.7651650 0.6875000
vt 0.3750000 0.2500000
v 0.2550194 0.7651650 0.6014743
vt 0.4375000 0.2500000
v 0.1799175 0.6435063 0.6325825
vt 0.4375000 0.3750000
v 0.2550194 0.6435063 0.7449806
vt 0.3750000 0.3750000
f 137/137 138/138 139/139 140/140
v 0.2550194 0.7651650 0.6014743
vt 0.4375000 0.2500000
v 0.2348350 0.7651650 0.5000000
vt 0.5000000 0.2500000
v 0.1535452 0.6435063 0.5000000
vt 0.5000000 0.3750000
v 0.1799175 0.6435063 0.6325825
vt 0.4375000 0.3750000
f 141/141 142/142 143/143 144/144
v 0.2348350 0.7651650 0.5000000
vt 0.5000000 0.2500000
v 0.2550194 0.7651650 0.3985257
vt 0.5625000 0.2500000
v 0.1799175 0.6435063 0.3674175
vt 0.5625000 0.3750000
v 0.1535452 0.6435063 0.5000000
vt 0.5000000 0.3750000
f 145/145 146/146 147/147 148/148
v 0.2550194 0.7651650 0.3985257
vt 0.5625000 0.2500000
v 0.3125000 0.7651650 0.3125000
vt 0.6250000 0.2500000
v 0.2550194 0.6435063 0.2550194
vt 0.6250000 0.3750000
v 0.1799175 0.6435063 0.3674175
vt 0.5625000 0.3750000
f 149/149 150/150 151/151 152/152
v 0.3125000 0.7651650 0.3125000
vt 0.6250000 0.2500000
v 0.3985257 0.7651650 0.2550194
vt 0.6875000 0.2500000
v 0.3674175 0.6435063 0.1799175
vt 0.6875000 0.3750000
v 0.2550194 0.6435063 0.2550194
vt 0.6250000 0.3750000
f 153/153 154/154 155/155 156/156
v 0.3985257 0.7651650 0.2550194
vt 0.6875000 0.2500000
v 0.5000000 0.7651650 0.2348350
vt 0.7500000 0.2500000
v 0.5000000 0.6435063 0.1535452
vt 0.7500000 0.3750000
v 0.3674175 0.6435063 0.1799175
vt 0.6875000 0.3750000
f 157/157 158/158 159/159 160/160
v 0.5000000 0.7651650 0.2348350
vt 0.7500000 0.2500000
v 0.6014743 0.7651650 0.2550194
vt 0.8125000 0.2500000
v 0.6325825 0.6435063 0.1799175
vt 0.8125000 0.3750000
v 0.5000000 0.6435063 0.1535452
vt 0.7500000 0.3750000
f 161/161 162/162 163/163 164/164
v 0.6014743 0.7651650 0.2550194
vt 0.8125000 0.2500000
v 0.6875000 0.7651650 0.3125000
vt 0.8750000 0.2500000
v 0.7449806 0.6435063 0.2550194
vt 0.8750000 0.3750000
v 0.6325825 0.6435063 0.1799175
vt 0.8125000 0.3750000
f 165/165 166/166 167/167 168/168
v 0.6875000 0.7651650 0.3125000
vt 0.8750000 0.2500000
v 0.7449806 0.7651650 0.3985257
vt 0.9375000 0.2500000
v 0.8200825 0.6435063 0.3674175
vt 0.9375000 0.3750000
v 0.7449806 0.6435063 0.2550194
vt 0.8750000 0.3750000
f 169/169 170/170 171/171 172/172
v 0.7449806 0.7651650 0.3985257
vt 0.9375000 0.2500000
v 0.7651650 0.7651650 0.5000000
vt 1.0000000 0.2500000
v 0.8464548 0.6435063 0.5000000
vt 1.0000000 0.3750000
v 0.8200825 0.6435063 0.3674175
vt 0.9375000 0.3750000
f 173/173 174/174 175/175 176/176
v 0.8464548 0.6435063 0.5000000
vt 0.0000000 0.3750000
v 0.8200825 0.6435063 0.6325825
vt 0.0625000 0.3750000
v 0.8464548 0.5000000 0.6435063
vt 0.0625000 0.5000000
v 0.8750000 0.5000000 0.5000000
vt 0.0000000 0.5000000
f 177/177 178/178 179/179 180/180
v 0.8200825 0.6435063 0.6325825
vt 0.0625000 0.3750000
v 0.7449806 0.6435063 0.7449806
vt 0.1250000 0.3750000
v 0.7651650 0.5000000 0.7651650
vt 0.1250000 0.5000000
v 0.8464548 0.5000000 0.6435063
vt 0.0625000 0.5000000
f 181/181 182/182 183/183 184/184
v 0.7449806 0.6435063 0.7449806
vt 0.1250000 0.3750000
v 0.6325825 0.6435063 0.8200825
vt 0.1875000 0.3750000
v 0.6435063 0.5000000 0.8464548
vt 0.1875000 0.5000000
v 0.7651650 0.5000000 0.7651650
vt 0.1250000 0.5000000
f 185/185 186/186 187/187 188/188
v 0.6325825 0.6435063 0.8200825
vt 0.1875000 0.3750000
v 0.5000000 0.6435063 0.8464548
vt 0.2500000 0.3750000
v 0.5000000 0.5000000 0.8750000
vt 0.2500000 0.5000000
v 0.6435063 0.5000000 0.8464548
vt 0.1875000 0.5000000
f 189/189 190/190 191/191 192/192
v 0.5000000 0.6435063 0.8464548
vt 0.2500000 0.3750000
v 0.3674175 0.6435063 0.8200825
vt 0.3125000 0.3750000
v 0.3564937 0.5000000 0.8464548
vt 0.3125000 0.5000000
v 0.5000000 0.5000000 0.8750000
vt 0.2500000 0.5000000
f 193/193 194/194 195/195 196/196
v 0.3674175 0.6435063 0.8200825
vt 0.3125000 0.3750000
v 0.2550194 0.6435063 0.7449806
vt 0.3750000 0.3750000
v 0.2348350 0.5000000 0.7651650
vt 0.3750000 0.5000000
v 0.3564937 0.5000000 0.8464548
vt 0.3125000 0.5000000
f 197/197 198/198 199/199 200/200
v 0.2550194 0.6435063 0.7449806
vt 0.3750000 0.3750000
v 0.1799175 0.6435063 0.6325825
vt 0.4375000 0.3750000
v 0.1535452 0.5000000 0.6435063
vt 0.4375000 0.5000000
v 0.2348350 0.5000000 0.7651650
vt 0.3750000 0.5000000
f 201/201 202/202 203/203 204/204
v 0.1799175 0.6435063 0.6325825
vt 0.4375000 0.3750000
v 0.1535452 0.6435063 0.5000000
vt 0.5000000 0.3750000
v 0.1250000 0.5000000 0.5000000
vt 0.5000000 0.5000000
v 0.1535452 0.5000000 0.6435063
vt 0.4375000 0.5000000
f 205/205 206/206 207/207 208/208
v 0.1535452 0.6435063 0.5000000
vt 0.5000000 0.3750000
v 0.1799175 0.6435063 0.3674175
vt 0.5625000 0.3750000
v 0.1535452 0.5000000 0.3564937
vt 0.5625000 0.5000000
v 0.1250000 0.5000000 0.5000000
vt 0.5000000 0.5000000
f 209/209 210/210 211/211 212/212
v 0.1799175 0.6435063 0.3674175
vt 0.5625000 0.3750000
v 0.2550194 0.6435063 0.2550194
vt 0.6250000 0.3750000
v 0.2348350 0.5000000 0.2348350
vt 0.6250000 0.5000000
v 0.1535452 0.5000000 0.3564937
vt 0.5625000 0.5000000
f 213/213 214/214 215/215 216/216
v 0.2550194 0.6435063 0.2550194
vt 0.6250000 0.3750000
v 0.3674175 0.6435063 0.1799175
vt 0.6875000 0.3750000
v 0.3564937 0.5000000 0.1535452
vt 0.6875000 0.5000000
v 0.2348350 0.5000000 0.2348350
vt 0.6250000 0.5000000
f 217/217 218/218 219/219 220/220
v 0.3674175 0.6435063 0.1799175
vt 0.6875000 0.3750000
v 0.5000000 0.6435063 0.1535452
vt 0.7500000 0.3750000
v 0.5000000 0.5000000 0.1250000
vt 0.7500000 0.5000000
v 0.3564937 0.5000000 0.1535452
vt 0.6875000 0.5000000
f 221/221 222/222 223/223 224/224
v 0.5000000 0.6435063 0.1535452
vt 0.7500000 0.3750000
v 0.6325825 0.6435063 0.1799175
vt 0.8125000 0.3750000
v 0.6435063 0.5000000 0.1535452
vt 0.8125000 0.5000000
v 0.5000000 0.5000000 0.1250000
vt 0.7500000 0.5000000
f 225/225 226/226 227/227 228/228
v 0.6325825 0.6435063 0.1799175
vt 0.8125000 0.3750000
v 0.7449806 0.6435063 0.2550194
vt 0.8750000 0.3750000
v 0.7651650 0.5000000 0.2348350
vt 0.8750000 0.5000000
v 0.6435063 0.5000000 0.1535452
vt 0.8125000 0.5000000
f 229/229 230/230 231/231 232/232
v 0.7449806 0.6435063 0.2550194
vt 0.8750000 0.3750000
v 0.8200825 0.6435063 0.3674175
vt 0.9375000 0.3750000
v 0.8464548 0.5000000 0.3564937
vt 0.9375000 0.5000000
v 0.7651650 0.5000000 0.2348350
vt 0.8750000 0.5000000
f 233/233 234/234 235/235 236/236
v 0.8200825 0.6435063 0.3674175
vt 0.9375000 0.3750000
v 0.8464548 0.6435063 0.5000000
vt 1.0000000 0.3750000
v 0.8750000 0.5000000 0.5000000
vt 1.0000000 0.5000000
v 0.8464548 0.5000000 0.3564937
vt 0.9375000 0.5000000
f 237/237 238/238 239/239 240/240
v 0.8750000 0.5000000 0.5000000
vt 0.0000000 0.5000000
v 0.8464548 0.5000000 0.6435063
vt 0.0625000 0.5000000
v 0.8200825 0.3564937 0.6325825
vt 0.0625000 0.6250000
v 0.8464548 0.3564937 0.5000000
vt 0.0000000 0.6250000
f 241/241 242/242 243/243 244/244
v 0.8464548 0.5000000 0.6435063
vt 0.0625000 0.5000000
v 0.7651650 0.5000000 0.7651650
vt 0.1250000 0.5000000
v 0.7449806 0.3564937 0.7449806
vt 0.1250000 0.6250000
v 0.8200825 0.3564937 0.6325825
vt 0.0625000 0.6250000
f 245/245 246/246 247/247 248/248
v 0.7651650 0.5000000 0.7651650
vt 0.1250000 0.5000000
v 0.6435063 0.5000000 0.8464548
vt 0.1875000 0.5000000
v 0.6325825 0.3564937 0.8200825
vt 0.1875000 0.6250000
v 0.7449806 0.3564937 0.7449806
vt 0.1250000 0.6250000
f 249/249 250/250 251/251 252/252
v 0.6435063 0.5000000 0.8464548
vt 0.1875000 0.5000000
v 0.5000000 0.5000000 0.8750000
vt 0.2500000 0.5000000
v 0.5000000 0.3564937 0.8464548
vt 0.2500000 0.6250000
v 0.6325825 0.3564937 0.8200825
vt 0.1875000 0.6250000
f 253/253 254/254 255/255 256/256
v 0.5000000 0.5000000 0.8750000
vt 0.2500000 0.5000000
v 0.3564937 0.5000000 0.8464548
vt 0.3125000 0.5000000
v 0.3674175 0.3564937 0.8200825
vt 0.3125000 0.6250000
v 0.5000000 0.3564937 0.8464548
vt 0.2500000 0.6250000
f 257/257 258/258 259/259 260/260
v 0.3564937 0.5000000 0.8464548
vt 0.3125000 0.5000000
v 0.2348350 0.5000000 0.7651650
vt 0.3750000 0.5000000
v 0.2550194 0.3564937 0.7449806
vt 0.3750000 0.6250000
v 0.3674175 0.3564937 0.8200825
vt 0.3125000 0.6250000
f 261/261 262/262 263/263 264/264
v 0.2348350 0.5000000 0.7651650
vt 0.3750000 0.5000000
v 0.1535452 0.5000000 0.6435063
vt 0.4375000 0.5000000
v 0.1799175 0.3564937 0.6325825
vt 0.4375000 0.6250000
v 0.2550194 0.3564937 0.7449806
vt 0.3750000 0.6250000
f 265/265 266/266 267/267 268/268
v 0.1535452 0.5000000 0.6435063
vt 0.4375000 0.5000000
v 0.1250000 0.5000000 0.5000000
vt 0.5000000 0.5000000
v 0.1535452 0.3564937 0.5000000
vt 0.5000000 0.6250000
v 0.1799175 0.3564937 0.6325825
vt 0.4375000 0.6250000
f 269/269 270/270 271/271 272/272
v 0.1250000 0.5000000 0.5000000
vt 0.5000000 0.5000000
v 0.1535452 0.5000000 0.3564937
vt 0.5625000 0.5000000
v 0.1799175 0.3564937 0.3674175
vt 0.5625000 0.6250000
v 0.1535452 0.3564937 0.5000000
vt 0.5000000 0.6250000
f 273/273 274/274 275/275 276/276
v 0.1535452 0.5000000 0.3564937
vt 0.5625000 0.5000000
v 0.2348350 0.5000000 0.2348350
vt 0.6250000 0.5000000
v 0.2550194 0.3564937 0.2550194
vt 0.6250000 0.6250000
v 0.1799175 0.3564937 0.3674175
vt 0.5625000 0.6250000
f 277/277 278/278 279/279 280/280
v 0.2348350 0.5000000 0.2348350
vt 0.6250000 0.5000000
v 0.3564937 0.5000000 0.1535452
vt 0.6875000 0.5000000
v 0.3674175 0.3564937 0.1799175
vt 0.6875000 0.6250000
v 0.2550194 0.3564937 0.2550194
vt 0.6250000 0.6250000
f 281/281 282/282 283/283 284/284
v 0.3564937 0.5000000 0.1535452
vt 0.6875000 0.5000000
v 0.5000000 0.5000000 0.1250000
vt 0.7500000 0.5000000
v 0.5000000 0.3564937 0.1535452
vt 0.7500000 0.6250000
v 0.3674175 0.3564937 0.1799175
vt 0.6875000 0.6250000
f 285/285 286/286 287/287 288/288
v 0.5000000 0.5000000 0.1250000
vt 0.7500000 0.5000000
v 0.6435063 0.5000000 0.1535452
vt 0.8125000 0.5000000
v 0.6325825 0.3564937 0.1799175
vt 0.8125000 0.6250000
v 0.5000000 0.3564937 0.1535452
vt 0.7500000 0.6250000
f 289/289 290/290 291/291 292/292
v 0.6435063 0.5000000 0.1535452
vt 0.8125000 0.5000000
v 0.7651650 0.5000000 0.2348350
vt 0.8750000 0.5000000
v 0.7449806 0.3564937 0.2550194
vt 0.8750000 0.6250000
v 0.6325825 0.3564937 0.1799175
vt 0.8125000 0.6250000
f 293/293 294/294 295/295 296/296
v 0.7651650 0.5000000 0.2348350
vt 0.8750000 0.5000000
v 0.8464548 0.5000000 0.3564937
vt 0.9375000 0.5000000
v 0.8200825 0.3564937 0.3674175
vt 0.9375000 0.6250000
v 0.7449806 0.3564937 0.2550194
vt 0.8750000 0.6250000
f 297/297 298/298 299/299 300/300
v 0.8464548 0.5000000 0.3564937
vt 0.9375000 0.5000000
v 0.8750000 0.5000000 0.5000000
vt 1.0000000 0.5000000
v 0.8464548 0.3564937 0.5000000
vt 1.0000000 0.6250000
v 0.8200825 0.3564937 0.3674175
vt 0.9375000 0.6250000
f 301/301 302/302 303/303 304/304
v 0.8464548 0.3564937 0.5000000
vt 0.0000000 0.6250000
v 0.8200825 0.3564937 0.6325825
vt 0.0625000 0.6250000
v 0.7449806 0.2348350 0.6014743
vt 0.0625000 0.7500000
v 0.7651650 0.2348350 0.5000000
vt 0.0000000 0.7500000
f 305/305 306/306 307/307 308/308
v 0.8200825 0.3564937 0.6325825
vt 0.0625000 0.6250000
v 0.7449806 0.3564937 0.7449806
vt 0.1250000 0.6250000
v 0.6875000 0.2348350 0.6875000
vt 0.1250000 0.7500000
v 0.7449806 0.2348350 0.6014743
vt 0.0625000 0.7500000
f 309/309 310/310 311/311 312/312
v 0.7449806 0.3564937 0.7449806
vt 0.1250000 0.6250000
v 0.6325825 0.3564937 0.8200825
vt 0.1875000 0.6250000
v 0.6014743 0.2348350 0.7449806
vt 0.1875000 0.7500000
v 0.6875000 0.2348350 0.6875000
vt 0.1250000 0.7500000
f 313/313 314/314 315/315 316/316
v 0.6325825 0.3564937 0.8200825
vt 0.1875000 0.6250000
v 0.5000000 0.3564937 0.8464548
vt 0.2500000 0.6250000
v 0.5000000 0.2348350 0.7651650
vt 0.2500000 0.7500000
v 0.6014743 0.2348350 0.7449806
vt 0.1875000 0.7500000
f 317/317 318/318 319/319 320/320
v 0.5000000 0.3564937 0.8464548
vt 0.2500000 0.6250000
v 0.3674175 0.3564937 0.8200825
vt 0.3125000 0.6250000
v 0.3985257 0.2348350 0.7449806
vt 0.3125000 0.7500000
v 0.5000000 0.2348350 0.7651650
vt 0.2500000 0.7500000
f 321/321 322/322 323/323 324/324
v 0.3674175 0.3564937 0.8200825
vt 0.3125000 0.6250000
v 0.2550194 0.3564937 0.7449806
vt 0.3750000 0.6250000
v 0.3125000 0.2348350 0.6875000
vt 0.3750000 0.7500000
v 0.3985257 0.2348350 0.7449806
vt 0.3125000 0.7500000
f 325/325 326/326 327/327 328/328
v 0.2550194 0.3564937 0.7449806
vt 0.3750000 0.6250000
v 0.1799175 0.3564937 0.6325825
vt 0.4375000 0.6250000
v 0.2550194 0.2348350 0.6014743
vt 0.4375000 0.7500000
v 0.3125000 0.2348350 0.6875000
vt 0.3750000 0.7500000
f 329/329 330/330 331/331 332/332
v 0.1799175 0.3564937 0.6325825
vt 0.4375000 0.6250000
v 0.1535452 0.3564937 0.5000000
vt 0.5000000 0.6250000
v 0.2348350 0.2348350 0.5000000
vt 0.5000000 0.7500000
v 0.2550194 0.2348350 0.6014743
vt 0.4375000 0.7500000
f 333/333 334/334 335/335 336/336
v 0.1535452 0.3564937 0.5000000
vt 0.5000000 0.6250000
v 0.1799175 0.3564937 0.3674175
vt 0.5625000 0.6250000
v 0.2550194 0.2348350 0.3985257
vt 0.5625000 0.7500000
v 0.2348350 0.2348350 0.5000000
vt 0.5000000 0.7500000
f 337/337 338/338 339/339 340/340
v 0.1799175 0.3564937 0.3674175
vt 0.5625000 0.6250000
v 0.2550194 0.3564937 0.2550194
vt 0.6250000 0.6250000
v 0.3125000 0.2348350 0.3125000
vt 0.6250000 0.7500000
v 0.2550194 0.2348350 0.3985257
vt 0.5625000 0.7500000
f 341/341 342/342 343/343 344/344
v 0.2550194 0.3564937 0.2550194
vt 0.6250000 0.6250000
v 0.3674175 0.3564937 0.1799175
vt 0.6875000 0.6250000
v 0.3985257 0.2348350 0.2550194
vt 0.6875000 0.7500000
v 0.3125000 0.2348350 0.3125000
vt 0.6250000 0.7500000
f 345/345 346/346 347/347 348/348
v 0.3674175 0.3564937 0.1799175
vt 0.6875000 0.6250000
v 0.5000000 0.3564937 0.1535452
vt 0.7500000 0.6250000
v 0.5000000 0.2348350 0.2348350
vt 0.7500000 0.7500000
v 0.3985257 0.2348350 0.2550194
vt 0.6875000 0.7500000
f 349/349 350/350 351/351 352/352
v 0.5000000 0.3564937 0.1535452
vt 0.7500000 0.6250000
v 0.6325825 0.3564937 0.1799175
vt 0.8125000 0.6250000
v 0.6014743 0.2348350 0.2550194
vt 0.8125000 0.7500000
v 0.5000000 0.2348350 0.2348350
vt 0.7500000 0.7500000
f 353/353 354/354 355/355 356/356
v 0.6325825 0.3564937 0.1799175
vt 0.8125000 0.6250000
v 0.7449806 0.3564937 0.2550194
vt 0.8750000 0.6250000
v 0.6875000 0.2348350 0.3125000
vt 0.8750000 0.7500000
v 0.6014743 0.2348350 0.2550194
vt 0.8125000 0.7500000
f 357/357 358/358 359/359 360/360
v 0.7449806 0.3564937 0.2550194
vt 0.8750000 0.6250000
v 0.8200825 0.3564937 0.3674175
vt 0.9375000 0.6250000
v 0.7449806 0.2348350 0.3985257
vt 0.9375000 0.7500000
v 0.6875000 0.2348350 0.3125000
vt 0.8750000 0.7500000
f 361/361 362/362 363/363 364/364
v 0.8200825 0.3564937 0.3674175
vt 0.9375000 0.6250000
v 0.8464548 0.3564937 0.5000000
vt 1.0000000 0.6250000
v 0.7651650 0.2348350 0.5000000
vt 1.0000000 0.7500000
v 0.7449806 0.2348350 0.3985257
vt 0.9375000 0.7500000
f 365/365 366/366 367/367 368/368
v 0.7651650 0.2348350 0.5000000
vt 0.0000000 0.7500000
v 0.7449806 0.2348350 0.6014743
vt 0.0625000 0.7500000
v 0.6325825 0.1535452 0.5549175
vt 0.0625000 0.8750000
v 0.6435063 0.1535452 0.5000000
vt 0.0000000 0.8750000
f 369/369 370/370 371/371 372/372
v 0.7449806 0.2348350 0.6014743
vt 0.0625000 0.7500000
v 0.6875000 0.2348350 0.6875000
vt 0.1250000 0.7500000
v 0.6014743 0.1535452 0.6014743
vt 0.1250000 0.8750000
v 0.6325825 0.1535452 0.5549175
vt 0.0625000 0.8750000
f 373/373 374/374 375/375 376/376
v 0.6875000 0.2348350 0.6875000
vt 0.1250000 0.7500000
v 0.6014743 0.2348350 0.7449806
vt 0.1875000 0.7500000
v 0.5549175 0.1535452 0.6325825
vt 0.1875000 0.8750000
v 0.6014743 0.1535452 0.6014743
vt 0.1250000 0.8750000
f 377/377 378/378 379/379 380/380
v 0.6014743 0.2348350 0.7449806
vt 0.1875000 0.7500000
v 0.5000000 0.2348350 0.7651650
vt 0.2500000 0.7500000
v 0.5000000 0.1535452 0.6435063
vt 0.2500000 0.8750000
v 0.5549175 0.1535452 0.6325825
vt 0.1875000 0.8750000
f 381/381 382/382 383/383 384/384
v 0.5000000 0.2348350 0.7651650
vt 0.2500000 0.7500000
v 0.3985257 0.2348350 0.7449806
vt 0.3125000 0.7500000
v 0.4450825 0.1535452 0.6325825
vt 0.3125000 0.8750000
v 0.5000000 0.1535452 0.6435063
vt 0.2500000 0.8750000
f 385/385 386/386 387/387 388/388
v 0.3985257 0.2348350 0.7449806
vt 0.3125000 0.7500000
v 0.3125000 0.2348350 0.6875000
vt 0.3750000 0.7500000
v 0.3985257 0.1535452 0.6014743
vt 0.3750000 0.8750000
v 0.4450825 0.1535452 0.6325825
vt 0.3125000 0.8750000
f 389/389 390/390 391/391 392/392
v 0.3125000 0.2348350 0.6875000
vt 0.3750000 0.7500000
v 0.2550194 0.2348350 0.6014743
vt 0.4375000 0.7500000
v 0.3674175 0.1535452 0.5549175
vt 0.4375000 0.8750000
v 0.3985257 0.1535452 0.6014743
vt 0.3750000 0.8750000
f 393/393 394/394 395/395 396/396
v 0.2550194 0.2348350 0.6014743
vt 0.4375000 0.7500000
v 0.2348350 0.2348350 0.5000000
vt 0.5000000 0.7500000
v 0.3564937 0.1535452 0.5000000
vt 0.5000000 0.8750000
v 0.3674175 0.1535452 0.5549175
vt 0.4375000 0.8750000
f 397/397 398/398 399/399 400/400
v 0.2348350 0.2348350 0.5000000
vt 0.5000000 0.7500000
v 0.2550194 0.2348350 0.3985257
vt 0.5625000 0.7500000
v 0.3674175 0.1535452 0.4450825
vt 0.5625000 0.8750000
v 0.3564937 0.1535452 0.5000000
vt 0.5000000 0.8750000
f 401/401 402/402 403/403 404/404
v 0.2550194 0.2348350 0.3985257
vt 0.5625000 0.7500000
v 0.3125000 0.2348350 0.3125000
vt 0.6250000 0.7500000
v 0.3985257 0.1535452 0.3985257
vt 0.6250000 0.8750000
v 0.3674175 0.1535452 0.4450825
vt 0.5625000 0.8750000
f 405/405 406/406 407/407 408/408
v 0.3125000 0.2348350 0.3125000
vt 0.6250000 0.7500000
v 0.3985257 0.2348350 0.2550194
vt 0.6875000 0.7500000
v 0.4450825 0.1535452 0.3674175
vt 0.6875000 0.8750000
v 0.3985257 0.1535452 0.3985257
vt 0.6250000 0.8750000
f 409/409 410/410 411/411 412/412
v 0.3985257 0.2348350 0.2550194
vt 0.6875000 0.7500000
v 0.5000000 0.2348350 0.2348350
vt 0.7500000 0.7500000
v 0.5000000 0.1535452 0.3564937
vt 0.7500000 0.8750000
v 0.4450825 0.1535452 0.3674175
vt 0.6875000 0.8750000
f 413/413 414/414 415/415 416/416
v 0.5000000 0.2348350 0.2348350
vt 0.7500000 0.7500000
v 0.6014743 0.2348350 0.2550194
vt 0.8125000 0.7500000
v 0.5549175 0.1535452 0.3674175
vt 0.8125000 0.8750000
v 0.5000000 0.1535452 0.3564937
vt 0.7500000 0.8750000
f 417/417 418/418 419/419 420/420
v 0.6014743 0.2348350 0.2550194
vt 0.8125000 0.7500000
v 0.6875000 0.2348350 0.3125000
vt 0.8750000 0.7500000
v 0.6014743 0.1535452 0.3985257
vt 0.8750000 0.8750000
v 0.5549175 0.1535452 0.3674175
vt 0.8125000 0.8750000
f 421/421 422/422 423/423 424/424
v 0.6875000 0.2348350 0.3125000
vt 0.8750000 0.7500000
v 0.7449806 0.2348350 0.3985257
vt 0.9375000 0.7500000
v 0.6325825 0.1535452 0.4450825
vt 0.9375000 0.8750000
v 0.6014743 0.1535452 0.3985257
vt 0.8750000 0.8750000
f 425/425 426/426 427/427 428/428
v 0.7449806 0.2348350 0.3985257
vt 0.9375000 0.7500000
v 0.7651650 0.2348350 0.5000000
vt 1.0000000 0.7500000
v 0.6435063 0.1535452 0.5000000
vt 1.0000000 0.8750000
v 0.6325825 0.1535452 0.4450825
vt 0.9375000 0.8750000
f 429/429 430/430 431/431 432/432
v 0.6435063 0.1535452 0.5000000
vt 0.0000000 0.8750000
v 0.6325825 0.1535452 0.5549175
vt 0.0625000 0.8750000
v 0.5000000 0.1250000 0.5000000
vt 0.0312500 1.0000000
f 433/433 434/434 435/435
v 0.6325825 0.1535452 0.5549175
vt 0.0625000 0.8750000
v 0.6014743 0.1535452 0.6014743
vt 0.1250000 0.8750000
v 0.5000000 0.1250000 0.5000000
vt 0.0937500 1.0000000
f 436/436 437/437 438/438
v 0.6014743 0.1535452 0.6014743
vt 0.1250000 0.8750000
v 0.5549175 0.1535452 0.6325825
vt 0.1875000 0.8750000
v 0.5000000 0.1250000 0.5000000
vt 0.1562500 1.0000000
f 439/439 440/440 441/441
v 0.5549175 0.1535452 0.6325825
vt 0.1875000 0.8750000
v 0.5000000 0.1535452 0.6435063
vt 0.2500000 0.8750000
v 0.5000000 0.1250000 0.5000000
vt 0.2187500 1.0000000
f 442/442 443/443 444/444
v 0.5000000 0.1535452 0.6435063
vt 0.2500000 0.8750000
v 0.4450825 0.1535452 0.6325825
vt 0.3125000 0.8750000
v 0.5000000 0.1250000 0.5000000
vt 0.2812500 1.0000000
f 445/445 446/446 447/447
v 0.4450825 0.1535452 0.6325825
vt 0.3125000 0.8750000
v 0.3985257 0.1535452 0.6014743
vt 0.3750000 0.8750000
v 0.5000000 0.1250000 0.5000000
vt 0.3437500 1.0000000
f 448/448 449/449 450/450
v 0.3985257 0.1535452 0.6014743
vt 0.3750000 0.8750000
v 0.3674175 0.1535452 0.5549175
vt 0.4375000 0.8750000
v 0.5000000 0.1250000 0.5000000
vt 0.4062500 1.0000000
f 451/451 452/452 453/453
v 0.3674175 0.1535452 0.5549175
vt 0.4375000 0.8750000
v 0.3564937 0.1535452 0.5000000
vt 0.5000000 0.8750000
v 0.5000000 0.1250000 0.5000000
vt 0.4687500 1.0000000
f 454/454 455/455 456/456
v 0.3564937 0.1535452 0.5000000
vt 0.5000000 0.8750000
v 0.3674175 0.1535452 0.4450825
vt 0.5625000 0.8750000
v 0.5000000 0.1250000 0.5000000
vt 0.5312500 1.0000000
f 457/457 458/458 459/459
v 0.3674175 0.1535452 0.4450825
vt 0.5625000 0.8750000
v 0.3985257 0.1535452 0.3985257
vt 0.6250000 0.8750000
v 0.5000000 0.1250000 0.5000000
vt 0.5937500 1.0000000
f 460/460 461/461 462/462
v 0.3985257 0.1535452 0.3985257
vt 0.6250000 0.8750000
v 0.4450825 0.1535452 0.3674175
vt 0.6875000 0.8750000
v 0.5000000 0.1250000 0.5000000
vt 0.6562500 1.0000000
f 463/463 464/464 465/465
v 0.4450825 0.1535452 0.3674175
vt 0.6875000 0.8750000
v 0.5000000 0.1535452 0.3564937
vt 0.7500000 0.8750000
v 0.5000000 0.1250000 0.5000000
vt 0.7187500 1.0000000
f 466/466 467/467 468/468
v 0.5000000 0.1535452 0.3564937
vt 0.7500000 0.8750000
v 0.5549175 0.1535452 0.3674175
vt 0.8125000 0.8750000
v 0.5000000 0.1250000 0.5000000
vt 0.7812500 1.0000000
f 469/469 470/470 471/471
v 0.5549175 0.1535452 0.3674175
vt 0.8125000 0.8750000
v 0.6014743 0.1535452 0.3985257
vt 0.8750000 0.8750000
v 0.5000000 0.1250000 0.5000000
vt 0.8437500 1.0000000
f 472/472 473/473 474/474
v 0.6014743 0.1535452 0.3985257
vt 0.8750000 0.8750000
v 0.6325825 0.1535452 0.4450825
vt 0.9375000 0.8750000
v 0.5000000 0.1250000 0.5000000
vt 0.9062500 1.0000000
f 475/475 476/476 477/477
v 0.6325825 0.1535452 0.4450825
vt 0.9375000 0.8750000
v 0.6435063 0.1535452 0.5000000
vt 1.0000000 0.8750000
v 0.5000000 0.1250000 0.5000000
vt 0.9687500 1.0000000
f 478/478 479/479 480/480
o ring_0
usemtl steel
v 0.9777606 0.6843513 0.5068829
vt 0.0000000 0.0000000
v 0.9873629 0.6069606 0.6154331
vt 0.0416667 0.0000000
v 1.0218670 0.6138318 0.6230656
vt 0.0416667 1.0000000
v 1.0115896 0.6966641 0.5068829
vt 0.0000000 1.0000000
f 481/481 482/482 483/483 484/484
usemtl steel
v 1.0183136 0.6781900 0.4931171
vt 0.0000000 1.0000000
v 1.0285910 0.5953578 0.6092997
vt 0.0416667 1.0000000
v 0.9940869 0.5884866 0.6016673
vt 0.0416667 0.0000000
v 0.9844846 0.6658773 0.4931171
vt 0.0000000 0.0000000
f 485/485 486/486 487/487 488/488
usemtl steel
v 1.0115896 0.6966641 0.5068829
vt 0.0000000 1.0000000
v 1.0218670 0.6138318 0.6230656
vt 0.0416667 1.0000000
v 1.0285910 0.5953578 0.6092997
vt 0.0416667 0.0000000
v 1.0183136 0.6781900 0.4931171
vt 0.0000000 0.0000000
f 489/489 490/490 491/491 492/492
usemtl inner
v 0.9844846 0.6658773 0.4931171
vt 0.0000000 0.0000000
v 0.9940869 0.5884866 0.6016673
vt 0.0416667 0.0000000
v 0.9873629 0.6069606 0.6154331
vt 0.0416667 1.0000000
v 0.9777606 0.6843513 0.5068829
vt 0.0000000 1.0000000
f 493/493 494/494 495/495 496/496
usemtl steel
v 0.9873629 0.6069606 0.6154331
vt 0.0416667 0.0000000
v 0.9635231 0.5229102 0.7165858
vt 0.0833333 0.0000000
v 0.9963510 0.5238716 0.7313306
vt 0.0833333 1.0000000
v 1.0218670 0.6138318 0.6230656
vt 0.0416667 1.0000000
f 497/497 498/498 499/499 500/500
usemtl steel
v 1.0285910 0.5953578 0.6092997
vt 0.0416667 1.0000000
v 1.0030750 0.5053975 0.7175647
vt 0.0833333 1.0000000
v 0.9702471 0.5044361 0.7028200
vt 0.0833333 0.0000000
v 0.9940869 0.5884866 0.6016673
vt 0.0416667 0.0000000
f 501/501 502/502 503/503 504/504
usemtl steel
v 1.0218670 0.6138318 0.6230656
vt 0.0416667 1.0000000
v 0.9963510 0.5238716 0.7313306
vt 0.0833333 1.0000000
v 1.0030750 0.5053975 0.7175647
vt 0.0833333 0.0000000
v 1.0285910 0.5953578 0.6092997
vt 0.0416667 0.0000000
f 505/505 506/506 507/507 508/508
usemtl inner
v 0.9940869 0.5884866 0.6016673
vt 0.0416667 0.0000000
v 0.9702471 0.5044361 0.7028200
vt 0.0833333 0.0000000
v 0.9635231 0.5229102 0.7165858
vt 0.0833333 1.0000000
v 0.9873629 0.6069606 0.6154331
vt 0.0416667 1.0000000
f 509/509 510/510 511/511 512/512
usemtl steel
v 0.9635231 0.5229102 0.7165858
vt 0.0833333 0.0000000
v 0.9078659 0.4379279 0.8034476
vt 0.1250000 0.0000000
v 0.9367804 0.4329140 0.8242998
vt 0.1250000 1.0000000
v 0.9963510 0.5238716 0.7313306
vt 0.0833333 1.0000000
f 513/513 514/514 515/515 516/516
usemtl steel
v 1.0030750 0.5053975 0.7175647
vt 0.0833333 1.0000000
v 0.9435044 0.4144400 0.8105340
vt 0.1250000 1.0000000
v 0.9145899 0.4194539 0.7896818
vt 0.1250000 0.0000000
v 0.9702471 0.5044361 0.7028200
vt 0.0833333 0.0000000
f 517/517 518/518 519/519 520/520
usemtl steel
v 0.9963510 0.5238716 0.7313306
vt 0.0833333 1.0000000
v 0.9367804 0.4329140 0.8242998
vt 0.1250000 1.0000000
v 0.9435044 0.4144400 0.8105340
vt 0.1250000 0.0000000
v 1.0030750 0.5053975 0.7175647
vt 0.0833333 0.0000000
f 521/521 522/522 523/523 524/524
usemtl inner
v 0.9702471 0.5044361 0.7028200
vt 0.0833333 0.0000000
v 0.9145899 0.4194539 0.7896818
vt 0.1250000 0.0000000
v 0.9078659 0.4379279 0.8034476
vt 0.1250000 1.0000000
v 0.9635231 0.5229102 0.7165858
vt 0.0833333 1.0000000
f 525/525 526/526 527/527 528/528
usemtl steel
v 0.9078659 0.4379279 0.8034476
vt 0.1250000 0.0000000
v 0.8241842 0.3578053 0.8700990
vt 0.1666667 0.0000000
v 0.8472147 0.3471577 0.8956377
vt 0.1666667 1.0000000
v 0.9367804 0.4329140 0.8242998
vt 0.1250000 1.0000000
f 529/529 530/530 531/531 532/532
usemtl steel
v 0.9435044 0.4144400 0.8105340
vt 0.1250000 1.0000000
v 0.8539387 0.3286837 0.8818718
vt 0.1666667 1.0000000
v 0.8309082 0.3393313 0.8563332
vt 0.1666667 0.0000000
v 0.9145899 0.4194539 0.7896818
vt 0.1250000 0.0000000
f 533/533 534/534 535/535 536/536
usemtl steel
v 0.9367804 0.4329140 0.8242998
vt 0.1250000 1.0000000
v 0.8472147 0.3471577 0.8956377
vt 0.1666667 1.0000000
v 0.8539387 0.3286837 0.8818718
vt 0.1666667 0.0000000
v 0.9435044 0.4144400 0.8105340
vt 0.1250000 0.0000000
f 537/537 538/538 539/539 540/540
usemtl inner
v 0.9145899 0.4194539 0.7896818
vt 0.1250000 0.0000000
v 0.8309082 0.3393313 0.8563332
vt 0.1666667 0.0000000
v 0.8241842 0.3578053 0.8700990
vt 0.1666667 1.0000000
v 0.9078659 0.4379279 0.8034476
vt 0.1250000 1.0000000
f 541/541 542/542 543/543 544/544
usemtl steel
v 0.8241842 0.3578053 0.8700990
vt 0.1666667 0.0000000
v 0.7181807 0.2880025 0.9119979
vt 0.2083333 0.0000000
v 0.7337579 0.2724469 0.9404825
vt 0.2083333 1.0000000
v 0.8472147 0.3471577 0.8956377
vt 0.1666667 1.0000000
f 545/545 546/546 547/547 548/548
usemtl steel
v 0.8539387 0.3286837 0.8818718
vt 0.1666667 1.0000000
v 0.7404819 0.2539729 0.9267167
vt 0.2083333 1.0000000
v 0.7249047 0.2695284 0.8982320
vt 0.2083333 0.0000000
v 0.8309082 0.3393313 0.8563332
vt 0.1666667 0.0000000
f 549/549 550/550 551/551 552/552
usemtl steel
v 0.8472147 0.3471577 0.8956377
vt 0.1666667 1.0000000
v 0.7337579 0.2724469 0.9404825
vt 0.2083333 1.0000000
v 0.7404819 0.2539729 0.9267167
vt 0.2083333 0.0000000
v 0.8539387 0.3286837 0.8818718
vt 0.1666667 0.0000000
f 553/553 554/554 555/555 556/556
usemtl inner
v 0.8309082 0.3393313 0.8563332
vt 0.1666667 0.0000000
v 0.7249047 0.2695284 0.8982320
vt 0.2083333 0.0000000
v 0.7181807 0.2880025 0.9119979
vt 0.2083333 1.0000000
v 0.8241842 0.3578053 0.8700990
vt 0.1666667 1.0000000
f 557/557 558/558 559/559 560/560
usemtl steel
v 0.7181807 0.2880025 0.9119979
vt 0.2083333 0.0000000
v 0.5970794 0.2332764 0.9262888
vt 0.2500000 0.0000000
v 0.6041417 0.2138729 0.9557782
vt 0.2500000 1.0000000
v 0.7337579 0.2724469 0.9404825
vt 0.2083333 1.0000000
f 561/561 562/562 563/563 564/564
usemtl steel
v 0.7404819 0.2539729 0.9267167
vt 0.2083333 1.0000000
v 0.6108657 0.1953989 0.9420124
vt 0.2500000 1.0000000
v 0.6038034 0.2148024 0.9125229
vt 0.2500000 0.0000000
v 0.7249047 0.2695284 0.8982320
vt 0.2083333 0.0000000
f 565/565 566/566 567/567 568/568
usemtl steel
v 0.7337579 0.2724469 0.9404825
vt 0.2083333 1.0000000
v 0.6041417 0.2138729 0.9557782
vt 0.2500000 1.0000000
v 0.6108657 0.1953989 0.9420124
vt 0.2500000 0.0000000
v 0.7404819 0.2539729 0.9267167
vt 0.2083333 0.0000000
f 569/569 570/570 571/571 572/572
usemtl inner
v 0.7249047 0.2695284 0.8982320
vt 0.2083333 0.0000000
v 0.6038034 0.2148024 0.9125229
vt 0.2500000 0.0000000
v 0.5970794 0.2332764 0.9262888
vt 0.2500000 1.0000000
v 0.7181807 0.2880025 0.9119979
vt 0.2083333 1.0000000
f 573/573 574/574 575/575 576/576
usemtl steel
v 0.5970794 0.2332764 0.9262888
vt 0.2500000 0.0000000
v 0.4691333 0.1973566 0.9119979
vt 0.2916667 0.0000000
v 0.4671994 0.1754275 0.9404825
vt 0.2916667 1.0000000
v 0.6041417 0.2138729 0.9557782
vt 0.2500000 1.0000000
f 577/577 578/578 579/579 580/580
usemtl steel
v 0.6108657 0.1953989 0.9420124
vt 0.2500000 1.0000000
v 0.4739234 0.1569535 0.9267167
vt 0.2916667 1.0000000
v 0.4758573 0.1788826 0.8982320
vt 0.2916667 0.0000000
v 0.6038034 0.2148024 0.9125229
vt 0.2500000 0.0000000
f 581/581 582/582 583/583 584/584
usemtl steel
v 0.6041417 0.2138729 0.9557782
vt 0.2500000 1.0000000
v 0.4671994 0.1754275 0.9404825
vt 0.2916667 1.0000000
v 0.4739234 0.1569535 0.9267167
vt 0.2916667 0.0000000
v 0.6108657 0.1953989 0.9420124
vt 0.2500000 0.0000000
f 585/585 586/586 587/587 588/588
usemtl inner
v 0.6038034 0.2148024 0.9125229
vt 0.2500000 0.0000000
v 0.4758573 0.1788826 0.8982320
vt 0.2916667 0.0000000
v 0.4691333 0.1973566 0.9119979
vt 0.2916667 1.0000000
v 0.5970794 0.2332764 0.9262888
vt 0.2500000 1.0000000
f 589/589 590/590 591/591 592/592
usemtl steel
v 0.4691333 0.1973566 0.9119979
vt 0.2916667 0.0000000
v 0.3430615 0.1826910 0.8700990
vt 0.3333333 0.0000000
v 0.3322632 0.1597307 0.8956377
vt 0.3333333 1.0000000
v 0.4671994 0.1754275 0.9404825
vt 0.2916667 1.0000000
f 593/593 594/594 595/595 596/596
usemtl steel
v 0.4739234 0.1569535 0.9267167
vt 0.2916667 1.0000000
v 0.3389872 0.1412567 0.8818718
vt 0.3333333 1.0000000
v 0.3497855 0.1642169 0.8563332
vt 0.3333333 0.0000000
v 0.4758573 0.1788826 0.8982320
vt 0.2916667 0.0000000
f 597/597 598/598 599/599 600/600
usemtl steel
v 0.4671994 0.1754275 0.9404825
vt 0.2916667 1.0000000
v 0.3322632 0.1597307 0.8956377
vt 0.3333333 1.0000000
v 0.3389872 0.1412567 0.8818718
vt 0.3333333 0.0000000
v 0.4739234 0.1569535 0.9267167
vt 0.2916667 0.0000000
f 601/601 602/602 603/603 604/604
usemtl inner
v 0.4758573 0.1788826 0.8982320
vt 0.2916667 0.0000000
v 0.3497855 0.1642169 0.8563332
vt 0.3333333 0.0000000
v 0.3430615 0.1826910 0.8700990
vt 0.3333333 1.0000000
v 0.4691333 0.1973566 0.9119979
vt 0.2916667 1.0000000
f 605/605 606/606 607/607 608/608
usemtl steel
v 0.3430615 0.1826910 0.8700990
vt 0.3333333 0.0000000
v 0.2274558 0.1902789 0.8034476
vt 0.3750000 0.0000000
v 0.2085289 0.1678521 0.8242998
vt 0.3750000 1.0000000
v 0.3322632 0.1597307 0.8956377
vt 0.3333333 1.0000000
f 609/609 610/610 611/611 612/612
usemtl steel
v 0.3389872 0.1412567 0.8818718
vt 0.3333333 1.0000000
v 0.2152529 0.1493781 0.8105340
vt 0.3750000 1.0000000
v 0.2341798 0.1718049 0.7896818
vt 0.3750000 0.0000000
v 0.3497855 0.1642169 0.8563332
vt 0.3333333 0.0000000
f 613/613 614/614 615/615 616/616
usemtl steel
v 0.3322632 0.1597307 0.8956377
vt 0.3333333 1.0000000
v 0.2085289 0.1678521 0.8242998
vt 0.3750000 1.0000000
v 0.2152529 0.1493781 0.8105340
vt 0.3750000 0.0000000
v 0.3389872 0.1412567 0.8818718
vt 0.3333333 0.0000000
f 617/617 618/618 619/619 620/620
usemtl inner
v 0.3497855 0.1642169 0.8563332
vt 0.3333333 0.0000000
v 0.2341798 0.1718049 0.7896818
vt 0.3750000 0.0000000
v 0.2274558 0.1902789 0.8034476
vt 0.3750000 1.0000000
v 0.3430615 0.1826910 0.8700990
vt 0.3333333 1.0000000
f 621/621 622/622 623/623 624/624
usemtl steel
v 0.2274558 0.1902789 0.8034476
vt 0.3750000 0.0000000
v 0.1301943 0.2196033 0.7165858
vt 0.4166667 0.0000000
v 0.1044287 0.1992384 0.7313306
vt 0.4166667 1.0000000
v 0.2085289 0.1678521 0.8242998
vt 0.3750000 1.0000000
f 625/625 626/626 627/627 628/628
usemtl steel
v 0.2152529 0.1493781 0.8105340
vt 0.3750000 1.0000000
v 0.1111527 0.1807644 0.7175647
vt 0.4166667 1.0000000
v 0.1369183 0.2011292 0.7028200
vt 0.4166667 0.0000000
v 0.2341798 0.1718049 0.7896818
vt 0.3750000 0.0000000
f 629/629 630/630 631/631 632/632
usemtl steel
v 0.2085289 0.1678521 0.8242998
vt 0.3750000 1.0000000
v 0.1044287 0.1992384 0.7313306
vt 0.4166667 1.0000000
v 0.1111527 0.1807644 0.7175647
vt 0.4166667 0.0000000
v 0.2152529 0.1493781 0.8105340
vt 0.3750000 0.0000000
f 633/633 634/634 635/635 636/636
usemtl inner
v 0.2341798 0.1718049 0.7896818
vt 0.3750000 0.0000000
v 0.1369183 0.2011292 0.7028200
vt 0.4166667 0.0000000
v 0.1301943 0.2196033 0.7165858
vt 0.4166667 1.0000000
v 0.2274558 0.1902789 0.8034476
vt 0.3750000 1.0000000
f 637/637 638/638 639/639 640/640
usemtl steel
v 0.1301943 0.2196033 0.7165858
vt 0.4166667 0.0000000
v 0.0579054 0.2686657 0.6154331
vt 0.4583333 0.0000000
v 0.0270570 0.2517505 0.6230656
vt 0.4583333 1.0000000
v 0.1044287 0.1992384 0.7313306
vt 0.4166667 1.0000000
f 641/641 642/642 643/643 644/644
usemtl steel
v 0.1111527 0.1807644 0.7175647
vt 0.4166667 1.0000000
v 0.0337810 0.2332765 0.6092997
vt 0.4583333 1.0000000
v 0.0646294 0.2501917 0.6016673
vt 0.4583333 0.0000000
v 0.1369183 0.2011292 0.7028200
vt 0.4166667 0.0000000
f 645/645 646/646 647/647 648/648
usemtl steel
v 0.1044287 0.1992384 0.7313306
vt 0.4166667 1.0000000
v 0.0270570 0.2517505 0.6230656
vt 0.4583333 1.0000000
v 0.0337810 0.2332765 0.6092997
vt 0.4583333 0.0000000
v 0.1111527 0.1807644 0.7175647
vt 0.4166667 0.0000000
f 649/649 650/650 651/651 652/652
usemtl inner
v 0.1369183 0.2011292 0.7028200
vt 0.4166667 0.0000000
v 0.0646294 0.2501917 0.6016673
vt 0.4583333 0.0000000
v 0.0579054 0.2686657 0.6154331
vt 0.4583333 1.0000000
v 0.1301943 0.2196033 0.7165858
vt 0.4166667 1.0000000
f 653/653 654/654 655/655 656/656
usemtl steel
v 0.0579054 0.2686657 0.6154331
vt 0.4583333 0.0000000
v 0.0155154 0.3341227 0.5068829
vt 0.5000000 0.0000000
v -0.0183136 0.3218100 0.5068829
vt 0.5000000 1.0000000
v 0.0270570 0.2517505 0.6230656
vt 0.4583333 1.0000000
f 657/657 658/658 659/659 660/660
usemtl steel
v 0.0337810 0.2332765 0.6092997
vt 0.4583333 1.0000000
v -0.0115896 0.3033359 0.4931171
vt 0.5000000 1.0000000
v 0.0222394 0.3156487 0.4931171
vt 0.5000000 0.0000000
v 0.0646294 0.2501917 0.6016673
vt 0.4583333 0.0000000
f 661/661 662/662 663/663 664/664
usemtl steel
v 0.0270570 0.2517505 0.6230656
vt 0.4583333 1.0000000
v -0.0183136 0.3218100 0.5068829
vt 0.5000000 1.0000000
v -0.0115896 0.3033359 0.4931171
vt 0.5000000 0.0000000
v 0.0337810 0.2332765 0.6092997
vt 0.4583333 0.0000000
f 665/665 666/666 667/667 668/668
usemtl inner
v 0.0646294 0.2501917 0.6016673
vt 0.4583333 0.0000000
v 0.0222394 0.3156487 0.4931171
vt 0.5000000 0.0000000
v 0.0155154 0.3341227 0.5068829
vt 0.5000000 1.0000000
v 0.0579054 0.2686657 0.6154331
vt 0.4583333 1.0000000
f 669/669 670/670 671/671 672/672
usemtl steel
v 0.0155154 0.3341227 0.5068829
vt 0.5000000 0.0000000
v 0.0059131 0.4115134 0.3983327
vt 0.5416667 0.0000000
v -0.0285910 0.4046422 0.3907003
vt 0.5416667 1.0000000
v -0.0183136 0.3218100 0.5068829
vt 0.5000000 1.0000000
f 673/673 674/674 675/675 676/676
usemtl steel
v -0.0115896 0.3033359 0.4931171
vt 0.5000000 1.0000000
v -0.0218670 0.3861682 0.3769344
vt 0.5416667 1.0000000
v 0.0126371 0.3930394 0.3845669
vt 0.5416667 0.0000000
v 0.0222394 0.3156487 0.4931171
vt 0.5000000 0.0000000
f 677/677 678/678 679/679 680/680
usemtl steel
v -0.0183136 0.3218100 0.5068829
vt 0.5000000 1.0000000
v -0.0285910 0.4046422 0.3907003
vt 0.5416667 1.0000000
v -0.0218670 0.3861682 0.3769344
vt 0.5416667 0.0000000
v -0.0115896 0.3033359 0.4931171
vt 0.5000000 0.0000000
f 681/681 682/682 683/683 684/684
usemtl inner
v 0.0222394 0.3156487 0.4931171
vt 0.5000000 0.0000000
v 0.0126371 0.3930394 0.3845669
vt 0.5416667 0.0000000
v 0.0059131 0.4115134 0.3983327
vt 0.5416667 1.0000000
v 0.0155154 0.3341227 0.5068829
vt 0.5000000 1.0000000
f 685/685 686/686 687/687 688/688
usemtl steel
v 0.0059131 0.4115134 0.3983327
vt 0.5416667 0.0000000
v 0.0297529 0.4955639 0.2971800
vt 0.5833333 0.0000000
v -0.0030750 0.4946025 0.2824353
vt 0.5833333 1.0000000
v -0.0285910 0.4046422 0.3907003
vt 0.5416667 1.0000000
f 689/689 690/690 691/691 692/692
usemtl steel
v -0.0218670 0.3861682 0.3769344
vt 0.5416667 1.0000000
v 0.0036490 0.4761284 0.2686694
vt 0.5833333 1.0000000
v 0.0364769 0.4770898 0.2834142
vt 0.5833333 0.0000000
v 0.0126371 0.3930394 0.3845669
vt 0.5416667 0.0000000
f 693/693 694/694 695/695 696/696
usemtl steel
v -0.0285910 0.4046422 0.3907003
vt 0.5416667 1.0000000
v -0.0030750 0.4946025 0.2824353
vt 0.5833333 1.0000000
v 0.0036490 0.4761284 0.2686694
vt 0.5833333 0.0000000
v -0.0218670 0.3861682 0.3769344
vt 0.5416667 0.0000000
f 697/697 698/698 699/699 700/700
usemtl inner
v 0.0126371 0.3930394 0.3845669
vt 0.5416667 0.0000000
v 0.0364769 0.4770898 0.2834142
vt 0.5833333 0.0000000
v 0.0297529 0.4955639 0.2971800
vt 0.5833333 1.0000000
v 0.0059131 0.4115134 0.3983327
vt 0.5416667 1.0000000
f 701/701 702/702 703/703 704/704
usemtl steel
v 0.0297529 0.4955639 0.2971800
vt 0.5833333 0.0000000
v 0.0854101 0.5805461 0.2103182
vt 0.6250000 0.0000000
v 0.0564956 0.5855600 0.1894660
vt 0.6250000 1.0000000
v -0.0030750 0.4946025 0.2824353
vt 0.5833333 1.0000000
f 705/705 706/706 707/707 708/708
usemtl steel
v 0.0036490 0.4761284 0.2686694
vt 0.5833333 1.0000000
v 0.0632196 0.5670860 0.1757002
vt 0.6250000 1.0000000
v 0.0921341 0.5620721 0.1965524
vt 0.6250000 0.0000000
v 0.0364769 0.4770898 0.2834142
vt 0.5833333 0.0000000
f 709/709 710/710 711/711 712/712
usemtl steel
v -0.0030750 0.4946025 0.2824353
vt 0.5833333 1.0000000
v 0.0564956 0.5855600 0.1894660
vt 0.6250000 1.0000000
v 0.0632196 0.5670860 0.1757002
vt 0.6250000 0.0000000
v 0.0036490 0.4761284 0.2686694
vt 0.5833333 0.0000000
f 713/713 714/714 715/715 716/716
usemtl inner
v 0.0364769 0.4770898 0.2834142
vt 0.5833333 0.0000000
v 0.0921341 0.5620721 0.1965524
vt 0.6250000 0.0000000
v 0.0854101 0.5805461 0.2103182
vt 0.6250000 1.0000000
v 0.0297529 0.4955639 0.2971800
vt 0.5833333 1.0000000
f 717/717 718/718 719/719 720/720
usemtl steel
v 0.0854101 0.5805461 0.2103182
vt 0.6250000 0.0000000
v 0.1690918 0.6606687 0.1436668
vt 0.6666667 0.0000000
v 0.1460613 0.6713163 0.1181282
vt 0.6666667 1.0000000
v 0.0564956 0.5855600 0.1894660
vt 0.6250000 1.0000000
f 721/721 722/722 723/723 724/724
usemtl steel
v 0.0632196 0.5670860 0.1757002
vt 0.6250000 1.0000000
v 0.1527853 0.6528423 0.1043623
vt 0.6666667 1.0000000
v 0.1758158 0.6421947 0.1299010
vt 0.6666667 0.0000000
v 0.0921341 0.5620721 0.1965524
vt 0.6250000 0.0000000
f 725/725 726/726 727/727 728/728
usemtl steel
v 0.0564956 0.5855600 0.1894660
vt 0.6250000 1.0000000
v 0.1460613 0.6713163 0.1181282
vt 0.6666667 1.0000000
v 0.1527853 0.6528423 0.1043623
vt 0.6666667 0.0000000
v 0.0632196 0.5670860 0.1757002
vt 0.6250000 0.0000000
f 729/729 730/730 731/731 732/732
usemtl inner
v 0.0921341 0.5620721 0.1965524
vt 0.6250000 0.0000000
v 0.1758158 0.6421947 0.1299010
vt 0.6666667 0.0000000
v 0.1690918 0.6606687 0.1436668
vt 0.6666667 1.0000000
v 0.0854101 0.5805461 0.2103182
vt 0.6250000 1.0000000
f 733/733 734/734 735/735 736/736
usemtl steel
v 0.1690918 0.6606687 0.1436668
vt 0.6666667 0.0000000
v 0.2750953 0.7304716 0.1017680
vt 0.7083333 0.0000000
v 0.2595181 0.7460271 0.0732833
vt 0.7083333 1.0000000
v 0.1460613 0.6713163 0.1181282
vt 0.6666667 1.0000000
f 737/737 738/738 739/739 740/740
usemtl steel
v 0.1527853 0.6528423 0.1043623
vt 0.6666667 1.0000000
v 0.2662421 0.7275531 0.0595175
vt 0.7083333 1.0000000
v 0.2818193 0.7119975 0.0880021
vt 0.7083333 0.0000000
v 0.1758158 0.6421947 0.1299010
vt 0.6666667 0.0000000
f 741/741 742/742 743/743 744/744
usemtl steel
v 0.1460613 0.6713163 0.1181282
vt 0.6666667 1.0000000
v 0.2595181 0.7460271 0.0732833
vt 0.7083333 1.0000000
v 0.2662421 0.7275531 0.0595175
vt 0.7083333 0.0000000
v 0.1527853 0.6528423 0.1043623
vt 0.6666667 0.0000000
f 745/745 746/746 747/747 748/748
usemtl inner
v 0.1758158 0.6421947 0.1299010
vt 0.6666667 0.0000000
v 0.2818193 0.7119975 0.0880021
vt 0.7083333 0.0000000
v 0.2750953 0.7304716 0.1017680
vt 0.7083333 1.0000000
v 0.1690918 0.6606687 0.1436668
vt 0.6666667 1.0000000
f 749/749 750/750 751/751 752/752
usemtl steel
v 0.2750953 0.7304716 0.1017680
vt 0.7083333 0.0000000
v 0.3961966 0.7851976 0.0874771
vt 0.7500000 0.0000000
v 0.3891343 0.8046011 0.0579876
vt 0.7500000 1.0000000
v 0.2595181 0.7460271 0.0732833
vt 0.7083333 1.0000000
f 753/753 754/754 755/755 756/756
usemtl steel
v 0.2662421 0.7275531 0.0595175
vt 0.7083333 1.0000000
v 0.3958583 0.7861271 0.0442218
vt 0.7500000 1.0000000
v 0.4029206 0.7667236 0.0737112
vt 0.7500000 0.0000000
v 0.2818193 0.7119975 0.0880021
vt 0.7083333 0.0000000
f 757/757 758/758 759/759 760/760
usemtl steel
v 0.2595181 0.7460271 0.0732833
vt 0.7083333 1.0000000
v 0.3891343 0.8046011 0.0579876
vt 0.7500000 1.0000000
v 0.3958583 0.7861271 0.0442218
vt 0.7500000 0.0000000
v 0.2662421 0.7275531 0.0595175
vt 0.7083333 0.0000000
f 761/761 762/762 763/763 764/764
usemtl inner
v 0.2818193 0.7119975 0.0880021
vt 0.7083333 0.0000000
v 0.4029206 0.7667236 0.0737112
vt 0.7500000 0.0000000
v 0.3961966 0.7851976 0.0874771
vt 0.7500000 1.0000000
v 0.2750953 0.7304716 0.1017680
vt 0.7083333 1.0000000
f 765/765 766/766 767/767 768/768
usemtl steel
v 0.3961966 0.7851976 0.0874771
vt 0.7500000 0.0000000
v 0.5241427 0.8211174 0.1017680
vt 0.7916667 0.0000000
v 0.5260766 0.8430465 0.0732833
vt 0.7916667 1.0000000
v 0.3891343 0.8046011 0.0579876
vt 0.7500000 1.0000000
f 769/769 770/770 771/771 772/772
usemtl steel
v 0.3958583 0.7861271 0.0442218
vt 0.7500000 1.0000000
v 0.5328006 0.8245725 0.0595175
vt 0.7916667 1.0000000
v 0.5308667 0.8026434 0.0880021
vt 0.7916667 0.0000000
v 0.4029206 0.7667236 0.0737112
vt 0.7500000 0.0000000
f 773/773 774/774 775/775 776/776
usemtl steel
v 0.3891343 0.8046011 0.0579876
vt 0.7500000 1.0000000
v 0.5260766 0.8430465 0.0732833
vt 0.7916667 1.0000000
v 0.5328006 0.8245725 0.0595175
vt 0.7916667 0.0000000
v 0.3958583 0.7861271 0.0442218
vt 0.7500000 0.0000000
f 777/777 778/778 779/779 780/780
usemtl inner
v 0.4029206 0.7667236 0.0737112
vt 0.7500000 0.0000000
v 0.5308667 0.8026434 0.0880021
vt 0.7916667 0.0000000
v 0.5241427 0.8211174 0.1017680
vt 0.7916667 1.0000000
v 0.3961966 0.7851976 0.0874771
vt 0.7500000 1.0000000
f 781/781 782/782 783/783 784/784
usemtl steel
v 0.5241427 0.8211174 0.1017680
vt 0.7916667 0.0000000
v 0.6502145 0.8357831 0.1436668
vt 0.8333333 0.0000000
v 0.6610128 0.8587433 0.1181282
vt 0.8333333 1.0000000
v 0.5260766 0.8430465 0.0732833
vt 0.7916667 1.0000000
f 785/785 786/786 787/787 788/788
usemtl steel
v 0.5328006 0.8245725 0.0595175
vt 0.7916667 1.0000000
v 0.6677368 0.8402693 0.1043623
vt 0.8333333 1.0000000
v 0.6569385 0.8173090 0.1299010
vt 0.8333333 0.0000000
v 0.5308667 0.8026434 0.0880021
vt 0.7916667 0.0000000
f 789/789 790/790 791/791 792/792
usemtl steel
v 0.5260766 0.8430465 0.0732833
vt 0.7916667 1.0000000
v 0.6610128 0.8587433 0.1181282
vt 0.8333333 1.0000000
v 0.6677368 0.8402693 0.1043623
vt 0.8333333 0.0000000
v 0.5328006 0.8245725 0.0595175
vt 0.7916667 0.0000000
f 793/793 794/794 795/795 796/796
usemtl inner
v 0.5308667 0.8026434 0.0880021
vt 0.7916667 0.0000000
v 0.6569385 0.8173090 0.1299010
vt 0.8333333 0.0000000
v 0.6502145 0.8357831 0.1436668
vt 0.8333333 1.0000000
v 0.5241427 0.8211174 0.1017680
vt 0.7916667 1.0000000
f 797/797 798/798 799/799 800/800
usemtl steel
v 0.6502145 0.8357831 0.1436668
vt 0.8333333 0.0000000
v 0.7658202 0.8281951 0.2103182
vt 0.8750000 0.0000000
v 0.7847471 0.8506219 0.1894660
vt 0.8750000 1.0000000
v 0.6610128 0.8587433 0.1181282
vt 0.8333333 1.0000000
f 801/801 802/802 803/803 804/804
usemtl steel
v 0.6677368 0.8402693 0.1043623
vt 0.8333333 1.0000000
v 0.7914711 0.8321479 0.1757002
vt 0.8750000 1.0000000
v 0.7725442 0.8097211 0.1965524
vt 0.8750000 0.0000000
v 0.6569385 0.8173090 0.1299010
vt 0.8333333 0.0000000
f 805/805 806/806 807/807 808/808
usemtl steel
v 0.6610128 0.8587433 0.1181282
vt 0.8333333 1.0000000
v 0.7847471 0.8506219 0.1894660
vt 0.8750000 1.0000000
v 0.7914711 0.8321479 0.1757002
vt 0.8750000 0.0000000
v 0.6677368 0.8402693 0.1043623
vt 0.8333333 0.0000000
f 809/809 810/810 811/811 812/812
usemtl inner
v 0.6569385 0.8173090 0.1299010
vt 0.8333333 0.0000000
v 0.7725442 0.8097211 0.1965524
vt 0.8750000 0.0000000
v 0.7658202 0.8281951 0.2103182
vt 0.8750000 1.0000000
v 0.6502145 0.8357831 0.1436668
vt 0.8333333 1.0000000
f 813/813 814/814 815/815 816/816
usemtl steel
v 0.7658202 0.8281951 0.2103182
vt 0.8750000 0.0000000
v 0.8630817 0.7988708 0.2971800
vt 0.9166667 0.0000000
v 0.8888473 0.8192356 0.2824353
vt 0.9166667 1.0000000
v 0.7847471 0.8506219 0.1894660
vt 0.8750000 1.0000000
f 817/817 818/818 819/819 820/820
usemtl steel
v 0.7914711 0.8321479 0.1757002
vt 0.8750000 1.0000000
v 0.8955713 0.8007616 0.2686694
vt 0.9166667 1.0000000
v 0.8698057 0.7803967 0.2834142
vt 0.9166667 0.0000000
v 0.7725442 0.8097211 0.1965524
vt 0.8750000 0.0000000
f 821/821 822/822 823/823 824/824
usemtl steel
v 0.7847471 0.8506219 0.1894660
vt 0.8750000 1.0000000
v 0.8888473 0.8192356 0.2824353
vt 0.9166667 1.0000000
v 0.8955713 0.8007616 0.2686694
vt 0.9166667 0.0000000
v 0.7914711 0.8321479 0.1757002
vt 0.8750000 0.0000000
f 825/825 826/826 827/827 828/828
usemtl inner
v 0.7725442 0.8097211 0.1965524
vt 0.8750000 0.0000000
v 0.8698057 0.7803967 0.2834142
vt 0.9166667 0.0000000
v 0.8630817 0.7988708 0.2971800
vt 0.9166667 1.0000000
v 0.7658202 0.8281951 0.2103182
vt 0.8750000 1.0000000
f 829/829 830/830 831/831 832/832
usemtl steel
v 0.8630817 0.7988708 0.2971800
vt 0.9166667 0.0000000
v 0.9353706 0.7498083 0.3983327
vt 0.9583333 0.0000000
v 0.9662190 0.7667235 0.3907003
vt 0.9583333 1.0000000
v 0.8888473 0.8192356 0.2824353
vt 0.9166667 1.0000000
f 833/833 834/834 835/835 836/836
usemtl steel
v 0.8955713 0.8007616 0.2686694
vt 0.9166667 1.0000000
v 0.9729430 0.7482495 0.3769344
vt 0.9583333 1.0000000
v 0.9420946 0.7313343 0.3845669
vt 0.9583333 0.0000000
v 0.8698057 0.7803967 0.2834142
vt 0.9166667 0.0000000
f 837/837 838/838 839/839 840/840
usemtl steel
v 0.8888473 0.8192356 0.2824353
vt 0.9166667 1.0000000
v 0.9662190 0.7667235 0.3907003
vt 0.9583333 1.0000000
v 0.9729430 0.7482495 0.3769344
vt 0.9583333 0.0000000
v 0.8955713 0.8007616 0.2686694
vt 0.9166667 0.0000000
f 841/841 842/842 843/843 844/844
usemtl inner
v 0.8698057 0.7803967 0.2834142
vt 0.9166667 0.0000000
v 0.9420946 0.7313343 0.3845669
vt 0.9583333 0.0000000
v 0.9353706 0.7498083 0.3983327
vt 0.9583333 1.0000000
v 0.8630817 0.7988708 0.2971800
vt 0.9166667 1.0000000
f 845/845 846/846 847/847 848/848
usemtl steel
v 0.9353706 0.7498083 0.3983327
vt 0.9583333 0.0000000
v 0.9777606 0.6843513 0.5068829
vt 1.0000000 0.0000000
v 1.0115896 0.6966641 0.5068829
vt 1.0000000 1.0000000
v 0.9662190 0.7667235 0.3907003
vt 0.9583333 1.0000000
f 849/849 850/850 851/851 852/852
usemtl steel
v 0.9729430 0.7482495 0.3769344
vt 0.9583333 1.0000000
v 1.0183136 0.6781900 0.4931171
vt 1.0000000 1.0000000
v 0.9844846 0.6658773 0.4931171
vt 1.0000000 0.0000000
v 0.9420946 0.7313343 0.3845669
vt 0.9583333 0.0000000
f 853/853 854/854 855/855 856/856
usemtl steel
v 0.9662190 0.7667235 0.3907003
vt 0.9583333 1.0000000
v 1.0115896 0.6966641 0.5068829
vt 1.0000000 1.0000000
v 1.0183136 0.6781900 0.4931171
vt 1.0000000 0.0000000
v 0.9729430 0.7482495 0.3769344
vt 0.9583333 0.0000000
f 857/857 858/858 859/859 860/860
usemtl inner
v 0.9420946 0.7313343 0.3845669
vt 0.9583333 0.0000000
v 0.9844846 0.6658773 0.4931171
vt 1.0000000 0.0000000
v 0.9777606 0.6843513 0.5068829
vt 1.0000000 1.0000000
v 0.9353706 0.7498083 0.3983327
vt 0.9583333 1.0000000
f 861/861 862/862 863/863 864/864
o ring_1
usemtl steel
v 1.1056368 0.2868909 0.4901702
vt 0.0000000 0.0000000
v 1.1316334 0.4222761 0.5854767
vt 0.0416667 0.0000000
v 1.1669201 0.4175550 0.5908210
vt 0.0416667 1.0000000
v 1.1394657 0.2745782 0.4901702
vt 0.0000000 1.0000000
f 865/865 866/866 867/867 868/868
usemtl steel
v 1.1347575 0.2616425 0.5098298
vt 0.0000000 1.0000000
v 1.1622119 0.4046194 0.6104806
vt 0.0416667 1.0000000
v 1.1269252 0.4093404 0.6051363
vt 0.0416667 0.0000000
v 1.1009286 0.2739552 0.5098298
vt 0.0000000 0.0000000
f 869/869 870/870 871/871 872/872
usemtl steel
v 1.1394657 0.2745782 0.4901702
vt 0.0000000 1.0000000
v 1.1669201 0.4175550 0.5908210
vt 0.0416667 1.0000000
v 1.1622119 0.4046194 0.6104806
vt 0.0416667 0.0000000
v 1.1347575 0.2616425 0.5098298
vt 0.0000000 0.0000000
f 873/873 874/874 875/875 876/876
usemtl inner
v 1.1009286 0.2739552 0.5098298
vt 0.0000000 0.0000000
v 1.1269252 0.4093404 0.6051363
vt 0.0416667 0.0000000
v 1.1316334 0.4222761 0.5854767
vt 0.0416667 1.0000000
v 1.1056368 0.2868909 0.4901702
vt 0.0000000 1.0000000
f 877/877 878/878 879/879 880/880
usemtl steel
v 1.1316334 0.4222761 0.5854767
vt 0.0416667 0.0000000
v 1.1147457 0.5633987 0.6742882
vt 0.0833333 0.0000000
v 1.1490854 0.5665911 0.6846126
vt 0.0833333 1.0000000
v 1.1669201 0.4175550 0.5908210
vt 0.0416667 1.0000000
f 881/881 882/882 883/883 884/884
usemtl steel
v 1.1622119 0.4046194 0.6104806
vt 0.0416667 1.0000000
v 1.1443772 0.5536555 0.7042722
vt 0.0833333 1.0000000
v 1.1100375 0.5504631 0.6939479
vt 0.0833333 0.0000000
v 1.1269252 0.4093404 0.6051363
vt 0.0416667 0.0000000
f 885/885 886/886 887/887 888/888
usemtl steel
v 1.1669201 0.4175550 0.5908210
vt 0.0416667 1.0000000
v 1.1490854 0.5665911 0.6846126
vt 0.0833333 1.0000000
v 1.1443772 0.5536555 0.7042722
vt 0.0833333 0.0000000
v 1.1622119 0.4046194 0.6104806
vt 0.0416667 0.0000000
f 889/889 890/890 891/891 892/892
usemtl inner
v 1.1269252 0.4093404 0.6051363
vt 0.0416667 0.0000000
v 1.1100375 0.5504631 0.6939479
vt 0.0833333 0.0000000
v 1.1147457 0.5633987 0.6742882
vt 0.0833333 1.0000000
v 1.1316334 0.4222761 0.5854767
vt 0.0416667 1.0000000
f 893/893 894/894 895/895 896/896
usemtl steel
v 1.1147457 0.5633987 0.6742882
vt 0.0833333 0.0000000
v 1.0561245 0.7006417 0.7505524
vt 0.1250000 0.0000000
v 1.0871770 0.7115299 0.7651533
vt 0.1250000 1.0000000
v 1.1490854 0.5665911 0.6846126
vt 0.0833333 1.0000000
f 897/897 898/898 899/899 900/900
usemtl steel
v 1.1443772 0.5536555 0.7042722
vt 0.0833333 1.0000000
v 1.0824688 0.6985943 0.7848129
vt 0.1250000 1.0000000
v 1.0514163 0.6877060 0.7702120
vt 0.1250000 0.0000000
v 1.1100375 0.5504631 0.6939479
vt 0.0833333 0.0000000
f 901/901 902/902 903/903 904/904
usemtl steel
v 1.1490854 0.5665911 0.6846126
vt 0.0833333 1.0000000
v 1.0871770 0.7115299 0.7651533
vt 0.1250000 1.0000000
v 1.0824688 0.6985943 0.7848129
vt 0.1250000 0.0000000
v 1.1443772 0.5536555 0.7042722
vt 0.0833333 0.0000000
f 905/905 906/906 907/907 908/908
usemtl inner
v 1.1100375 0.5504631 0.6939479
vt 0.0833333 0.0000000
v 1.0514163 0.6877060 0.7702120
vt 0.1250000 0.0000000
v 1.0561245 0.7006417 0.7505524
vt 0.1250000 1.0000000
v 1.1147457 0.5633987 0.6742882
vt 0.0833333 1.0000000
f 909/909 910/910 911/911 912/912
usemtl steel
v 1.0561245 0.7006417 0.7505524
vt 0.1250000 0.0000000
v 0.9597647 0.8246520 0.8090720
vt 0.1666667 0.0000000
v 0.9854139 0.8424941 0.8269543
vt 0.1666667 1.0000000
v 1.0871770 0.7115299 0.7651533
vt 0.1250000 1.0000000
f 913/913 914/914 915/915 916/916
usemtl steel
v 1.0824688 0.6985943 0.7848129
vt 0.1250000 1.0000000
v 0.9807057 0.8295584 0.8466140
vt 0.1666667 1.0000000
v 0.9550565 0.8117163 0.8287316
vt 0.1666667 0.0000000
v 1.0514163 0.6877060 0.7702120
vt 0.1250000 0.0000000
f 917/917 918/918 919/919 920/920
usemtl steel
v 1.0871770 0.7115299 0.7651533
vt 0.1250000 1.0000000
v 0.9854139 0.8424941 0.8269543
vt 0.1666667 1.0000000
v 0.9807057 0.8295584 0.8466140
vt 0.1666667 0.0000000
v 1.0824688 0.6985943 0.7848129
vt 0.1250000 0.0000000
f 921/921 922/922 923/923 924/924
usemtl inner
v 1.0514163 0.6877060 0.7702120
vt 0.1250000 0.0000000
v 0.9550565 0.8117163 0.8287316
vt 0.1666667 0.0000000
v 0.9597647 0.8246520 0.8090720
vt 0.1666667 1.0000000
v 1.0561245 0.7006417 0.7505524
vt 0.1250000 1.0000000
f 925/925 926/926 927/927 928/928
usemtl steel
v 0.9597647 0.8246520 0.8090720
vt 0.1666667 0.0000000
v 0.8322332 0.9269786 0.8458589
vt 0.2083333 0.0000000
v 0.8507311 0.9505586 0.8658041
vt 0.2083333 1.0000000
v 0.9854139 0.8424941 0.8269543
vt 0.1666667 1.0000000
f 929/929 930/930 931/931 932/932
usemtl steel
v 0.9807057 0.8295584 0.8466140
vt 0.1666667 1.0000000
v 0.8460229 0.9376230 0.8854637
vt 0.2083333 1.0000000
v 0.8275250 0.9140429 0.8655186
vt 0.2083333 0.0000000
v 0.9550565 0.8117163 0.8287316
vt 0.1666667 0.0000000
f 933/933 934/934 935/935 936/936
usemtl steel
v 0.9854139 0.8424941 0.8269543
vt 0.1666667 1.0000000
v 0.8507311 0.9505586 0.8658041
vt 0.2083333 1.0000000
v 0.8460229 0.9376230 0.8854637
vt 0.2083333 0.0000000
v 0.9807057 0.8295584 0.8466140
vt 0.1666667 0.0000000
f 937/937 938/938 939/939 940/940
usemtl inner
v 0.9550565 0.8117163 0.8287316
vt 0.1666667 0.0000000
v 0.8275250 0.9140429 0.8655186
vt 0.2083333 0.0000000
v 0.8322332 0.9269786 0.8458589
vt 0.2083333 1.0000000
v 0.9597647 0.8246520 0.8090720
vt 0.1666667 1.0000000
f 941/941 942/942 943/943 944/944
usemtl steel
v 0.8322332 0.9269786 0.8458589
vt 0.2083333 0.0000000
v 0.6822210 1.0006481 0.8584062
vt 0.2500000 0.0000000
v 0.6923070 1.0283591 0.8790550
vt 0.2500000 1.0000000
v 0.8507311 0.9505586 0.8658041
vt 0.2083333 1.0000000
f 945/945 946/946 947/947 948/948
usemtl steel
v 0.8460229 0.9376230 0.8854637
vt 0.2083333 1.0000000
v 0.6875988 1.0154234 0.8987146
vt 0.2500000 1.0000000
v 0.6775128 0.9877124 0.8780659
vt 0.2500000 0.0000000
v 0.8275250 0.9140429 0.8655186
vt 0.2083333 0.0000000
f 949/949 950/950 951/951 952/952
usemtl steel
v 0.8507311 0.9505586 0.8658041
vt 0.2083333 1.0000000
v 0.6923070 1.0283591 0.8790550
vt 0.2500000 1.0000000
v 0.6875988 1.0154234 0.8987146
vt 0.2500000 0.0000000
v 0.8460229 0.9376230 0.8854637
vt 0.2083333 0.0000000
f 953/953 954/954 955/955 956/956
usemtl inner
v 0.8275250 0.9140429 0.8655186
vt 0.2083333 0.0000000
v 0.6775128 0.9877124 0.8780659
vt 0.2500000 0.0000000
v 0.6822210 1.0006481 0.8584062
vt 0.2500000 1.0000000
v 0.8322332 0.9269786 0.8458589
vt 0.2083333 1.0000000
f 957/957 958/958 959/959 960/960
usemtl steel
v 0.6822210 1.0006481 0.8584062
vt 0.2500000 0.0000000
v 0.5199511 1.0406400 0.8458589
vt 0.2916667 0.0000000
v 0.5209379 1.0705935 0.8658041
vt 0.2916667 1.0000000
v 0.6923070 1.0283591 0.8790550
vt 0.2500000 1.0000000
f 961/961 962/962 963/963 964/964
usemtl steel
v 0.6875988 1.0154234 0.8987146
vt 0.2500000 1.0000000
v 0.5162297 1.0576579 0.8854637
vt 0.2916667 1.0000000
v 0.5152429 1.0277043 0.8655186
vt 0.2916667 0.0000000
v 0.6775128 0.9877124 0.8780659
vt 0.2500000 0.0000000
f 965/965 966/966 967/967 968/968
usemtl steel
v 0.6923070 1.0283591 0.8790550
vt 0.2500000 1.0000000
v 0.5209379 1.0705935 0.8658041
vt 0.2916667 1.0000000
v 0.5162297 1.0576579 0.8854637
vt 0.2916667 0.0000000
v 0.6875988 1.0154234 0.8987146
vt 0.2500000 0.0000000
f 969/969 970/970 971/971 972/972
usemtl inner
v 0.6775128 0.9877124 0.8780659
vt 0.2500000 0.0000000
v 0.5152429 1.0277043 0.8655186
vt 0.2916667 0.0000000
v 0.5199511 1.0406400 0.8458589
vt 0.2916667 1.0000000
v 0.6822210 1.0006481 0.8584062
vt 0.2500000 1.0000000
f 973/973 974/974 975/975 976/976
usemtl steel
v 0.5199511 1.0406400 0.8458589
vt 0.2916667 0.0000000
v 0.3564821 1.0442289 0.8090720
vt 0.3333333 0.0000000
v 0.3483023 1.0743838 0.8269543
vt 0.3333333 1.0000000
v 0.5209379 1.0705935 0.8658041
vt 0.2916667 1.0000000
f 977/977 978/978 979/979 980/980
usemtl steel
v 0.5162297 1.0576579 0.8854637
vt 0.2916667 1.0000000
v 0.3435941 1.0614481 0.8466140
vt 0.3333333 1.0000000
v 0.3517739 1.0312933 0.8287316
vt 0.3333333 0.0000000
v 0.5152429 1.0277043 0.8655186
vt 0.2916667 0.0000000
f 981/981 982/982 983/983 984/984
usemtl steel
v 0.5209379 1.0705935 0.8658041
vt 0.2916667 1.0000000
v 0.3483023 1.0743838 0.8269543
vt 0.3333333 1.0000000
v 0.3435941 1.0614481 0.8466140
vt 0.3333333 0.0000000
v 0.5162297 1.0576579 0.8854637
vt 0.2916667 0.0000000
f 985/985 986/986 987/987 988/988
usemtl inner
v 0.5152429 1.0277043 0.8655186
vt 0.2916667 0.0000000
v 0.3517739 1.0312933 0.8287316
vt 0.3333333 0.0000000
v 0.3564821 1.0442289 0.8090720
vt 0.3333333 1.0000000
v 0.5199511 1.0406400 0.8458589
vt 0.2916667 1.0000000
f 989/989 990/990 991/991 992/992
usemtl steel
v 0.3564821 1.0442289 0.8090720
vt 0.3333333 0.0000000
v 0.2029539 1.0111704 0.7505524
vt 0.3750000 0.0000000
v 0.1861651 1.0394714 0.7651533
vt 0.3750000 1.0000000
v 0.3483023 1.0743838 0.8269543
vt 0.3333333 1.0000000
f 993/993 994/994 995/995 996/996
usemtl steel
v 0.3435941 1.0614481 0.8466140
vt 0.3333333 1.0000000
v 0.1814569 1.0265358 0.7848129
vt 0.3750000 1.0000000
v 0.1982457 0.9982347 0.7702120
vt 0.3750000 0.0000000
v 0.3517739 1.0312933 0.8287316
vt 0.3333333 0.0000000
f 997/997 998/998 999/999 1000/1000
usemtl steel
v 0.3483023 1.0743838 0.8269543
vt 0.3333333 1.0000000
v 0.1861651 1.0394714 0.7651533
vt 0.3750000 1.0000000
v 0.1814569 1.0265358 0.7848129
vt 0.3750000 0.0000000
v 0.3435941 1.0614481 0.8466140
vt 0.3333333 0.0000000
f 1001/1001 1002/1002 1003/1003 1004/1004
usemtl inner
v 0.3517739 1.0312933 0.8287316
vt 0.3333333 0.0000000
v 0.1982457 0.9982347 0.7702120
vt 0.3750000 0.0000000
v 0.2029539 1.0111704 0.7505524
vt 0.3750000 1.0000000
v 0.3564821 1.0442289 0.8090720
vt 0.3333333 1.0000000
f 1005/1005 1006/1006 1007/1007 1008/1008
usemtl steel
v 0.2029539 1.0111704 0.7505524
vt 0.3750000 0.0000000
v 0.0698294 0.9437171 0.6742882
vt 0.4166667 0.0000000
v 0.0455757 0.9682358 0.6846126
vt 0.4166667 1.0000000
v 0.1861651 1.0394714 0.7651533
vt 0.3750000 1.0000000
f 1009/1009 1010/1010 1011/1011 1012/1012
usemtl steel
v 0.1814569 1.0265358 0.7848129
vt 0.3750000 1.0000000
v 0.0408675 0.9553001 0.7042722
vt 0.4166667 1.0000000
v 0.0651212 0.9307815 0.6939479
vt 0.4166667 0.0000000
v 0.1982457 0.9982347 0.7702120
vt 0.3750000 0.0000000
f 1013/1013 1014/1014 1015/1015 1016/1016
usemtl steel
v 0.1861651 1.0394714 0.7651533
vt 0.3750000 1.0000000
v 0.0455757 0.9682358 0.6846126
vt 0.4166667 1.0000000
v 0.0408675 0.9553001 0.7042722
vt 0.4166667 0.0000000
v 0.1814569 1.0265358 0.7848129
vt 0.3750000 0.0000000
f 1017/1017 1018/1018 1019/1019 1020/1020
usemtl inner
v 0.1982457 0.9982347 0.7702120
vt 0.3750000 0.0000000
v 0.0651212 0.9307815 0.6939479
vt 0.4166667 0.0000000
v 0.0698294 0.9437171 0.6742882
vt 0.4166667 1.0000000
v 0.2029539 1.0111704 0.7505524
vt 0.3750000 1.0000000
f 1021/1021 1022/1022 1023/1023 1024/1024
usemtl steel
v 0.0698294 0.9437171 0.6742882
vt 0.4166667 0.0000000
v -0.0338192 0.8464661 0.5854767
vt 0.4583333 0.0000000
v -0.0638850 0.8655314 0.5908210
vt 0.4583333 1.0000000
v 0.0455757 0.9682358 0.6846126
vt 0.4166667 1.0000000
f 1025/1025 1026/1026 1027/1027 1028/1028
usemtl steel
v 0.0408675 0.9553001 0.7042722
vt 0.4166667 1.0000000
v -0.0685932 0.8525958 0.6104806
vt 0.4583333 1.0000000
v -0.0385274 0.8335305 0.6051363
vt 0.4583333 0.0000000
v 0.0651212 0.9307815 0.6939479
vt 0.4166667 0.0000000
f 1029/1029 1030/1030 1031/1031 1032/1032
usemtl steel
v 0.0455757 0.9682358 0.6846126
vt 0.4166667 1.0000000
v -0.0638850 0.8655314 0.5908210
vt 0.4583333 1.0000000
v -0.0685932 0.8525958 0.6104806
vt 0.4583333 0.0000000
v 0.0408675 0.9553001 0.7042722
vt 0.4166667 0.0000000
f 1033/1033 1034/1034 1035/1035 1036/1036
usemtl inner
v 0.0651212 0.9307815 0.6939479
vt 0.4166667 0.0000000
v -0.0385274 0.8335305 0.6051363
vt 0.4583333 0.0000000
v -0.0338192 0.8464661 0.5854767
vt 0.4583333 1.0000000
v 0.0698294 0.9437171 0.6742882
vt 0.4166667 1.0000000
f 1037/1037 1038/1038 1039/1039 1040/1040
usemtl steel
v -0.0338192 0.8464661 0.5854767
vt 0.4583333 0.0000000
v -0.1009286 0.7260448 0.4901702
vt 0.5000000 0.0000000
v -0.1347575 0.7383575 0.4901702
vt 0.5000000 1.0000000
v -0.0638850 0.8655314 0.5908210
vt 0.4583333 1.0000000
f 1041/1041 1042/1042 1043/1043 1044/1044
usemtl steel
v -0.0685932 0.8525958 0.6104806
vt 0.4583333 1.0000000
v -0.1394657 0.7254218 0.5098298
vt 0.5000000 1.0000000
v -0.1056368 0.7131091 0.5098298
vt 0.5000000 0.0000000
v -0.0385274 0.8335305 0.6051363
vt 0.4583333 0.0000000
f 1045/1045 1046/1046 1047/1047 1048/1048
usemtl steel
v -0.0638850 0.8655314 0.5908210
vt 0.4583333 1.0000000
v -0.1347575 0.7383575 0.4901702
vt 0.5000000 1.0000000
v -0.1394657 0.7254218 0.5098298
vt 0.5000000 0.0000000
v -0.0685932 0.8525958 0.6104806
vt 0.4583333 0.0000000
f 1049/1049 1050/1050 1051/1051 1052/1052
usemtl inner
v -0.0385274 0.8335305 0.6051363
vt 0.4583333 0.0000000
v -0.1056368 0.7131091 0.5098298
vt 0.5000000 0.0000000
v -0.1009286 0.7260448 0.4901702
vt 0.5000000 1.0000000
v -0.0338192 0.8464661 0.5854767
vt 0.4583333 1.0000000
f 1053/1053 1054/1054 1055/1055 1056/1056
usemtl steel
v -0.1009286 0.7260448 0.4901702
vt 0.5000000 0.0000000
v -0.1269252 0.5906596 0.3948637
vt 0.5416667 0.0000000
v -0.1622119 0.5953806 0.3895194
vt 0.5416667 1.0000000
v -0.1347575 0.7383575 0.4901702
vt 0.5000000 1.0000000
f 1057/1057 1058/1058 1059/1059 1060/1060
usemtl steel
v -0.1394657 0.7254218 0.5098298
vt 0.5000000 1.0000000
v -0.1669201 0.5824450 0.4091790
vt 0.5416667 1.0000000
v -0.1316334 0.5777239 0.4145233
vt 0.5416667 0.0000000
v -0.1056368 0.7131091 0.5098298
vt 0.5000000 0.0000000
f 1061/1061 1062/1062 1063/1063 1064/1064
usemtl steel
v -0.1347575 0.7383575 0.4901702
vt 0.5000000 1.0000000
v -0.1622119 0.5953806 0.3895194
vt 0.5416667 1.0000000
v -0.1669201 0.5824450 0.4091790
vt 0.5416667 0.0000000
v -0.1394657 0.7254218 0.5098298
vt 0.5000000 0.0000000
f 1065/1065 1066/1066 1067/1067 1068/1068
usemtl inner
v -0.1056368 0.7131091 0.5098298
vt 0.5000000 0.0000000
v -0.1316334 0.5777239 0.4145233
vt 0.5416667 0.0000000
v -0.1269252 0.5906596 0.3948637
vt 0.5416667 1.0000000
v -0.1009286 0.7260448 0.4901702
vt 0.5000000 1.0000000
f 1069/1069 1070/1070 1071/1071 1072/1072
usemtl steel
v -0.1269252 0.5906596 0.3948637
vt 0.5416667 0.0000000
v -0.1100375 0.4495369 0.3060521
vt 0.5833333 0.0000000
v -0.1443772 0.4463445 0.2957278
vt 0.5833333 1.0000000
v -0.1622119 0.5953806 0.3895194
vt 0.5416667 1.0000000
f 1073/1073 1074/1074 1075/1075 1076/1076
usemtl steel
v -0.1669201 0.5824450 0.4091790
vt 0.5416667 1.0000000
v -0.1490854 0.4334089 0.3153874
vt 0.5833333 1.0000000
v -0.1147457 0.4366013 0.3257118
vt 0.5833333 0.0000000
v -0.1316334 0.5777239 0.4145233
vt 0.5416667 0.0000000
f 1077/1077 1078/1078 1079/1079 1080/1080
usemtl steel
v -0.1622119 0.5953806 0.3895194
vt 0.5416667 1.0000000
v -0.1443772 0.4463445 0.2957278
vt 0.5833333 1.0000000
v -0.1490854 0.4334089 0.3153874
vt 0.5833333 0.0000000
v -0.1669201 0.5824450 0.4091790
vt 0.5416667 0.0000000
f 1081/1081 1082/1082 1083/1083 1084/1084
usemtl inner
v -0.1316334 0.5777239 0.4145233
vt 0.5416667 0.0000000
v -0.1147457 0.4366013 0.3257118
vt 0.5833333 0.0000000
v -0.1100375 0.4495369 0.3060521
vt 0.5833333 1.0000000
v -0.1269252 0.5906596 0.3948637
vt 0.5416667 1.0000000
f 1085/1085 1086/1086 1087/1087 1088/1088
usemtl steel
v -0.1100375 0.4495369 0.3060521
vt 0.5833333 0.0000000
v -0.0514163 0.3122940 0.2297880
vt 0.6250000 0.0000000
v -0.0824688 0.3014057 0.2151871
vt 0.6250000 1.0000000
v -0.1443772 0.4463445 0.2957278
vt 0.5833333 1.0000000
f 1089/1089 1090/1090 1091/1091 1092/1092
usemtl steel
v -0.1490854 0.4334089 0.3153874
vt 0.5833333 1.0000000
v -0.0871770 0.2884701 0.2348467
vt 0.6250000 1.0000000
v -0.0561245 0.2993583 0.2494476
vt 0.6250000 0.0000000
v -0.1147457 0.4366013 0.3257118
vt 0.5833333 0.0000000
f 1093/1093 1094/1094 1095/1095 1096/1096
usemtl steel
v -0.1443772 0.4463445 0.2957278
vt 0.5833333 1.0000000
v -0.0824688 0.3014057 0.2151871
vt 0.6250000 1.0000000
v -0.0871770 0.2884701 0.2348467
vt 0.6250000 0.0000000
v -0.1490854 0.4334089 0.3153874
vt 0.5833333 0.0000000
f 1097/1097 1098/1098 1099/1099 1100/1100
usemtl inner
v -0.1147457 0.4366013 0.3257118
vt 0.5833333 0.0000000
v -0.0561245 0.2993583 0.2494476
vt 0.6250000 0.0000000
v -0.0514163 0.3122940 0.2297880
vt 0.6250000 1.0000000
v -0.1100375 0.4495369 0.3060521
vt 0.5833333 1.0000000
f 1101/1101 1102/1102 1103/1103 1104/1104
usemtl steel
v -0.0514163 0.3122940 0.2297880
vt 0.6250000 0.0000000
v 0.0449435 0.1882837 0.1712684
vt 0.6666667 0.0000000
v 0.0192943 0.1704416 0.1533860
vt 0.6666667 1.0000000
v -0.0824688 0.3014057 0.2151871
vt 0.6250000 1.0000000
f 1105/1105 1106/1106 1107/1107 1108/1108
usemtl steel
v -0.0871770 0.2884701 0.2348467
vt 0.6250000 1.0000000
v 0.0145861 0.1575059 0.1730457
vt 0.6666667 1.0000000
v 0.0402353 0.1753480 0.1909280
vt 0.6666667 0.0000000
v -0.0561245 0.2993583 0.2494476
vt 0.6250000 0.0000000
f 1109/1109 1110/1110 1111/1111 1112/1112
usemtl steel
v -0.0824688 0.3014057 0.2151871
vt 0.6250000 1.0000000
v 0.0192943 0.1704416 0.1533860
vt 0.6666667 1.0000000
v 0.0145861 0.1575059 0.1730457
vt 0.6666667 0.0000000
v -0.0871770 0.2884701 0.2348467
vt 0.6250000 0.0000000
f 1113/1113 1114/1114 1115/1115 1116/1116
usemtl inner
v -0.0561245 0.2993583 0.2494476
vt 0.6250000 0.0000000
v 0.0402353 0.1753480 0.1909280
vt 0.6666667 0.0000000
v 0.0449435 0.1882837 0.1712684
vt 0.6666667 1.0000000
v -0.0514163 0.3122940 0.2297880
vt 0.6250000 1.0000000
f 1117/1117 1118/1118 1119/1119 1120/1120
usemtl steel
v 0.0449435 0.1882837 0.1712684
vt 0.6666667 0.0000000
v 0.1724750 0.0859571 0.1344814
vt 0.7083333 0.0000000
v 0.1539771 0.0623770 0.1145363
vt 0.7083333 1.0000000
v 0.0192943 0.1704416 0.1533860
vt 0.6666667 1.0000000
f 1121/1121 1122/1122 1123/1123 1124/1124
usemtl steel
v 0.0145861 0.1575059 0.1730457
vt 0.6666667 1.0000000
v 0.1492689 0.0494414 0.1341959
vt 0.7083333 1.0000000
v 0.1677668 0.0730214 0.1541411
vt 0.7083333 0.0000000
v 0.0402353 0.1753480 0.1909280
vt 0.6666667 0.0000000
f 1125/1125 1126/1126 1127/1127 1128/1128
usemtl steel
v 0.0192943 0.1704416 0.1533860
vt 0.6666667 1.0000000
v 0.1539771 0.0623770 0.1145363
vt 0.7083333 1.0000000
v 0.1492689 0.0494414 0.1341959
vt 0.7083333 0.0000000
v 0.0145861 0.1575059 0.1730457
vt 0.6666667 0.0000000
f 1129/1129 1130/1130 1131/1131 1132/1132
usemtl inner
v 0.0402353 0.1753480 0.1909280
vt 0.6666667 0.0000000
v 0.1677668 0.0730214 0.1541411
vt 0.7083333 0.0000000
v 0.1724750 0.0859571 0.1344814
vt 0.7083333 1.0000000
v 0.0449435 0.1882837 0.1712684
vt 0.6666667 1.0000000
f 1133/1133 1134/1134 1135/1135 1136/1136
usemtl steel
v 0.1724750 0.0859571 0.1344814
vt 0.7083333 0.0000000
v 0.3224872 0.0122876 0.1219341
vt 0.7500000 0.0000000
v 0.3124012 -0.0154234 0.1012854
vt 0.7500000 1.0000000
v 0.1539771 0.0623770 0.1145363
vt 0.7083333 1.0000000
f 1137/1137 1138/1138 1139/1139 1140/1140
usemtl steel
v 0.1492689 0.0494414 0.1341959
vt 0.7083333 1.0000000
v 0.3076930 -0.0283591 0.1209450
vt 0.7500000 1.0000000
v 0.3177790 -0.0006481 0.1415938
vt 0.7500000 0.0000000
v 0.1677668 0.0730214 0.1541411
vt 0.7083333 0.0000000
f 1141/1141 1142/1142 1143/1143 1144/1144
usemtl steel
v 0.1539771 0.0623770 0.1145363
vt 0.7083333 1.0000000
v 0.3124012 -0.0154234 0.1012854
vt 0.7500000 1.0000000
v 0.3076930 -0.0283591 0.1209450
vt 0.7500000 0.0000000
v 0.1492689 0.0494414 0.1341959
vt 0.7083333 0.0000000
f 1145/1145 1146/1146 1147/1147 1148/1148
usemtl inner
v 0.1677668 0.0730214 0.1541411
vt 0.7083333 0.0000000
v 0.3177790 -0.0006481 0.1415938
vt 0.7500000 0.0000000
v 0.3224872 0.0122876 0.1219341
vt 0.7500000 1.0000000
v 0.1724750 0.0859571 0.1344814
vt 0.7083333 1.0000000
f 1149/1149 1150/1150 1151/1151 1152/1152
usemtl steel
v 0.3224872 0.0122876 0.1219341
vt 0.7500000 0.0000000
v 0.4847571 -0.0277043 0.1344814
vt 0.7916667 0.0000000
v 0.4837703 -0.0576579 0.1145363
vt 0.7916667 1.0000000
v 0.3124012 -0.0154234 0.1012854
vt 0.7500000 1.0000000
f 1153/1153 1154/1154 1155/1155 1156/1156
usemtl steel
v 0.3076930 -0.0283591 0.1209450
vt 0.7500000 1.0000000
v 0.4790621 -0.0705935 0.1341959
vt 0.7916667 1.0000000
v 0.4800489 -0.0406400 0.1541411
vt 0.7916667 0.0000000
v 0.3177790 -0.0006481 0.1415938
vt 0.7500000 0.0000000
f 1157/1157 1158/1158 1159/1159 1160/1160
usemtl steel
v 0.3124012 -0.0154234 0.1012854
vt 0.7500000 1.0000000
v 0.4837703 -0.0576579 0.1145363
vt 0.7916667 1.0000000
v 0.4790621 -0.0705935 0.1341959
vt 0.7916667 0.0000000
v 0.3076930 -0.0283591 0.1209450
vt 0.7500000 0.0000000
f 1161/1161 1162/1162 1163/1163 1164/1164
usemtl inner
v 0.3177790 -0.0006481 0.1415938
vt 0.7500000 0.0000000
v 0.4800489 -0.0406400 0.1541411
vt 0.7916667 0.0000000
v 0.4847571 -0.0277043 0.1344814
vt 0.7916667 1.0000000
v 0.3224872 0.0122876 0.1219341
vt 0.7500000 1.0000000
f 1165/1165 1166/1166 1167/1167 1168/1168
usemtl steel
v 0.4847571 -0.0277043 0.1344814
vt 0.7916667 0.0000000
v 0.6482261 -0.0312933 0.1712684
vt 0.8333333 0.0000000
v 0.6564059 -0.0614481 0.1533860
vt 0.8333333 1.0000000
v 0.4837703 -0.0576579 0.1145363
vt 0.7916667 1.0000000
f 1169/1169 1170/1170 1171/1171 1172/1172
usemtl steel
v 0.4790621 -0.0705935 0.1341959
vt 0.7916667 1.0000000
v 0.6516977 -0.0743838 0.1730457
vt 0.8333333 1.0000000
v 0.6435179 -0.0442289 0.1909280
vt 0.8333333 0.0000000
v 0.4800489 -0.0406400 0.1541411
vt 0.7916667 0.0000000
f 1173/1173 1174/1174 1175/1175 1176/1176
usemtl steel
v 0.4837703 -0.0576579 0.1145363
vt 0.7916667 1.0000000
v 0.6564059 -0.0614481 0.1533860
vt 0.8333333 1.0000000
v 0.6516977 -0.0743838 0.1730457
vt 0.8333333 0.0000000
v 0.4790621 -0.0705935 0.1341959
vt 0.7916667 0.0000000
f 1177/1177 1178/1178 1179/1179 1180/1180
usemtl inner
v 0.4800489 -0.0406400 0.1541411
vt 0.7916667 0.0000000
v 0.6435179 -0.0442289 0.1909280
vt 0.8333333 0.0000000
v 0.6482261 -0.0312933 0.1712684
vt 0.8333333 1.0000000
v 0.4847571 -0.0277043 0.1344814
vt 0.7916667 1.0000000
f 1181/1181 1182/1182 1183/1183 1184/1184
usemtl steel
v 0.6482261 -0.0312933 0.1712684
vt 0.8333333 0.0000000
v 0.8017543 0.0017653 0.2297880
vt 0.8750000 0.0000000
v 0.8185431 -0.0265358 0.2151871
vt 0.8750000 1.0000000
v 0.6564059 -0.0614481 0.1533860
vt 0.8333333 1.0000000
f 1185/1185 1186/1186 1187/1187 1188/1188
usemtl steel
v 0.6516977 -0.0743838 0.1730457
vt 0.8333333 1.0000000
v 0.8138349 -0.0394714 0.2348467
vt 0.8750000 1.0000000
v 0.7970461 -0.0111704 0.2494476
vt 0.8750000 0.0000000
v 0.6435179 -0.0442289 0.1909280
vt 0.8333333 0.0000000
f 1189/1189 1190/1190 1191/1191 1192/1192
usemtl steel
v 0.6564059 -0.0614481 0.1533860
vt 0.8333333 1.0000000
v 0.8185431 -0.0265358 0.2151871
vt 0.8750000 1.0000000
v 0.8138349 -0.0394714 0.2348467
vt 0.8750000 0.0000000
v 0.6516977 -0.0743838 0.1730457
vt 0.8333333 0.0000000
f 1193/1193 1194/1194 1195/1195 1196/1196
usemtl inner
v 0.6435179 -0.0442289 0.1909280
vt 0.8333333 0.0000000
v 0.7970461 -0.0111704 0.2494476
vt 0.8750000 0.0000000
v 0.8017543 0.0017653 0.2297880
vt 0.8750000 1.0000000
v 0.6482261 -0.0312933 0.1712684
vt 0.8333333 1.0000000
f 1197/1197 1198/1198 1199/1199 1200/1200
usemtl steel
v 0.8017543 0.0017653 0.2297880
vt 0.8750000 0.0000000
v 0.9348788 0.0692185 0.3060521
vt 0.9166667 0.0000000
v 0.9591325 0.0446999 0.2957278
vt 0.9166667 1.0000000
v 0.8185431 -0.0265358 0.2151871
vt 0.8750000 1.0000000
f 1201/1201 1202/1202 1203/1203 1204/1204
usemtl steel
v 0.8138349 -0.0394714 0.2348467
vt 0.8750000 1.0000000
v 0.9544243 0.0317642 0.3153874
vt 0.9166667 1.0000000
v 0.9301706 0.0562829 0.3257118
vt 0.9166667 0.0000000
v 0.7970461 -0.0111704 0.2494476
vt 0.8750000 0.0000000
f 1205/1205 1206/1206 1207/1207 1208/1208
usemtl steel
v 0.8185431 -0.0265358 0.2151871
vt 0.8750000 1.0000000
v 0.9591325 0.0446999 0.2957278
vt 0.9166667 1.0000000
v 0.9544243 0.0317642 0.3153874
vt 0.9166667 0.0000000
v 0.8138349 -0.0394714 0.2348467
vt 0.8750000 0.0000000
f 1209/1209 1210/1210 1211/1211 1212/1212
usemtl inner
v 0.7970461 -0.0111704 0.2494476
vt 0.8750000 0.0000000
v 0.9301706 0.0562829 0.3257118
vt 0.9166667 0.0000000
v 0.9348788 0.0692185 0.3060521
vt 0.9166667 1.0000000
v 0.8017543 0.0017653 0.2297880
vt 0.8750000 1.0000000
f 1213/1213 1214/1214 1215/1215 1216/1216
usemtl steel
v 0.9348788 0.0692185 0.3060521
vt 0.9166667 0.0000000
v 1.0385274 0.1664695 0.3948637
vt 0.9583333 0.0000000
v 1.0685932 0.1474042 0.3895194
vt 0.9583333 1.0000000
v 0.9591325 0.0446999 0.2957278
vt 0.9166667 1.0000000
f 1217/1217 1218/1218 1219/1219 1220/1220
usemtl steel
v 0.9544243 0.0317642 0.3153874
vt 0.9166667 1.0000000
v 1.0638850 0.1344686 0.4091790
vt 0.9583333 1.0000000
v 1.0338192 0.1535339 0.4145233
vt 0.9583333 0.0000000
v 0.9301706 0.0562829 0.3257118
vt 0.9166667 0.0000000
f 1221/1221 1222/1222 1223/1223 1224/1224
usemtl steel
v 0.9591325 0.0446999 0.2957278
vt 0.9166667 1.0000000
v 1.0685932 0.1474042 0.3895194
vt 0.9583333 1.0000000
v 1.0638850 0.1344686 0.4091790
vt 0.9583333 0.0000000
v 0.9544243 0.0317642 0.3153874
vt 0.9166667 0.0000000
f 1225/1225 1226/1226 1227/1227 1228/1228
usemtl inner
v 0.9301706 0.0562829 0.3257118
vt 0.9166667 0.0000000
v 1.0338192 0.1535339 0.4145233
vt 0.9583333 0.0000000
v 1.0385274 0.1664695 0.3948637
vt 0.9583333 1.0000000
v 0.9348788 0.0692185 0.3060521
vt 0.9166667 1.0000000
f 1229/1229 1230/1230 1231/1231 1232/1232
usemtl steel
v 1.0385274 0.1664695 0.3948637
vt 0.9583333 0.0000000
v 1.1056368 0.2868909 0.4901702
vt 1.0000000 0.0000000
v 1.1394657 0.2745782 0.4901702
vt 1.0000000 1.0000000
v 1.0685932 0.1474042 0.3895194
vt 0.9583333 1.0000000
f 1233/1233 1234/1234 1235/1235 1236/1236
usemtl steel
v 1.0638850 0.1344686 0.4091790
vt 0.9583333 1.0000000
v 1.1347575 0.2616425 0.5098298
vt 1.0000000 1.0000000
v 1.1009286 0.2739552 0.5098298
vt 1.0000000 0.0000000
v 1.0338192 0.1535339 0.4145233
vt 0.9583333 0.0000000
f 1237/1237 1238/1238 1239/1239 1240/1240
usemtl steel
v 1.0685932 0.1474042 0.3895194
vt 0.9583333 1.0000000
v 1.1394657 0.2745782 0.4901702
vt 1.0000000 1.0000000
v 1.1347575 0.2616425 0.5098298
vt 1.0000000 0.0000000
v 1.0638850 0.1344686 0.4091790
vt 0.9583333 0.0000000
f 1241/1241 1242/1242 1243/1243 1244/1244
usemtl inner
v 1.0338192 0.1535339 0.4145233
vt 0.9583333 0.0000000
v 1.1009286 0.2739552 0.5098298
vt 1.0000000 0.0000000
v 1.1056368 0.2868909 0.4901702
vt 1.0000000 1.0000000
v 1.0385274 0.1664695 0.3948637
vt 0.9583333 1.0000000
f 1245/1245 1246/1246 1247/1247 1248/1248
