# Original core part; generated from core.obj geometry.
mtllib core.mtl
o ring_0
usemtl steel
v 0.9777606 0.6843513 0.5068829
vt 0.0000000 0.0000000
v 0.9873629 0.6069606 0.6154331
vt 0.0416667 0.0000000
v 1.0218670 0.6138318 0.6230656
vt 0.0416667 1.0000000
v 1.0115896 0.6966641 0.5068829
vt 0.0000000 1.0000000
f 1/1 2/2 3/3 4/4
usemtl steel
v 1.0183136 0.6781900 0.4931171
vt 0.0000000 1.0000000
v 1.0285910 0.5953578 0.6092997
vt 0.0416667 1.0000000
v 0.9940869 0.5884866 0.6016673
vt 0.0416667 0.0000000
v 0.9844846 0.6658773 0.4931171
vt 0.0000000 0.0000000
f 5/5 6/6 7/7 8/8
usemtl steel
v 1.0115896 0.6966641 0.5068829
vt 0.0000000 1.0000000
v 1.0218670 0.6138318 0.6230656
vt 0.0416667 1.0000000
v 1.0285910 0.5953578 0.6092997
vt 0.0416667 0.0000000
v 1.0183136 0.6781900 0.4931171
vt 0.0000000 0.0000000
f 9/9 10/10 11/11 12/12
usemtl inner
v 0.9844846 0.6658773 0.4931171
vt 0.0000000 0.0000000
v 0.9940869 0.5884866 0.6016673
vt 0.0416667 0.0000000
v 0.9873629 0.6069606 0.6154331
vt 0.0416667 1.0000000
v 0.9777606 0.6843513 0.5068829
vt 0.0000000 1.0000000
f 13/13 14/14 15/15 16/16
usemtl steel
v 0.9873629 0.6069606 0.6154331
vt 0.0416667 0.0000000
v 0.9635231 0.5229102 0.7165858
vt 0.0833333 0.0000000
v 0.9963510 0.5238716 0.7313306
vt 0.0833333 1.0000000
v 1.0218670 0.6138318 0.6230656
vt 0.0416667 1.0000000
f 17/17 18/18 19/19 20/20
usemtl steel
v 1.0285910 0.5953578 0.6092997
vt 0.0416667 1.0000000
v 1.0030750 0.5053975 0.7175647
vt 0.0833333 1.0000000
v 0.9702471 0.5044361 0.7028200
vt 0.0833333 0.0000000
v 0.9940869 0.5884866 0.6016673
vt 0.0416667 0.0000000
f 21/21 22/22 23/23 24/24
usemtl steel
v 1.0218670 0.6138318 0.6230656
vt 0.0416667 1.0000000
v 0.9963510 0.5238716 0.7313306
vt 0.0833333 1.0000000
v 1.0030750 0.5053975 0.7175647
vt 0.0833333 0.0000000
v 1.0285910 0.5953578 0.6092997
vt 0.0416667 0.0000000
f 25/25 26/26 27/27 28/28
usemtl inner
v 0.9940869 0.5884866 0.6016673
vt 0.0416667 0.0000000
v 0.9702471 0.5044361 0.7028200
vt 0.0833333 0.0000000
v 0.9635231 0.5229102 0.7165858
vt 0.0833333 1.0000000
v 0.9873629 0.6069606 0.6154331
vt 0.0416667 1.0000000
f 29/29 30/30 31/31 32/32
usemtl steel
v 0.9635231 0.5229102 0.7165858
vt 0.0833333 0.0000000
v 0.9078659 0.4379279 0.8034476
vt 0.1250000 0.0000000
v 0.9367804 0.4329140 0.8242998
vt 0.1250000 1.0000000
v 0.9963510 0.5238716 0.7313306
vt 0.0833333 1.0000000
f 33/33 34/34 35/35 36/36
usemtl steel
v 1.0030750 0.5053975 0.7175647
vt 0.0833333 1.0000000
v 0.9435044 0.4144400 0.8105340
vt 0.1250000 1.0000000
v 0.9145899 0.4194539 0.7896818
vt 0.1250000 0.0000000
v 0.9702471 0.5044361 0.7028200
vt 0.0833333 0.0000000
f 37/37 38/38 39/39 40/40
usemtl steel
v 0.9963510 0.5238716 0.7313306
vt 0.0833333 1.0000000
v 0.9367804 0.4329140 0.8242998
vt 0.1250000 1.0000000
v 0.9435044 0.4144400 0.8105340
vt 0.1250000 0.0000000
v 1.0030750 0.5053975 0.7175647
vt 0.0833333 0.0000000
f 41/41 42/42 43/43 44/44
usemtl inner
v 0.9702471 0.5044361 0.7028200
vt 0.0833333 0.0000000
v 0.9145899 0.4194539 0.7896818
vt 0.1250000 0.0000000
v 0.9078659 0.4379279 0.8034476
vt 0.1250000 1.0000000
v 0.9635231 0.5229102 0.7165858
vt 0.0833333 1.0000000
f 45/45 46/46 47/47 48/48
usemtl steel
v 0.9078659 0.4379279 0.8034476
vt 0.1250000 0.0000000
v 0.8241842 0.3578053 0.8700990
vt 0.1666667 0.0000000
v 0.8472147 0.3471577 0.8956377
vt 0.1666667 1.0000000
v 0.9367804 0.4329140 0.8242998
vt 0.1250000 1.0000000
f 49/49 50/50 51/51 52/52
usemtl steel
v 0.9435044 0.4144400 0.8105340
vt 0.1250000 1.0000000
v 0.8539387 0.3286837 0.8818718
vt 0.1666667 1.0000000
v 0.8309082 0.3393313 0.8563332
vt 0.1666667 0.0000000
v 0.9145899 0.4194539 0.7896818
vt 0.1250000 0.0000000
f 53/53 54/54 55/55 56/56
usemtl steel
v 0.9367804 0.4329140 0.8242998
vt 0.1250000 1.0000000
v 0.8472147 0.3471577 0.8956377
vt 0.1666667 1.0000000
v 0.8539387 0.3286837 0.8818718
vt 0.1666667 0.0000000
v 0.9435044 0.4144400 0.8105340
vt 0.1250000 0.0000000
f 57/57 58/58 59/59 60/60
usemtl inner
v 0.9145899 0.4194539 0.7896818
vt 0.1250000 0.0000000
v 0.8309082 0.3393313 0.8563332
vt 0.1666667 0.0000000
v 0.8241842 0.3578053 0.8700990
vt 0.1666667 1.0000000
v 0.9078659 0.4379279 0.8034476
vt 0.1250000 1.0000000
f 61/61 62/62 63/63 64/64
usemtl steel
v 0.8241842 0.3578053 0.8700990
vt 0.1666667 0.0000000
v 0.7181807 0.2880025 0.9119979
vt 0.2083333 0.0000000
v 0.7337579 0.2724469 0.9404825
vt 0.2083333 1.0000000
v 0.8472147 0.3471577 0.8956377
vt 0.1666667 1.0000000
f 65/65 66/66 67/67 68/68
usemtl steel
v 0.8539387 0.3286837 0.8818718
vt 0.1666667 1.0000000
v 0.7404819 0.2539729 0.9267167
vt 0.2083333 1.0000000
v 0.7249047 0.2695284 0.8982320
vt 0.2083333 0.0000000
v 0.8309082 0.3393313 0.8563332
vt 0.1666667 0.0000000
f 69/69 70/70 71/71 72/72
usemtl steel
v 0.8472147 0.3471577 0.8956377
vt 0.1666667 1.0000000
v 0.7337579 0.2724469 0.9404825
vt 0.2083333 1.0000000
v 0.7404819 0.2539729 0.9267167
vt 0.2083333 0.0000000
v 0.8539387 0.3286837 0.8818718
vt 0.1666667 0.0000000
f 73/73 74/74 75/75 76/76
usemtl inner
v 0.8309082 0.3393313 0.8563332
vt 0.1666667 0.0000000
v 0.7249047 0.2695284 0.8982320
vt 0.2083333 0.0000000
v 0.7181807 0.2880025 0.9119979
vt 0.2083333 1.0000000
v 0.8241842 0.3578053 0.8700990
vt 0.1666667 1.0000000
f 77/77 78/78 79/79 80/80
usemtl steel
v 0.7181807 0.2880025 0.9119979
vt 0.2083333 0.0000000
v 0.5970794 0.2332764 0.9262888
vt 0.2500000 0.0000000
v 0.6041417 0.2138729 0.9557782
vt 0.2500000 1.0000000
v 0.7337579 0.2724469 0.9404825
vt 0.2083333 1.0000000
f 81/81 82/82 83/83 84/84
usemtl steel
v 0.7404819 0.2539729 0.9267167
vt 0.2083333 1.0000000
v 0.6108657 0.1953989 0.9420124
vt 0.2500000 1.0000000
v 0.6038034 0.2148024 0.9125229
vt 0.2500000 0.0000000
v 0.7249047 0.2695284 0.8982320
vt 0.2083333 0.0000000
f 85/85 86/86 87/87 88/88
usemtl steel
v 0.7337579 0.2724469 0.9404825
vt 0.2083333 1.0000000
v 0.6041417 0.2138729 0.9557782
vt 0.2500000 1.0000000
v 0.6108657 0.1953989 0.9420124
vt 0.2500000 0.0000000
v 0.7404819 0.2539729 0.9267167
vt 0.2083333 0.0000000
f 89/89 90/90 91/91 92/92
usemtl inner
v 0.7249047 0.2695284 0.8982320
vt 0.2083333 0.0000000
v 0.6038034 0.2148024 0.9125229
vt 0.2500000 0.0000000
v 0.5970794 0.2332764 0.9262888
vt 0.2500000 1.0000000
v 0.7181807 0.2880025 0.9119979
vt 0.2083333 1.0000000
f 93/93 94/94 95/95 96/96
usemtl steel
v 0.5970794 0.2332764 0.9262888
vt 0.2500000 0.0000000
v 0.4691333 0.1973566 0.9119979
vt 0.2916667 0.0000000
v 0.4671994 0.1754275 0.9404825
vt 0.2916667 1.0000000
v 0.6041417 0.2138729 0.9557782
vt 0.2500000 1.0000000
f 97/97 98/98 99/99 100/100
usemtl steel
v 0.6108657 0.1953989 0.9420124
vt 0.2500000 1.0000000
v 0.4739234 0.1569535 0.9267167
vt 0.2916667 1.0000000
v 0.4758573 0.1788826 0.8982320
vt 0.2916667 0.0000000
v 0.6038034 0.2148024 0.9125229
vt 0.2500000 0.0000000
f 101/101 102/102 103/103 104/104
usemtl steel
v 0.6041417 0.2138729 0.9557782
vt 0.2500000 1.0000000
v 0.4671994 0.1754275 0.9404825
vt 0.2916667 1.0000000
v 0.4739234 0.1569535 0.9267167
vt 0.2916667 0.0000000
v 0.6108657 0.1953989 0.9420124
vt 0.2500000 0.0000000
f 105/105 106/106 107/107 108/108
usemtl inner
v 0.6038034 0.2148024 0.9125229
vt 0.2500000 0.0000000
v 0.4758573 0.1788826 0.8982320
vt 0.2916667 0.0000000
v 0.4691333 0.1973566 0.9119979
vt 0.2916667 1.0000000
v 0.5970794 0.2332764 0.9262888
vt 0.2500000 1.0000000
f 109/109 110/110 111/111 112/112
usemtl steel
v 0.4691333 0.1973566 0.9119979
vt 0.2916667 0.0000000
v 0.3430615 0.1826910 0.8700990
vt 0.3333333 0.0000000
v 0.3322632 0.1597307 0.8956377
vt 0.3333333 1.0000000
v 0.4671994 0.1754275 0.9404825
vt 0.2916667 1.0000000
f 113/113 114/114 115/115 116/116
usemtl steel
v 0.4739234 0.1569535 0.9267167
vt 0.2916667 1.0000000
v 0.3389872 0.1412567 0.8818718
vt 0.3333333 1.0000000
v 0.3497855 0.1642169 0.8563332
vt 0.3333333 0.0000000
v 0.4758573 0.1788826 0.8982320
vt 0.2916667 0.0000000
f 117/117 118/118 119/119 120/120
usemtl steel
v 0.4671994 0.1754275 0.9404825
vt 0.2916667 1.0000000
v 0.3322632 0.1597307 0.8956377
vt 0.3333333 1.0000000
v 0.3389872 0.1412567 0.8818718
vt 0.3333333 0.0000000
v 0.4739234 0.1569535 0.9267167
vt 0.2916667 0.0000000
f 121/121 122/122 123/123 124/124
usemtl inner
v 0.4758573 0.1788826 0.8982320
vt 0.2916667 0.0000000
v 0.3497855 0.1642169 0.8563332
vt 0.3333333 0.0000000
v 0.3430615 0.1826910 0.8700990
vt 0.3333333 1.0000000
v 0.4691333 0.1973566 0.9119979
vt 0.2916667 1.0000000
f 125/125 126/126 127/127 128/128
usemtl steel
v 0.3430615 0.1826910 0.8700990
vt 0.3333333 0.0000000
v 0.2274558 0.1902789 0.8034476
vt 0.3750000 0.0000000
v 0.2085289 0.1678521 0.8242998
vt 0.3750000 1.0000000
v 0.3322632 0.1597307 0.8956377
vt 0.3333333 1.0000000
f 129/129 130/130 131/131 132/132
usemtl steel
v 0.3389872 0.1412567 0.8818718
vt 0.3333333 1.0000000
v 0.2152529 0.1493781 0.8105340
vt 0.3750000 1.0000000
v 0.2341798 0.1718049 0.7896818
vt 0.3750000 0.0000000
v 0.3497855 0.1642169 0.8563332
vt 0.3333333 0.0000000
f 133/133 134/134 135/135 136/136
usemtl steel
v 0.3322632 0.1597307 0.8956377
vt 0.3333333 1.0000000
v 0.2085289 0.1678521 0.8242998
vt 0.3750000 1.0000000
v 0.2152529 0.1493781 0.8105340
vt 0.3750000 0.0000000
v 0.3389872 0.1412567 0.8818718
vt 0.3333333 0.0000000
f 137/137 138/138 139/139 140/140
usemtl inner
v 0.3497855 0.1642169 0.8563332
vt 0.3333333 0.0000000
v 0.2341798 0.1718049 0.7896818
vt 0.3750000 0.0000000
v 0.2274558 0.1902789 0.8034476
vt 0.3750000 1.0000000
v 0.3430615 0.1826910 0.8700990
vt 0.3333333 1.0000000
f 141/141 142/142 143/143 144/144
usemtl steel
v 0.2274558 0.1902789 0.8034476
vt 0.3750000 0.0000000
v 0.1301943 0.2196033 0.7165858
vt 0.4166667 0.0000000
v 0.1044287 0.1992384 0.7313306
vt 0.4166667 1.0000000
v 0.2085289 0.1678521 0.8242998
vt 0.3750000 1.0000000
f 145/145 146/146 147/147 148/148
usemtl steel
v 0.2152529 0.1493781 0.8105340
vt 0.3750000 1.0000000
v 0.1111527 0.1807644 0.7175647
vt 0.4166667 1.0000000
v 0.1369183 0.2011292 0.7028200
vt 0.4166667 0.0000000
v 0.2341798 0.1718049 0.7896818
vt 0.3750000 0.0000000
f 149/149 150/150 151/151 152/152
usemtl steel
v 0.2085289 0.1678521 0.8242998
vt 0.3750000 1.0000000
v 0.1044287 0.1992384 0.7313306
vt 0.4166667 1.0000000
v 0.1111527 0.1807644 0.7175647
vt 0.4166667 0.0000000
v 0.2152529 0.1493781 0.8105340
vt 0.3750000 0.0000000
f 153/153 154/154 155/155 156/156
usemtl inner
v 0.2341798 0.1718049 0.7896818
vt 0.3750000 0.0000000
v 0.1369183 0.2011292 0.7028200
vt 0.4166667 0.0000000
v 0.1301943 0.2196033 0.7165858
vt 0.4166667 1.0000000
v 0.2274558 0.1902789 0.8034476
vt 0.3750000 1.0000000
f 157/157 158/158 159/159 160/160
usemtl steel
v 0.1301943 0.2196033 0.7165858
vt 0.4166667 0.0000000
v 0.0579054 0.2686657 0.6154331
vt 0.4583333 0.0000000
v 0.0270570 0.2517505 0.6230656
vt 0.4583333 1.0000000
v 0.1044287 0.1992384 0.7313306
vt 0.4166667 1.0000000
f 161/161 162/162 163/163 164/164
usemtl steel
v 0.1111527 0.1807644 0.7175647
vt 0.4166667 1.0000000
v 0.0337810 0.2332765 0.6092997
vt 0.4583333 1.0000000
v 0.0646294 0.2501917 0.6016673
vt 0.4583333 0.0000000
v 0.1369183 0.2011292 0.7028200
vt 0.4166667 0.0000000
f 165/165 166/166 167/167 168/168
usemtl steel
v 0.1044287 0.1992384 0.7313306
vt 0.4166667 1.0000000
v 0.0270570 0.2517505 0.6230656
vt 0.4583333 1.0000000
v 0.0337810 0.2332765 0.6092997
vt 0.4583333 0.0000000
v 0.1111527 0.1807644 0.7175647
vt 0.4166667 0.0000000
f 169/169 170/170 171/171 172/172
usemtl inner
v 0.1369183 0.2011292 0.7028200
vt 0.4166667 0.0000000
v 0.0646294 0.2501917 0.6016673
vt 0.4583333 0.0000000
v 0.0579054 0.2686657 0.6154331
vt 0.4583333 1.0000000
v 0.1301943 0.2196033 0.7165858
vt 0.4166667 1.0000000
f 173/173 174/174 175/175 176/176
usemtl steel
v 0.0579054 0.2686657 0.6154331
vt 0.4583333 0.0000000
v 0.0155154 0.3341227 0.5068829
vt 0.5000000 0.0000000
v -0.0183136 0.3218100 0.5068829
vt 0.5000000 1.0000000
v 0.0270570 0.2517505 0.6230656
vt 0.4583333 1.0000000
f 177/177 178/178 179/179 180/180
usemtl steel
v 0.0337810 0.2332765 0.6092997
vt 0.4583333 1.0000000
v -0.0115896 0.3033359 0.4931171
vt 0.5000000 1.0000000
v 0.0222394 0.3156487 0.4931171
vt 0.5000000 0.0000000
v 0.0646294 0.2501917 0.6016673
vt 0.4583333 0.0000000
f 181/181 182/182 183/183 184/184
usemtl steel
v 0.0270570 0.2517505 0.6230656
vt 0.4583333 1.0000000
v -0.0183136 0.3218100 0.5068829
vt 0.5000000 1.0000000
v -0.0115896 0.3033359 0.4931171
vt 0.5000000 0.0000000
v 0.0337810 0.2332765 0.6092997
vt 0.4583333 0.0000000
f 185/185 186/186 187/187 188/188
usemtl inner
v 0.0646294 0.2501917 0.6016673
vt 0.4583333 0.0000000
v 0.0222394 0.3156487 0.4931171
vt 0.5000000 0.0000000
v 0.0155154 0.3341227 0.5068829
vt 0.5000000 1.0000000
v 0.0579054 0.2686657 0.6154331
vt 0.4583333 1.0000000
f 189/189 190/190 191/191 192/192
usemtl steel
v 0.0155154 0.3341227 0.5068829
vt 0.5000000 0.0000000
v 0.0059131 0.4115134 0.3983327
vt 0.5416667 0.0000000
v -0.0285910 0.4046422 0.3907003
vt 0.5416667 1.0000000
v -0.0183136 0.3218100 0.5068829
vt 0.5000000 1.0000000
f 193/193 194/194 195/195 196/196
usemtl steel
v -0.0115896 0.3033359 0.4931171
vt 0.5000000 1.0000000
v -0.0218670 0.3861682 0.3769344
vt 0.5416667 1.0000000
v 0.0126371 0.3930394 0.3845669
vt 0.5416667 0.0000000
v 0.0222394 0.3156487 0.4931171
vt 0.5000000 0.0000000
f 197/197 198/198 199/199 200/200
usemtl steel
v -0.0183136 0.3218100 0.5068829
vt 0.5000000 1.0000000
v -0.0285910 0.4046422 0.3907003
vt 0.5416667 1.0000000
v -0.0218670 0.3861682 0.3769344
vt 0.5416667 0.0000000
v -0.0115896 0.3033359 0.4931171
vt 0.5000000 0.0000000
f 201/201 202/202 203/203 204/204
usemtl inner
v 0.0222394 0.3156487 0.4931171
vt 0.5000000 0.0000000
v 0.0126371 0.3930394 0.3845669
vt 0.5416667 0.0000000
v 0.0059131 0.4115134 0.3983327
vt 0.5416667 1.0000000
v 0.0155154 0.3341227 0.5068829
vt 0.5000000 1.0000000
f 205/205 206/206 207/207 208/208
usemtl steel
v 0.0059131 0.4115134 0.3983327
vt 0.5416667 0.0000000
v 0.0297529 0.4955639 0.2971800
vt 0.5833333 0.0000000
v -0.0030750 0.4946025 0.2824353
vt 0.5833333 1.0000000
v -0.0285910 0.4046422 0.3907003
vt 0.5416667 1.0000000
f 209/209 210/210 211/211 212/212
usemtl steel
v -0.0218670 0.3861682 0.3769344
vt 0.5416667 1.0000000
v 0.0036490 0.4761284 0.2686694
vt 0.5833333 1.0000000
v 0.0364769 0.4770898 0.2834142
vt 0.5833333 0.0000000
v 0.0126371 0.3930394 0.3845669
vt 0.5416667 0.0000000
f 213/213 214/214 215/215 216/216
usemtl steel
v -0.0285910 0.4046422 0.3907003
vt 0.5416667 1.0000000
v -0.0030750 0.4946025 0.2824353
vt 0.5833333 1.0000000
v 0.0036490 0.4761284 0.2686694
vt 0.5833333 0.0000000
v -0.0218670 0.3861682 0.3769344
vt 0.5416667 0.0000000
f 217/217 218/218 219/219 220/220
usemtl inner
v 0.0126371 0.3930394 0.3845669
vt 0.5416667 0.0000000
v 0.0364769 0.4770898 0.2834142
vt 0.5833333 0.0000000
v 0.0297529 0.4955639 0.2971800
vt 0.5833333 1.0000000
v 0.0059131 0.4115134 0.3983327
vt 0.5416667 1.0000000
f 221/221 222/222 223/223 224/224
usemtl steel
v 0.0297529 0.4955639 0.2971800
vt 0.5833333 0.0000000
v 0.0854101 0.5805461 0.2103182
vt 0.6250000 0.0000000
v 0.0564956 0.5855600 0.1894660
vt 0.6250000 1.0000000
v -0.0030750 0.4946025 0.2824353
vt 0.5833333 1.0000000
f 225/225 226/226 227/227 228/228
usemtl steel
v 0.0036490 0.4761284 0.2686694
vt 0.5833333 1.0000000
v 0.0632196 0.5670860 0.1757002
vt 0.6250000 1.0000000
v 0.0921341 0.5620721 0.1965524
vt 0.6250000 0.0000000
v 0.0364769 0.4770898 0.2834142
vt 0.5833333 0.0000000
f 229/229 230/230 231/231 232/232
usemtl steel
v -0.0030750 0.4946025 0.2824353
vt 0.5833333 1.0000000
v 0.0564956 0.5855600 0.1894660
vt 0.6250000 1.0000000
v 0.0632196 0.5670860 0.1757002
vt 0.6250000 0.0000000
v 0.0036490 0.4761284 0.2686694
vt 0.5833333 0.0000000
f 233/233 234/234 235/235 236/236
usemtl inner
v 0.0364769 0.4770898 0.2834142
vt 0.5833333 0.0000000
v 0.0921341 0.5620721 0.1965524
vt 0.6250000 0.0000000
v 0.0854101 0.5805461 0.2103182
vt 0.6250000 1.0000000
v 0.0297529 0.4955639 0.2971800
vt 0.5833333 1.0000000
f 237/237 238/238 239/239 240/240
usemtl steel
v 0.0854101 0.5805461 0.2103182
vt 0.6250000 0.0000000
v 0.1690918 0.6606687 0.1436668
vt 0.6666667 0.0000000
v 0.1460613 0.6713163 0.1181282
vt 0.6666667 1.0000000
v 0.0564956 0.5855600 0.1894660
vt 0.6250000 1.0000000
f 241/241 242/242 243/243 244/244
usemtl steel
v 0.0632196 0.5670860 0.1757002
vt 0.6250000 1.0000000
v 0.1527853 0.6528423 0.1043623
vt 0.6666667 1.0000000
v 0.1758158 0.6421947 0.1299010
vt 0.6666667 0.0000000
v 0.0921341 0.5620721 0.1965524
vt 0.6250000 0.0000000
f 245/245 246/246 247/247 248/248
usemtl steel
v 0.0564956 0.5855600 0.1894660
vt 0.6250000 1.0000000
v 0.1460613 0.6713163 0.1181282
vt 0.6666667 1.0000000
v 0.1527853 0.6528423 0.1043623
vt 0.6666667 0.0000000
v 0.0632196 0.5670860 0.1757002
vt 0.6250000 0.0000000
f 249/249 250/250 251/251 252/252
usemtl inner
v 0.0921341 0.5620721 0.1965524
vt 0.6250000 0.0000000
v 0.1758158 0.6421947 0.1299010
vt 0.6666667 0.0000000
v 0.1690918 0.6606687 0.1436668
vt 0.6666667 1.0000000
v 0.0854101 0.5805461 0.2103182
vt 0.6250000 1.0000000
f 253/253 254/254 255/255 256/256
usemtl steel
v 0.1690918 0.6606687 0.1436668
vt 0.6666667 0.0000000
v 0.2750953 0.7304716 0.1017680
vt 0.7083333 0.0000000
v 0.2595181 0.7460271 0.0732833
vt 0.7083333 1.0000000
v 0.1460613 0.6713163 0.1181282
vt 0.6666667 1.0000000
f 257/257 258/258 259/259 260/260
usemtl steel
v 0.1527853 0.6528423 0.1043623
vt 0.6666667 1.0000000
v 0.2662421 0.7275531 0.0595175
vt 0.7083333 1.0000000
v 0.2818193 0.7119975 0.0880021
vt 0.7083333 0.0000000
v 0.1758158 0.6421947 0.1299010
vt 0.6666667 0.0000000
f 261/261 262/262 263/263 264/264
usemtl steel
v 0.1460613 0.6713163 0.1181282
vt 0.6666667 1.0000000
v 0.2595181 0.7460271 0.0732833
vt 0.7083333 1.0000000
v 0.2662421 0.7275531 0.0595175
vt 0.7083333 0.0000000
v 0.1527853 0.6528423 0.1043623
vt 0.6666667 0.0000000
f 265/265 266/266 267/267 268/268
usemtl inner
v 0.1758158 0.6421947 0.1299010
vt 0.6666667 0.0000000
v 0.2818193 0.7119975 0.0880021
vt 0.7083333 0.0000000
v 0.2750953 0.7304716 0.1017680
vt 0.7083333 1.0000000
v 0.1690918 0.6606687 0.1436668
vt 0.6666667 1.0000000
f 269/269 270/270 271/271 272/272
usemtl steel
v 0.2750953 0.7304716 0.1017680
vt 0.7083333 0.0000000
v 0.3961966 0.7851976 0.0874771
vt 0.7500000 0.0000000
v 0.3891343 0.8046011 0.0579876
vt 0.7500000 1.0000000
v 0.2595181 0.7460271 0.0732833
vt 0.7083333 1.0000000
f 273/273 274/274 275/275 276/276
usemtl steel
v 0.2662421 0.7275531 0.0595175
vt 0.7083333 1.0000000
v 0.3958583 0.7861271 0.0442218
vt 0.7500000 1.0000000
v 0.4029206 0.7667236 0.0737112
vt 0.7500000 0.0000000
v 0.2818193 0.7119975 0.0880021
vt 0.7083333 0.0000000
f 277/277 278/278 279/279 280/280
usemtl steel
v 0.2595181 0.7460271 0.0732833
vt 0.7083333 1.0000000
v 0.3891343 0.8046011 0.0579876
vt 0.7500000 1.0000000
v 0.3958583 0.7861271 0.0442218
vt 0.7500000 0.0000000
v 0.2662421 0.7275531 0.0595175
vt 0.7083333 0.0000000
f 281/281 282/282 283/283 284/284
usemtl inner
v 0.2818193 0.7119975 0.0880021
vt 0.7083333 0.0000000
v 0.4029206 0.7667236 0.0737112
vt 0.7500000 0.0000000
v 0.3961966 0.7851976 0.0874771
vt 0.7500000 1.0000000
v 0.2750953 0.7304716 0.1017680
vt 0.7083333 1.0000000
f 285/285 286/286 287/287 288/288
usemtl steel
v 0.3961966 0.7851976 0.0874771
vt 0.7500000 0.0000000
v 0.5241427 0.8211174 0.1017680
vt 0.7916667 0.0000000
v 0.5260766 0.8430465 0.0732833
vt 0.7916667 1.0000000
v 0.3891343 0.8046011 0.0579876
vt 0.7500000 1.0000000
f 289/289 290/290 291/291 292/292
usemtl steel
v 0.3958583 0.7861271 0.0442218
vt 0.7500000 1.0000000
v 0.5328006 0.8245725 0.0595175
vt 0.7916667 1.0000000
v 0.5308667 0.8026434 0.0880021
vt 0.7916667 0.0000000
v 0.4029206 0.7667236 0.0737112
vt 0.7500000 0.0000000
f 293/293 294/294 295/295 296/296
usemtl steel
v 0.3891343 0.8046011 0.0579876
vt 0.7500000 1.0000000
v 0.5260766 0.8430465 0.0732833
vt 0.7916667 1.0000000
v 0.5328006 0.8245725 0.0595175
vt 0.7916667 0.0000000
v 0.3958583 0.7861271 0.0442218
vt 0.7500000 0.0000000
f 297/297 298/298 299/299 300/300
usemtl inner
v 0.4029206 0.7667236 0.0737112
vt 0.7500000 0.0000000
v 0.5308667 0.8026434 0.0880021
vt 0.7916667 0.0000000
v 0.5241427 0.8211174 0.1017680
vt 0.7916667 1.0000000
v 0.3961966 0.7851976 0.0874771
vt 0.7500000 1.0000000
f 301/301 302/302 303/303 304/304
usemtl steel
v 0.5241427 0.8211174 0.1017680
vt 0.7916667 0.0000000
v 0.6502145 0.8357831 0.1436668
vt 0.8333333 0.0000000
v 0.6610128 0.8587433 0.1181282
vt 0.8333333 1.0000000
v 0.5260766 0.8430465 0.0732833
vt 0.7916667 1.0000000
f 305/305 306/306 307/307 308/308
usemtl steel
v 0.5328006 0.8245725 0.0595175
vt 0.7916667 1.0000000
v 0.6677368 0.8402693 0.1043623
vt 0.8333333 1.0000000
v 0.6569385 0.8173090 0.1299010
vt 0.8333333 0.0000000
v 0.5308667 0.8026434 0.0880021
vt 0.7916667 0.0000000
f 309/309 310/310 311/311 312/312
usemtl steel
v 0.5260766 0.8430465 0.0732833
vt 0.7916667 1.0000000
v 0.6610128 0.8587433 0.1181282
vt 0.8333333 1.0000000
v 0.6677368 0.8402693 0.1043623
vt 0.8333333 0.0000000
v 0.5328006 0.8245725 0.0595175
vt 0.7916667 0.0000000
f 313/313 314/314 315/315 316/316
usemtl inner
v 0.5308667 0.8026434 0.0880021
vt 0.7916667 0.0000000
v 0.6569385 0.8173090 0.1299010
vt 0.8333333 0.0000000
v 0.6502145 0.8357831 0.1436668
vt 0.8333333 1.0000000
v 0.5241427 0.8211174 0.1017680
vt 0.7916667 1.0000000
f 317/317 318/318 319/319 320/320
usemtl steel
v 0.6502145 0.8357831 0.1436668
vt 0.8333333 0.0000000
v 0.7658202 0.8281951 0.2103182
vt 0.8750000 0.0000000
v 0.7847471 0.8506219 0.1894660
vt 0.8750000 1.0000000
v 0.6610128 0.8587433 0.1181282
vt 0.8333333 1.0000000
f 321/321 322/322 323/323 324/324
usemtl steel
v 0.6677368 0.8402693 0.1043623
vt 0.8333333 1.0000000
v 0.7914711 0.8321479 0.1757002
vt 0.8750000 1.0000000
v 0.7725442 0.8097211 0.1965524
vt 0.8750000 0.0000000
v 0.6569385 0.8173090 0.1299010
vt 0.8333333 0.0000000
f 325/325 326/326 327/327 328/328
usemtl steel
v 0.6610128 0.8587433 0.1181282
vt 0.8333333 1.0000000
v 0.7847471 0.8506219 0.1894660
vt 0.8750000 1.0000000
v 0.7914711 0.8321479 0.1757002
vt 0.8750000 0.0000000
v 0.6677368 0.8402693 0.1043623
vt 0.8333333 0.0000000
f 329/329 330/330 331/331 332/332
usemtl inner
v 0.6569385 0.8173090 0.1299010
vt 0.8333333 0.0000000
v 0.7725442 0.8097211 0.1965524
vt 0.8750000 0.0000000
v 0.7658202 0.8281951 0.2103182
vt 0.8750000 1.0000000
v 0.6502145 0.8357831 0.1436668
vt 0.8333333 1.0000000
f 333/333 334/334 335/335 336/336
usemtl steel
v 0.7658202 0.8281951 0.2103182
vt 0.8750000 0.0000000
v 0.8630817 0.7988708 0.2971800
vt 0.9166667 0.0000000
v 0.8888473 0.8192356 0.2824353
vt 0.9166667 1.0000000
v 0.7847471 0.8506219 0.1894660
vt 0.8750000 1.0000000
f 337/337 338/338 339/339 340/340
usemtl steel
v 0.7914711 0.8321479 0.1757002
vt 0.8750000 1.0000000
v 0.8955713 0.8007616 0.2686694
vt 0.9166667 1.0000000
v 0.8698057 0.7803967 0.2834142
vt 0.9166667 0.0000000
v 0.7725442 0.8097211 0.1965524
vt 0.8750000 0.0000000
f 341/341 342/342 343/343 344/344
usemtl steel
v 0.7847471 0.8506219 0.1894660
vt 0.8750000 1.0000000
v 0.8888473 0.8192356 0.2824353
vt 0.9166667 1.0000000
v 0.8955713 0.8007616 0.2686694
vt 0.9166667 0.0000000
v 0.7914711 0.8321479 0.1757002
vt 0.8750000 0.0000000
f 345/345 346/346 347/347 348/348
usemtl inner
v 0.7725442 0.8097211 0.1965524
vt 0.8750000 0.0000000
v 0.8698057 0.7803967 0.2834142
vt 0.9166667 0.0000000
v 0.8630817 0.7988708 0.2971800
vt 0.9166667 1.0000000
v 0.7658202 0.8281951 0.2103182
vt 0.8750000 1.0000000
f 349/349 350/350 351/351 352/352
usemtl steel
v 0.8630817 0.7988708 0.2971800
vt 0.9166667 0.0000000
v 0.9353706 0.7498083 0.3983327
vt 0.9583333 0.0000000
v 0.9662190 0.7667235 0.3907003
vt 0.9583333 1.0000000
v 0.8888473 0.8192356 0.2824353
vt 0.9166667 1.0000000
f 353/353 354/354 355/355 356/356
usemtl steel
v 0.8955713 0.8007616 0.2686694
vt 0.9166667 1.0000000
v 0.9729430 0.7482495 0.3769344
vt 0.9583333 1.0000000
v 0.9420946 0.7313343 0.3845669
vt 0.9583333 0.0000000
v 0.8698057 0.7803967 0.2834142
vt 0.9166667 0.0000000
f 357/357 358/358 359/359 360/360
usemtl steel
v 0.8888473 0.8192356 0.2824353
vt 0.9166667 1.0000000
v 0.9662190 0.7667235 0.3907003
vt 0.9583333 1.0000000
v 0.9729430 0.7482495 0.3769344
vt 0.9583333 0.0000000
v 0.8955713 0.8007616 0.2686694
vt 0.9166667 0.0000000
f 361/361 362/362 363/363 364/364
usemtl inner
v 0.8698057 0.7803967 0.2834142
vt 0.9166667 0.0000000
v 0.9420946 0.7313343 0.3845669
vt 0.9583333 0.0000000
v 0.9353706 0.7498083 0.3983327
vt 0.9583333 1.0000000
v 0.8630817 0.7988708 0.2971800
vt 0.9166667 1.0000000
f 365/365 366/366 367/367 368/368
usemtl steel
v 0.9353706 0.7498083 0.3983327
vt 0.9583333 0.0000000
v 0.9777606 0.6843513 0.5068829
vt 1.0000000 0.0000000
v 1.0115896 0.6966641 0.5068829
vt 1.0000000 1.0000000
v 0.9662190 0.7667235 0.3907003
vt 0.9583333 1.0000000
f 369/369 370/370 371/371 372/372
usemtl steel
v 0.9729430 0.7482495 0.3769344
vt 0.9583333 1.0000000
v 1.0183136 0.6781900 0.4931171
vt 1.0000000 1.0000000
v 0.9844846 0.6658773 0.4931171
vt 1.0000000 0.0000000
v 0.9420946 0.7313343 0.3845669
vt 0.9583333 0.0000000
f 373/373 374/374 375/375 376/376
usemtl steel
v 0.9662190 0.7667235 0.3907003
vt 0.9583333 1.0000000
v 1.0115896 0.6966641 0.5068829
vt 1.0000000 1.0000000
v 1.0183136 0.6781900 0.4931171
vt 1.0000000 0.0000000
v 0.9729430 0.7482495 0.3769344
vt 0.9583333 0.0000000
f 377/377 378/378 379/379 380/380
usemtl inner
v 0.9420946 0.7313343 0.3845669
vt 0.9583333 0.0000000
v 0.9844846 0.6658773 0.4931171
vt 1.0000000 0.0000000
v 0.9777606 0.6843513 0.5068829
vt 1.0000000 1.0000000
v 0.9353706 0.7498083 0.3983327
vt 0.9583333 1.0000000
f 381/381 382/382 383/383 384/384
